<svg fill="none" height="360" viewBox="0 0 360 360" width="360" xmlns="http://www.w3.org/2000/svg"><path d="m0 132.02c0-46.6982 0-70.0474 9.2321-87.8199 7.7798-14.9767 19.9913-27.1882 34.968-34.968 17.7725-9.2321 41.1217-9.2321 87.8199-9.2321h95.96c46.698 0 70.047 0 87.82 9.2321 14.977 7.7798 27.188 19.9913 34.968 34.968 9.232 17.7725 9.232 41.1217 9.232 87.8199v95.96c0 46.698 0 70.047-9.232 87.82-7.78 14.977-19.991 27.188-34.968 34.968-17.773 9.232-41.122 9.232-87.82 9.232h-95.96c-46.6982 0-70.0474 0-87.8199-9.232-14.9767-7.78-27.1882-19.991-34.968-34.968-9.2321-17.773-9.2321-41.122-9.2321-87.82z" fill="#000"/><path d="m292.153 254.998c-4.385 10.132-9.577 19.458-15.591 28.033-8.199 11.689-14.912 19.78-20.085 24.273-8.019 7.375-16.612 11.152-25.813 11.367-6.605 0-14.571-1.88-23.843-5.693-9.303-3.795-17.853-5.674-25.67-5.674-8.198 0-16.991 1.879-26.396 5.674-9.42 3.813-17.008 5.8-22.809 5.997-8.824.376-17.618-3.508-26.397-11.671-5.6027-4.887-12.6108-13.265-21.0062-25.133-9.0076-12.673-16.4131-27.37-22.2148-44.125-6.2133-18.098-9.328-35.622-9.328-52.589 0-19.434 4.1995-36.197 12.611-50.243 6.6108-11.283 15.4054-20.183 26.4125-26.717 11.0075-6.534 22.9005-9.8633 35.7085-10.0763 7.008 0 16.198 2.1673 27.619 6.4283 11.388 4.274 18.701 6.442 21.907 6.442 2.397 0 10.52-2.534 24.291-7.588 13.023-4.6862 24.014-6.6267 33.018-5.8623 24.398 1.9691 42.729 11.5873 54.919 28.9153-21.821 13.221-32.615 31.739-32.4 55.495.197 18.504 6.909 33.903 20.102 46.129 5.979 5.674 12.656 10.06 20.085 13.175-1.611 4.672-3.312 9.147-5.12 13.443zm-55.957-220.1964c0 14.5033-5.299 28.045-15.86 40.5791-12.746 14.9005-28.162 23.5108-44.879 22.1521-.213-1.7399-.337-3.5712-.337-5.4955 0-13.9232 6.061-28.8237 16.825-41.0069 5.374-6.1686 12.208-11.2977 20.496-15.3892 8.271-4.0306 16.093-6.2596 23.45-6.6412.215 1.9388.305 3.8778.305 5.8014z" fill="#fff"/></svg>