<svg fill="none" height="360" viewBox="0 0 360 360" width="360" xmlns="http://www.w3.org/2000/svg"><path d="m0 132.02c0-46.6982 0-70.0474 9.2321-87.8199 7.7798-14.9767 19.9913-27.1882 34.968-34.968 17.7725-9.2321 41.1217-9.2321 87.8199-9.2321h95.96c46.698 0 70.047 0 87.82 9.2321 14.977 7.7798 27.188 19.9913 34.968 34.968 9.232 17.7725 9.232 41.1217 9.232 87.8199v95.96c0 46.698 0 70.047-9.232 87.82-7.78 14.977-19.991 27.188-34.968 34.968-17.773 9.232-41.122 9.232-87.82 9.232h-95.96c-46.6982 0-70.0474 0-87.8199-9.232-14.9767-7.78-27.1882-19.991-34.968-34.968-9.2321-17.773-9.2321-41.122-9.2321-87.82z" fill="#ed1c24"/><g fill="#fff"><path d="m204.241 56h68.759v164.615z"/><path d="m155.799 56h-68.799v164.615z"/><path d="m149.955 187.495 30.073-70.839 43.805 103.95h-28.702l-13.104-33.111z"/><path d="m109.154 277.637-2.247-13.309c-.641-3.836-1.46-9.831-2.085-13.984h-.243c-.657 4.184-1.574 10.349-2.247 14.016l-2.4178 13.277zm-10.4468 8.673-2.92 14.77h-10.7872l13.456-61.45h13.221l12.223 61.45h-10.844l-2.855-14.77z"/><path d="m148.453 273.632c0-.82 0-1.777-.162-2.654-.43-3.033-2.044-5.766-4.64-5.766-4.453 0-6.091 6.416-6.091 13.919 0 8.621 2.335 13.529 5.937 13.529 1.647 0 3.544-.844 4.575-4.462.251-.722.381-1.687.381-2.814zm11.072-35.632v50.337c0 3.989.203 8.898.366 12.734h-9.563l-.624-5.119h-.227c-1.606 3.156-5.102 5.84-9.28 5.84-9.157 0-13.698-10.106-13.698-22.865 0-15.548 6.771-23.108 14.153-23.108 3.861 0 6.359 1.89 7.617 4.624h.186v-22.443z"/><path d="m182.584 293.301c4.226 0 5.272-7.965 5.272-14.56 0-6.269-1.046-14.439-5.458-14.439-4.673 0-5.654 8.17-5.654 14.439 0 7.568 1.233 14.56 5.742 14.56zm-.211 8.492c-10.203 0-16.603-8.192-16.603-22.856 0-16.004 8.216-23.118 16.863-23.118 10.066 0 16.376 8.591 16.376 22.858 0 18.331-9.887 23.116-16.546 23.116z"/><path d="m216.269 285.173c0 1.111.203 2.15.439 2.846 1.111 3.725 2.993 4.641 4.501 4.641 4.283 0 6.011-5.427 6.011-14.106 0-7.901-1.826-13.342-6.06-13.342-2.1 0-3.869 2.28-4.477 4.729-.212.77-.414 1.97-.414 2.798zm-11.073-47.173h11.072v23.197h.178c2.181-3.423 5.086-5.378 9.303-5.378 8.347 0 12.54 9.49 12.54 21.9 0 15.68-6.254 24.073-14.357 24.073-3.861 0-6.432-1.712-8.752-6.05h-.234l-.615 5.329h-9.507c.163-3.69.372-8.745.372-12.734z"/><path d="m264.822 274.564c.057-6.253-1.777-10.635-5.289-10.635-4.007 0-5.71 5.866-5.831 10.635zm-11.161 7.829c.13 8.053 4.364 10.674 9.62 10.674 3.333 0 6.188-.74 8.297-1.533l1.493 7.965c-2.937 1.264-7.471 2.059-11.819 2.059-11.882 0-18.372-8.12-18.372-21.989 0-14.883 7.528-23.823 17.358-23.823 9.498 0 14.762 7.901 14.762 20.797 0 2.953-.122 4.616-.317 5.912z"/></g></svg>