<svg width="360" height="360" viewBox="0 0 360 360" fill="none" xmlns="http://www.w3.org/2000/svg">
<path d="M0 132.02C0 85.3218 0 61.9726 9.2321 44.2001C17.0119 29.2234 29.2234 17.0119 44.2001 9.2321C61.9726 0 85.3218 0 132.02 0H227.98C274.678 0 298.027 0 315.8 9.2321C330.777 17.0119 342.988 29.2234 350.768 44.2001C360 61.9726 360 85.3218 360 132.02V227.98C360 274.678 360 298.027 350.768 315.8C342.988 330.777 330.777 342.988 315.8 350.768C298.027 360 274.678 360 227.98 360H132.02C85.3218 360 61.9726 360 44.2001 350.768C29.2234 342.988 17.0119 330.777 9.2321 315.8C0 298.027 0 274.678 0 227.98V132.02Z" fill="#C22823"/>
<path d="M169.035 139.839H228.931L225.714 164.196H198.447L197.221 172.621H222.191L219.127 195.753H194.157L192.932 204.484H221.118L217.901 228.841H157.086L169.035 139.839ZM230.003 228.841H270.904C291.738 228.841 305.525 239.411 302.614 261.47C300.163 279.7 287.295 290.882 269.219 290.882H252.675L248.998 317.69H217.901L230.003 228.841ZM255.739 268.67H258.956C264.624 268.67 270.904 267.751 271.823 260.551C272.742 253.658 266.155 253.198 260.947 253.198H257.883L255.739 268.67Z" fill="white"/>
<path d="M93.1608 140.002H59L101.892 51H137.585L157.346 140.002H123.186L121.654 128.972H97.2968L93.1608 140.002ZM118.896 107.833L117.211 92.2074C116.752 88.3777 116.752 84.5481 116.598 80.7184H115.373L105.875 107.833H118.896Z" fill="white"/>
</svg>
