<svg fill="none" height="360" viewBox="0 0 360 360" width="360" xmlns="http://www.w3.org/2000/svg"><path d="m0 132.02c0-46.6982 0-70.0474 9.2321-87.8199 7.7798-14.9767 19.9913-27.1882 34.968-34.968 17.7725-9.2321 41.1217-9.2321 87.8199-9.2321h95.96c46.698 0 70.047 0 87.82 9.2321 14.977 7.7798 27.188 19.9913 34.968 34.968 9.232 17.7725 9.232 41.1217 9.232 87.8199v95.96c0 46.698 0 70.047-9.232 87.82-7.78 14.977-19.991 27.188-34.968 34.968-17.773 9.232-41.122 9.232-87.82 9.232h-95.96c-46.6982 0-70.0474 0-87.8199-9.232-14.9767-7.78-27.1882-19.991-34.968-34.968-9.2321-17.773-9.2321-41.122-9.2321-87.82z" fill="#000"/><path d="m52.2176 255.25c24.6605 28.723 57.7344 49.322 94.5804 58.896 33.074 6.672 67.599 3.191 98.352-10.735 15.377-6.963 29.303-16.827 41.198-29.012 1.16-1.741.58-4.062-1.161-5.223-1.45-.58-3.481-.58-4.932 0-22.63 11.605-47 19.729-71.951 24.081-26.401 2.901-53.092 1.16-78.623-5.513-26.111-8.703-51.0621-21.179-73.6918-37.136-1.7407-.58-3.4815.291-3.7716 2.031-.2901 1.161-.2901 2.031 0 2.611z" fill="#f39700"/><path d="m261.397 261.343c9.865-2.031 20.019-2.321 30.173-1.45h.29c3.192.87 5.223 4.061 4.642 7.543-2.031 9.864-5.222 19.438-9.284 28.432-.29.87.291 1.741 1.161 2.031.58.29.87 0 1.451-.29 12.185-9.574 19.148-24.081 19.148-39.747.29-4.062-2.321-7.544-6.383-8.124-14.796-2.611-29.883.58-42.648 8.704-.581.58-.871 1.451-.29 2.321.58.58 1.16.87 1.74.58z" fill="#f39700"/><path d="m210.334 222.176c-5.222 5.803-11.314 11.025-17.987 15.667-12.476 7.253-26.692 11.315-41.198 11.605-12.765-.29-25.241-4.642-35.395-12.185-17.1172-15.667-23.7901-39.457-16.8271-61.797 6.3831-19.438 21.1791-35.105 40.3271-42.358 20.889-6.383 42.648-9.574 64.698-9.574v-22.92c-1.451-10.4443-9.864-18.5678-20.309-19.7283-6.673-.8704-13.055 0-19.148 2.6111-8.704 4.0617-14.796 11.8951-16.827 21.4692-1.451 2.901-4.642 4.642-7.834 4.062l-31.333-2.902c-2.901-.87-4.932-3.191-5.222-6.3823 2.321-15.6666 10.444-29.3025 22.339-39.1667 15.957-12.1852 35.686-18.858 55.994-18.5679 18.568.2901 36.846 6.0926 52.223 17.1173 12.765 10.7346 19.728 26.6914 18.858 43.2286v79.204c.29 6.673 2.03 13.345 4.932 19.148l9.864 14.216c1.16 2.321 1.16 4.642 0 6.963l-29.012 24.66c-2.612 1.451-5.513 1.161-7.834-.29-7.543-7.253-14.506-15.376-20.309-24.08zm-6.672-71.951c-8.994-.29-18.278.29-27.272 1.741-11.025 2.321-20.309 9.574-25.821 19.438-4.352 10.735-3.772 22.92 2.031 33.365 6.963 8.703 18.858 11.605 29.012 7.543 11.895-7.543 20.019-20.019 22.05-34.235z" fill="#fff"/></svg>