<svg fill="none" height="360" viewBox="0 0 360 360" width="360" xmlns="http://www.w3.org/2000/svg"><path d="m0 132.02c0-46.6982 0-70.0474 9.2321-87.8199 7.7798-14.9767 19.9913-27.1882 34.968-34.968 17.7725-9.2321 41.1217-9.2321 87.8199-9.2321h95.96c46.698 0 70.047 0 87.82 9.2321 14.977 7.7798 27.188 19.9913 34.968 34.968 9.232 17.7725 9.232 41.1217 9.232 87.8199v95.96c0 46.698 0 70.047-9.232 87.82-7.78 14.977-19.991 27.188-34.968 34.968-17.773 9.232-41.122 9.232-87.82 9.232h-95.96c-46.6982 0-70.0474 0-87.8199-9.232-14.9767-7.78-27.1882-19.991-34.968-34.968-9.2321-17.773-9.2321-41.122-9.2321-87.82z" fill="#000"/><path d="m259.316 135h-2.735c-.284 1.434-.921 4.461-4.624 4.461-3.259 0-10.364-4.461-18.23-4.461-11.832 0-23.779 7.334-23.779 22.308 0 13.004 8.393 18.757 20.495 25.719 19.306 11.303 21.396 15.755 21.396 23.255 0 7.066-5.242 14.566-15.755 14.566-17.743 0-24.393-17.058-26.911-23.246h-2.993l3.914 27.829h2.879c0-2.082 1.332-4.332 4.083-4.332 3.924 0 10.373 4.45 20.354 4.45 18.777 0 27.682-12.575 27.682-23.739 0-26.933-43.848-29.564-43.848-49.219 0-8.167 6.698-12.22 13.285-12.22 13.764 0 22.168 11.814 24.407 22.587h3.284z" fill="#ecc73f"/><path d="m327.215 135h-2.752c-.245 1.434-.926 4.461-4.607 4.461-3.264 0-10.342-4.461-18.233-4.461-11.809 0-23.773 7.334-23.773 22.308 0 13.004 8.392 18.757 20.48 25.719 19.318 11.303 21.393 15.755 21.393 23.255 0 7.066-5.227 14.566-15.721 14.566-17.76 0-24.42-17.058-26.933-23.246h-3.005l3.929 27.829h2.898c0-2.082 1.304-4.332 4.053-4.332 3.949 0 10.384 4.45 20.343 4.45 18.807 0 27.718-12.575 27.718-23.739 0-26.933-43.856-29.564-43.856-49.219 0-8.167 6.692-12.22 13.24-12.22 13.808 0 22.215 11.814 24.448 22.587h3.279z" fill="#ecc73f"/><g fill="#fff"><path d="m50.0491 223.752 22.5817-70.26 22.1141 70.26h26.0631l-32.8562-87.308h-28.1158l-32.836 87.308z"/><path d="m119.271 223.752h20.746v-66.892h.225l28.217 66.892h31.932v-87.308h-20.756v64.816l-.214.234-27.891-65.05h-32.259z"/></g></svg>