<svg fill="none" height="360" viewBox="0 0 360 360" width="360" xmlns="http://www.w3.org/2000/svg"><path d="m0 132.02c0-46.6982 0-70.0474 9.2321-87.8199 7.7798-14.9767 19.9913-27.1882 34.968-34.968 17.7725-9.2321 41.1217-9.2321 87.8199-9.2321h95.96c46.698 0 70.047 0 87.82 9.2321 14.977 7.7798 27.188 19.9913 34.968 34.968 9.232 17.7725 9.232 41.1217 9.232 87.8199v95.96c0 46.698 0 70.047-9.232 87.82-7.78 14.977-19.991 27.188-34.968 34.968-17.773 9.232-41.122 9.232-87.82 9.232h-95.96c-46.6982 0-70.0474 0-87.8199-9.232-14.9767-7.78-27.1882-19.991-34.968-34.968-9.2321-17.773-9.2321-41.122-9.2321-87.82z" fill="#0f238c"/><g fill="#fff"><path d="m257.001 122.667c-66.259-57.9529-169.6525-34.3911-170.6666 18.668-15.034-98.4442 104.0116-118.9966 170.6596-88.0011 1.187 15.8064 2.377 32.8243.007 69.3331z"/><path d="m202.027 154.067c-16.693-6.515-40.98-12.443-41.015-31.423-.014-7.753 3.175-16.171 18.655-21.309-53.334 5.333-71.119 70.21-12.132 102.456 10.28 5.62 28.132 11.581 28.132 30.875 0 22.537-24.76 30.684-41.048 30.34-27.057-.569-48.811-10.021-73.619-27.674v64.001c29.358 12.638 77.177 27.213 125.115 12.47 38.742-11.915 72.218-44.437 72.218-79.138.002-56.465-49.004-69.94-76.306-80.598z"/></g></svg>