<svg fill="none" height="360" viewBox="0 0 360 360" width="360" xmlns="http://www.w3.org/2000/svg"><path d="m0 132.02c0-46.6982 0-70.0474 9.2321-87.8199 7.7798-14.9767 19.9913-27.1882 34.968-34.968 17.7725-9.2321 41.1217-9.2321 87.8199-9.2321h95.96c46.698 0 70.047 0 87.82 9.2321 14.977 7.7798 27.188 19.9913 34.968 34.968 9.232 17.7725 9.232 41.1217 9.232 87.8199v95.96c0 46.698 0 70.047-9.232 87.82-7.78 14.977-19.991 27.188-34.968 34.968-17.773 9.232-41.122 9.232-87.82 9.232h-95.96c-46.6982 0-70.0474 0-87.8199-9.232-14.9767-7.78-27.1882-19.991-34.968-34.968-9.2321-17.773-9.2321-41.122-9.2321-87.82z" fill="#e10601"/><path d="m86.4381 188.35c31.6279-6.795 27.3109-44.635 26.3839-52.903-1.559-12.753-16.5485-35.023-36.8885-33.244-25.6087 2.281-29.347 39.272-29.347 39.272-3.4689 17.128 8.2764 53.686 39.8516 46.875zm58.7349-63.432c17.459 0 31.571-20.12 31.571-44.9732 0-24.8578-14.112-44.9448-31.571-44.9448-17.467 0-31.616 20.087-31.616 44.9448 0 24.8532 14.145 44.9732 31.616 44.9732zm75.271 2.959c23.372 3.061 38.346-21.871 41.341-40.7618 3.061-18.8668-12.039-40.8107-28.547-44.5775-16.581-3.8117-37.28 22.7315-39.145 40.0475-2.274 21.1808 3.003 42.2998 26.351 45.2918zm92.554 31.738c0-9.035-7.48-36.272-35.338-36.272-27.914 0-31.603 25.702-31.603 43.863 0 17.332 1.444 41.509 36.109 40.758 34.628-.768 30.832-39.252 30.832-48.349zm-35.338 79.32s-36.129-27.947-57.216-58.163c-28.633-44.553-69.256-26.409-82.838-3.784-13.54 22.683-34.591 37.007-37.602 40.811-3.0408 3.726-43.6351 25.662-34.6282 65.717 9.0273 40.023 40.6842 39.264 40.6842 39.264s23.331 2.282 50.389-3.771c27.114-6.035 50.442 1.482 50.442 1.482s63.248 21.209 80.531-19.602c17.304-40.777-9.762-61.954-9.762-61.954z" fill="#2319dc"/><g fill="#fff"><path d="m150.784 199.978v26.886h-21.907s-21.895 1.816-29.5593 26.633c-2.6731 16.569 2.3593 26.327 3.2363 28.412.886 2.081 7.962 14.202 25.731 17.761h41.109v-99.399zm-.331 83.376h-16.561s-11.537-.6-15.05-13.884c-1.812-5.885.269-12.684 1.183-15.357.837-2.677 4.71-8.864 12.696-11.248h17.728z"/><path d="m179.467 229.277v52.335s.857 13.023 19.222 17.769h47.308v-70.112h-20.418v52.633h-19.483s-6.227-.906-7.399-5.909v-47.026z"/></g></svg>