<svg fill="none" height="360" viewBox="0 0 360 360" width="360" xmlns="http://www.w3.org/2000/svg"><path d="m0 132.02c0-46.6982 0-70.0474 9.2321-87.8199 7.7798-14.9767 19.9913-27.1882 34.968-34.968 17.7725-9.2321 41.1217-9.2321 87.8199-9.2321h95.96c46.698 0 70.047 0 87.82 9.2321 14.977 7.7798 27.188 19.9913 34.968 34.968 9.232 17.7725 9.232 41.1217 9.232 87.8199v95.96c0 46.698 0 70.047-9.232 87.82-7.78 14.977-19.991 27.188-34.968 34.968-17.773 9.232-41.122 9.232-87.82 9.232h-95.96c-46.6982 0-70.0474 0-87.8199-9.232-14.9767-7.78-27.1882-19.991-34.968-34.968-9.2321-17.773-9.2321-41.122-9.2321-87.82z" fill="#231f20"/><path d="m247.823 42.0003h-121.88v33.5417h121.88z" fill="#e51636"/><path d="m247.788 266.97c0 16.329 1 37.092 3.232 51.03h-90.15c-30.152 0-52.87-24.993-52.87-61.882 0-54.014 45.64-76.863 93.207-77.269v-3.709c0-21.936-8.578-37.309-31.412-37.309-15.025 0-32.223 4.405-43.611 11.649v-31.455c10.359-6.535 28.021-15.04 53.623-15.04 54.145 0 67.981 35.208 67.981 79.95zm-45.393 16.749.058-74.183c-17.952.276-50.465 5.245-50.465 41.844 0 23.733 12.649 32.31 22.747 32.31z" fill="#fff"/></svg>