<svg fill="none" height="360" viewBox="0 0 360 360" width="360" xmlns="http://www.w3.org/2000/svg"><path d="m0 132.02c0-46.6982 0-70.0474 9.2321-87.8199 7.7798-14.9767 19.9913-27.1882 34.968-34.968 17.7725-9.2321 41.1217-9.2321 87.8199-9.2321h95.96c46.698 0 70.047 0 87.82 9.2321 14.977 7.7798 27.188 19.9913 34.968 34.968 9.232 17.7725 9.232 41.1217 9.232 87.8199v95.96c0 46.698 0 70.047-9.232 87.82-7.78 14.977-19.991 27.188-34.968 34.968-17.773 9.232-41.122 9.232-87.82 9.232h-95.96c-46.6982 0-70.0474 0-87.8199-9.232-14.9767-7.78-27.1882-19.991-34.968-34.968-9.2321-17.773-9.2321-41.122-9.2321-87.82z" fill="#e31836"/><g fill="#fff"><path d="m74.5734 199.122c-6.4663 11.717-8.9177 23.221-4.3835 32.113 14.1323 27.74 79.7871 27.345 142.8871.914 15.872-6.643 30.259-14.397 42.687-22.723 36.975-24.769 51.305-52.712 40.725-73.477-14.138-27.74-71.509-30.685-134.603-4.259-6.757 2.831-13.239 5.838-19.414 8.986l-5.303.036c8.996-4.945 19.051-10.014 29.21-14.267 71.731-30.0466 142.913-28.8364 158.983 2.7 12.065 23.679-6.311 56.758-48.599 84.966-14.039 9.364-31.63 18.942-49.502 26.431-71.737 30.041-143.6092 28.187-159.6788-3.35-5.6924-11.167-4.7104-24.26 2.8258-38.117zm14.7033-20.095c4.1031-4.555 8.3674-8.186 13.6803-12.606l.135-3.386c-6.6373 5.282-12.5792 10.689-17.7366 16.116z"/><path d="m94.6728 177.184c-5.1834 19.576-20.9624 27.294-36.8606 27.294-22.4684 0-29.9577-13.66-25.6521-33.921 3.6097-19.913 18.3807-33.391 40.0441-33.391 16.1683 0 28.4668 6.56 24.2756 28.545h-23.2942c1.4751-10.455-.8876-11.873-3.9987-11.832-6.565 0-8.6114 6.706-10.7877 16.943-2.0619 9.707-3.0699 16.942 3.3185 16.942 3.2824 0 5.9109-1.943 9.1259-10.58z"/><path d="m128.006 153.343h2.477c4.078 0 6.15 1.506 7.199 4.077 1.117 2.664.685 7.188-.634 13.4-1.319 6.211-2.81 10.735-5.064 13.395-2.14 2.576-4.851 4.082-8.928 4.082h-2.483zm-35.3336 49.486h31.5466c19.706 0 34.867-11.961 38.975-31.303 4.035-18.983-1.221-32.716-26.873-32.716h-30.041z"/><path d="m168.81 138.809h22.707l-3.132 40.179h.177l14.485-40.179h26.255l-2.597 40.179h.177l13.95-40.179h22.707l-27.443 64.003h-27.497l2.883-41.524h-.177l-14.766 41.524h-27.495z"/></g></svg>