<svg fill="none" height="360" viewBox="0 0 360 360" width="360" xmlns="http://www.w3.org/2000/svg" xmlns:xlink="http://www.w3.org/1999/xlink"><linearGradient id="a" gradientUnits="userSpaceOnUse" x1="0" x2="360" y1="180" y2="180"><stop offset="0" stop-color="#7dc243"/><stop offset=".256549" stop-color="#50a7cb"/><stop offset=".412565" stop-color="#d1dc2a"/><stop offset=".614585" stop-color="#1e9ed5"/><stop offset=".816606" stop-color="#95ca3c"/><stop offset="1" stop-color="#7ec243"/></linearGradient><linearGradient id="b"><stop offset="0" stop-color="#85d3e4"/><stop offset="1" stop-color="#0d94d2"/></linearGradient><radialGradient id="c" cx="145.739" cy="179.798" gradientUnits="userSpaceOnUse" r="125.397" xlink:href="#b"/><linearGradient id="d"><stop offset="0" stop-color="#fff" stop-opacity="0"/><stop offset="1"/></linearGradient><linearGradient id="e" gradientUnits="userSpaceOnUse" x1="111.014" x2="43.0864" xlink:href="#d" y1="81.4058" y2="138.403"/><radialGradient id="f" cx="145.739" cy="179.794" gradientUnits="userSpaceOnUse" r="125.397" xlink:href="#b"/><linearGradient id="g" gradientUnits="userSpaceOnUse" x1="116.554" x2="43.6692" xlink:href="#d" y1="283.543" y2="222.386"/><linearGradient id="h"><stop offset="0" stop-color="#7bc143"/><stop offset=".423309" stop-color="#d7de27"/><stop offset="1" stop-color="#7bc143"/></linearGradient><linearGradient id="i" gradientUnits="userSpaceOnUse" x1="34.0017" x2="330.842" xlink:href="#h" y1="148.61" y2="148.61"/><linearGradient id="j" gradientUnits="userSpaceOnUse" x1="33.9994" x2="297.91" xlink:href="#h" y1="218.415" y2="218.415"/><path d="m0 132.02c0-46.6982 0-70.0474 9.2321-87.8199 7.7798-14.9767 19.9913-27.1882 34.968-34.968 17.7725-9.2321 41.1217-9.2321 87.8199-9.2321h95.96c46.698 0 70.047 0 87.82 9.2321 14.977 7.7798 27.188 19.9913 34.968 34.968 9.232 17.7725 9.232 41.1217 9.232 87.8199v95.96c0 46.698 0 70.047-9.232 87.82-7.78 14.977-19.991 27.188-34.968 34.968-17.773 9.232-41.122 9.232-87.82 9.232h-95.96c-46.6982 0-70.0474 0-87.8199-9.232-14.9767-7.78-27.1882-19.991-34.968-34.968-9.2321-17.773-9.2321-41.122-9.2321-87.82z" fill="url(#a)" fill-opacity=".15"/><path d="m40.4964 116.835c-1.066 1.846-2.011 3.725-2.7912 5.549l-.3517.814 4.8736 13.966 23.9834 14.484 1-2.478c12.7307-32.016 43.1645-52.7031 77.5605-52.7031 23.076 0 44.587 9.2801 60.521 26.1371l.665.703h.495l44.23-3.615c-21.73-38.0547-62.296-61.692-105.911-61.692-42.929 0-81.8736 21.9889-104.2746 58.835z" fill="url(#c)"/><path d="m40.3222 116.835c-1.0715 1.846-2.0165 3.72-2.7967 5.549l-.3517.814 4.8736 13.967 23.9834 14.483.9945-2.478c8.8572-22.302 26.3296-39.099 47.7307-47.253l-15.9725-35.0818c-23.9285 9.6648-44.4284 26.912-58.4613 49.9998z" fill="url(#e)" opacity=".9"/><path d="m42.2271 223.175-4.8736 13.978.3517.797c.7802 1.841 1.7252 3.709 2.8241 5.599 22.3681 36.824 61.3127 58.791 104.2417 58.791 42.653 0 82.34-22.55 104.378-59.132-17.906 4.022-47.071 6.209-58.609 6.934-13.484 8.923-29.198 13.725-45.769 13.725-34.396 0-64.8298-20.686-77.5605-52.703l-1-2.478z" fill="url(#f)"/><path d="m42.4311 223.862-4.8901 14.022.3517.797c.7802 1.846 1.7307 3.72 2.8241 5.626 14.989 24.654 39.3185 42.467 65.3682 51.714l9.747-36.626c-21.6758-8.121-39.3846-25.055-48.3406-47.588l-1-2.483z" fill="url(#g)" opacity=".9"/><path d="m34.0357 138.736c0 .231 0 .456-.0263.698-.1649 7.61 2.423 14.198 7.6977 19.571 0 0 16.7747 24.572 104.2359 28.5 53.412 2.401 160.258-14.478 160.258-14.478l24.642-38.038s-133.038 14.445-184.109 14.445c-79.4281 0-94.4445-23.341-94.4445-23.341-8.1923-8.137-7.467-16.615-7.467-16.615-4.2802 5.791-10.5659 15.088-10.7857 29.258" fill="url(#i)"/><path d="m152.216 202.137c-36.164 0-61.3894-6.225-77.7959-9.813-16.7637-3.671-28.5878 4.566-32.7142 8.395-5.5329 5.138-7.8626 11.984-7.6978 19.566.0264.259.0264.467.0264.703.2198 14.16 6.5055 23.478 10.7857 29.264 0 0-.7253-8.462 7.467-16.593 0 0 10.3296-10.687 21.3515-6.759 18.0549 7.066 76.7413 11 76.7413 11 58.593 0 122.917-13.258 122.917-13.258l24.61-38.066s-76.489 15.561-145.692 15.561" fill="url(#j)"/></svg>