<svg fill="none" height="360" viewBox="0 0 360 360" width="360" xmlns="http://www.w3.org/2000/svg" xmlns:xlink="http://www.w3.org/1999/xlink"><mask id="a" height="360" maskUnits="userSpaceOnUse" width="360" x="0" y="0"><rect fill="#10376f" height="360" rx="82" width="360"/></mask><path d="m0 132.02c0-46.6982 0-70.0474 9.2321-87.8199 7.7798-14.9767 19.9913-27.1882 34.968-34.968 17.7725-9.2321 41.1217-9.2321 87.8199-9.2321h95.96c46.698 0 70.047 0 87.82 9.2321 14.977 7.7798 27.188 19.9913 34.968 34.968 9.232 17.7725 9.232 41.1217 9.232 87.8199v95.96c0 46.698 0 70.047-9.232 87.82-7.78 14.977-19.991 27.188-34.968 34.968-17.773 9.232-41.122 9.232-87.82 9.232h-95.96c-46.6982 0-70.0474 0-87.8199-9.232-14.9767-7.78-27.1882-19.991-34.968-34.968-9.2321-17.773-9.2321-41.122-9.2321-87.82z" fill="#f48da1"/><g mask="url(#a)"><path d="m229.139 195.775-.586.082-.621.076-.65.088-.679.082-.697.088-.727.088-.749.088-.762.088-1.581.181-1.623.188-1.658.181-1.675.182-1.663.181-1.646.176-1.605.164-.785.082-.767.082-.75.076-.726.076-.703.071-.68.07-.65.064-.621.065-.591.058-.557.059c-5.236.521-10.889.797-16.793 1.119-5.242.322-10.707.047-16.266.117-5.541.018-11.194.018-16.823-.644-11.463-1.394-13.841-2.999-16.951-3.386-6.361-.779-11.164-1.945-16.565-3.11-4.393-.937-8.95-1.945-11.644-2.039-.299-.298-1.26-2.196-1.447-2.606-2.905-6.888-2.835-6.039-5.811-15.997-1.464-4.897-3.3852-15.053-4.3927-21.596-.7966-5.289-1.8743-6.818-2.2608-8.077-1.5113-5.055-.9841-8.078-1.2594-13.59-.2519-5.494-.5271-18.925-.2518-24.484.41-8.7624.9606-9.887 2.1965-15.2407 1.2593-5.3536 3.9772-10.9124 6.2912-15.8795 2.015-4.2993 3.04-8.2355 5.992-12.078 3.391-4.3696 4.235-6.3377 5.927-7.9426.141-.1348 1.395-.4569 1.605-.4803 4.159-1.3472 7.937-1.7807 10.087-2.466.527-.0468 2.677.1816 3.204.1816.937 0 6.912.2285 15.832.4335 4.645.1171 10.116.5506 16.038.6619 5.336.1405 11.053.1873 16.934.2986 5.4.0703 10.936-.1581 16.453-.1113 5.079.0644 10.134.4804 15.054.498 5.33.0234 10.479-.1816 15.258-.2285 5.424-.041 10.415-.2695 14.761-.41 6.59-.2284 11.715-.205 14.439-.7556 5.213-1.0309 9.126-1.5991 12.558-1.5991.943.2519 1.33.5916 2.109.9372 2.928 1.3472 6.976 4.3462 6.976 4.3462 0 1.8978-.686 14.4151.228 23.1075.504 4.9671 1.4 10.6195 2.15 16.4066.714 5.4709 1.078 9.8175 1.857 15.1235.779 5.307 2.676 12.881 3.315 17.163 1.212 7.755 1.535 3.567 2.612 10.045 1.418 8.37.615 7.503 1.552 17.139.528 5.488-.386 17.109-1.259 22.674-.89 5.67-3.268 10.087-5.125 10.866-3.819 1.645-16.219 3.385-13.747 2.999-6.315 1.007-5.817.251-9.589 1.007-9.864 1.968-11.99 1.529-18.691 2.15-6.25.615-1.464 1.142-8.769 2.126-.544.07-1.3.597-2.032.685z" fill="#273896"/><path d="m125.821 62.0306.106-.2225.099-.2109.205-.4101.205-.3807.2-.3514.205-.328.205-.2988.205-.2811.21-.2519.211-.2343.211-.2109.223-.1932.222-.1757.223-.1523.234-.1406.24-.1288.241-.1055.251-.0996.264-.0878.264-.0703.281-.0644.281-.0528.299-.0527.304-.0352.317-.0351.328-.0352.339-.0233.352-.0235.369-.0234.375-.0234.392-.0235.41-.0234.422-.0293c2.659-.205 5.951.5506 10.321 1.2125 2.905.4334 2.928-.4335 6.747.615 2.865.779 3.392.574 7.808 1.2593 3.45.5272 13.953 2.8409 18.053 3.2743 3.661.3632 7.527 2.2844 11.486 2.5831 3.772.2987 7.615.6209 11.44.8025 3.795.1815 7.638.2987 11.322.3866 3.96.0703 7.826-.7088 11.416-.7557 3.983-.041 7.644-.7496 10.895-1.0015 4.463-.3221 8.101-.9841 10.502-1.7162 4.505-1.3765 8.236-1.1481 11.393-.5741 4.188.7088 6.912 2.425 8.511 5.9921 1.282 2.8409.504 5.6056 1.259 10.7543.369 2.4483-.802 6.5485-.843 11.5332-.047 3.409.134 7.2514.205 11.3286.023 3.725.568 7.597.661 11.55.071 3.825.047 7.715.135 11.487.117 4.03.299 7.895.439 11.533.135 4.094.229 7.849.34 11.053.229 6.589 1.213 4.938.574 11.006-.574 5.535 1.236 6.543-4.03 10.684-2.126 1.669-5.394 3.749-10.086 4.188-1.418.135-5.037 1.3-10.438 2.606-2.97.756-6.496 1.512-10.455 2.425-3.181.709-6.842 1.213-10.544 1.945-3.321.644-6.8 1.031-10.485 1.605-3.338.545-6.952.685-10.519 1.119-3.368.433-6.889.093-10.415.41-3.268.275-6.566.574-9.905.732-2.747.117.047.896-1.417 1.376-3.368 1.119-4.282.709-10.69.592-3.198-.023-6.379 0-10.315-.228-3.409-.205-7.21-.504-10.778-.891-3.567-.392-6.999-1.464-10.32-2.126-3.796-.732-7.597-.691-10.55-1.88-3.748-1.511-6.794-3.04-8.141-5.442-1.078-1.903-1.377-6.408-1.763-11.281-.276-3.134-.071-6.795-.094-10.778-.041-3.315-.639-6.865-.522-10.596.088-3.473.042-7.116.247-10.818.187-3.48.322-7.029.574-10.573.275-3.544 1.259-7.046 1.558-10.573.316-3.543.984-7.023 1.3-10.432.392-3.5258.299-6.9523.668-10.2266.433-3.5906 1.323-6.9586 1.757-10.1158.55-3.8893.164-7.5033.691-10.4086.937-5.1486 2.63-8.212 3.315-8.8564z" fill="#fff"/><path d="m306.112 263.206-.228.076-.264.082-.298.088-.328.094-.358.099-.392.1-.416.105-.445.111-.463.112-.492.117-.515.117-.533.111-.557.117-.574.118-.586.111-.609.111-.615.111-.632.106-1.301.199-1.329.176-1.359.152-1.371.123-1.377.082-1.364.041-.674.006-.674-.012c-3.772-.088-9.242.481-16.037.779-4.786.182-9.794-.662-15.745-.322-4.826.275-10.039.205-15.463.574-5.401.346-11.006 1.008-16.817 1.465-5.242.386-8.241-.229-13.706.251-5.518.457-9.841-1.329-15.446-.779-5.102.481-13.912.574-18.99 1.102-5.219.544-11.188 2.629-16.29 3.221-5.289.621-9.635.211-14.667.896-5.312.709-11.351 2.425-16.289 3.181-5.219.796-10.233 1.646-14.919 2.495-5.084.914-9.864 1.464-14.1631 2.443-3.9362.896-7.3921 2.267-10.5492 3.204-7.439 2.313-13.2729 3.637-17.8007 4.281-9.6999 1.348-14.0286-.644-16.7054-4.557-2.3547-3.473-3.1805-9.079-3.819-13.952-.8025-5.881-.5506-3.157-1.5815-8.581-1.4878-7.984-2.8116-13.068 1.9915-18.099 2.4953-2.654 6.9352-5.7 12.0604-8.031 7.3921-3.96 4.4634-3.409 14.9188-7.62 4.1178-1.646 9.2197-3.456 15.2587-5.425 4.6683-1.511 10.0925-2.512 15.9735-4.117 4.873-1.324 10.133-2.63 15.856-3.936 5.055-1.119 10.338-2.724 16.108-3.819 5.101-.984 10.478-1.922 16.154-2.835 5.465-.897 11.211-1.512 17.204-2.314 5.306-.709 10.871-1.189 16.635-1.81 5.101-.545 10.344-1.529 15.809-1.986 5.307-.457 12.652.065 18.304-.322 4.991-.322 8.236-1.329 13.502-1.581 5.148-.252 10.408-.34 15.809-.522 5.26-.164 10.66-.298 16.201-.392 4.598-.07 9.267-.34 14.07-.363 7.755 0 15.305.433 19.241 2.952 5.881 3.772 5.219 5.992 5.448 13.407.275 8.306-.504 4.276.843 12.512 1.441 8.903 1.629 16.658 2.22 24.39.299 4.007-2.354 7.509-6.865 11.557z" fill="#273896"/><path d="m173.621 214.058c-2.817 0-5.272 2.061-5.272 4.832 0 2.77 2.455 4.832 5.272 4.832h.147.292.293.293l.147-.146h.293l.292-.146h.147l.293-.147.146-.146h.293l.146-.147.293-.146.147-.147.146-.146.293-.147.146-.292.147-.147.146-.146.147-.147.146-.293.147-.146.146-.293.147-.146v-.293l.146-.147v-.292l.146-.293v-.147-.293-.293-.146c0-2.771-2.36-4.832-5.125-4.832zm-14.79 8.786c-2.794 0-5.272 2.062-5.272 4.832 0 2.788 3.064 3.515 5.858 3.515h.146.293.293l.146-.147h.293.293.147.293l.146-.146h.293.146l.147-.147h.293l.146-.146.146-.146h.147l.293-.147.146-.146h.147v-.147l.146-.146.146-.147.147-.146.146-.147v-.292l.147-.147v-.146-.293l.146-.147v-.292-.293-.147c0-2.77-2.653-4.832-5.418-4.832zm12.594 14.204c-2.794 0-6.022 1.072-4.833 4.686.896 2.63 2.039 5.125 4.833 5.125h.292.293.293.147l.293-.146h.292l.293-.146.147-.147h.293l.146-.146.293-.147.146-.146.293-.147.147-.146.146-.147.293-.292.146-.147.147-.146.146-.293.147-.147.146-.292.147-.147.146-.293v-.146l.146-.293.147-.293v-.146l.146-.293v-.293-.293-.146-.293c0-2.771-2.477-4.54-5.271-4.54zm-80.101 1.904c-2.212.545-3.6609 2.904-3.6609 5.564-.0001 3.07 1.9213 5.272 4.6859 5.272h.2929.2929l.1464-.146h.2929.2929l.1464-.147h.2929l.2929-.146h.1464l.2929-.147.1464-.146.1464-.146.2929-.147.1464-.146.1465-.147.2929-.146.1464-.147.1464-.293.1465-.146.1464-.146.1464-.293v-.147l.1465-.293.1464-.146v-.293l.1464-.293v-.146l.1465-.293v-.293-.293-.293l.1464-.293c.0001-3.04-2.3313-5.564-5.1253-5.564-.3455 0-.709-.078-1.025 0zm38.073 0c-2.788 0-4.978 2.337-4.978 5.125 0 2.771-.053 4.007 4.978 5.125h.293l.293.147h.147.292l.293-.147h.147.293l.146-.146.293-.146h.146l.293-.147.147-.146.146-.147.147-.146.292-.147.147-.293.146-.146.147-.146.146-.293.147-.147.146-.293v-.146l.146-.293.147-.293v-.146l.146-.293v-.293l.147-.293v-.146-.293-.293-.293c0-2.788-2.039-5.125-4.833-5.125zm13.473 4.832c-2.402 0-4.247 1.775-4.247 4.54 0 2.77 1.845 4.686 4.247 4.686h.292l.147-.147h.293.146.293l.146-.146h.293l.147-.147h.146l.293-.146.147-.146.146-.147h.293l.146-.146.147-.147.146-.146.147-.147.146-.293.146-.146.147-.146.146-.147.147-.293.146-.146v-.147l.147-.292v-.147l.146-.293v-.293-.146l.147-.293v-.293-.146c-.001-2.765-2.308-4.54-4.686-4.54zm-20.502 11.129c-2.793.001-4.808 1.892-4.832 4.686-.088 6.772 3.503 4.944 4.832 5.126h.293.293.293.147.292l.293-.147h.147l.293-.146h.146l.293-.147.146-.146.293-.147.147-.146.293-.146.146-.147.146-.146.147-.293.146-.147.147-.292.146-.147.147-.293.146-.146.146-.293.147-.147v-.292l.146-.293v-.147l.147-.293v-.292-.293l.146-.293v-.147c0-2.794-2.478-4.686-5.272-4.686zm-16.84 3.076c-2.77 0-4.686 2.208-4.686 4.978 0 2.771 1.916 5.419 4.686 5.419h.147l.293-.147h.292.293l.147-.146h.293l.293-.147h.146l.293-.146.146-.147.293-.146.147-.146.292-.147.147-.146.146-.147.147-.293.293-.146.146-.147.147-.292.146-.147.146-.293.147-.146v-.293l.146-.146.147-.293v-.293l.146-.147v-.293l.147-.292v-.147-.293-.293c0-2.77-2.338-4.978-5.126-4.978z" fill="#fff"/><path d="m222.222 218.45c-3.843 0-6.737 3.04-6.737 6.882 0 3.866 2.894 7.322 6.737 7.322h.292.44.293l.439-.146.293-.147h.293l.439-.146.293-.147.293-.146.293-.147.292-.146.293-.293.293-.146.293-.293.293-.147.293-.292.293-.293.146-.147.293-.293.146-.293.293-.292.147-.293.146-.44.147-.292.146-.293.146-.293.147-.44v-.292l.146-.293v-.44-.292-.44c0-3.842-3.432-6.882-7.321-6.882zm-90.791 2.928c-2.038 0-3.368 1.646-3.368 3.661 0 1.986 1.33 3.808 3.368 3.808h.146.293.147.146l.147-.147h.146l.293-.146h.146l.147-.147h.146l.147-.146.146-.146h.147l.146-.147.146-.146.147-.147.146-.146.147-.147v-.146l.146-.147.147-.146v-.146l.146-.147.146-.146v-.293-.147l.147-.146v-.146-.147l.146-.293v-.146-.147c0-2.015-1.815-3.661-3.807-3.661zm132.086 0c-3.866 0-6.444 2.578-6.444 6.444 0 3.842 2.578 6.736 6.444 6.736h.439.293l.293-.147h.439l.293-.146h.293l.439-.147.293-.146.293-.146.293-.147.292-.146.293-.147.293-.146.147-.147.293-.293.292-.146.147-.293.293-.146.146-.293.147-.293.292-.293.147-.293.146-.293.147-.292v-.293l.146-.293.147-.293v-.293l.146-.439v-.293-.293-.439c0-3.866-3.017-6.444-6.882-6.444zm-14.644 12.887c-3.866 0-7.615 2.577-7.615 6.443 0 3.872 3.749 7.468 7.615 7.468h.293l.439-.146h.293.439l.293-.147.293-.146.293-.146.439-.147.293-.146.293-.147.293-.146.293-.147.146-.292.293-.293.293-.147.293-.293.146-.293.293-.292.147-.293.146-.293.293-.293.146-.293.147-.293.146-.293.147-.439v-.293l.146-.293.146-.439v-.293-.293l.147-.439v-.293c0-3.866-3.163-6.443-7.029-6.443zm-134.868 5.857c-2.009 0-3.807 1.5-3.807 3.515 0 1.991 2.255 2.489 4.246 2.489h.147.146.147.293.146.146.147l.146-.146h.147.146.147l.146-.147h.146.147l.146-.146h.147l.146-.147h.147v-.146l.146-.146h.147v-.147l.146-.146v-.147h.146v-.146-.147l.147-.146v-.146-.293-.147-.146c0-2.015-1.939-3.515-3.954-3.515zm116.417 2.343c-3.872 0-6.443 3.327-6.443 7.176 0 3.842 2.7 7.175 6.589 7.175h.293.44l.292-.146h.44l.293-.147h.292l.293-.146.44-.147.293-.146.292-.147.293-.292.293-.147.293-.146.293-.293.146-.147.293-.292.293-.293.147-.293.292-.147.147-.293.146-.292.147-.293.293-.44.146-.292v-.293l.146-.293.147-.44v-.292l.146-.293v-.44-.292-.44c0-3.842-3.309-7.029-7.175-7.029zm-71.754 5.565c-2.015 0-3.807 1.359-3.807 3.368 0 2.015 1.792 3.514 3.807 3.514h.147.292.147.146.147l.146-.146h.293.146l.147-.146h.146l.147-.147.146-.146h.147l.146-.147.147-.146.146-.147h.146l.147-.146.146-.147v-.146l.147-.146.146-.147v-.146l.147-.147v-.146l.146-.293v-.146-.147l.146-.146v-.147-.293-.146c0-2.009-1.798-3.368-3.807-3.368zm-70.5822 12.74c-2.015 0-3.368 1.88-3.368 4.1 0 2.197 1.353 3.807 3.368 3.807h.2929.1464l.1465-.146h.1464.1464.2929l.1464-.146h.1465l.1464-.147h.1464l.1465-.146h.1464l.1465-.147.1464-.146.1464-.147h.1465v-.146l.1464-.146.1464-.147.1465-.146v-.147l.1464-.146v-.147l.1464-.293v-.146l.1465-.146v-.147-.146l.1464-.293v-.147-.146-.293c.0001-2.22-1.6752-4.1-3.6609-4.1z" fill="#fff216"/><path d="m232.329 75.8394v1.025 10.9827 1.0251h1.025 4.247v3.8073l-.293-.1464-.293.8786-4.979 2.9287-36.023 11.8616h-.147l-38.952-5.858v-4.5392h4.686 1.025v-1.0251-10.9827-1.025h-1.025-11.129-1.025v1.025 10.9827 1.0251h1.025 4.393v5.2712.733l.586.293 31.63 17.718-6.004 3.368h-.146l-39.831 13.326 13.765-32.069-2.05-.879-14.644 34.412-.878 2.197 2.343-.732 42.174-14.205h.146l7.322-4.1 8.786 4.979-15.229-1.171-.147 2.196 18.451 1.318.732 2.05.586 1.025 1.172-.439 27.09-13.765-1.171-1.904-25.773 13.179-.439-1.317.293-.586-.586-.293-.147-.146-3.807-10.837 33.095-18.89 3.661-1.1715-5.126 16.6935 2.197.732 5.272-17.2791 14.058 17.2791-20.648 3.954.293 2.05 22.698-4.246 1.757-.293-1.172-1.465-16.254-19.9149.146-.2929h.147l.585-.2929v-.5857-4.8324h4.54 1.025v-1.0251-10.9827-1.025h-1.025-10.983zm2.05 2.0501h8.933v8.9326h-8.933zm-82.883 8.9326h9.079v8.9326h-9.079zm70.583 15.0829-23.723 13.472-.439-1.318-2.051.732.586 1.611-7.322 4.1-27.676-15.522 34.559 5.418h.293.293zm-24.895 16.694 2.636 8.054-8.347-4.833zm55.646 3.807v3.807h-3.953-1.026v1.025 10.983 1.025h1.026 10.982 1.025v-1.025-10.983-1.025h-1.025-4.832v-3.66zm-2.928 5.858h8.932v8.932h-8.932zm-70.436 4.246v2.197h-4.247-1.025v1.025 10.982 1.026h1.025 10.983 1.025v-1.026-10.982-1.025h-1.025-4.54v-2.197zm23.869 2.929v2.196h-3.808-1.025v1.025 10.983 1.025h1.025 10.983 1.025v-1.025-10.983-1.025h-1.025-4.979v-2.196zm-27.091 1.318h8.933v8.932h-8.933zm24.308 2.929h8.933v8.932h-8.933zm-63.846 5.418-1.318 2.489-3.661-1.904-.878-.439-.586 1.025-4.979 9.665-.439.879 1.025.585 9.811 4.979.879.439.585-1.025 4.979-9.664.44-.879-1.026-.586-4.246-2.196 1.318-2.197zm-4.979 3.075 7.908 3.954-3.954 7.761-7.908-3.954z" fill="#273896"/><path d="m238.178 91.9336c-2.835 0-5.126 2.2844-5.126 5.1253 0 2.8115 2.291 5.1251 5.126 5.1251h.292.293.293l.147-.146h.292l.293-.147h.147l.293-.146h.293l.146-.147.293-.146.146-.146.147-.147.293-.146.146-.147.146-.146.147-.147.146-.293.147-.146.146-.1464.147-.2929.146-.1464.147-.2929.146-.1464v-.2929l.146-.1464v-.2929l.147-.2929v-.2929-.1464-.2929-.2928c0-2.8409-2.285-5.1253-5.125-5.1253zm-41.442 13.6184c-2.841 0-5.125 2.29-5.125 5.125 0 2.812 2.284 5.126 5.125 5.126h.293.293.146l.293-.147h.293l.147-.146h.292l.293-.147h.147l.293-.146.146-.146.293-.147.146-.146.147-.147.293-.146.146-.147.146-.293.147-.146.146-.146.147-.147.146-.293.147-.146.146-.293v-.146l.147-.293v-.293l.146-.147v-.293l.146-.292v-.147-.293-.293c0-2.834-2.29-5.125-5.125-5.125zm-15.815 16.84c-2.993 0-5.418 2.419-5.418 5.418 0 2.976 2.425 5.419 5.418 5.419h.293l.293-.147h.146.293l.293-.146h.293l.293-.147h.146l.293-.146.146-.147.293-.146.147-.146.293-.147.146-.146.293-.147.146-.146.147-.293.146-.146.147-.147.146-.293.147-.146.146-.293.146-.147.147-.292v-.293l.146-.147.147-.293v-.292-.293l.146-.293v-.147-.293c0-2.999-2.442-5.418-5.418-5.418z" fill="#ef3d56"/><path d="m231.592 113.47c-2.841 0-5.125 2.308-5.125 5.125 0 2.858 2.284 5.125 5.125 5.125h.293.293.146.293l.293-.146h.293l.146-.147.293-.146h.147l.293-.146.146-.147.293-.146.146-.147.147-.146.293-.147.146-.146.147-.147.146-.292.146-.147.147-.146.146-.293.147-.147.146-.292v-.147l.147-.293.146-.146v-.293l.146-.293v-.293-.146-.293-.293c.001-2.817-2.29-5.125-5.125-5.125zm-91.815 23.283c-2.818 0-5.126 2.29-5.126 5.125 0 2.818 2.308 5.126 5.126 5.126h.293l.292-.147h.293.293.147l.292-.146h.293l.147-.147.293-.146.146-.147h.293l.146-.146.147-.146.293-.147.146-.146.147-.293.146-.147.293-.146.146-.146.147-.293v-.147l.146-.293.147-.146.146-.293v-.146l.146-.293v-.293l.147-.147v-.292-.293-.293l.146-.147c0-2.835-2.413-5.125-5.271-5.125z" fill="#f286a8"/><path d="m155.737 99.5444c-2.818 0-5.126 2.2906-5.126 5.1256 0 2.841 2.308 5.125 5.126 5.125h.292.147.293.293l.293-.146h.146l.293-.147h.146l.293-.146.293-.147.146-.146.147-.147.293-.146.146-.147.147-.146.293-.146.146-.147.146-.146.147-.293.146-.147.147-.146.146-.293.147-.146v-.293l.146-.293v-.147l.146-.292v-.293l.147-.147v-.293-.292-.293c0-2.835-2.29-5.1256-5.125-5.1256zm97.673 13.4726c-2.841 0-5.126 2.313-5.126 5.125 0 2.864 2.285 5.125 5.126 5.125h.146.293.293l.293-.146h.146l.293-.147h.293l.146-.146h.293l.147-.147.293-.146.146-.147.293-.146.146-.146.147-.147.146-.146.293-.147.147-.293.146-.146.146-.146.147-.293v-.147l.146-.293.147-.146.146-.293v-.293l.147-.146v-.293-.293l.146-.146v-.293-.293c0-2.812-2.29-5.125-5.125-5.125zm-48.617 12.886c-2.841 0-5.125 2.161-5.125 4.979-.001 2.858 2.284 5.271 5.125 5.271h.146l.293-.146h.293.293l.146-.146h.293l.293-.147h.146l.293-.146.147-.147h.293l.146-.146.293-.147.146-.146.147-.293.146-.146.293-.147.147-.146.146-.147.146-.292.147-.147v-.293l.146-.146.147-.293.146-.147v-.292l.147-.293v-.147-.293-.292l.146-.293v-.293c0-2.818-2.29-4.979-5.125-4.979z" fill="#fff216"/></g></svg>