<svg fill="none" height="360" viewBox="0 0 360 360" width="360" xmlns="http://www.w3.org/2000/svg" xmlns:xlink="http://www.w3.org/1999/xlink"><mask id="a" height="141" maskUnits="userSpaceOnUse" width="310" x="25" y="110"><path d="m25 250.196h310v-140.196h-155-155z" fill="#fff"/></mask><path d="m0 132.02c0-46.6982 0-70.0474 9.2321-87.8199 7.7798-14.9767 19.9913-27.1882 34.968-34.968 17.7725-9.2321 41.1217-9.2321 87.8199-9.2321h95.96c46.698 0 70.047 0 87.82 9.2321 14.977 7.7798 27.188 19.9913 34.968 34.968 9.232 17.7725 9.232 41.1217 9.232 87.8199v95.96c0 46.698 0 70.047-9.232 87.82-7.78 14.977-19.991 27.188-34.968 34.968-17.773 9.232-41.122 9.232-87.82 9.232h-95.96c-46.6982 0-70.0474 0-87.8199-9.232-14.9767-7.78-27.1882-19.991-34.968-34.968-9.2321-17.773-9.2321-41.122-9.2321-87.82z" fill="#000"/><g clip-rule="evenodd" fill-rule="evenodd"><g mask="url(#a)"><path d="m331.182 180.087c-18.822 38.675-102.07 70.161-185.31 70.161-83.3232 0-135.8712-31.486-117.0511-70.161 18.7453-38.525 102.0651-70.087 185.3141-70.087 83.32 0 135.859 31.562 117.047 70.087z" fill="#032b76"/><path d="m212.265 111.494c80.958 0 131.91 30.59 113.496 67.992-18.338 37.48-99.369 68.072-180.166 68.072-80.9535 0-131.9107-30.592-113.5741-68.072 11.903-24.113 49.6026-45.274 96.5131-57.412 3.331-.906 6.746-1.642 10.158-2.465 23.332-5.162 48.494-8.115 73.573-8.115z" fill="#0a0a08"/><path d="m211.049 113.528c79.937 0 130.352 29.523 112.298 65.562-18.057 36.179-97.923 65.637-177.785 65.637-79.9393 0-130.3538-29.458-112.2959-65.637 17.9838-36.039 97.9179-65.562 177.7829-65.562z" fill="#90f2d2"/></g><path d="m198.306 119.688c72.218 0 117.673 26.406 101.246 58.694-16.359 32.356-88.645 58.765-160.721 58.765-72.2168 0-117.6742-26.409-101.3169-58.765 10.6189-20.815 44.2491-39.084 86.0969-49.561 2.971-.782 6.018-1.417 9.062-2.127 20.814-4.457 43.259-7.006 65.633-7.006z" fill="#fff"/><path d="m287.7 151.898c3.465 5.756 4.106 12.234 1.362 19.026-2.57 5.14-5.517 9.279-9.909 13.351-22.785 21.052-74.057 36.753-125.261 36.753-60.3727 0-98.4443-21.817-84.69-48.564 9.4505-18.413 41.476-35.152 79.828-43.423 4.512-.972 9.096-1.736 13.75-2.432-9.023.905-17.851 2.223-26.532 4.098-42.5196 9.382-78.5762 24.529-89.0704 45.509-15.2126 30.501 26.9561 55.372 93.9334 55.372 54.878 0 109.836-16.672 136.236-39.533 2.981-2.566 6.47-6.191 9.208-10.053 1.131-1.562 2.122-3.145 2.949-4.741 4.725-9.173 3.823-17.858-1.804-25.363z" fill="#0d5db8"/></g></svg>