<svg fill="none" height="360" viewBox="0 0 360 360" width="360" xmlns="http://www.w3.org/2000/svg"><path d="m0 132.02c0-46.6982 0-70.0474 9.2321-87.8199 7.7798-14.9767 19.9913-27.1882 34.968-34.968 17.7725-9.2321 41.1217-9.2321 87.8199-9.2321h95.96c46.698 0 70.047 0 87.82 9.2321 14.977 7.7798 27.188 19.9913 34.968 34.968 9.232 17.7725 9.232 41.1217 9.232 87.8199v95.96c0 46.698 0 70.047-9.232 87.82-7.78 14.977-19.991 27.188-34.968 34.968-17.773 9.232-41.122 9.232-87.82 9.232h-95.96c-46.6982 0-70.0474 0-87.8199-9.232-14.9767-7.78-27.1882-19.991-34.968-34.968-9.2321-17.773-9.2321-41.122-9.2321-87.82z" fill="#c12323"/><g fill="#104f8c"><path d="m72.0283 235.228h-16.4238v-109.624h15.8934v-13.6h-29.4979v136.82h30.0283z"/><path d="m287.972 125.6h16.424v109.623h-15.902v13.601h29.506v-136.824h-30.028z"/><path d="m252.069 204.604c.325-.162 0-.522-.077-.684l-8.373-10.148-.239-.115-9.066 10.579c-.077.125.043.206.129.287h7.469v16.415h-37.801v-13.634h-.3c-4.073 9.172-13.647 15.893-23.752 15.534-4.869 0-9.1-1.9-13.091-4.15l-.193.364v1.814l-.329.119-17.305-.081-.082-.441-.077-24.633-.085-.086c-1.292 2.743-2.332 5.677-4.022 8.296-8.376 14.293-23.996 19.966-39.893 18.237-13.3696-1.129-26.0885-10.913-31.5218-23.264-5.9167-13.322-4.83-31.637 4.4279-43.107 9.9424-13.04 26.0069-18.396 41.7459-15.136 4.107.928 8.048 2.576 11.714 4.625v-.278c.081-1.211-.282-2.375 0-3.504h15.29v26.127l-19.397-.129c-4.993-6.759-12.843-9.493-21.014-7.726-7.808 1.45-14.9354 8.937-16.2232 16.745-1.6471 8.898 1.9765 17.51 9.3777 22.618 5.8395 4.428 15.2605 4.595 21.3355.608 3.144-1.896 6.002-5.156 7.85-8.21l.445-.12 25.28-.047.402.047 14.777.12.162.115c.642 4.351.479 9.019 3.457 12.398 1.613 1.494 3.944 1.934 6.242 1.494 2.498-.364 5.069-2.537 5.797-5.036.727-2.61 0-5.433-1.853-7.286-1.484-1.484-3.341-2.211-5.151-3.02-9.904-3.457-22.062-7.645-25.883-19.115-2.981-9.942.522-20.364 8.736-26.563 6.679-5.074 17.626-6.601 25.156-2.212l2.216 1.446c.359-.038.201-.483.244-.761l.115-2.135c4.792.039 10.105-.162 14.816 0l-.039 26.884-.081.163-16.629-.082c-.963-3.944-.685-8.932-4.946-11.029-2.379-.885-5.639-.967-7.534.967-1.809 1.57-2.532 3.821-2.13 6.242.363 3.26 3.542 5.309 6.404 6.156 6.195 2.332 12.595 4.026 17.985 8.291 8.056 5.716 11.158 15.376 8.582 24.869-.124.244-.209.526-.162.804l.398.287h5.681l11.431-13.121 9.785-11.311-1.536-2.011-17.348-20.685-5.048-.043v-16.073h33.934v16.193c-1.895.201-3.726-.163-5.54.163l.162.483c2.379 2.815 4.591 5.673 6.969 8.372l.642-.483c2.332-2.742 4.988-5.438 7.204-8.291-2.053-.287-4.145 0-6.199-.244l.043-16.193h37.318l-.124 16.313-.119.124-7.812.077-19.646 22.58.039.406 19.688 23.825h7.628v16.334h-37.057l-.035-16.334z"/></g></svg>