<svg fill="none" height="360" viewBox="0 0 360 360" width="360" xmlns="http://www.w3.org/2000/svg"><path d="m0 132.02c0-46.6982 0-70.0474 9.2321-87.8199 7.7798-14.9767 19.9913-27.1882 34.968-34.968 17.7725-9.2321 41.1217-9.2321 87.8199-9.2321h95.96c46.698 0 70.047 0 87.82 9.2321 14.977 7.7798 27.188 19.9913 34.968 34.968 9.232 17.7725 9.232 41.1217 9.232 87.8199v95.96c0 46.698 0 70.047-9.232 87.82-7.78 14.977-19.991 27.188-34.968 34.968-17.773 9.232-41.122 9.232-87.82 9.232h-95.96c-46.6982 0-70.0474 0-87.8199-9.232-14.9767-7.78-27.1882-19.991-34.968-34.968-9.2321-17.773-9.2321-41.122-9.2321-87.82z" fill="#022169"/><g fill="#fff"><path d="m110.582 165.778c-9.044-6.222-13.9712-9.704-25.9497-9.704-14.5625 0-26.3785 12.925-26.3785 28.866 0 15.946 11.816 28.861 26.3785 28.861 11.4581 0 14.3036-1.107 26.4567-9.306v28.663c-7.79 3.917-17.0495 6.151-26.4567 6.151-31.1252 0-56.3589-24.348-56.3589-54.369 0-30.031 25.2337-54.356 56.3589-54.356 9.331 0 18.1977 2.183 25.9497 6.044z"/><path d="m295.18 167.661c-13.657-5.594-8.684-16.019 1.431-16.019 7.483 0 13.281 3.104 18.365 6.5v-24.98c-9.887-3.007-14.981-4.132-23.178-4.132-22.012 0-33.323 16.093-33.376 32.326-.029 11.412 8.823 23.944 19.157 27.754 9.102 3.348 10.47 3.902 15.918 5.775 10.866 3.752 10.902 19.225-3.958 19.225-4.805 0-16.73-1.414-23.797-16.687l-41.862-106.1535-53.354 140.9795v-75.802h22.061v-24.31h-73.849v24.312h23.529v80.781h56.448l6.521-20.469h31.556l-7.516-22.041h-16.984l11.585-34.202 15.624 43.414c9.889 26.574 28.551 35.752 49.465 35.752 20.921 0 42.116-12.283 42.116-37.438.005-17.991-10.544-25.426-19.969-29.241-3.76-1.529-14.212-4.638-15.933-5.344z"/></g></svg>