<svg width="360" height="360" viewBox="0 0 360 360" fill="none" xmlns="http://www.w3.org/2000/svg">
<path d="M0 132.02C0 85.3218 0 61.9726 9.2321 44.2001C17.0119 29.2234 29.2234 17.0119 44.2001 9.2321C61.9726 0 85.3218 0 132.02 0H227.98C274.678 0 298.027 0 315.8 9.2321C330.777 17.0119 342.988 29.2234 350.768 44.2001C360 61.9726 360 85.3218 360 132.02V227.98C360 274.678 360 298.027 350.768 315.8C342.988 330.777 330.777 342.988 315.8 350.768C298.027 360 274.678 360 227.98 360H132.02C85.3218 360 61.9726 360 44.2001 350.768C29.2234 342.988 17.0119 330.777 9.2321 315.8C0 298.027 0 274.678 0 227.98V132.02Z" fill="black"/>
<path d="M51 98.804H116.894C158.955 98.804 185.593 132.452 185.593 178.719C185.593 203.955 177.181 226.387 160.357 240.407C149.141 250.221 133.719 255.829 114.09 255.829H51V98.804ZM111.987 228.49C142.131 228.49 153.347 210.264 153.347 179.42C153.347 148.575 140.028 126.844 112.688 126.844H82.5452V229.191H111.987V228.49ZM270.415 161.194C247.281 156.286 236.766 152.08 236.766 139.462C236.766 128.246 247.982 121.236 264.807 121.236C280.229 121.236 292.146 128.246 294.95 142.967H325.794C322.289 112.824 299.857 96 264.807 96C229.756 96 204.52 112.123 204.52 142.967C204.52 175.915 230.457 182.925 258.497 189.234C282.332 194.842 297.053 197.646 297.053 213.068C297.053 227.789 283.033 233.397 266.91 233.397C244.477 233.397 233.962 225.686 231.859 206.759H201.015C202.417 239.706 226.251 258.633 269.013 258.633C304.063 258.633 330 241.108 330 208.862C329.299 175.915 302.661 168.204 270.415 161.194Z" fill="white"/>
</svg>
