<svg width="360" height="360" viewBox="0 0 360 360" fill="none" xmlns="http://www.w3.org/2000/svg">
<path d="M0 132.02C0 85.3218 0 61.9726 9.2321 44.2001C17.0119 29.2234 29.2234 17.0119 44.2001 9.2321C61.9726 0 85.3218 0 132.02 0H227.98C274.678 0 298.027 0 315.8 9.2321C330.777 17.0119 342.988 29.2234 350.768 44.2001C360 61.9726 360 85.3218 360 132.02V227.98C360 274.678 360 298.027 350.768 315.8C342.988 330.777 330.777 342.988 315.8 350.768C298.027 360 274.678 360 227.98 360H132.02C85.3218 360 61.9726 360 44.2001 350.768C29.2234 342.988 17.0119 330.777 9.2321 315.8C0 298.027 0 274.678 0 227.98V132.02Z" fill="#4FCA18"/>
<path d="M180.929 213.855L178.275 216.509C176.948 217.836 142.449 252.335 130.241 286.835C126.261 286.835 78.2268 286.835 70 286.835C83.5344 235.351 149.879 182.54 150.41 182.01L153.86 179.356L150.41 176.702C149.614 175.906 92.2919 127.872 70.5308 74C79.2883 74 127.322 74 131.303 74C145.633 116.726 175.887 141.672 177.213 142.203L179.337 144.326L181.46 142.203C182.786 140.876 213.836 115.93 228.697 74C232.678 74 280.712 74 289.469 74C266.381 128.138 209.059 176.171 208.263 176.702L204.813 179.356L208.263 182.01C209.059 182.806 275.139 234.82 290 286.835C281.773 286.835 234.536 286.835 229.759 286.835C218.347 253.131 182.521 217.836 180.929 216.509V213.855Z" fill="black"/>
</svg>
