<svg fill="none" height="360" viewBox="0 0 360 360" width="360" xmlns="http://www.w3.org/2000/svg" xmlns:xlink="http://www.w3.org/1999/xlink"><linearGradient id="a" gradientUnits="userSpaceOnUse" x1="0" x2="360" y1="180" y2="180"><stop offset="0" stop-color="#f3262d" stop-opacity=".15"/><stop offset=".373849" stop-color="#3895fc" stop-opacity=".15"/><stop offset=".640017" stop-color="#ffc73c" stop-opacity=".15"/><stop offset="1" stop-color="#aeee20" stop-opacity=".15"/></linearGradient><path d="m0 132.02c0-46.6982 0-70.0474 9.2321-87.8199 7.7798-14.9767 19.9913-27.1882 34.968-34.968 17.7725-9.2321 41.1217-9.2321 87.8199-9.2321h95.96c46.698 0 70.047 0 87.82 9.2321 14.977 7.7798 27.188 19.9913 34.968 34.968 9.232 17.7725 9.232 41.1217 9.232 87.8199v95.96c0 46.698 0 70.047-9.232 87.82-7.78 14.977-19.991 27.188-34.968 34.968-17.773 9.232-41.122 9.232-87.82 9.232h-95.96c-46.6982 0-70.0474 0-87.8199-9.232-14.9767-7.78-27.1882-19.991-34.968-34.968-9.2321-17.773-9.2321-41.122-9.2321-87.82z" fill="url(#a)"/><path d="m65.4389 145.663c-21.5125 0-39.4389 9.127-39.4389 36.661 0 21.814 12.0542 35.551 39.9943 35.551 32.8869 0 34.9947-21.664 34.9947-21.664h-15.9349s-3.4166 11.665-20.0318 11.665c-13.5327 0-23.2659-9.141-23.2659-21.955h60.8996v-8.04c0-12.677-8.0474-32.218-37.2171-32.218zm-.5555 10.276c12.8817 0 21.6636 7.892 21.6636 19.72h-44.4382c0-12.557 11.4627-19.72 22.7746-19.72z" fill="#e53238"/><path d="m102.643 119v85.047c0 4.828-.344 11.606-.344 11.606h15.199s.545-4.868.545-9.318c0 0 7.509 11.748 27.928 11.748 21.501 0 36.106-14.927 36.106-36.314 0-19.896-13.415-35.898-36.072-35.898-21.216 0-27.808 11.457-27.808 11.457v-38.328zm39.439 37.391c14.601 0 23.886 10.836 23.886 25.378 0 15.593-10.724 25.795-23.782 25.795-15.583 0-23.989-12.168-23.989-25.656 0-12.569 7.543-25.517 23.885-25.517z" fill="#0064d2"/><path d="m219.851 145.663c-32.364 0-34.44 17.721-34.44 20.552h16.109s.845-10.345 17.22-10.345c10.641 0 18.886 4.87 18.886 14.234v3.333h-18.886c-25.073 0-38.328 7.334-38.328 22.219 0 14.648 12.247 22.618 28.798 22.618 22.556 0 29.822-12.463 29.822-12.463 0 4.957.382 9.842.382 9.842h14.321s-.555-6.055-.555-9.929v-33.485c0-21.956-17.71-26.576-33.329-26.576zm17.775 37.772v4.444c0 5.796-3.576 20.206-24.632 20.206-11.53 0-16.473-5.755-16.473-12.429 0-12.143 16.648-12.221 41.105-12.221z" fill="#f5af02"/><path d="m244.505 148.443h18.122l26.009 52.106 25.948-52.106h16.417l-47.266 92.765h-17.219l13.639-25.86z" fill="#86b817"/></svg>