<svg fill="none" height="360" viewBox="0 0 360 360" width="360" xmlns="http://www.w3.org/2000/svg" xmlns:xlink="http://www.w3.org/1999/xlink"><linearGradient id="a" gradientUnits="userSpaceOnUse" x1="180" x2="180" y1="0" y2="360"><stop offset="0" stop-color="#28469d" stop-opacity=".15"/><stop offset=".484375" stop-color="#f1441e" stop-opacity=".15"/><stop offset="1" stop-color="#259442" stop-opacity=".15"/></linearGradient><linearGradient id="b" gradientUnits="userSpaceOnUse" x1="179.895" x2="93.4029" y1="265.104" y2="178.612"><stop offset="0" stop-color="#aeca24"/><stop offset="1" stop-color="#168e44"/></linearGradient><linearGradient id="c" gradientUnits="userSpaceOnUse" x1="238.794" x2="63.2882" y1="211.377" y2="211.377"><stop offset="0" stop-color="#aeca24"/><stop offset=".589571" stop-color="#168e44"/><stop offset=".8" stop-color="#168e44"/><stop offset="1" stop-color="#168e44"/></linearGradient><linearGradient id="d" gradientUnits="userSpaceOnUse" x1="190.24" x2="254.515" y1="94.0443" y2="158.32"><stop offset="0" stop-color="#3993d7"/><stop offset="1" stop-color="#27459c"/></linearGradient><linearGradient id="e" gradientUnits="userSpaceOnUse" x1="121.203" x2="296.709" y1="137.634" y2="137.634"><stop offset="0" stop-color="#3993d7"/><stop offset=".8" stop-color="#27459c"/><stop offset="1" stop-color="#27459c"/></linearGradient><linearGradient id="f" gradientUnits="userSpaceOnUse" x1="154.241" x2="216.607" y1="148.789" y2="211.155"><stop offset="0" stop-color="#f0431e"/><stop offset=".9" stop-color="#f78f1f"/><stop offset="1" stop-color="#f78f1f"/></linearGradient><path d="m0 132.02c0-46.6982 0-70.0474 9.2321-87.8199 7.7798-14.9767 19.9913-27.1882 34.968-34.968 17.7725-9.2321 41.1217-9.2321 87.8199-9.2321h95.96c46.698 0 70.047 0 87.82 9.2321 14.977 7.7798 27.188 19.9913 34.968 34.968 9.232 17.7725 9.232 41.1217 9.232 87.8199v95.96c0 46.698 0 70.047-9.232 87.82-7.78 14.977-19.991 27.188-34.968 34.968-17.773 9.232-41.122 9.232-87.82 9.232h-95.96c-46.6982 0-70.0474 0-87.8199-9.232-14.9767-7.78-27.1882-19.991-34.968-34.968-9.2321-17.773-9.2321-41.122-9.2321-87.82z" fill="url(#a)"/><path d="m63.289 209.89c-.8704.423-1.5245.79-2.5157 1.348 0 0-3.7382 5.293-7.8891 11.884-3.8289 6.088-7.9849 13.278-10.6264 18.436-.3572.694-1.2578 2.45-1.2578 2.45 6.9383-5.016 15.406-7.814 26.7267-9.177 13.8816-1.671 30.0677-1.389 46.6463-.68 14.556.624 30.057 1.59 45.604 2.37 26.33 1.318 60.402-12.075 78.817-30.319 0 0-.79.463-1.046.619-34.269 19.813-65.288 15.491-93.076 10.435-20.946-3.814-42.048-11.718-60.7241-11.718-7.3106 0-14.2438 1.207-20.6589 4.352z" fill="url(#b)"/><path d="m63.6655 209.709c22.7419-10.848 52.0145 2.274 81.0055 7.547 27.788 5.056 58.807 9.378 93.076-10.435.256-.156 1.046-.619 1.046-.619s-7.084.659-17.559.8c-10.481.136-32.101-.745-45.212-1.857-27.593-2.334-48.408-3.899-65.077-3.904-20.3416 0-34.4998 2.334-47.2795 8.468zm-.3774.181c.1258-.061.2516-.126.3774-.181-.1258.055-.2516.12-.3774.181z" fill="url(#c)"/><path d="m292.266 114.178c-13.876 1.67-30.067 1.394-46.641.679-14.555-.624-30.057-1.59-45.604-2.364-26.329-1.319-60.402 12.07-78.817 30.314 0 0 .785-.463 1.047-.614 34.263-19.814 65.282-15.497 93.075-10.44 29.147 5.303 58.586 18.54 81.383 7.371.871-.428 1.525-.795 2.516-1.354 0 0 3.738-5.293 7.894-11.884 3.824-6.088 7.975-13.278 10.621-18.435.353-.694 1.258-2.45 1.258-2.45-6.943 5.016-15.406 7.814-26.732 9.177z" fill="url(#d)"/><path d="m122.251 142.193c-.262.151-1.047.614-1.047.614s7.084-.655 17.56-.79c10.48-.141 32.095.734 45.212 1.851 61.272 5.183 89.106 6.586 112.361-4.563-22.747 10.842-52.02-2.274-81.011-7.552-12.075-2.194-24.759-4.252-38.047-4.257-17.308 0-35.647 3.487-55.028 14.697zm174.086-2.888c.126-.061.246-.121.372-.181-.126.055-.246.12-.372.181z" fill="url(#e)"/><path d="m188.117 159.707c-28.347-2.199-57.404-4.403-83.652-.609-10.8933 11.029-21.0467 22.43-30.3849 34.253 26.5309-9.64 61.5289-6.837 97.6799-4.03 28.382 2.199 57.468 4.403 83.742.584 6.511-6.088 25.65-27.834 30.339-34.239-26.55 9.656-61.564 6.848-97.724 4.041z" fill="url(#f)"/></svg>