<svg fill="none" height="360" viewBox="0 0 360 360" width="360" xmlns="http://www.w3.org/2000/svg"><path d="m0 132.02c0-46.6982 0-70.0474 9.2321-87.8199 7.7798-14.9767 19.9913-27.1882 34.968-34.968 17.7725-9.2321 41.1217-9.2321 87.8199-9.2321h95.96c46.698 0 70.047 0 87.82 9.2321 14.977 7.7798 27.188 19.9913 34.968 34.968 9.232 17.7725 9.232 41.1217 9.232 87.8199v95.96c0 46.698 0 70.047-9.232 87.82-7.78 14.977-19.991 27.188-34.968 34.968-17.773 9.232-41.122 9.232-87.82 9.232h-95.96c-46.6982 0-70.0474 0-87.8199-9.232-14.9767-7.78-27.1882-19.991-34.968-34.968-9.2321-17.773-9.2321-41.122-9.2321-87.82z" fill="#281002"/><g fill="#f60"><path d="m288.645 137.877 11.911 89.38 11.889-89.38h18.555l-17.354 109.04h-26.386l-17.17-109.04z"/><path d="m46.2904 137.877h-10.2904v14.49h10.2904v94.55h18.0838v-94.55h12.7065v-14.49h-12.7065v-22.164c0-3.234.6703-5.709 2.2319-7.403 1.569-1.679 3.963-2.475 7.2114-2.475h3.2558v-14.8352h-6.5411c-8.0364 0-15.7781 1.7015-19.4612 5.2004-3.683 3.4989-4.7806 8.9278-4.7806 16.6618z"/><path d="m82.7227 246.914h18.1283v-109.04h-18.1283z"/><path d="m184.552 198.565h37.788v-33.604c-.044-20.102-9.708-28.345-28.02-28.345-19.042 0-27.969 8.221-27.969 28.478v55.223c.059 18.423 11.211 27.954 27.961 27.954 16.743 0 27.984-7.844 28.028-27.954v-8.736h-17.509l.022 10.349c0 7.381-2.762 12.486-10.172 12.486-7.425 0-10.129-5.149-10.129-12.493zm0-37.221c0-6.15 1.599-12.522 10.077-12.522 8.471 0 10.187 6.276 10.187 12.515v22.533h-20.264z"/><path d="m141.612 184.925c-13.753-11.94-14.821-13.671-14.821-22.569 0-7.58.656-12.191 7.469-12.191 6.806 0 7.69 4.552 7.69 12.279v10.07h17.473v-16.427c-.059-12.898-9.981-19.454-25.568-19.454-15.329 0-25.325 5.105-25.413 25.723-.015 3.506.007 3.506 0 2.151.029 6.482.059 16.758 16.08 30.503l4.597 3.933c11.807 9.959 13.097 11.16 13.045 23.004-.007 7.3-.457 12.832-8.117 12.832-7.661 0-8.14-5.576-8.14-9.016v-13.951h-18.342v14.393c0 17.715 11.528 22.098 26.459 22.098 14.946 0 26.489-4.427 26.489-27.217v-1.894c-.037-15.925-2.917-20.197-18.901-34.267z"/><path d="m246.61 149.099v-11.226h-16.522v109.032h17.826v-75.988c-.008-5.871 1.908-9.738 5.237-12.022 3.153-2.173 7.035-2.909 11.977-2.983v-19.292c-9.458.199-13.538 2.063-18.334 12.081z"/></g></svg>