<svg fill="none" height="360" viewBox="0 0 360 360" width="360" xmlns="http://www.w3.org/2000/svg"><path d="m0 132.02c0-46.6982 0-70.0474 9.2321-87.8199 7.7798-14.9767 19.9913-27.1882 34.968-34.968 17.7725-9.2321 41.1217-9.2321 87.8199-9.2321h95.96c46.698 0 70.047 0 87.82 9.2321 14.977 7.7798 27.188 19.9913 34.968 34.968 9.232 17.7725 9.232 41.1217 9.232 87.8199v95.96c0 46.698 0 70.047-9.232 87.82-7.78 14.977-19.991 27.188-34.968 34.968-17.773 9.232-41.122 9.232-87.82 9.232h-95.96c-46.6982 0-70.0474 0-87.8199-9.232-14.9767-7.78-27.1882-19.991-34.968-34.968-9.2321-17.773-9.2321-41.122-9.2321-87.82z" fill="#003998"/><g fill="#fff"><path d="m74.0131 152.944v15.671h33.1219v32.767h-33.1219v38.82h-34.0131v-120.202h72.299l2.316 32.944z"/><path d="m211.718 138.477c11.284 11.518 16.929 25.422 16.929 41.709 0 16.405-5.645 30.365-16.929 41.885-11.286 11.517-24.897 17.276-40.836 17.276-16.055 0-29.727-5.759-41.011-17.276-11.286-11.519-16.928-25.48-16.928-41.885 0-16.288 5.642-30.191 16.928-41.709 11.284-11.518 24.956-17.278 41.011-17.278 15.938 0 29.55 5.76 40.836 17.278zm-50.609 65.792c0 2.678.988 5.004 2.967 6.981 1.977 1.979 4.363 2.967 7.155 2.967 2.793 0 5.148-.988 7.068-2.967 1.92-1.977 2.88-4.303 2.88-6.981v-48.69c0-2.792-.96-5.175-2.88-7.155-1.919-1.976-4.275-2.967-7.068-2.967-2.792 0-5.178.991-7.155 2.967-1.98 1.98-2.967 4.363-2.967 7.155z"/><path d="m281.712 240.559-17.094-30.452-16.562 30.452h-37.396l35.616-62.328-33.657-58.231h38.465l14.068 25.999 14.246-25.999h37.218l-32.945 57.875 36.328 62.684z"/></g></svg>