<svg fill="none" height="360" viewBox="0 0 360 360" width="360" xmlns="http://www.w3.org/2000/svg"><path d="m0 132.02c0-46.6982 0-70.0474 9.2321-87.8199 7.7798-14.9767 19.9913-27.1882 34.968-34.968 17.7725-9.2321 41.1217-9.2321 87.8199-9.2321h95.96c46.698 0 70.047 0 87.82 9.2321 14.977 7.7798 27.188 19.9913 34.968 34.968 9.232 17.7725 9.232 41.1217 9.232 87.8199v95.96c0 46.698 0 70.047-9.232 87.82-7.78 14.977-19.991 27.188-34.968 34.968-17.773 9.232-41.122 9.232-87.82 9.232h-95.96c-46.6982 0-70.0474 0-87.8199-9.232-14.9767-7.78-27.1882-19.991-34.968-34.968-9.2321-17.773-9.2321-41.122-9.2321-87.82z" fill="#002885"/><g fill="#fff"><path d="m320.002 240.041c-12.782 0-25.794 0-38.422 0-.353 0-.999-1.552-1.183-1.874-5.285-9.54-10.569-19.127-15.823-28.651-5.623 10.139-11.092 20.447-16.699 30.602-12.582.031-25.057-.062-37.531-.031 1.413-2.642 2.919-5.223 4.424-7.819 10.493-18.128 20.832-36.502 31.34-54.645-11.169-19.511-22.506-38.867-33.736-58.332-.031 0-.108-.123-.031-.107h38.606c4.747 8.633 9.371 17.375 14.041 26.07 4.855-8.618 9.541-17.406 14.349-26.07h37.316c.03.153-.077.322-.154.445-10.892 19.142-22.045 38.345-32.922 57.518 12.09 20.985 24.411 41.955 36.425 62.894z"/><path d="m226.72 166.085c.983 3.994 1.551 8.388 1.551 13.012 0 14.426-4.178 25.118-9.985 33.813-.983 1.475-1.982 2.888-3.057 4.24-3.15 3.995-6.96 7.636-11.215 10.662-2.857 2.028-5.838 3.871-9.141 5.423-6.575 3.088-14.517 5.5-23.674 5.5-14.317 0-24.887-4.363-33.444-10.355-8.557-6.006-15.224-13.949-19.756-23.965-3.042-6.714-5.039-14.456-5.269-23.889-.108-4.67.476-9.279 1.321-13.273 2.15-10.078 6.375-17.974 11.721-24.78 5.347-6.79 12.121-12.106 20.31-16.115 3.21-1.567 6.805-2.904 10.723-3.872 3.917-.968 8.249-1.628 12.935-1.628h.077c4.578-.215 9.432.522 13.242 1.367 3.964.876 7.636 2.212 10.908 3.687 10.139 4.578 17.698 11.43 23.781 19.987 4.01 5.607 7.021 12.336 8.972 20.186zm-46.088 40.035c.369-1.475.261-3.364.261-5.315 0-14.887 0-29.466 0-44.398 0-1.905-.215-3.38-.768-4.763-.507-1.259-1.29-2.412-2.212-3.349-1.797-1.828-4.501-3.472-7.896-3.21-1.644.122-3.011.645-4.21 1.398-2.227 1.413-3.917 3.579-4.609 6.452-.353 1.459-.338 3.318-.338 5.238v44.398c0 .953-.046 1.875.077 2.689.323 2.335 1.368 4.209 2.735 5.607 1.767 1.798 4.501 3.303 8.034 2.919 4.563-.492 7.912-3.518 8.926-7.666z"/><path d="m114.29 152.152c-13.611 0-27.2069 0-40.8182 0-.1689 5.07-.0307 10.677-.0768 15.778 11.0304.092 22.2297.015 33.337.031v33.075c-11.1841.031-22.4603-.046-33.5828.031.0154 13.119.0768 25.993.0768 39.113 0 .046-.0153.061-.0307.077-11.3376 0-22.6905 0-34.0281 0-.0614.015-.0614-.031-.1075-.031-.0768-40.281-.0768-80.822-.0154-121.118 0-.047 0-.108.0308-.108h72.8949c.047 0 .062 0 .077.031.768 11.03 1.506 22.076 2.243 33.121z"/></g></svg>