<svg fill="none" height="360" viewBox="0 0 360 360" width="360" xmlns="http://www.w3.org/2000/svg" xmlns:xlink="http://www.w3.org/1999/xlink"><radialGradient id="a" cx="0" cy="0" gradientTransform="matrix(0 180 -180 0 180 180)" gradientUnits="userSpaceOnUse" r="1"><stop offset=".0208333" stop-color="#6e6e6e" stop-opacity=".15"/><stop offset=".239583" stop-color="#808080" stop-opacity=".15"/><stop offset=".463542" stop-color="#8f8f8f" stop-opacity=".15"/><stop offset=".802083" stop-color="#9c9c9c" stop-opacity=".15"/></radialGradient><clipPath id="b"><path d="m25 29h310v305.79h-310z"/></clipPath><path d="m0 132.02c0-46.6982 0-70.0474 9.2321-87.8199 7.7798-14.9767 19.9913-27.1882 34.968-34.968 17.7725-9.2321 41.1217-9.2321 87.8199-9.2321h95.96c46.698 0 70.047 0 87.82 9.2321 14.977 7.7798 27.188 19.9913 34.968 34.968 9.232 17.7725 9.232 41.1217 9.232 87.8199v95.96c0 46.698 0 70.047-9.232 87.82-7.78 14.977-19.991 27.188-34.968 34.968-17.773 9.232-41.122 9.232-87.82 9.232h-95.96c-46.6982 0-70.0474 0-87.8199-9.232-14.9767-7.78-27.1882-19.991-34.968-34.968-9.2321-17.773-9.2321-41.122-9.2321-87.82z" fill="url(#a)"/><g clip-path="url(#b)" clip-rule="evenodd" fill-rule="evenodd"><path d="m176.903 156.368v59.775h82.747c-1.374 4.688-3.072 9.174-5.052 13.41-.815 1.743-1.673 3.45-2.586 5.111-.191.348-.406.679-.601 1.023-.01.015.01.045 0 .06-.611 1.024-1.236 2.081-1.744 2.946-.653.999-1.32 2.036-1.864 2.887-.628.921-1.264 1.816-1.925 2.706-.154.208-.325.395-.481.601-.583.715-1.157 1.493-1.623 2.105-1.494 1.799-3.065 3.547-4.45 4.991-.805.841-1.633 1.643-2.345 2.345-.848.814-1.715 1.597-2.466 2.285-.81.711-1.626 1.369-2.465 2.045-.892.748-1.879 1.475-2.706 2.104l47.507 40.472c.704-.557 1.41-1.115 2.105-1.684h.06c.384-.315.761-.643 1.142-.962 1.082-.904 2.132-1.834 3.187-2.766.641-.566 1.294-1.108 1.925-1.684.409-.374.797-.764 1.203-1.143.597-.557 1.215-1.117 1.804-1.684.425-.41.842-.847 1.262-1.262.568-.559 1.126-1.117 1.684-1.684.429-.436.84-.882 1.263-1.323.975-1.015 1.94-2.026 2.887-3.067.956-1.051 1.899-2.11 2.826-3.187.918-1.067 1.818-2.156 2.706-3.248.426-.522.844-1.035 1.263-1.563.456-.575.875-1.163 1.323-1.744.854-1.11 1.702-2.234 2.526-3.368.78-1.074 1.592-2.152 2.345-3.247.041-.06.079-.121.12-.18.341-.497.688-1.003 1.023-1.504.457-.684.876-1.352 1.323-2.044.301-.467.605-.913.902-1.383.449-.714.885-1.444 1.323-2.165.278-.459.568-.922.841-1.383.446-.753.89-1.525 1.323-2.286.699-1.226 1.38-2.481 2.045-3.728 1.262-2.368 2.47-4.777 3.608-7.216.057-.122.124-.239.181-.361.183-.397.36-.804.541-1.203.41-.906.81-1.791 1.202-2.706.156-.361.329-.72.482-1.082.398-.949.763-1.929 1.142-2.887.137-.345.287-.676.421-1.022.38-.982.722-1.956 1.083-2.947.115-.318.247-.643.36-.962.365-1.026.74-2.092 1.083-3.127.1-.302.202-.599.3-.902.342-1.054.644-2.124.963-3.187.306-1.021.617-2.038.902-3.067.1-.362.203-.72.3-1.083.069-.257.113-.524.181-.782.357-1.355.702-2.719 1.022-4.089.094-.402.21-.799.301-1.202.495-2.209.925-4.432 1.323-6.676.229-1.293.465-2.604.661-3.908.021-.14.04-.282.06-.421.021-.141.04-.28.06-.421.006-.04-.006-.081 0-.121.296-2.056.57-4.112.782-6.194.069-.674.12-1.367.18-2.044.102-1.152.226-2.33.301-3.488.021-.319.041-.643.06-.962.004-.06-.004-.121 0-.181.082-1.417.138-2.841.18-4.269.001-.04-.001-.08 0-.12.043-1.469.06-2.912.06-4.39 0-8.713-.746-17.243-2.165-25.558h-72.523-83.409z" fill="#9c9c9c"/><path d="m334.76 190.886c-.055.941-.169 1.89-.241 2.826.057-.624.14-1.244.18-1.864.021-.319.042-.643.061-.962zm-2.105 17.559c-.394 2.224-.833 4.426-1.323 6.615.491-2.191.928-4.389 1.323-6.615zm-241.0243 7.096c-15.0558 11.696-35.6299 27.718-48.5897 38.006 26.0487 48.335 77.633 81.243 136.989 81.243 36.653 0 70.288-12.577 96.819-33.555l-47.507-40.472c-13.729 10.1-30.938 15.756-50.575 15.756-39.949 0-74.37-25.178-87.1363-60.978zm185.2183 85.694c.719-.569 1.456-1.103 2.165-1.684h-.06c-.695.569-1.4 1.127-2.105 1.684zm54.182-84.792c-.312 1.332-.675 2.651-1.022 3.969.348-1.324.709-2.631 1.022-3.969zm-5.111 17.079c-.286.787-.551 1.568-.842 2.345.296-.773.558-1.566.842-2.345zm-1.504 3.969c-.522 1.321-1.065 2.666-1.623 3.969.155-.361.329-.721.481-1.083.398-.948.763-1.929 1.142-2.886zm-3.908 8.96c-.46.972-.903 1.926-1.384 2.887.478-.957.926-1.919 1.384-2.887zm-3.248 6.495c-.622 1.168-1.272 2.336-1.924 3.488.655-1.155 1.299-2.315 1.924-3.488zm-80.281 1.383c-.781.746-1.596 1.513-2.405 2.225.826-.727 1.609-1.463 2.405-2.225zm-2.466 2.285c-.81.711-1.626 1.369-2.465 2.045.832-.671 1.662-1.34 2.465-2.045zm-2.525 2.105c-.841.675-1.718 1.344-2.586 1.984.87-.641 1.744-1.307 2.586-1.984zm74.027 12.147c-.824 1.134-1.672 2.258-2.526 3.368-.43.559-.827 1.13-1.263 1.684 1.307-1.651 2.551-3.348 3.789-5.052zm-5.112 6.675c-.888 1.092-1.788 2.181-2.706 3.248.922-1.071 1.814-2.152 2.706-3.248zm-5.532 6.435c-.947 1.041-1.911 2.052-2.887 3.067.968-1.007 1.947-2.035 2.887-3.067zm-10.163 10.223c-.612.555-1.245 1.077-1.864 1.624.618-.547 1.254-1.068 1.864-1.624z" fill="#6e6e6e"/><path d="m91.2696 154.744-50.2735-40.532c-10.2473 20.419-15.9961 43.391-15.9961 67.713 0 25.885 6.5272 50.258 18.0407 71.622 12.9598-10.288 33.5339-26.31 48.5898-38.006-3.4209-9.593-5.292-19.952-5.292-30.789 0-10.504 1.757-20.589 4.9311-30.008z" fill="#818181"/><path d="m180.03 29c-61.2 0-114.1307 35.0488-139.3347 85.874l50.6344 39.81c12.3443-36.53 46.4633-62.8421 86.7153-62.8421 22.763 0 42.433 8.3631 57.19 22.1901l46.665-47.2667c-27.242-23.4823-62.856-37.7653-101.87-37.7653z" fill="#8f8f8f"/><g fill="#34a855"><path d="m39.9134 116.437c-.8813 1.831-1.717 3.664-2.5257 5.533.8117-1.877 1.6411-3.696 2.5257-5.533z"/><path d="m37.1479 122.511c-.7736 1.807-1.5209 3.631-2.225 5.473.7-1.83 1.4566-3.677 2.225-5.473z"/><path d="m34.9228 127.984c-.2507.655-.4799 1.324-.7216 1.984.243-.663.4695-1.325.7216-1.984z"/><path d="m31.4341 138.207c-.5254 1.738-1.0398 3.468-1.5034 5.231.4615-1.754.9808-3.502 1.5034-5.231z"/><path d="m26.8043 158.653c-.1831 1.182-.3256 2.356-.4811 3.548.1558-1.193.2977-2.364.4811-3.548z"/><path d="m26.0821 163.945c-.1544 1.299-.2999 2.599-.421 3.909.1206-1.304.2675-2.615.421-3.909z"/><path d="m88.3233 165.629c-.1487.718-.2888 1.44-.421 2.164.1334-.723.2712-1.447.421-2.164z"/><path d="m87.902 167.793c-.1729.938-.3363 1.88-.4811 2.827.1434-.951.3095-1.886.4811-2.827z"/><path d="m86.8198 175.431c-.151 1.511-.2831 3.038-.3608 4.57.0762-1.523.213-3.068.3608-4.57z"/><path d="m86.4591 180.001c-.0799 1.576-.1202 3.155-.1202 4.751 0-1.603.041-3.168.1202-4.751z"/><path d="m86.3389 184.752c0 1.597.04 3.175.1202 4.75-.0806-1.58-.1202-3.148-.1202-4.75z"/><path d="m25.1201 188.059c.0394.986.1222 1.966.1804 2.947-.0581-.977-.1409-1.965-.1804-2.947z"/><path d="m86.7598 193.171c.0798.882.136 1.772.2405 2.646-.1061-.885-.1597-1.754-.2405-2.646z"/><path d="m87.7217 200.748c.2104 1.199.4652 2.366.7216 3.548-.2582-1.189-.51-2.342-.7216-3.548z"/><path d="m29.8711 220.112c.6337 2.429 1.3545 4.835 2.1047 7.216-.7485-2.376-1.4721-4.793-2.1047-7.216z"/><path d="m33.7803 232.68c.3519.985.7107 1.97 1.0824 2.947-.3712-.976-.731-1.963-1.0824-2.947z"/><path d="m34.8623 235.627c.7175 1.884 1.435 3.744 2.225 5.592-.7813-1.83-1.5147-3.727-2.225-5.592z"/></g></g></svg>