<svg fill="none" height="360" viewBox="0 0 360 360" width="360" xmlns="http://www.w3.org/2000/svg"><path d="m0 132.02c0-46.6982 0-70.0474 9.2321-87.8199 7.7798-14.9767 19.9913-27.1882 34.968-34.968 17.7725-9.2321 41.1217-9.2321 87.8199-9.2321h95.96c46.698 0 70.047 0 87.82 9.2321 14.977 7.7798 27.188 19.9913 34.968 34.968 9.232 17.7725 9.232 41.1217 9.232 87.8199v95.96c0 46.698 0 70.047-9.232 87.82-7.78 14.977-19.991 27.188-34.968 34.968-17.773 9.232-41.122 9.232-87.82 9.232h-95.96c-46.6982 0-70.0474 0-87.8199-9.232-14.9767-7.78-27.1882-19.991-34.968-34.968-9.2321-17.773-9.2321-41.122-9.2321-87.82z" fill="#616161"/><path d="m41.709 148.792h14.4471v76.643h-14.4471z" fill="#ffb441"/><g fill="#fff"><path d="m80.376 103h14.692v122.432h-14.4472z"/><path d="m117.123 148.791h13.712v11.998h.245c1.47-4.653 10.774-13.957 24.487-13.957 11.264 0 19.099 4.897 23.996 14.202 5.142-9.305 15.182-14.202 24.242-14.202 23.507 0 29.139 16.895 29.139 34.036v44.565h-14.448v-42.606c0-11.754-2.448-22.283-16.65-22.283s-19.589 9.55-19.589 23.262v41.871h-14.692v-40.157c0-14.447-2.204-24.976-16.161-24.976-10.529 0-19.834 7.836-19.834 25.221v39.912h-14.202z"/><path d="m257.172 148.791h14.447v11.753h.245c3.673-8.08 13.468-13.712 25.221-13.712 14.937 0 27.915 8.815 27.915 29.383v49.462h-14.692v-45.299c0-14.447-8.326-19.834-17.386-19.834-12.243 0-21.303 7.836-21.303 25.466v39.423h-14.691v-76.642z"/></g><path d="m48.7944 112.063c-5.387 0-9.7944 4.408-9.7944 9.795s4.4074 9.795 9.7944 9.795 9.7947-4.408 9.7947-9.795-4.4077-9.795-9.7947-9.795z" fill="#ffb441"/></svg>