<svg fill="none" height="360" viewBox="0 0 360 360" width="360" xmlns="http://www.w3.org/2000/svg"><path d="m0 132.02c0-46.6982 0-70.0474 9.2321-87.8199 7.7798-14.9767 19.9913-27.1882 34.968-34.968 17.7725-9.2321 41.1217-9.2321 87.8199-9.2321h95.96c46.698 0 70.047 0 87.82 9.2321 14.977 7.7798 27.188 19.9913 34.968 34.968 9.232 17.7725 9.232 41.1217 9.232 87.8199v95.96c0 46.698 0 70.047-9.232 87.82-7.78 14.977-19.991 27.188-34.968 34.968-17.773 9.232-41.122 9.232-87.82 9.232h-95.96c-46.6982 0-70.0474 0-87.8199-9.232-14.9767-7.78-27.1882-19.991-34.968-34.968-9.2321-17.773-9.2321-41.122-9.2321-87.82z" fill="#2f63b6"/><g fill="#fff"><path d="m177.682 191.472c-5.667 2.623-8.559 3.272-13.135 3.272-6.419 0-12.651-4.935-12.651-12.68 0-8.075 5.915-12.928 13.031-12.928 3.907 0 7.51.691 11.161 2.624.366.221.669.275.669-.157v-8.517c-1.554-.574-7.179-1.981-13.101-1.981-13.901 0-23.605 9.007-23.605 20.962 0 11.934 9.559 20.934 24.006 20.934 6.916 0 12.32-1.526 14.246-2.443v-8.849c0-.434-.38-.434-.62-.235"/><path d="m269.219 177.59c.098-2.623 2.644-9.076 9.132-9.076 7.654 0 9.117 6.709 9.117 9.076zm27.078 13.287c-5.025 2.796-9.843 4.197-15.979 4.197-8.593 0-11.375-5.977-11.375-9.477h29.749v-2.692c0-12.548-7.544-21.776-20.341-21.776-13.356 0-21.259 8.993-21.259 20.934 0 12.134 9.552 20.955 22.722 20.955 9.028 0 14.902-2.457 17.235-3.368v-8.538c0-.434-.47-.434-.751-.235"/><path d="m66.1797 201.659h11.2796v-58.133h-11.2796z"/><path d="m250.836 193.431c-3.721 1.691-8.221 1.878-9.96.587-1.166-.863-1.699-2.374-1.699-4.486v-18.726h12.128v-7.91s-11.175 0-12.128 0v-14.212c0-.297-.303-.393-.551-.317l-11.161 5.522c7.62 32.054-1.049 67.194-26.056 92.207-38.335 38.329-100.497 38.329-138.8392 0-38.3349-38.342-38.3349-100.503 0-138.839 25.0414-25.041 60.2362-33.7031 92.3182-26.028l.195-.7239c-34.469-9.2007-72.7701-.2896-99.8201 26.7529-40.3505 40.351-40.3505 105.784 0 146.142 40.3575 40.357 105.7911 40.357 146.1481.006 15.385-15.385 24.897-34.414 28.548-54.306.338.407.718.786 1.133 1.132 3.672 3.058 12.445 3.686 20.265 1.595v-8.255c0-.243-.339-.27-.519-.137"/><path d="m304.74 107.271c-40.357-40.3577-105.784-40.3577-146.148 0-16.952 16.952-26.767 38.342-29.473 60.422-2.54-4.286-7.378-6.64-14.432-6.64-5.142 0-10.692 2.913-14.005 5.909 0-1.333 0-4.066 0-4.066h-10.305v38.763h11.285v-26.021c1.739-1.885 6.198-6.123 10.823-6.123 4.604 0 7.461 3.196 7.461 6.516v25.628h11.527c-5.584-30.632 3.437-63.397 27.119-87.079 38.342-38.3417 100.497-38.3417 138.839 0 38.342 38.329 38.342 100.497-.007 138.832-25.028 25.041-60.222 33.704-92.311 26.036l-.195.723c34.469 9.194 72.77.29 99.82-26.76 40.35-40.35 40.35-105.783 0-146.141"/><path d="m214.166 162.896-10.664 20.865-10.429-20.865h-11.458l16.4 31.605-14.799 28.962h11.244l30.95-60.567z"/></g></svg>