<svg fill="none" height="360" viewBox="0 0 360 360" width="360" xmlns="http://www.w3.org/2000/svg"><path d="m0 132.02c0-46.6982 0-70.0474 9.2321-87.8199 7.7798-14.9767 19.9913-27.1882 34.968-34.968 17.7725-9.2321 41.1217-9.2321 87.8199-9.2321h95.96c46.698 0 70.047 0 87.82 9.2321 14.977 7.7798 27.188 19.9913 34.968 34.968 9.232 17.7725 9.232 41.1217 9.232 87.8199v95.96c0 46.698 0 70.047-9.232 87.82-7.78 14.977-19.991 27.188-34.968 34.968-17.773 9.232-41.122 9.232-87.82 9.232h-95.96c-46.6982 0-70.0474 0-87.8199-9.232-14.9767-7.78-27.1882-19.991-34.968-34.968-9.2321-17.773-9.2321-41.122-9.2321-87.82z" fill="#0071c5"/><circle cx="180" cy="180" fill="#4681c7" fill-opacity=".06" r="155.455"/><circle cx="180" cy="180" r="155.205" stroke="#2869bf" stroke-opacity=".04" stroke-width=".5"/><path d="m118.799 165.354v48.122h-15.319v-60.487l31.625.031c13.433 0 18.009 9.472 18.009 18.077v42.379h-15.291v-42.3c0-3.604-1.866-5.822-6.366-5.822zm104.164-.723c-5.236 0-9.288 2.692-10.981 6.346-1.002 2.194-1.347 3.875-1.465 6.561h23.567c-.303-6.561-3.278-12.907-11.121-12.907zm-12.446 23.333c0 7.835 4.871 13.602 13.567 13.602 6.766 0 10.129-1.875 14.041-5.767l9.461 9.034c-6.058 5.981-12.415 9.613-23.615 9.613-14.664 0-28.697-7.996-28.697-31.3 0-19.911 12.252-31.183 28.353-31.183 16.319 0 25.748 13.197 25.748 30.483v5.518zm-28.174 25.436c-12.48 0-17.775-8.687-17.775-17.267v-59.625h15.295v16.481h11.53v12.365h-11.53v29.82c0 3.514 1.659 5.465 5.308 5.465h6.222v12.761zm-92.493-68.77h-15.4237v-14.652h15.4237zm.0388 69.482c-11.5502-1.11-15.479-8.116-15.479-16.2l.0167-44.923h15.4625v61.123zm183.8292-1.292c-11.526-1.112-15.437-8.107-15.437-16.18v-68.747h15.437zm53.965-74.992c-13.99-68.2042-146.386-72.522-231.7231-20.571v5.736c85.2511-43.8119 206.1571-43.5538 217.1731 19.266 3.685 20.772-8.02 42.429-28.925 54.877v16.286c25.162-9.205 50.967-39.055 43.475-75.594zm-155.124 119.332c-58.897 5.445-120.2708-3.104-128.8584-49.127-4.2034-22.687 6.1319-46.737 19.8429-61.676v-7.988c-24.6824 21.644-38.0781 49.045-30.3663 81.423 9.8431 41.518 62.5172 65.047 142.9158 57.233 31.81-3.104 73.444-13.333 102.389-29.219v-22.57c-26.264 15.64-69.726 28.573-105.923 31.924z" fill="#fff"/></svg>