<svg fill="none" height="360" viewBox="0 0 360 360" width="360" xmlns="http://www.w3.org/2000/svg" xmlns:xlink="http://www.w3.org/1999/xlink"><mask id="a" height="360" maskUnits="userSpaceOnUse" width="360" x="0" y="0"><rect fill="#000" height="360" rx="82" width="360"/></mask><path d="m0 132.02c0-46.6982 0-70.0474 9.2321-87.8199 7.7798-14.9767 19.9913-27.1882 34.968-34.968 17.7725-9.2321 41.1217-9.2321 87.8199-9.2321h95.96c46.698 0 70.047 0 87.82 9.2321 14.977 7.7798 27.188 19.9913 34.968 34.968 9.232 17.7725 9.232 41.1217 9.232 87.8199v95.96c0 46.698 0 70.047-9.232 87.82-7.78 14.977-19.991 27.188-34.968 34.968-17.773 9.232-41.122 9.232-87.82 9.232h-95.96c-46.6982 0-70.0474 0-87.8199-9.232-14.9767-7.78-27.1882-19.991-34.968-34.968-9.2321-17.773-9.2321-41.122-9.2321-87.82z" fill="#000"/><g mask="url(#a)"><path d="m189.627 466.359h-20.627v-221h20.627z" fill="#82888f"/><path d="m179.521 208.041c19.617 0 35.52-15.903 35.52-35.52 0-19.618-15.903-35.521-35.52-35.521-19.618 0-35.521 15.903-35.521 35.521 0 19.617 15.903 35.52 35.521 35.52z" fill="#f7a800"/></g></svg>