<svg width="360" height="360" viewBox="0 0 360 360" fill="none" xmlns="http://www.w3.org/2000/svg">
<path d="M0 132.02C0 85.3218 0 61.9726 9.2321 44.2001C17.0119 29.2234 29.2234 17.0119 44.2001 9.2321C61.9726 0 85.3218 0 132.02 0H227.98C274.678 0 298.027 0 315.8 9.2321C330.777 17.0119 342.988 29.2234 350.768 44.2001C360 61.9726 360 85.3218 360 132.02V227.98C360 274.678 360 298.027 350.768 315.8C342.988 330.777 330.777 342.988 315.8 350.768C298.027 360 274.678 360 227.98 360H132.02C85.3218 360 61.9726 360 44.2001 350.768C29.2234 342.988 17.0119 330.777 9.2321 315.8C0 298.027 0 274.678 0 227.98V132.02Z" fill="#B92D2D"/>
<path d="M121.896 83.1562H146.398V214.045C146.398 231.734 141.066 245.572 130.402 255.559C119.823 265.546 105.689 270.539 88 270.539C69.6341 270.539 55.3307 265.842 45.0898 256.447C34.849 247.053 29.7285 233.892 29.7285 216.965H54.1035C54.1035 227.544 56.9811 235.796 62.7363 241.721C68.5762 247.645 76.9974 250.607 88 250.607C98.0716 250.607 106.197 247.434 112.375 241.086C118.638 234.738 121.812 225.852 121.896 214.426V83.1562Z" fill="white"/>
<path d="M187.912 268V83.1562H240.09C256.171 83.1562 270.389 86.7109 282.746 93.8203C295.103 100.93 304.624 111.044 311.311 124.162C318.081 137.281 321.509 152.346 321.594 169.357V181.164C321.594 198.599 318.208 213.876 311.438 226.994C304.751 240.113 295.145 250.184 282.619 257.209C270.178 264.234 255.663 267.831 239.074 268H187.912ZM212.287 103.215V248.068H237.932C256.721 248.068 271.32 242.229 281.73 230.549C292.225 218.869 297.473 202.238 297.473 180.656V169.865C297.473 148.876 292.521 132.583 282.619 120.988C272.801 109.309 258.837 103.384 240.725 103.215H212.287Z" fill="white"/>
</svg>
