<svg width="360" height="360" viewBox="0 0 360 360" fill="none" xmlns="http://www.w3.org/2000/svg">
<path d="M0 132.02C0 85.3218 0 61.9726 9.2321 44.2001C17.0119 29.2234 29.2234 17.0119 44.2001 9.2321C61.9726 0 85.3218 0 132.02 0H227.98C274.678 0 298.027 0 315.8 9.2321C330.777 17.0119 342.988 29.2234 350.768 44.2001C360 61.9726 360 85.3218 360 132.02V227.98C360 274.678 360 298.027 350.768 315.8C342.988 330.777 330.777 342.988 315.8 350.768C298.027 360 274.678 360 227.98 360H132.02C85.3218 360 61.9726 360 44.2001 350.768C29.2234 342.988 17.0119 330.777 9.2321 315.8C0 298.027 0 274.678 0 227.98V132.02Z" fill="#D41935"/>
<path d="M336 180.028C336 265.573 266.574 335 181.028 335C95.4262 335 26 265.573 26 180.028C26 94.4262 95.4262 25 181.028 25C266.574 25 336 94.4262 336 180.028Z" fill="white"/>
<path d="M287.844 251.314C275.37 269.974 259.471 279.891 241.732 279.891C233.962 279.891 225.782 278 217.398 274.268C208.503 270.331 200.682 263.123 195.365 253.973C190.1 244.822 188.004 234.956 189.486 226.06C191.326 218.29 195.416 207.708 200.171 195.439C212.491 163.539 229.412 119.83 214.791 98.4614C208.657 89.4641 197.563 85.0675 181 85.0165C164.386 85.0688 153.343 89.4641 147.158 98.4614C132.588 119.83 149.458 163.539 161.829 195.49C166.533 207.708 170.673 218.29 172.463 226.163C173.996 234.956 171.9 244.822 166.584 253.973C161.318 263.123 153.497 270.331 144.602 274.268C136.218 278 127.987 279.891 120.268 279.891C102.529 279.891 86.5789 269.974 74.2075 251.365L72.7761 248.809C78.7061 251.774 90.0039 256.682 99.7681 256.682C104.625 256.682 109.226 255.2 113.775 252.183C138.825 235.518 130.288 215.478 113.162 184.499C105.902 171.36 98.4386 157.813 95.1157 143.806C91.5372 128.776 88.2654 106.845 101.353 90.282C107.436 82.4604 116.791 76.4792 129.06 72.4406C141.79 68.1975 158.199 65.9483 177.83 65.6415H184.169C203.8 65.9477 220.21 68.1975 232.939 72.4406C245.208 76.4792 254.513 82.4604 260.647 90.282C273.734 106.845 270.462 128.776 266.884 143.806C263.561 157.813 256.097 171.36 248.837 184.499C231.712 215.478 223.124 235.518 248.224 252.183C252.774 255.2 257.323 256.682 262.231 256.682C271.995 256.682 283.242 251.774 289.223 248.809L287.844 251.314ZM181 25C95.3717 25 26 94.3717 26 180C26 265.577 95.3717 335 181 335C266.628 335 336 265.577 336 180C336 94.3717 266.628 25 181 25Z" fill="#D41935"/>
</svg>
