<svg fill="none" height="360" viewBox="0 0 360 360" width="360" xmlns="http://www.w3.org/2000/svg"><path d="m0 132.02c0-46.6982 0-70.0474 9.2321-87.8199 7.7798-14.9767 19.9913-27.1882 34.968-34.968 17.7725-9.2321 41.1217-9.2321 87.8199-9.2321h95.96c46.698 0 70.047 0 87.82 9.2321 14.977 7.7798 27.188 19.9913 34.968 34.968 9.232 17.7725 9.232 41.1217 9.232 87.8199v95.96c0 46.698 0 70.047-9.232 87.82-7.78 14.977-19.991 27.188-34.968 34.968-17.773 9.232-41.122 9.232-87.82 9.232h-95.96c-46.6982 0-70.0474 0-87.8199-9.232-14.9767-7.78-27.1882-19.991-34.968-34.968-9.2321-17.773-9.2321-41.122-9.2321-87.82z" fill="#c6003d"/><g fill="#fff"><path d="m125.45 122.638c6.696 18.468 22.318 37.55 11.159 58.976-5.021 21.76-25.666 39.391-47.4258 42.906-22.8761 2.065-44.0785-1.785-61.3749-15.567-11.7172-62.825 13.9488-120.964 63.6066-155.6129z"/><path d="m213.047 314.074c-11.159 37.997-123.309 13.056-158.4601-49.323 46.3101 5.133 98.2011-35.821 99.3171-82.522z"/><path d="m259.36 309.164c5.022-2.288 15.064-7.42 17.854-18.412l-120.518-262.1274c-8.37-1.0043-13.948-1.7297-24.55 5.5795z"/><path d="m313.48 252.251c51.332-77.835 8.369-205.5509-102.664-223.4612z"/></g></svg>