<svg fill="none" height="360" viewBox="0 0 360 360" width="360" xmlns="http://www.w3.org/2000/svg"><path d="m0 132.02c0-46.6982 0-70.0474 9.2321-87.8199 7.7798-14.9767 19.9913-27.1882 34.968-34.968 17.7725-9.2321 41.1217-9.2321 87.8199-9.2321h95.96c46.698 0 70.047 0 87.82 9.2321 14.977 7.7798 27.188 19.9913 34.968 34.968 9.232 17.7725 9.232 41.1217 9.232 87.8199v95.96c0 46.698 0 70.047-9.232 87.82-7.78 14.977-19.991 27.188-34.968 34.968-17.773 9.232-41.122 9.232-87.82 9.232h-95.96c-46.6982 0-70.0474 0-87.8199-9.232-14.9767-7.78-27.1882-19.991-34.968-34.968-9.2321-17.773-9.2321-41.122-9.2321-87.82z" fill="#ec1b24"/><path clip-rule="evenodd" d="m169.642 264.608s12.281 21.585 26.174 0l26.919-39.199-79.268-126.7791s-12.281-16.9948-26.918 0l-27.6634 38.3311zm10.792 61.529c41.557 0 79.268-15.382 106.931-39.944l-94.65-148.363 29.276-40.0685c12.281-16.1264 25.306 0 25.306 0l80.88 127.6475c3.846-10.793 6.079-23.074 6.823-34.61l-91.549-144.5181c-19.227-7.6911-40.688-12.2809-63.017-12.2809-80.5081 0-155.434 61.7767-155.434 146.13 0 13.026 2.2329 26.051 5.3341 37.588l45.4022-62.273 31.6327 48.503c7.567 11.537 0 21.461 0 21.461l-40.0681 55.326c30.2681 30.268 70.8321 45.402 113.1331 45.402z" fill="#fff" fill-rule="evenodd"/></svg>