<svg fill="none" height="360" viewBox="0 0 360 360" width="360" xmlns="http://www.w3.org/2000/svg"><path d="m0 132.02c0-46.6982 0-70.0474 9.2321-87.8199 7.7798-14.9767 19.9913-27.1882 34.968-34.968 17.7725-9.2321 41.1217-9.2321 87.8199-9.2321h95.96c46.698 0 70.047 0 87.82 9.2321 14.977 7.7798 27.188 19.9913 34.968 34.968 9.232 17.7725 9.232 41.1217 9.232 87.8199v95.96c0 46.698 0 70.047-9.232 87.82-7.78 14.977-19.991 27.188-34.968 34.968-17.773 9.232-41.122 9.232-87.82 9.232h-95.96c-46.6982 0-70.0474 0-87.8199-9.232-14.9767-7.78-27.1882-19.991-34.968-34.968-9.2321-17.773-9.2321-41.122-9.2321-87.82z" fill="#000"/><g fill="#0f0"><path d="m185.936 54.4706c-.72.8318-1.775 1.3863-2.661 1.3863-1.387 0-3.549.8873-4.16 1.6636-.165.1662-2.162.6653-4.435 1.0535-12.31 2.1626-25.23 6.4322-33.825 11.2009-2.55 1.3863-5.267 1.3863-6.266-.0554-1.22-1.719-3.382-2.218-10.037-2.218h-6.21l-1.22-1.6635c-.665-.8872-1.941-1.9963-2.883-2.4953-1.442-.7208-1.885-.7208-4.88.2218-1.83.5545-4.768 2.0517-6.488 3.3271-3.2155 2.2734-3.2713 2.2734-8.04 2.2734-2.6612 0-7.0419.3882-9.7039.8317-5.5448.9982-24.8411 7.0977-25.1184 7.9849-.1665.4436 2.0517.61 6.8204.61 5.3783 0 7.2635.2218 8.2618.8317 1.0533.7209 2.6613.8318 7.708.7209 5.434-.1664 6.5431 0 7.4299.7763.6103.5545 1.4972.9981 2.0517.9981.4988 0 1.5529.6099 2.2732 1.3863 1.2199 1.1644 1.3864 1.8298 1.3864 5.6559 0 5.4341.9983 7.5414 5.4899 12.3652 1.996 2.107 3.659 4.436 3.937 5.545 1.275 4.547.333 10.868-3.328 22.18-4.4352 13.697-4.1579 17.855 1.553 23.955 1.22 1.275 1.996 2.772 2.163 3.881.111.999.499 2.108.942 2.385.444.332 1.109 2.218 1.442 4.158.389 1.997 1.275 4.658 1.996 5.934 1.276 2.162 1.331 2.828 1.331 11.756 0 8.095.167 9.814 1.109 12.198 1.664 4.325 2.773 9.76 2.773 13.808 0 4.38-2.44 12.199-4.935 15.859-1.497 2.328-2.828 5.378-2.828 6.764 0 .388 1.109 1.996 2.495 3.605 2.329 2.717 3.937 6.21 3.272 7.208-.112.222 0 4.547.277 9.593.61 9.538 1.054 11.423 3.604 13.863 1.386 1.33 2.108 4.38 3.382 14.75 1.332 10.369 2.385 14.804 4.492 19.296 1.386 2.828 2.218 3.992 2.994 3.992.555 0 1.109-.332 1.276-.721.499-1.33-.333-6.764-1.164-7.763-1.387-1.552-.999-23.787.498-30.22 1.22-5.212 1.11-13.751-.277-20.738-1.275-6.488-1.497-8.595-1.109-10.98.222-1.22.665-2.217.998-2.217.721 0 3.161-8.817 3.105-11.313 0-.942.611-2.273 1.664-3.437 3.66-4.159 3.66-10.591 0-17.689l-2.329-4.492.222-6.82c.11-5.212.333-6.931.998-7.43 1.331-1.054 2.44-4.326 2.384-7.043 0-1.607-.943-4.768-2.606-8.872-5.767-14.139-7.43-20.017-7.929-28.335-.388-6.432-.111-7.707 2.273-10.369 2.496-2.828 3.105-4.103 3.105-6.709 0-1.664-.221-2.274-.832-2.274-.72 0-.831-1.386-.831-9.038l.055-8.9831 2.607-1.6635c1.607-1.0536 3.604-1.7744 5.379-1.9408 2.661-.2772 2.717-.3326 3.215-2.4952.278-1.2199.333-4.3806.111-7.0977l-.332-4.8241 1.996-2.0517c1.053-1.109 1.941-2.218 1.941-2.4953 0-.2217 1.941-.4436 4.269-.4436 3.106 0 4.492.2219 5.212.8872.777.7209 2.052.8873 5.767.8318l4.769-.1109.943 1.8299c1.386 2.6061 3.715 4.8796 5.046 4.8796 2.273 0 2.939 4.9905 1.442 10.3692-.444 1.608-1.165 4.2144-1.609 5.7665-.997 3.5487-.499 4.9907 2.385 6.8757 2.773 1.719 3.216 3.272 2.273 7.708-1.275 6.1-1.331 9.149-.166 10.425.887.998.998 1.996.831 9.925l-.221 8.817 1.941 1.941 1.885 1.885-.776 3.493c-1.276 5.379-.666 17.745 1.22 26.229 2.384 10.868 3.271 16.413 2.606 16.856-.555.333-1.609 3.05-8.041 21.127-2.217 6.1-2.328 6.654-2.328 13.031 0 6.432.055 6.82 1.885 10.701 1.829 3.826 1.829 4.049.887 5.102-1.387 1.497-.887 6.211.998 10.148l1.497 3.049-.221 17.855c-.167 10.425-.056 19.02.277 20.683.61 3.494 3.77 10.259 6.044 13.142 1.996 2.551 2.162 4.991.554 10.092-.609 1.886-1.109 4.159-1.109 4.935 0 .832-.388 1.608-.832 1.83-.609.222-.832 1.22-.832 4.214 0 2.108.223 3.882.555 3.882.998 0 4.491-3.494 5.601-5.601.554-1.164 1.054-2.772 1.054-3.548 0-.777.221-1.387.498-1.387 1.054 0 1.276-2.329 1.22-12.919-.11-10.703-.11-10.924.999-10.924.665 0 1.164-.056 1.164-.167 0-.055.61-1.941 1.386-4.159 1.442-4.214 1.885-10.258.832-10.924-.277-.165-.555-.055-.555.223 0 .332-.221.609-.554.609-.832 0-2.661-6.987-3.382-12.753-.666-5.711-.334-12.865.886-19.131 1.72-8.705 2.108-15.748 1.442-25.285-.887-12.976-.831-15.415.499-17.578.611-.998 1.109-2.55 1.109-3.438 0-1.108.278-1.663.832-1.663 1.276 0 2.384-2.218 2.828-5.823.5-4.546 1.053-5.766 2.884-6.543 1.995-.832 6.653-6.043 7.097-7.929.665-2.551-.221-6.488-3.161-14.084-2.218-5.767-2.938-8.429-3.16-11.534-.222-3.216-.111-4.159.61-4.713.665-.5.887-1.941 1.053-5.767.167-4.602.333-5.213 1.608-6.654 1.775-1.941 2.496-4.991 1.387-6.211-1.331-1.608-4.436-26.616-4.492-36.375 0-5.1569.111-5.8223 1.83-9.2048.998-2.1626 3.881-6.0441 6.765-9.4266 2.773-3.1052 4.991-5.8223 4.991-6.044 0-.1664-.555-.3328-1.221-.3882-1.774-.1664-3.216-2.1626-3.216-4.3806 0-2.2734-1.83-4.3251-3.382-3.937-.721.1663-1.941-.499-3.715-2.1071-1.497-1.3308-3.328-2.6062-4.159-2.7725-.887-.2218-1.497-.8318-1.608-1.5526-.111-.8318-.776-1.3863-1.996-1.7744-1.164-.3327-1.941-.9427-2.108-1.7745-.498-1.8852-3.937-1.7744-5.6.1109z"/><path d="m251.3 63.1773c-.388.3882-.665.9426-.665 1.3308 0 .7763-3.272 2.828-5.324 3.3271-.832.2217-2.273 1.4971-3.382 3.0497-1.053 1.4971-2.496 2.828-3.105 2.9389-.665.1109-2.884.499-4.935.8317-5.324.8872-15.97 4.8242-17.523 6.4323-.72.7763-1.497 1.3863-1.774 1.3863-.333 0-.555.2217-.555.5544 0 .2773.333.5545.721.5545s3.771.9981 7.542 2.2181c7.042 2.2734 10.701 2.7171 13.807 1.608 1.441-.4991 1.94-.3882 3.271.5545.832.6099 2.939 1.4971 4.603 1.9408 1.663.499 3.881 1.3862 4.935 2.0516 1.664.9981 1.829 1.2754 1.441 2.8834-1.386 6.5986-1.941 12.6426-1.885 20.5166l.111 8.761-2.273 1.442c-4.492 2.939-5.213 7.098-1.498 8.872 2.219 1.054 2.219 1.164 1.11 6.987-1.165 5.989-1.11 11.811.165 14.25.5 1.054 1.831 2.496 2.884 3.217 3.66 2.44 4.27 5.822 2.551 13.973-1.386 6.599-1.22 9.149.998 12.754 1.719 2.772 1.886 3.437 1.886 7.486.055 2.439.443 5.822.886 7.596.777 2.884.777 3.272-.11 4.99-.776 1.553-.943 3.549-.943 13.198 0 9.815-.111 11.589-.943 13.031-.554.887-.998 1.941-.998 2.274 0 .332-.388.942-.832 1.33-1.164.943-1.053 3.66.278 7.486 1.441 4.158 1.386 5.379-.222 7.319-3.826 4.603-4.27 8.263-2.329 18.132 1.608 8.152 1.775 11.201.61 12.754-1.275 1.664-.998 6.71.554 11.091 1.553 4.379 2.218 5.267 3.161 4.324.388-.388.665-2.939.665-6.931l.056-6.321 2.606-5.213c1.442-2.883 3.438-6.21 4.492-7.43 3.659-4.27 3.714-4.603 3.714-17.079 0-6.21-.221-12.642-.498-14.306-.278-1.663-.61-5.434-.776-8.428-.223-5.268-.167-5.545 1.33-7.764 1.83-2.717 2.052-5.766.776-10.036-.443-1.497-.832-4.769-.832-7.264 0-4.214.112-4.713 1.72-6.931.942-1.331 1.885-3.328 1.996-4.547.222-1.22.61-2.107 1.054-2.107 2.717 0 3.714-10.148 1.497-15.027-.61-1.387-1.941-3.105-2.884-3.882-5.822-4.38-6.044-5.711-2.772-15.526 2.661-8.095 2.606-9.371-.444-11.312-1.775-1.109-1.775-1.164-1.83-5.6-.055-12.699 4.603-26.006 14.584-41.8654 3.438-5.434 4.658-8.8165 3.161-8.8165-.333 0-1.22-.61-1.941-1.3863-1.109-1.0536-1.387-1.8853-1.387-4.2697 0-1.7189-.333-3.4379-.832-4.1033-.443-.6654-1.718-3.2715-2.827-5.8223-3.605-8.3176-6.211-10.4246-12.865-10.4801-1.885 0-4.381-.3882-5.49-.8317-2.384-.9982-3.604-1.0536-4.491-.1664z"/></g></svg>