<svg fill="none" height="360" viewBox="0 0 360 360" width="360" xmlns="http://www.w3.org/2000/svg"><path d="m0 132.02c0-46.6982 0-70.0474 9.2321-87.8199 7.7798-14.9767 19.9913-27.1882 34.968-34.968 17.7725-9.2321 41.1217-9.2321 87.8199-9.2321h95.96c46.698 0 70.047 0 87.82 9.2321 14.977 7.7798 27.188 19.9913 34.968 34.968 9.232 17.7725 9.232 41.1217 9.232 87.8199v95.96c0 46.698 0 70.047-9.232 87.82-7.78 14.977-19.991 27.188-34.968 34.968-17.773 9.232-41.122 9.232-87.82 9.232h-95.96c-46.6982 0-70.0474 0-87.8199-9.232-14.9767-7.78-27.1882-19.991-34.968-34.968-9.2321-17.773-9.2321-41.122-9.2321-87.82z" fill="#104076"/><g fill="#fff"><path d="m266.928 172.828c35.083-36.194 49.612-69.836 38.301-86.0284-11.806-16.9099-48.489-10.0609-96.039 15.0624-2.126 1.041-4.011 2.146-5.401 3.104-2.298 1.594-.959 2.755.736 2.139 1.739-.628 3.72-1.39 5.954-2.488 35.641-16.9033 63.444-19.9375 74.311-8.1374 16.561 17.9704-17.354 76.8624-76.082 120.4264-7.839 5.814-19.938 14.326-27.815 19.055-.533.33-1.06.654-1.574.984-2.082 1.365-3.936 2.634-5.396 3.777-1.422 1.104-1.149 2.863 1.416 1.758 1.561-.666 3.459-1.676 5.478-2.913.457-.28.907-.534 1.383-.826 8.855-5.376 22.001-14.453 30.983-20.724 7.725-5.396 15.025-10.874 21.893-16.371 11.978-9.604 22.622-19.303 31.852-28.818z"/><path d="m110.54 282h31.858v-33.014c8.709-5.148 17.526-10.791 26.19-16.7 1.949-1.339 3.676-2.672 4.926-3.815 2.063-1.885.571-2.856-1.022-2.019-1.638.864-3.574 2.032-5.668 3.365-49.213 31.477-82.4362 41.081-94.706 24.425-10.6576-14.46 6.8109-42.414 38.422-73.987v73.282c8.969-3.046 19.569-7.902 31.852-14.732l-.006-67.989 7.007 14.91c7.681 16.466 21.62 26.311 39.342 26.311 17.717 0 31.656-9.845 39.336-26.311l7.008-14.91-.006 17.348c11.4-11.058 21.131-22.096 28.513-32.773.92-1.32.838-2.431.336-3.649-4.913-10.252-15.367-17.317-27.516-17.317-12.016 0-22.452 6.97-27.454 17.05l-13.329 28.278c-1.378 2.755-3.917 4.285-6.888 4.285-2.964 0-5.516-1.53-6.893-4.285l-13.33-28.278c-2.539-5.123-6.487-9.439-11.33-12.448 9.75-7.737 19.227-14.65 28.557-20.312 2.121-1.288 3.86-2.577 5.326-3.701 1.441-1.098 1.174-2.856-1.396-1.777-1.562.654-3.587 1.651-5.612 2.882-9.534 5.776-19.277 11.686-28.595 18.052-1.13.769-2.248 1.543-3.365 2.317-3.427-1.333-7.147-2.063-11.038-2.063-16.885 0-30.519 13.641-30.519 30.526v4.202c-45.0045 40.129-68.6301 79.865-56.2841 97.556 9.0643 12.974 30.5572 9.978 56.2841-1.2z"/></g></svg>