<svg width="361" height="360" viewBox="0 0 361 360" fill="none" xmlns="http://www.w3.org/2000/svg">
<path d="M0.571289 132.02C0.571289 85.3218 0.571289 61.9726 9.80339 44.2001C17.5832 29.2234 29.7946 17.0119 44.7714 9.2321C62.5439 0 85.8931 0 132.591 0H228.551C275.25 0 298.599 0 316.371 9.2321C331.348 17.0119 343.559 29.2234 351.339 44.2001C360.571 61.9726 360.571 85.3218 360.571 132.02V227.98C360.571 274.678 360.571 298.027 351.339 315.8C343.559 330.777 331.348 342.988 316.371 350.768C298.599 360 275.25 360 228.551 360H132.591C85.8931 360 62.5439 360 44.7714 350.768C29.7946 342.988 17.5832 330.777 9.80339 315.8C0.571289 298.027 0.571289 274.678 0.571289 227.98V132.02Z" fill="#007DC1"/>
<path d="M180.571 51.4277C109.512 51.4277 52 108.94 52 179.999C52 251.059 109.512 308.571 180.571 308.571C251.631 308.571 309.143 251.059 309.143 179.999C309.143 108.94 251.631 51.4277 180.571 51.4277ZM180.571 244.413C145.042 244.413 116.158 215.529 116.158 179.999C116.158 144.47 145.042 115.586 180.571 115.586C216.101 115.586 244.985 144.47 244.985 179.999C244.985 215.529 216.101 244.413 180.571 244.413Z" fill="white"/>
</svg>
