<svg fill="none" height="360" viewBox="0 0 360 360" width="360" xmlns="http://www.w3.org/2000/svg"><path d="m0 132.02c0-46.6982 0-70.0474 9.2321-87.8199 7.7798-14.9767 19.9913-27.1882 34.968-34.968 17.7725-9.2321 41.1217-9.2321 87.8199-9.2321h95.96c46.698 0 70.047 0 87.82 9.2321 14.977 7.7798 27.188 19.9913 34.968 34.968 9.232 17.7725 9.232 41.1217 9.232 87.8199v95.96c0 46.698 0 70.047-9.232 87.82-7.78 14.977-19.991 27.188-34.968 34.968-17.773 9.232-41.122 9.232-87.82 9.232h-95.96c-46.6982 0-70.0474 0-87.8199-9.232-14.9767-7.78-27.1882-19.991-34.968-34.968-9.2321-17.773-9.2321-41.122-9.2321-87.82z" fill="#009d57"/><path d="m187.329 321.288c2.5-1.948 4.727-4.123 6.862-6.389-1.59 2.628-3.771 4.803-6.862 6.389zm-2.363-229.9857c-.318-3.6247-.818-7.2041-1.454-10.7834.636.4078 1.318.8155 1.954 1.2233-.091 3.1716-.272 6.3885-.5 9.5601zm130.105 52.6027c0-23.741-20.04-42.997-44.716-42.997-10.179 0-19.541 3.307-27.084 8.835 2.226-4.939 3.908-10.0133 4.408-15.405 3.362-6.026 5.271-12.9129 5.271-20.2529 0-23.7416-19.995-42.9977-44.671-42.9977-12.088 0-22.995 4.6215-31.038 12.0974-8.134-8.1103-19.541-13.1848-32.22-13.1848-24.675 0-44.671 19.2108-44.671 42.9524 0 12.641 5.681 23.9682 14.724 31.8516.818 1.631 1.681 3.308 2.59 4.894-.272.045-.545.045-.818.09-7.543-5.573-16.9047-8.88-27.1295-8.88-24.7213 0-44.7165 19.256-44.7165 42.997 0 12.415 5.5441 23.606 14.3147 31.444-7.4527 7.703-12.0425 17.988-12.0425 29.315 0 18.758 12.497 34.661 29.9019 40.551.7271.634 1.4087 1.269 2.2267 1.812 8.8615 6.525 20.7682 7.295 30.5382 2.538 5.362-.227 10.588-2.266 14.724-6.253l.272-.272c3.863-1.132 7.499-2.945 10.861-5.573-.772.544-1.499 1.042-2.272 1.586 3.681-1.359 6.862-3.443 9.771-5.845 5.998-1.314 12.178-2.129 17.904-4.395-.863.363-1.681.635-2.544.997 3.362-.181 6.771-.136 10.179-.408.182 12.687.454 25.373-.455 38.105-.181 2.718-1.272 5.346-1.954 8.11.091-.498.182-.952.273-1.45-2.499 5.437-4.726 10.919-7.544 16.175.728-.77 1.636-1.404 2.545-2.039-1 .816-1.908 1.722-2.817 2.628-.455.77-.818 1.541-1.273 2.311.137-.77.455-1.405.864-1.994-3.454 3.489-6.271 7.567-7.726 12.777 0-.453 0-.906 0-1.359-5.407 11.282-.681 24.693 10.543 30.13 11.27 5.347 24.767.635 30.175-10.557.363-.634.681-1.314 1.045-1.993 11.179-12.007 16.723-28.499 19.859-44.856 2.863-14.725 1.909-28.861 1.545-43.133 17.269 11.916 37.446 14.181 57.486 13.003.773-.045 1.545 0 2.318-.045h1.181c8.135 0 15.269-4.395 19.223-10.965 12.588-7.611 20.949-21.023 20.949-36.337 0-10.24-3.726-19.619-9.952-27.004 6.226-7.385 9.952-16.764 9.952-27.004z" fill="#fff"/></svg>