<svg fill="none" height="360" viewBox="0 0 360 360" width="360" xmlns="http://www.w3.org/2000/svg"><path d="m0 132.02c0-46.6982 0-70.0474 9.2321-87.8199 7.7798-14.9767 19.9913-27.1882 34.968-34.968 17.7725-9.2321 41.1217-9.2321 87.8199-9.2321h95.96c46.698 0 70.047 0 87.82 9.2321 14.977 7.7798 27.188 19.9913 34.968 34.968 9.232 17.7725 9.232 41.1217 9.232 87.8199v95.96c0 46.698 0 70.047-9.232 87.82-7.78 14.977-19.991 27.188-34.968 34.968-17.773 9.232-41.122 9.232-87.82 9.232h-95.96c-46.6982 0-70.0474 0-87.8199-9.232-14.9767-7.78-27.1882-19.991-34.968-34.968-9.2321-17.773-9.2321-41.122-9.2321-87.82z" fill="#004b8d"/><g fill="#fff"><path d="m69.5492 156.417h9.2309c5.6043 0 11.8681.99 11.8681 7.912 0 5.935-3.6264 9.891-14.5055 9.891h-10.2197zm-40.5492 65.605h26.7031l5.6044-26.704h18.1317c23.0768 0 37.9118-15.164 37.9118-32.967 0-19.45-10.549-28.351-26.7028-28.351h-43.1866z"/><path d="m150.317 164 3.297 26.373h-16.813zm-57.692 58.022h27.692l6.923-12.528h28.682l1.318 12.528h26.703l-14.175-88.022h-26.704z"/><path d="m175.705 134h27.033l8.571 32.637 21.429-32.637h31.648l-42.857 55.384-6.593 32.638h-27.033l6.593-32.308z"/><path d="m297.023 134h31.978l-36.923 41.538 21.429 46.484h-30.33l-9.56-24.725-20.44 24.725h-32.968l7.254-8.242 33.956-38.901-19.121-38.901-1.01-1.978h.351 29.341l8.571 22.747z"/></g></svg>