<svg fill="none" height="360" viewBox="0 0 360 360" width="360" xmlns="http://www.w3.org/2000/svg"><g fill="#ff3347"><path d="m0 132.02c0-46.6982 0-70.0474 9.2321-87.8199 7.7798-14.9767 19.9913-27.1882 34.968-34.968 17.7725-9.2321 41.1217-9.2321 87.8199-9.2321h95.96c46.698 0 70.047 0 87.82 9.2321 14.977 7.7798 27.188 19.9913 34.968 34.968 9.232 17.7725 9.232 41.1217 9.232 87.8199v95.96c0 46.698 0 70.047-9.232 87.82-7.78 14.977-19.991 27.188-34.968 34.968-17.773 9.232-41.122 9.232-87.82 9.232h-95.96c-46.6982 0-70.0474 0-87.8199-9.232-14.9767-7.78-27.1882-19.991-34.968-34.968-9.2321-17.773-9.2321-41.122-9.2321-87.82z" fill-opacity=".15"/><path d="m245.851 108.323 19.934-34.5985c2.802-4.8575 3.562-10.6284 2.114-16.0458-1.449-5.4174-4.988-10.0386-9.84-12.8492-2.403-1.3878-5.055-2.2881-7.806-2.6496s-5.546-.177-8.225.5429c-2.68.7199-5.191 1.9611-7.39 3.6525-2.199 1.6915-4.043 3.8-5.426 6.2049l-19.934 34.5861c-42.487-13.4117-90.046 3.9446-113.2434 44.1857-7.0054 12.128-11.3075 25.626-12.612 39.571s.4195 28.007 5.054 41.224l36.8144-63.872c4.137-7.228 9.668-13.563 16.27-18.638 6.602-5.076 14.146-8.792 22.194-10.932 8.034-2.179 16.42-2.74 24.671-1.651 8.252 1.088 16.206 3.805 23.399 7.993 30.25 17.494 40.651 56.38 23.186 86.673-17.464 30.304-56.284 40.722-86.528 23.228l21.114-36.634c2.401 1.389 5.053 2.291 7.804 2.653 2.75.363 5.545.18 8.225-.539 2.679-.719 5.19-1.959 7.39-3.65 2.2-1.69 4.044-3.798 5.428-6.203 2.798-4.858 3.555-10.627 2.106-16.043-1.45-5.415-4.988-10.035-9.839-12.846-2.401-1.388-5.053-2.289-7.804-2.651-2.75-.363-5.545-.179-8.224.539-2.679.719-5.19 1.959-7.39 3.649-2.2 1.691-4.044 3.798-5.429 6.202l-67.3531 116.851c-2.8001 4.857-3.5592 10.626-2.1107 16.042 1.4486 5.416 4.9865 10.036 9.8378 12.847 2.401 1.389 5.053 2.291 7.804 2.654s5.546.179 8.226-.54c2.68-.72 5.191-1.961 7.391-3.653 2.199-1.691 4.043-3.8 5.425-6.206l19.94-34.586c42.482 13.412 90.046-3.945 113.244-44.192 23.197-40.241 14.423-90.178-18.423-120.325z"/></g></svg>