<svg fill="none" height="360" viewBox="0 0 360 360" width="360" xmlns="http://www.w3.org/2000/svg"><path d="m0 132.02c0-46.6982 0-70.0474 9.2321-87.8199 7.7798-14.9767 19.9913-27.1882 34.968-34.968 17.7725-9.2321 41.1217-9.2321 87.8199-9.2321h95.96c46.698 0 70.047 0 87.82 9.2321 14.977 7.7798 27.188 19.9913 34.968 34.968 9.232 17.7725 9.232 41.1217 9.232 87.8199v95.96c0 46.698 0 70.047-9.232 87.82-7.78 14.977-19.991 27.188-34.968 34.968-17.773 9.232-41.122 9.232-87.82 9.232h-95.96c-46.6982 0-70.0474 0-87.8199-9.232-14.9767-7.78-27.1882-19.991-34.968-34.968-9.2321-17.773-9.2321-41.122-9.2321-87.82z" fill="#003087"/><path d="m262.933 61.9983c-12.895-14.6973-36.204-20.9983-66.022-20.9983h-86.543c-6.101 0-11.2848 4.4369-12.24 10.4529l-36.0345 228.5391c-.7163 4.506 2.7731 8.589 7.341 8.589h53.4275l13.419-85.11-.416 2.665c.955-6.016 6.101-10.453 12.194-10.453h25.389c49.876 0 88.93-20.259 100.338-78.863.339-1.733.632-3.42.886-5.068-1.44-.763-1.44-.763 0 0 3.397-21.661-.025-36.4045-11.739-49.7537z" fill="#003087"/><path d="m150.703 112.039c.57-3.62 2.896-6.586 6.023-8.088 1.425-.678 3.012-1.056 4.676-1.056h67.848c8.034 0 15.529.524 22.377 1.626 1.964.315 3.867.678 5.715 1.094 1.849.408 3.644.87 5.385 1.378.87.254 1.725.517 2.565.794 3.366 1.125 6.501 2.434 9.382 3.967 3.397-21.6685-.025-36.4043-11.739-49.7535-12.903-14.6973-36.204-20.9983-66.022-20.9983h-86.551c-6.093 0-11.2769 4.4369-12.2321 10.4529l-36.0344 228.5319c-.7164 4.514 2.7731 8.588 7.3332 8.588h53.4353l13.419-85.11z" fill="#002f86"/><path d="m274.678 111.752c-.262 1.656-.547 3.335-.886 5.068-11.408 58.597-50.462 78.863-100.339 78.863h-25.396c-6.093 0-11.239 4.437-12.186 10.453l-13.003 82.437-3.69 23.386c-.624 3.944 2.427 7.518 6.417 7.518h45.039c5.331 0 9.868-3.882 10.7-9.143l.439-2.295 8.489-53.798.547-2.973c.832-5.261 5.369-9.144 10.699-9.144h6.74c43.63 0 77.793-17.724 87.776-68.987 4.167-21.422 2.01-39.309-9.013-51.872-3.343-3.805-7.495-6.948-12.332-9.513" fill="#009cde"/><path d="m262.724 106.991c-1.741-.509-3.536-.971-5.385-1.379-1.848-.409-3.759-.771-5.715-1.086-6.856-1.11-14.343-1.633-22.385-1.633h-67.84c-1.671 0-3.258.377-4.676 1.063-3.135 1.502-5.453 4.46-6.023 8.088l-14.42 91.426-.416 2.665c.947-6.016 6.093-10.453 12.186-10.453h25.397c49.876 0 88.93-20.258 100.338-78.862.339-1.734.624-3.413.886-5.069-2.889-1.525-6.016-2.842-9.382-3.959-.84-.278-1.695-.548-2.565-.801z" fill="#012069"/><path d="m262.933 61.9983c-12.895-14.6973-36.204-20.9983-66.022-20.9983h-86.543c-6.101 0-11.2848 4.4369-12.24 10.4529l-36.0345 228.5391c-.7163 4.506 2.7731 8.589 7.341 8.589h53.4275l13.419-85.11-.416 2.665c.955-6.016 6.101-10.453 12.194-10.453h25.389c49.876 0 88.93-20.259 100.338-78.863.339-1.733.632-3.42.886-5.068-1.44-.763-1.44-.763 0 0 3.397-21.661-.025-36.4045-11.739-49.7537z" fill="#fff"/></svg>