<svg fill="none" height="360" viewBox="0 0 360 360" width="360" xmlns="http://www.w3.org/2000/svg"><path d="m0 132.02c0-46.6982 0-70.0474 9.2321-87.8199 7.7798-14.9767 19.9913-27.1882 34.968-34.968 17.7725-9.2321 41.1217-9.2321 87.8199-9.2321h95.96c46.698 0 70.047 0 87.82 9.2321 14.977 7.7798 27.188 19.9913 34.968 34.968 9.232 17.7725 9.232 41.1217 9.232 87.8199v95.96c0 46.698 0 70.047-9.232 87.82-7.78 14.977-19.991 27.188-34.968 34.968-17.773 9.232-41.122 9.232-87.82 9.232h-95.96c-46.6982 0-70.0474 0-87.8199-9.232-14.9767-7.78-27.1882-19.991-34.968-34.968-9.2321-17.773-9.2321-41.122-9.2321-87.82z" fill="#005c9e"/><g fill="#fff"><path d="m45.6109 143.5h35.1266c13.2101-.301 21.9165 5.104 21.9165 19.215 0 9.907-6.9051 18.313-16.8125 19.814v.301c6.0045 1.801 7.5056 7.205 7.5056 12.91 0 3.302-.6003 8.106-.6003 12.91 0 3.302.3006 6.305.9009 8.406h-15.912c-.3007-1.801-.6003-3.302-.6003-4.803 0-4.804.9011-9.908.9011-15.012 0-7.205-4.2033-9.007-10.508-9.007h-15.3117l-6.0044 28.822h-16.2124zm9.3072 33.325h15.0112c8.4065 0 16.8127-3.303 16.8127-11.709 0-7.806-5.7042-9.007-12.0089-9.007h-15.3117z"/><path d="m164.218 203.543-3.002 13.51h-56.743l15.612-73.555h56.142l-3.002 13.51h-39.93l-3.303 15.912h36.928l-2.702 12.609h-36.928l-3.603 18.014z"/><path d="m228.771 209.552c-5.104 6.605-12.01 9.306-18.615 9.306-20.715 0-32.724-11.708-32.724-32.424 0-23.718 15.311-44.434 40.23-44.434 17.113 0 31.224 8.106 31.224 26.12h-16.212c-.301-9.007-6.005-12.61-15.012-12.61-16.512 0-24.018 16.813-24.018 30.924 0 10.208 4.803 18.914 16.813 18.914 12.309 0 17.713-6.605 20.415-15.912h-17.113l2.702-12.009h31.224l-8.407 39.63h-10.507z"/><path d="m278.759 165.414-10.508 51.639h-15.312l15.612-73.555h16.813l19.815 52.239h.3l10.508-52.239h15.012l-15.612 73.555h-16.212l-20.116-51.639z"/></g></svg>