<svg fill="none" height="360" viewBox="0 0 360 360" width="360" xmlns="http://www.w3.org/2000/svg"><path d="m0 132.02c0-46.6982 0-70.0474 9.2321-87.8199 7.7798-14.9767 19.9913-27.1882 34.968-34.968 17.7725-9.2321 41.1217-9.2321 87.8199-9.2321h95.96c46.698 0 70.047 0 87.82 9.2321 14.977 7.7798 27.188 19.9913 34.968 34.968 9.232 17.7725 9.232 41.1217 9.232 87.8199v95.96c0 46.698 0 70.047-9.232 87.82-7.78 14.977-19.991 27.188-34.968 34.968-17.773 9.232-41.122 9.232-87.82 9.232h-95.96c-46.6982 0-70.0474 0-87.8199-9.232-14.9767-7.78-27.1882-19.991-34.968-34.968-9.2321-17.773-9.2321-41.122-9.2321-87.82z" fill="#0f7fca"/><g fill="#fff"><path d="m136.487 286.822c0 14.748-11.97 26.718-26.718 26.718-14.7989 0-26.769-11.97-26.769-26.718v-133.845c0-14.748 11.9701-26.718 26.769-26.718 14.748 0 26.718 11.97 26.718 26.718z"/><path d="m239.573 122.267c2.424-2.424 3.94-5.757 3.94-9.444 0-7.375-6.011-13.3849-13.385-13.3849h-120.359c-14.7989 0-26.769-11.9704-26.769-26.7185 0-14.7482 11.6672-26.6679 26.466-26.6679l120.662-.0517c37.073 0 66.872 30.0014 66.872 67.023 0 19.799-8.637 37.628-22.324 49.902l-63.993 63.993c-3.94 3.586-5.859 7.929-5.859 13.687 0 10.809 8.536 19.395 19.344 19.395l46.114-.052c14.748 0 26.718 12.072 26.718 26.769 0 14.799-11.97 26.769-26.718 26.769h-46.164c-40.154 0-72.832-33.183-72.832-73.286 0-20.961 10.152-39.699 21.668-51.265z"/></g></svg>