<svg fill="none" height="360" viewBox="0 0 360 360" width="360" xmlns="http://www.w3.org/2000/svg"><path d="m0 132.02c0-46.6982 0-70.0474 9.2321-87.8199 7.7798-14.9767 19.9913-27.1882 34.968-34.968 17.7725-9.2321 41.1217-9.2321 87.8199-9.2321h95.96c46.698 0 70.047 0 87.82 9.2321 14.977 7.7798 27.188 19.9913 34.968 34.968 9.232 17.7725 9.232 41.1217 9.232 87.8199v95.96c0 46.698 0 70.047-9.232 87.82-7.78 14.977-19.991 27.188-34.968 34.968-17.773 9.232-41.122 9.232-87.82 9.232h-95.96c-46.6982 0-70.0474 0-87.8199-9.232-14.9767-7.78-27.1882-19.991-34.968-34.968-9.2321-17.773-9.2321-41.122-9.2321-87.82z" fill="#007042"/><g fill="#fff"><path d="m178.706 79.3884c5.457 3.1451 11.245 7.1926 15.651 11.4819l-1.731 1.7393c-8.695-.9243-17.852.2293-26.094.3564-.919-.9275-2.771-2.3218-1.046-3.4869zm153.733 108.0016c.116 3.924.485 7.294-1.046 11.311-15.884 4.517-26.317-12.3-41.729-9.764l1.742 8.717c14.259.469 23.164 14.142 37.895 13.554-2.093 4.18.933 15.192-8.338 10.79-9.624-2.312-16.582-10.79-27.128-10.79-1.273 2.337-.467 5.571-.69 8.335 11.125 1.746 19.127 11.148 30.249 12.885-1.046 3.822-2.083 8.102-5.216 10.433-9.048-2.202-16.116-10.328-25.749-10.096l-1.716 8.005c9.155.235 15.07 8.335 23.298 10.766.226 3.376-2.792 6.393-4.53 9.407-7.304-2.194-12.874-8.468-21.22-8.006-.115-3.144 1.751-6.714 1.047-10.076-9.373 2.788-15.658-5.921-22.605-11.145-.2-17.096-18.197-28.311-19.148-44.326-.182-3.193.305-6.602 1.759-10.265 5.915-13.677 4.057-31.433-2.429-44.185-1.97-3.355-5.462-6.004-8.717-7.977 4.761 10.091 10.564 22.014 7.668 34.417-.336 9.578-5.987 18.777-6.052 28.01-.022 3.292.681 6.584 2.574 9.908 7.541 13.581 21.107 26.436 16.006 43.469-1.403 5.231-5.579 9.276-6.621 14.601 8.821 7.306 17.162 15.539 28.867 16.002 4.171-2.663 1.854-14.476 10.434-9.028l12.527 6.267c-.913 3.353-3.72 6.359-6.263 8.668-4.753-2.313-9.39-5.087-15.316-4.86-1.748 1.853-3.251 3.935-3.118 6.595 4.17.687 7.996 2.447 11.48 4.886-1.618 3.483-4.77 5.667-7.668 8.334l-9.718-3.474c-1.622 2.322-4.992 4.761-3.81 7.309 2.193.939 4.625 2.209 6.239 3.835-4.289 4.637-9.726 7.619-14.957 10.766-4.506-14.728-19.353-25.054-18.079-42.086l-.689-.689c-3.49 3.923-2.324 10.198-2.099 15.29 4.177 10.668 14.139 18.908 15.65 30.606-1.744 3.011-5.677 3.611-8.694 4.886.35-21.092-31.644-37.09-11.127-58.425 6.843-10.447 18.307-20.417 14.245-34.8-4.171-13.888-18.922-22.492-18.791-38.06l.022-1.214c3.36-16.235 13.567-33.511 5.217-50.781-2.327-6.947-7.526-14.841-14.598-17.744 10.543 12.067 14.723 31.757 8.692 47.995-3.04 6.459-7.225 14.154-7.645 21.747h-.025c-.224 3.965.585 7.908 3.144 11.647 8.005 12.989 21.909 27.257 13.911 44.184-9.042 13.558-24.808 27.349-16.003 45.207 6.376 10.665 16.238 21.307 13.578 34.418l-10.434 3.474c6.956-24.454-27.131-38.823-12.862-63.285 8.81-13.1 24.567-25.39 15.648-42.776-5.333-10.772-16.351-17.148-16.003-30.61l.379-2.26c3.591-19.093 18.104-37.165 7.956-57.568-2.667-6.024-7.996-12.166-13.911-15.647l-.358.358c11.831 11.476 15.431 30.359 9.052 45.539-2.976 8.906-9.508 17.777-10.836 27.321-.631 4.5-.099 9.163 2.501 14.076 7.535 11.931 20.748 24.587 12.503 40.013-8.683 12.74-23.179 25.137-17.389 41.706 6.378 14.496 19.695 28.305 12.504 46.279l-10.766 2.431c8.576-17.517-4.283-34.898-11.815-50.09-9.164-21.796 19.687-32.232 20.15-52.16-.11-12.861-13.783-20.164-16.673-31.988-5.918-4.993-12.052 1.985-19.127.69-5.223 1.049-13.245-7.19-16.363 1.741-3.713 13.093-20.629 22.719-13.194 38.249 7.074 13.8 24.098 23.892 18.411 41.752-5.092 16.682-21.912 32.566-11.48 51.806-4.285-1.388-12.288 1.27-12.172-5.576-6.605-23.301 21.561-36.875 12.862-60.163-4.049-14.265-22.495-22.145-18.434-39.301 3.002-14.123 18.85-23.996 16.627-39.466-.181-1.296-.499-2.621-.955-4.003-5.915-16.694-17.982-33.391-10.79-52.875 1.975-5.564 5.919-10.316 9.385-15.29-11.477 6.142-17.267 19.13-17.03 32.342-.5 14.369 10.114 26.678 11.624 39.826.594 5.306-.275 10.74-3.979 16.504-7.529 10.217-17.376 20.989-12.862 34.442 4.293 13.569 21.217 21.789 20.174 37.561-.115 18.657-21.794 30.274-15.65 51.139l-10.79-3.501c-4.284-18.541 15.42-28.027 15.646-45.182 2.789-19.729-22.373-27.048-20.863-46.28-.108-14.611 12.754-23.865 18.434-36.156.975-2.99 1.299-5.817 1.169-8.526-.697-13.589-12.941-24.214-10.909-39.492.683-11.244 4.509-21.101 11.815-29.557-10.08 4.049-14.244 15.653-17.029 25.393-4.832 15.617 6.703 29.664 7.86 43.657.512 6.179-.998 12.322-6.812 18.603-8.351 9.841-16.82 22.259-10.791 35.487 6.385 14.594 26.445 25.954 17.744 44.158-4.746 11.479-16.113 20.168-15.646 33.727-3.012-1.276-6.136-2.547-8.695-4.859 0-17.27 24.566-28.057 12.861-46.258-1.036 3.591-1.259 8.472-2.071 12.529-4.062 10.554-12.754 19.003-16.0061 29.913-5.4387-2.098-11.1255-6.509-15.6493-11.145l6.2662-3.835c-.6961-2.323-2.548-4.291-4.1674-6.262-4.0695-.572-6.7414 2.098-10.096 3.144-2.8981-2.555-5.6951-4.875-8.0055-8.004 2.0801-5.925 18.3328-1.026 10.0991-10.766-5.5586-3.476-11.1381 1.489-16.0058 3.806l-6.5986-8.334c5.6805-3.475 11.3465-8.355 18.412-6.955 1.7414 3.135 1.8622 7.747 5.2168 9.384 11.9426-.233 20.4045-9.266 29.5596-16.339-6.381-9.495-11.5748-22.603-5.907-34.085 4.542-11.506 16.375-21.196 16.912-33.916.12-2.895-.331-5.941-1.597-9.22-6.257-16.116-8.465-37.897 3.478-52.162-6.494 1.745-10.323 9.838-12.529 15.983-7.179 15.737 1.901 30.316 2.215 45.398.043 2.712-.177 5.431-.835 8.17-6.146 12.403-16.1047 23.286-17.7221 37.558-7.0738 4.513-12.8815 12.404-22.9608 9.741-.3543 2.664.4575 6.724 1.3818 9.741-7.993-.336-13.4432 5.555-20.1731 8.338-3.5849-1.151-4.5176-5.785-5.9057-9.028 7.8773-2.661 13.56-10.558 22.6044-10.433 1.0484-2.912-.5877-5.581-1.0494-8.361-11.2506-4.993-29.0842 24.686-30.5838-1.046 11.2423-.696 18.4266-11.132 29.5605-12.172l.3324-8.335c-12.6356-1.276-20.7641 11.714-33.3944 10.433l-2.7856-11.122c14.6104.912 23.3152-12.181 37.2294-12.885 1.8487-2.431 2.0717-6.026 2.4281-9.384-15.1877-1.979-25.6098 14.852-41.7292 9.74 0 0-.5555-7.005-.8566-10.954h.0218c-.1094-1.545-.2136-2.621-.2136-2.621 14.3739 5.577 27.0032-4.747 39.3001-10.076 3.1274-.936 8.0045.686 9.4072-2.788-.122-2.667 4.7416-5.785.693-7.646-17.9775-2.44-29.9201 19.244-48.354 9.384l-1.3829-2.788c3.835-52.392 33.383-103.0445 82.4155-127.9708 19.858-11.3486 44.529-17.1334 69.41-17.3387 30.026-.249 60.366 7.6273 82.936 23.6039 21.918 13.4442 42.883 35.6006 54.261 58.0926 10.882 19.706 15.89 41.819 17.385 65.36-19.016 14.369-31.774-13.537-51.138-7.292 1.043 3.02 1.62 6.145 3.834 8.695 17.162-.121 28.981 17.849 46.946 10.767zm-218.439-64.526c-12.058-7.885-27.3456-.46-38.5837 3.834-1.0432-10.554-5.3294-20.17-14.2665-27.125-.8671-.4314-2.0655-1.3391-3.1451-1.4058-.6461-.0406-1.261.2199-1.7383 1.0463 4.0507 24.9195-12.1489 42.3085-23.6288 61.2125 3.8225 3.124 9.9636 2.657 14.6 1.739 12.1698-4.866 23.7622-13.337 38.2528-10.433 4.2851-7.303 11.4851-14.377 17.3886-20.173 3.607-3.122 8.562-5.104 11.121-8.695zm36.872 15.651c-.231 1.5.116 4.175 2.43 3.142 3.599-4.985 9.972-1.041 13.911-.69v-1.403c-2.162-3.394-6.608-5.099-11.124-4.929-1.042.036-2.101.188-3.12.425-1.511.336-2.562 1.718-2.097 3.455zm56.687-14.935c-3.237-7.189-10.657-10.099-17.39-11.837-3.3-.407-6.725-.682-10.123-.714-.636-.006-1.272-.015-1.906 0-9.503.192-18.583 2.631-24.13 10.453-.796 2.209-4.296 5.31-1.046 7.289 7.304-.467 15.639-1.383 20.508 4.885 0 5.57 3.596 12.981-2.429 15.648-4.993-4.623-10.906 1.967-16.339-1.743-2.554-1.509-4.17.252-5.217 2.454-1.51 14.372 6.016 30.233 19.461 38.229 5.449 1.966 12.774 3.835 18.461 1.046 13.679-6.369 19.345-20.967 21.891-34.416-.341-2.56-.219-7.547-3.811-7.668-4.054 2.564-9.968 1.049-14.266 0-2.541.82-2.657 4.537-5.549 5.242l-1.762-1.406c-1.509-6.366-2.44-15.412 3.478-19.817 6.613-2.667 14.38-3.832 21.22-1.739 1.276-2.201-.694-3.934-1.051-5.906zm-6.979 11.431c-.459.012-.907.034-1.359.049-2.429 1.621-9.508.455-6.953 5.907 4.408-3.487 10.553-1.043 14.958.69 1.628-.809 1.275-2.433 1.383-3.832-1.415-2.632-4.794-2.879-8.029-2.814zm50.474-49.0146c-8.581-.4554-15.766 4.4154-23.651 6.6195-.687-6.7091 4.41-13.7945 5.573-20.5296-12.748.8201-22.845 8.4932-33.391 14.6229-2.441-5.8973-4.889-11.8249-7.313-17.744l13.912-13.2192.356-1.7414-18.79-1.0463c-3.237-5.6711-4.513-12.5022-8.338-17.719-3.131 5.9119-5.234 12.1687-8.361 18.0754l-18.769 1.0494v1.3819l14.245 12.8617c-1.741 6.6112-3.36 13.7944-7.645 18.7914-8.346-4.999-16.574-10.4399-25.724-13.9112-2.202-.7107-5.341-1.8664-7.312-.3564 2.894 6.3777 6.947 13.238 6.265 20.1993-3.827-.7045-6.836-3.1587-10.432-4.1904-4.301-1.1734-9.404-3.466-13.577-2.0717 6.957 9.7323 12.636 19.9183 14.6 31.6303 23.08-11.139 49.995-17.266 77.934-12.505 13.097 2.084 25.139 7.418 36.849 11.813.458-12.281 8.225-22.1502 13.569-32.0106zm39.633 66.7826c11.816 3.127 23.669 16.001 36.18 7.648-10.896-18.082-27.114-34.779-22.604-58.425.472-1.614-.571-3.2481-2.072-3.4774-7.068 2.8884-12.543 9.8534-15.34 16.6984-1.15 4.049-1.832 8.353-3.452 12.169-8.468-4.407-17.505-8.676-27.821-7.645-3.721.464-9.054.708-9.741 4.527 11.708 6.257 21.336 16.699 28.511 27.818 4.996-.815 11.122-.119 16.339.687zm-123.809 16.341.334 2.096c4.53 3.018 5.923 8.133 12.194 7.668 5.562.33 9.735-4.88 12.506-9.051-7.526-1.039-16.684.569-25.034-.713zm6.263-9.384c.226.929-.574 2.32.69 2.789 3.71-.806 10.431 1.974 12.502-2.431-1.446-1.621-3.807-2.357-6.286-2.357-2.477 0-5.048.723-6.906 1.999z"/><path d="m171.582 161.297c3.285.778 4.098 1.943 6.694 2.268 2.759-.049 2.361-.61 7.175-2.271.316-.112.75-.809.211-1.343-2.988-2.967-5.054-.848-6.928-.791-2.485.027-4.816-2.128-7.244.673-.414.569-.63 1.127.092 1.464z"/></g></svg>