<svg fill="none" height="360" viewBox="0 0 360 360" width="360" xmlns="http://www.w3.org/2000/svg"><path d="m0 132.02c0-46.6982 0-70.0474 9.2321-87.8199 7.7798-14.9767 19.9913-27.1882 34.968-34.968 17.7725-9.2321 41.1217-9.2321 87.8199-9.2321h95.96c46.698 0 70.047 0 87.82 9.2321 14.977 7.7798 27.188 19.9913 34.968 34.968 9.232 17.7725 9.232 41.1217 9.232 87.8199v95.96c0 46.698 0 70.047-9.232 87.82-7.78 14.977-19.991 27.188-34.968 34.968-17.773 9.232-41.122 9.232-87.82 9.232h-95.96c-46.6982 0-70.0474 0-87.8199-9.232-14.9767-7.78-27.1882-19.991-34.968-34.968-9.2321-17.773-9.2321-41.122-9.2321-87.82z" fill="#47237f"/><g fill="#fff"><path d="m77.7143 140.73c0-4.196-2.0937-7.339-11.3568-7.339s-11.3568 3.143-11.3568 7.325v11.384c0 3.444 1.142 6.888 4.4412 9.744l31.4692 26.949c4.5047 3.745 7.1694 8.391 7.1694 13.188v17.069c0 10.181-11.9913 15.88-31.723 15.866-21.8889 0-32.3575-4.933-32.3575-15.866v-14.828h19.7952v14.227c0 5.097 3.8702 8.09 12.5623 8.09 8.0576 0 11.9913-2.993 11.9913-8.09v-15.129c0-3.744-1.5227-6.587-5.7101-10.331l-29.0583-25.31c-5.393-4.646-8.3749-8.24-8.3749-13.775v-13.038c0-10.632 11.103-15.866 31.152-15.866 22.1427 0 31.152 5.234 31.152 15.129v13.775h-19.7952z"/><path d="m191.092 125.817h31.406c25.505 0 32.992 4.196 32.992 16.481v26.499c0 12.286-7.487 16.481-32.992 16.481h-11.674v48.665h-19.732zm29.312 51.07c9.009 0 15.29-1.202 15.29-6.737v-29.205c0-5.548-6.281-6.737-15.29-6.737h-9.58v42.679z"/><path d="m305.421 140.736c0-4.196-2.093-7.339-11.42-7.339-9.263 0-11.357 3.143-11.357 7.339v11.383c0 3.444 1.206 6.888 4.505 9.731l31.469 26.963c4.441 3.744 7.17 8.377 7.17 13.174v17.069c0 10.195-11.992 15.88-31.787 15.88-21.825 0-32.294-4.947-32.294-15.88v-14.828h19.732v14.24c0 5.084 3.933 8.077 12.562 8.077 8.121 0 11.991-2.993 11.991-8.077v-15.128c0-3.745-1.459-6.587-5.646-10.332l-29.059-25.309c-5.393-4.647-8.374-8.241-8.374-13.789v-13.024c0-10.632 11.039-15.88 31.088-15.88 22.206 0 31.152 5.248 31.152 15.128v13.776h-19.732z"/><path d="m179.465 233.737h.127v-91.631c0-12.273-7.487-16.468-32.992-16.468h-38.131v108.126h19.795v-.027-99.722h16.242c9.009 0 15.291 1.203 15.291 6.751v92.971z"/></g></svg>