<svg fill="none" height="360" viewBox="0 0 360 360" width="360" xmlns="http://www.w3.org/2000/svg"><path d="m0 132.02c0-46.6982 0-70.0474 9.2321-87.8199 7.7798-14.9767 19.9913-27.1882 34.968-34.968 17.7725-9.2321 41.1217-9.2321 87.8199-9.2321h95.96c46.698 0 70.047 0 87.82 9.2321 14.977 7.7798 27.188 19.9913 34.968 34.968 9.232 17.7725 9.232 41.1217 9.232 87.8199v95.96c0 46.698 0 70.047-9.232 87.82-7.78 14.977-19.991 27.188-34.968 34.968-17.773 9.232-41.122 9.232-87.82 9.232h-95.96c-46.6982 0-70.0474 0-87.8199-9.232-14.9767-7.78-27.1882-19.991-34.968-34.968-9.2321-17.773-9.2321-41.122-9.2321-87.82z" fill="#e82127"/><g fill="#fff"><path d="m179.806 317.502 35.476-199.519c33.815 0 44.481 3.708 46.021 18.843 0 0 22.684-8.458 34.125-25.636-44.646-20.6875-89.505-21.6205-89.505-21.6205l-26.176 31.8815.059-.004-26.176-31.8825s-44.86.934-89.5001 21.6215c11.431 17.178 34.124 25.636 34.124 25.636 1.549-15.136 12.2021-18.844 45.7901-18.868z"/><path d="m179.792 80.36c36.09-.276 77.399 5.583 119.687 24.014 5.652-10.173 7.105-14.669 7.105-14.669-46.227-18.289-89.518-24.548-126.797-24.705-37.277.157-80.566 6.417-126.787 24.705 0 0 2.062 5.538 7.1 14.669 42.28-18.431 83.596-24.29 119.687-24.014z"/></g></svg>