<svg fill="none" height="360" viewBox="0 0 360 360" width="360" xmlns="http://www.w3.org/2000/svg" xmlns:xlink="http://www.w3.org/1999/xlink"><radialGradient id="a" cx="449.16" cy="400.76" gradientUnits="userSpaceOnUse" r="155.695"><stop offset="0" stop-color="#1761a8"/><stop offset="1" stop-color="#14477b"/></radialGradient><radialGradient id="b" cx="448.155" cy="401.76" gradientUnits="userSpaceOnUse" r="155.695"><stop offset="0" stop-color="#165da1"/><stop offset="1" stop-color="#164375"/></radialGradient><path d="m0 132.02c0-46.6982 0-70.0474 9.2321-87.8199 7.7798-14.9767 19.9913-27.1882 34.968-34.968 17.7725-9.2321 41.1217-9.2321 87.8199-9.2321h95.96c46.698 0 70.047 0 87.82 9.2321 14.977 7.7798 27.188 19.9913 34.968 34.968 9.232 17.7725 9.232 41.1217 9.232 87.8199v95.96c0 46.698 0 70.047-9.232 87.82-7.78 14.977-19.991 27.188-34.968 34.968-17.773 9.232-41.122 9.232-87.82 9.232h-95.96c-46.6982 0-70.0474 0-87.8199-9.232-14.9767-7.78-27.1882-19.991-34.968-34.968-9.2321-17.773-9.2321-41.122-9.2321-87.82z" fill="#000"/><path d="m168.505 25h6.911zm-1.875 0h1.875zm-3.865 0h3.865zm-137.765 155.219c0 41.012 16.2917 80.344 45.2912 109.343 28.9994 28.999 68.3308 45.291 109.3428 45.291 30.865-.013 61.022-9.256 86.594-26.54 25.572-17.285 45.391-41.822 56.91-70.457-8.854 22.004-22.641 41.682-40.298 57.519 25.47-28.337 39.535-65.106 39.478-103.207 0-41.011-16.291-80.343-45.291-109.3421-28.999-28.9995-68.331-45.2912-109.342-45.2912-37.899.0882-74.4347 14.1437-102.6208 39.4785 22.9697-25.6492 53.8538-42.8848 87.7428-48.9674-35.778 6.326-68.1898 25.0391-91.557 52.8613-23.3672 27.8219-36.1998 62.9789-36.25 99.3119zm309.267 5.155c0-.703 0-1.289 0-1.992zm-8.551 45.804c5.158-14.745 8.042-30.19 8.551-45.804-.509 15.614-3.393 31.059-8.551 45.804zm0 .82v-.82zm0 .938v-.821zm0 .702v-.702zm0 .586v-.586z" fill="url(#a)"/><path d="m179.097 26.0001h-1.289c-21.477.1905-42.677 4.8631-62.245 13.7187-19.5669 8.8557-37.0695 21.6993-51.3872 37.7087 28.3363-25.4696 65.1062-39.5347 103.2062-39.4785 41.011 0 80.343 16.2918 109.343 45.2912 28.999 28.9998 45.291 68.3308 45.291 109.3428.056 38.1-14.009 74.87-39.479 103.206 15.799-14.114 28.52-31.332 37.368-50.58 8.848-19.249 13.634-40.115 14.06-61.295.437-20.591-3.244-41.062-10.827-60.211-7.582-19.149-18.914-36.5903-33.329-51.3002s-31.624-26.3919-50.616-34.3603c-18.991-7.9684-39.383-12.0627-59.979-12.0424z" fill="url(#b)"/><g fill="#fff"><path d="m253.083 172.371h-70.991l34.324-59.51h71.108z"/><path d="m146.241 112.861h-70.2879l104.4949 180.992 35.144-61.151z"/></g></svg>