<svg fill="none" height="360" viewBox="0 0 360 360" width="360" xmlns="http://www.w3.org/2000/svg"><path d="m0 132.02c0-46.6982 0-70.0474 9.2321-87.8199 7.7798-14.9767 19.9913-27.1882 34.968-34.968 17.7725-9.2321 41.1217-9.2321 87.8199-9.2321h95.96c46.698 0 70.047 0 87.82 9.2321 14.977 7.7798 27.188 19.9913 34.968 34.968 9.232 17.7725 9.232 41.1217 9.232 87.8199v95.96c0 46.698 0 70.047-9.232 87.82-7.78 14.977-19.991 27.188-34.968 34.968-17.773 9.232-41.122 9.232-87.82 9.232h-95.96c-46.6982 0-70.0474 0-87.8199-9.232-14.9767-7.78-27.1882-19.991-34.968-34.968-9.2321-17.773-9.2321-41.122-9.2321-87.82z" fill="#d73f37"/><g clip-rule="evenodd" fill="#fff" fill-rule="evenodd"><path d="m320.271 243.281c-10.684 13.355-26.712 26.712-48.751 41.403-71.459 48.09-163.622 48.09-201.6911 0-15.3617-20.036-20.705-44.08-16.6958-69.46 6.6774-41.401 38.7349-82.811 90.1589-116.8711 16.028-10.6843 28.717-10.6843 36.062-8.6798 9.35 2.6684 14.696 8.6798 16.7 12.6929 3.339 6.671 12.019 23.367-20.707 49.415-66.113 50.758-88.8245 96.843-64.779 129.558 24.712 33.401 105.521 32.058 159.615-3.339 16.696-11.348 31.39-20.696 45.415-37.398 1.332-1.996 3.339-1.996 4.005-1.332 1.338 1.334 2.007 3.338.668 4.011z"/><path d="m37.7699 118.391c10.6844-13.357 26.7121-26.7167 48.0852-41.4102 72.1289-48.0852 164.2919-48.0852 202.3569.6682 15.362 19.3708 20.707 43.412 16.7 69.461-6.677 40.732-38.735 82.142-90.159 116.202-16.027 10.682-28.716 10.682-36.064 8.684-9.346-2.002-14.691-8.684-16.696-12.02-4.005-7.348-12.021-24.044 20.707-49.424 66.113-51.426 88.821-97.502 64.779-129.5599-24.712-34.0621-105.52-32.0575-159.6149 3.3387-16.7003 10.6844-31.3938 20.7052-45.4169 36.7282-2.0045 2.005-3.3387 2.005-4.6773 1.341-.6659-1.341-1.3341-2.675 0-4.009z"/></g></svg>