<svg fill="none" height="360" viewBox="0 0 360 360" width="360" xmlns="http://www.w3.org/2000/svg"><path d="m0 132.02c0-46.6982 0-70.0474 9.2321-87.8199 7.7798-14.9767 19.9913-27.1882 34.968-34.968 17.7725-9.2321 41.1217-9.2321 87.8199-9.2321h95.96c46.698 0 70.047 0 87.82 9.2321 14.977 7.7798 27.188 19.9913 34.968 34.968 9.232 17.7725 9.232 41.1217 9.232 87.8199v95.96c0 46.698 0 70.047-9.232 87.82-7.78 14.977-19.991 27.188-34.968 34.968-17.773 9.232-41.122 9.232-87.82 9.232h-95.96c-46.6982 0-70.0474 0-87.8199-9.232-14.9767-7.78-27.1882-19.991-34.968-34.968-9.2321-17.773-9.2321-41.122-9.2321-87.82z" fill="#8e0027"/><path d="m93.7476 70.9361-44.4356 44.4359 64.282 64.593-64.594 64.532 44.7476 44.435h71.2094l-43.874-44.061 64.407-64.594-65.343-65.28 44.061-44.0609z" fill="#fff" stroke="#fff" stroke-width="4.2314"/><path d="m168.639 70 20.595 20.5951 34.824 35.0119 54.671-54.6708-69.711-.1872-19.784 19.8461" fill="#fff"/><path d="m168.639 70 20.595 20.5951 34.824 35.0119 54.671-54.6708-69.711-.1872-19.784 19.8461" stroke="#fff" stroke-width="4.40677"/><path d="m169.225 289.557 55.794-55.794 56.98 56.98-71.397-.187-21.406-21.157" fill="#fff"/><path d="m169.225 289.557 55.794-55.794 56.98 56.98-71.397-.187-21.406-21.157" stroke="#fff" stroke-width="4.40677"/></svg>