<svg width="103" height="71" viewBox="0 0 103 71" fill="none" xmlns="http://www.w3.org/2000/svg">
<path d="M60.9832 4.27649H41.7314V35.7203H60.9832V4.27649Z" fill="#FF5F00"/>
<path d="M43.7144 20.001C43.712 16.9732 44.3984 13.9846 45.7216 11.2613C47.0447 8.53793 48.9701 6.15125 51.3518 4.28186C48.4019 1.96355 44.8593 0.521928 41.1288 0.121763C37.3983 -0.278403 33.6305 0.379032 30.256 2.01893C26.8815 3.65882 24.0365 6.21502 22.046 9.39537C20.0555 12.5757 19 16.2519 19 20.0038C19 23.7556 20.0555 27.4318 22.046 30.6122C24.0365 33.7925 26.8815 36.3487 30.256 37.9886C33.6305 39.6285 37.3983 40.2859 41.1288 39.8858C44.8593 39.4856 48.4019 38.044 51.3518 35.7257C48.9693 33.8557 47.0436 31.4681 45.7204 28.7438C44.3972 26.0194 43.7112 23.0297 43.7144 20.001Z" fill="#F24E1E"/>
<path d="M81.7959 32.3932V31.7489H82.0736V31.6156H81.4126V31.7489H81.6737V32.3932H81.7959ZM83.0789 32.3932V31.6156H82.879L82.6457 32.171L82.4124 31.6156H82.2124V32.3932H82.3569V31.8045L82.5735 32.3099H82.7235L82.9401 31.8045V32.3932H83.0789Z" fill="#F79E1B"/>
<path d="M83.7066 20.0012C83.7065 23.7533 82.6507 27.4297 80.6599 30.6102C78.6691 33.7906 75.8236 36.3468 72.4486 37.9865C69.0737 39.6261 65.3055 40.2831 61.5748 39.8824C57.8442 39.4817 54.3015 38.0393 51.3518 35.7203C53.7326 33.8492 55.6574 31.4619 56.9809 28.7384C58.3044 26.0149 58.9921 23.0264 58.9921 19.9984C58.9921 16.9703 58.3044 13.9818 56.9809 11.2584C55.6574 8.53487 53.7326 6.14754 51.3518 4.27648C54.3015 1.95745 57.8442 0.515124 61.5748 0.114384C65.3055 -0.286356 69.0737 0.370656 72.4486 2.01032C75.8236 3.64998 78.6691 6.20613 80.6599 9.38659C82.6507 12.567 83.7065 16.2435 83.7066 19.9956V20.0012Z" fill="#FFD25F"/>
<path d="M12.6484 65V53.5781H15.0703V65H12.6484ZM25.8203 65H23.4375V59.8984C23.4375 59.2682 23.3255 58.7969 23.1016 58.4844C22.8776 58.1667 22.5208 58.0078 22.0312 58.0078C21.3646 58.0078 20.8828 58.2318 20.5859 58.6797C20.2891 59.1224 20.1406 59.8594 20.1406 60.8906V65H17.7578V56.2656H19.5781L19.8984 57.3828H20.0312C20.2969 56.9609 20.6615 56.6432 21.125 56.4297C21.5938 56.2109 22.125 56.1016 22.7188 56.1016C23.7344 56.1016 24.5052 56.3776 25.0312 56.9297C25.5573 57.4766 25.8203 58.2682 25.8203 59.3047V65ZM30.3516 65L27.0234 56.2656H29.5156L31.2031 61.2422C31.3906 61.8724 31.5078 62.4688 31.5547 63.0312H31.6016C31.6276 62.5312 31.7448 61.9349 31.9531 61.2422L33.6328 56.2656H36.125L32.7969 65H30.3516ZM41 57.7969C40.4948 57.7969 40.099 57.9583 39.8125 58.2812C39.526 58.599 39.362 59.0521 39.3203 59.6406H42.6641C42.6536 59.0521 42.5 58.599 42.2031 58.2812C41.9062 57.9583 41.5052 57.7969 41 57.7969ZM41.3359 65.1562C39.9297 65.1562 38.8307 64.7682 38.0391 63.9922C37.2474 63.2161 36.8516 62.1172 36.8516 60.6953C36.8516 59.2318 37.2161 58.1016 37.9453 57.3047C38.6797 56.5026 39.6927 56.1016 40.9844 56.1016C42.2188 56.1016 43.1797 56.4531 43.8672 57.1562C44.5547 57.8594 44.8984 58.8307 44.8984 60.0703V61.2266H39.2656C39.2917 61.9036 39.4922 62.4323 39.8672 62.8125C40.2422 63.1927 40.7682 63.3828 41.4453 63.3828C41.9714 63.3828 42.4688 63.3281 42.9375 63.2188C43.4062 63.1094 43.8958 62.9349 44.4062 62.6953V64.5391C43.9896 64.7474 43.5443 64.901 43.0703 65C42.5964 65.1042 42.0182 65.1562 41.3359 65.1562ZM52.9297 62.4062C52.9297 63.3021 52.6172 63.9844 51.9922 64.4531C51.3724 64.9219 50.4427 65.1562 49.2031 65.1562C48.5677 65.1562 48.026 65.112 47.5781 65.0234C47.1302 64.9401 46.7109 64.8151 46.3203 64.6484V62.6797C46.763 62.888 47.2604 63.0625 47.8125 63.2031C48.3698 63.3438 48.8594 63.4141 49.2812 63.4141C50.1458 63.4141 50.5781 63.1641 50.5781 62.6641C50.5781 62.4766 50.5208 62.3255 50.4062 62.2109C50.2917 62.0911 50.0938 61.9583 49.8125 61.8125C49.5312 61.6615 49.1562 61.487 48.6875 61.2891C48.0156 61.0078 47.5208 60.7474 47.2031 60.5078C46.8906 60.2682 46.6615 59.9948 46.5156 59.6875C46.375 59.375 46.3047 58.9922 46.3047 58.5391C46.3047 57.763 46.6042 57.1641 47.2031 56.7422C47.8073 56.3151 48.6615 56.1016 49.7656 56.1016C50.8177 56.1016 51.8411 56.3307 52.8359 56.7891L52.1172 58.5078C51.6797 58.3203 51.2708 58.1667 50.8906 58.0469C50.5104 57.9271 50.1224 57.8672 49.7266 57.8672C49.0234 57.8672 48.6719 58.0573 48.6719 58.4375C48.6719 58.651 48.7839 58.8359 49.0078 58.9922C49.237 59.1484 49.7344 59.3802 50.5 59.6875C51.1823 59.9635 51.6823 60.2214 52 60.4609C52.3177 60.7005 52.5521 60.9766 52.7031 61.2891C52.8542 61.6016 52.9297 61.974 52.9297 62.4062ZM58.4688 63.2578C58.8854 63.2578 59.3854 63.1667 59.9688 62.9844V64.7578C59.375 65.0234 58.6458 65.1562 57.7812 65.1562C56.8281 65.1562 56.1328 64.9167 55.6953 64.4375C55.263 63.9531 55.0469 63.2292 55.0469 62.2656V58.0547H53.9062V57.0469L55.2188 56.25L55.9062 54.4062H57.4297V56.2656H59.875V58.0547H57.4297V62.2656C57.4297 62.6042 57.5234 62.8542 57.7109 63.0156C57.9036 63.1771 58.1562 63.2578 58.4688 63.2578ZM68.9219 65L68.0938 62.2812H63.9297L63.1016 65H60.4922L64.5234 53.5312H67.4844L71.5312 65H68.9219ZM67.5156 60.25C66.75 57.7865 66.3177 56.3932 66.2188 56.0703C66.125 55.7474 66.0573 55.4922 66.0156 55.3047C65.8438 55.9714 65.3516 57.6198 64.5391 60.25H67.5156ZM77.5859 65.1562C76.5599 65.1562 75.7552 64.7839 75.1719 64.0391H75.0469C75.1302 64.7682 75.1719 65.1901 75.1719 65.3047V68.8438H72.7891V56.2656H74.7266L75.0625 57.3984H75.1719C75.7292 56.5339 76.5547 56.1016 77.6484 56.1016C78.6797 56.1016 79.487 56.5 80.0703 57.2969C80.6536 58.0938 80.9453 59.2005 80.9453 60.6172C80.9453 61.5495 80.8073 62.3594 80.5312 63.0469C80.2604 63.7344 79.8724 64.2578 79.3672 64.6172C78.862 64.9766 78.2682 65.1562 77.5859 65.1562ZM76.8828 58.0078C76.2943 58.0078 75.8646 58.1901 75.5938 58.5547C75.3229 58.9141 75.1823 59.5104 75.1719 60.3438V60.6016C75.1719 61.5391 75.3099 62.2109 75.5859 62.6172C75.8672 63.0234 76.3099 63.2266 76.9141 63.2266C77.9818 63.2266 78.5156 62.3464 78.5156 60.5859C78.5156 59.7266 78.3828 59.0833 78.1172 58.6562C77.8568 58.224 77.4453 58.0078 76.8828 58.0078ZM87.7109 65.1562C86.6849 65.1562 85.8802 64.7839 85.2969 64.0391H85.1719C85.2552 64.7682 85.2969 65.1901 85.2969 65.3047V68.8438H82.9141V56.2656H84.8516L85.1875 57.3984H85.2969C85.8542 56.5339 86.6797 56.1016 87.7734 56.1016C88.8047 56.1016 89.612 56.5 90.1953 57.2969C90.7786 58.0938 91.0703 59.2005 91.0703 60.6172C91.0703 61.5495 90.9323 62.3594 90.6562 63.0469C90.3854 63.7344 89.9974 64.2578 89.4922 64.6172C88.987 64.9766 88.3932 65.1562 87.7109 65.1562ZM87.0078 58.0078C86.4193 58.0078 85.9896 58.1901 85.7188 58.5547C85.4479 58.9141 85.3073 59.5104 85.2969 60.3438V60.6016C85.2969 61.5391 85.4349 62.2109 85.7109 62.6172C85.9922 63.0234 86.4349 63.2266 87.0391 63.2266C88.1068 63.2266 88.6406 62.3464 88.6406 60.5859C88.6406 59.7266 88.5078 59.0833 88.2422 58.6562C87.9818 58.224 87.5703 58.0078 87.0078 58.0078Z" fill="#2D2D2D"/>
</svg>
