<svg width="26" height="26" viewBox="0 0 26 26" fill="none" xmlns="http://www.w3.org/2000/svg">
<path fill-rule="evenodd" clip-rule="evenodd" d="M5.41669 4.33335H20.5834C21.1817 4.33335 21.6667 4.81837 21.6667 5.41669V20.5834C21.6667 21.1817 21.1817 21.6667 20.5834 21.6667H5.41669C4.81838 21.6667 4.33335 21.1817 4.33335 20.5834V5.41669C4.33335 4.81838 4.81837 4.33335 5.41669 4.33335ZM2.16669 5.41669C2.16669 3.62177 3.62177 2.16669 5.41669 2.16669H20.5834C22.3783 2.16669 23.8334 3.62177 23.8334 5.41669V20.5834C23.8334 22.3783 22.3783 23.8334 20.5834 23.8334H5.41669C3.62177 23.8334 2.16669 22.3783 2.16669 20.5834V5.41669Z" fill="#2D2D2D"/>
<path fill-rule="evenodd" clip-rule="evenodd" d="M13 13C10.0084 13 7.58331 10.0899 7.58331 6.5H9.74998C9.74998 9.2799 11.5582 10.8333 13 10.8333C14.4418 10.8333 16.25 9.2799 16.25 6.5H18.4166C18.4166 10.0899 15.9915 13 13 13Z" fill="#2D2D2D"/>
</svg>
