<svg width="30" height="30" viewBox="0 0 30 30" fill="none" xmlns="http://www.w3.org/2000/svg">
<path fill-rule="evenodd" clip-rule="evenodd" d="M7.125 9.375H22.875C23.4963 9.375 24 9.79473 24 10.3125V23.4375C24 23.9553 23.4963 24.375 22.875 24.375H7.125C6.50368 24.375 6 23.9553 6 23.4375V10.3125C6 9.79474 6.50367 9.375 7.125 9.375ZM3.75 10.3125C3.75 8.7592 5.26104 7.5 7.125 7.5H22.875C24.739 7.5 26.25 8.7592 26.25 10.3125V23.4375C26.25 24.9908 24.739 26.25 22.875 26.25H7.125C5.26104 26.25 3.75 24.9908 3.75 23.4375V10.3125Z" fill="#2D2D2D"/>
<path fill-rule="evenodd" clip-rule="evenodd" d="M15 2.5C17.7614 2.5 20 4.73858 20 7.5L18 7.5C18 5.36162 16.3309 4.16667 15 4.16667C13.6691 4.16667 12 5.36162 12 7.5L10 7.5C10 4.73857 12.2386 2.5 15 2.5Z" fill="#2D2D2D"/>
</svg>
