<svg fill="none" height="360" viewBox="0 0 360 360" width="360" xmlns="http://www.w3.org/2000/svg"><path d="m0 132.02c0-46.6982 0-70.0474 9.2321-87.8199 7.7798-14.9767 19.9913-27.1882 34.968-34.968 17.7725-9.2321 41.1217-9.2321 87.8199-9.2321h95.96c46.698 0 70.047 0 87.82 9.2321 14.977 7.7798 27.188 19.9913 34.968 34.968 9.232 17.7725 9.232 41.1217 9.232 87.8199v95.96c0 46.698 0 70.047-9.232 87.82-7.78 14.977-19.991 27.188-34.968 34.968-17.773 9.232-41.122 9.232-87.82 9.232h-95.96c-46.6982 0-70.0474 0-87.8199-9.232-14.9767-7.78-27.1882-19.991-34.968-34.968-9.2321-17.773-9.2321-41.122-9.2321-87.82z" fill="#009ace"/><path d="m265.158 138.871h18.089l.281 7.539c2.511-3.084 5.68-5.565 9.275-7.264 3.595-1.698 7.524-2.569 11.5-2.55 19.865 0 30.697 12.283 30.697 33.686v49.826h-18.76v-49.154c0-11.005-6.738-17.331-16.183-17.331s-16.139 6.326-16.139 17.331v49.197h-18.76zm-117.436 81.28h-18.739v-118.151h18.782zm-58.664-81.28h18.565v81.28h-18.565l-.3033-8.514c-6.6617 6.749-15.6919 10.634-25.1726 10.832-22.1614-.022-38.5821-17.851-38.5821-42.85 0-26.646 17.7855-43.023 38.5821-43.023 4.7316-.137 9.4359.762 13.784 2.632 4.3481 1.871 8.2349 4.67 11.3886 8.2zm-44.8644 40.748c0 15.598 9.5534 25.996 22.8546 25.996 12.1097 0 22.9413-8.882 22.9413-25.996 0-16.702-10.3766-25.996-22.8763-25.996-13.9511 0-22.9196 10.94-22.9196 25.996zm181.9054 0c0-16.94-10.68-25.996-22.833-25.996-14.514 0-22.898 11.807-22.898 25.996 0 14.969 9.034 25.996 22.898 25.996 12.76 0 22.833-9.488 22.833-25.996zm17.699 32.495c0 34.878-20.407 46.446-44.431 46.446-10.069.169-20.034-2.059-29.072-6.499l4.657-16.118c7.405 4.171 15.765 6.35 24.263 6.326 13.973 0 25.844-8.968 25.844-25.108v-5.589c-3.211 3.522-7.142 6.313-11.526 8.182-4.385 1.868-9.12 2.772-13.885 2.65-21.879 0-38.43-17.612-38.43-42.936 0-24.263 15.576-42.915 38.517-42.915 4.741-.158 9.458.73 13.817 2.602 4.358 1.872 8.25 4.682 11.399 8.229l.238-8.557h18.609z" fill="#000"/></svg>