<svg fill="none" height="360" viewBox="0 0 360 360" width="360" xmlns="http://www.w3.org/2000/svg"><path d="m0 132.02c0-46.6982 0-70.0474 9.2321-87.8199 7.7798-14.9767 19.9913-27.1882 34.968-34.968 17.7725-9.2321 41.1217-9.2321 87.8199-9.2321h95.96c46.698 0 70.047 0 87.82 9.2321 14.977 7.7798 27.188 19.9913 34.968 34.968 9.232 17.7725 9.232 41.1217 9.232 87.8199v95.96c0 46.698 0 70.047-9.232 87.82-7.78 14.977-19.991 27.188-34.968 34.968-17.773 9.232-41.122 9.232-87.82 9.232h-95.96c-46.6982 0-70.0474 0-87.8199-9.232-14.9767-7.78-27.1882-19.991-34.968-34.968-9.2321-17.773-9.2321-41.122-9.2321-87.82z" fill="#569bbe"/><circle cx="180" cy="180" fill="#4681c7" fill-opacity=".06" r="155.455"/><circle cx="180" cy="180" r="155.205" stroke="#2869bf" stroke-opacity=".04" stroke-width=".5"/><path d="m209.156 89.6809-107.331-.0914-16.6009 16.7785 123.9319.065c18.944 0 34.251 15.026 34.251 33.541v157.14h17.181l.054-157.14c0-27.78-23.056-50.2931-51.486-50.2931zm85.844 207.4331-.016-157.14c0-46.2839-38.432-83.9633-85.833-83.9633l-74.128-.0107-16.596 16.7786 90.729.0215c37.91 0 68.641 30.1389 68.641 67.1739v157.14zm-85.844-173.908-140.5063-.032-16.6497 16.768h.2257l-.2257.032.0054 73.203c0 42.694 32.5361 78.041 74.8316 83.302l15.86-16.106-4.853-.027c-37.9265 0-68.6677-30.15-68.6677-67.169v-73.23h17.2086l-.043 73.23c0 27.753 23.0561 50.277 51.5021 50.277h21.562l16.574-16.762h-38.136c-18.955 0-34.256-15.016-34.256-33.515v-73.23h17.031l.016 73.23c.054 9.255 7.718 16.731 17.204 16.731h54.705l16.553-16.714-71.258-.017v-73.219l71.312.016v157.14h17.214l-.006-157.14c-.054-9.271-7.723-16.768-17.203-16.768z" fill="#fff"/></svg>