<svg fill="none" height="360" viewBox="0 0 360 360" width="360" xmlns="http://www.w3.org/2000/svg"><path d="m0 132.02c0-46.6982 0-70.0474 9.2321-87.8199 7.7798-14.9767 19.9913-27.1882 34.968-34.968 17.7725-9.2321 41.1217-9.2321 87.8199-9.2321h95.96c46.698 0 70.047 0 87.82 9.2321 14.977 7.7798 27.188 19.9913 34.968 34.968 9.232 17.7725 9.232 41.1217 9.232 87.8199v95.96c0 46.698 0 70.047-9.232 87.82-7.78 14.977-19.991 27.188-34.968 34.968-17.773 9.232-41.122 9.232-87.82 9.232h-95.96c-46.6982 0-70.0474 0-87.8199-9.232-14.9767-7.78-27.1882-19.991-34.968-34.968-9.2321-17.773-9.2321-41.122-9.2321-87.82z" fill="#000"/><path clip-rule="evenodd" d="m94.0636 215.459v-72.437h7.4234s9.674 2.7 18.448 14.625c8.773 11.697 10.797 18.221 10.797 18.221s4.051-13.049 13.049-21.369c9.223-8.325 15.969-11.475 15.969-11.475h7.424v20.473s10.799-22.497 36.22-22.497c25.422 0 34.418 26.322 34.418 26.322h-18.446s-2.477-8.097-16.199-8.097c-13.947 0-20.92 12.146-20.92 20.92 0 8.998 8.32 22.497 20.92 22.497 12.373 0 18.671-12.15 18.671-12.15h-20.695v-18.446h39.819v-29.022h36.445v18.673h-18.671v10.349h18.446v18.223h-18.223v8.32h18.223v17.097h-35.993v-20.02s-8.098 23.397-38.02 23.397c-29.695 0-34.869-24.521-34.869-24.521v20.919h-18.673v-38.916s-6.299 1.351-7.422 15.973c-1.351 14.396-1.351 23.168-1.351 23.168h-20.02s-.225-16.196-1.574-23.618c-2.25-13.049-6.976-14.172-6.976-14.172v37.792zm187.3944.227v-72.664h5.624s13.049 9.676 19.349 17.548c6.074 7.874 8.099 9.896 8.099 9.896v-27.444h20.47v72.664h-19.119s1.123-5.846-5.625-17.322c-6.525-11.243-10.125-14.395-10.125-14.395v31.719h-18.673zm-234.1866-50.615c-17.9976 28.344-22.2714 50.615-22.2714 50.615h19.5716s.6754-3.373 1.7992-8.095c1.1257-4.501 1.7992-8.551 1.7992-8.551h23.1738v16.646h16.6468v-72.664s-22.7216-6.298-40.7192 22.049zm9.4481 16.646s2.2495-4.724 6.5232-9.896c4.0506-4.724 8.0992-6.075 8.0992-6.075l.2252 15.973h-14.8476z" fill="#b5d6ef" fill-rule="evenodd"/></svg>