<svg fill="none" height="360" viewBox="0 0 360 360" width="360" xmlns="http://www.w3.org/2000/svg"><path d="m0 132.02c0-46.6982 0-70.0474 9.2321-87.8199 7.7798-14.9767 19.9913-27.1882 34.968-34.968 17.7725-9.2321 41.1217-9.2321 87.8199-9.2321h95.96c46.698 0 70.047 0 87.82 9.2321 14.977 7.7798 27.188 19.9913 34.968 34.968 9.232 17.7725 9.232 41.1217 9.232 87.8199v95.96c0 46.698 0 70.047-9.232 87.82-7.78 14.977-19.991 27.188-34.968 34.968-17.773 9.232-41.122 9.232-87.82 9.232h-95.96c-46.6982 0-70.0474 0-87.8199-9.232-14.9767-7.78-27.1882-19.991-34.968-34.968-9.2321-17.773-9.2321-41.122-9.2321-87.82z" fill="#1b619a"/><g fill="#fff"><path d="m108.109 154.13c-6.151 0-11.3477 2.055-15.3628 5.945v-25.075h-9.1749v73.562h9.1749v-30.467c0-8.791 6.1797-15.171 14.6918-15.171 8.299 0 13.256 5.384 13.256 14.407v31.231h9.173v-32.094c0-13.36-8.744-22.338-21.758-22.338z"/><path d="m143.224 191.682c0-5.727 5.17-9.143 13.831-9.143 5.89 0 10.61.858 14.306 1.731v3.773c0 7.287-6.973 12.78-16.22 12.78-5.924 0-11.917-3.073-11.917-8.952zm14.499-37.168c-7.707 0-13.557 2.234-18.264 4.417l-1.955.91 3.488 8.339 2.157-1.099c4.91-2.511 9.452-3.68 14.29-3.68 6.145 0 13.424 2.112 13.797 11.92-3.667-.831-8.001-1.483-13.896-1.483-14.324 0-23.576 7.12-23.576 18.129v.192c0 11.401 10.865 17.551 21.089 17.551 7.607 0 12.895-2.82 16.415-5.831v4.683h9.079v-32.668c0-13.39-8.459-21.38-22.624-21.38z"/><path d="m194.83 163.575v-8.297h-9.175v53.285h9.175v-22.242c0-15.305 9.492-22.155 18.901-22.155h2.719v-9.638h-2.154c-7.399 0-14.503 3.115-19.466 9.047z"/><path d="m242.301 200.535c-5.197 0-7.514-2.225-7.514-7.226v-29.141h17.12v-9.64h-17.12v-14.844h-9.175v14.844h-6.19v9.64h6.19v29.618c0 9.646 6.097 15.64 15.922 15.64 3.253 0 5.993-.597 8.879-1.928l1.308-.604v-9.303l-3.163 1.419c-2.482 1.113-4.178 1.525-6.257 1.525z"/><path d="m276.528 162.923c9.396 0 13.802 7.09 14.987 14.46h-30.355c1.598-8.493 7.732-14.46 15.368-14.46zm.189-8.794c-14.239 0-25.395 12.165-25.395 27.695v.192c0 15.786 11.247 27.695 26.159 27.695 11.201 0 17.554-5.293 21.835-9.902l1.563-1.688-6.613-5.831-1.486 1.593c-4.422 4.734-9.22 6.938-15.104 6.938-7.019 0-14.852-4.635-16.598-14.742h40.06l.098-1.973.112-1.994v-.189c0-16.364-10.126-27.794-24.631-27.794z"/><path d="m334.848 154.513c-7.447-.295-14.51 3.131-19.468 9.063v-8.299h-9.175v53.285h9.175v-22.243c0-15.301 9.494-22.152 18.898-22.152h2.722v-9.569z"/><path d="m72.3456 194.686c-4.8644 4.044-9.6569 5.844-15.5463 5.844-13.1288 0-23.414-12.167-23.414-27.706 0-15.687 10.0669-27.511 23.414-27.511 5.6391 0 10.2479 1.666 14.9472 5.404l1.5656 1.249 6.7734-6.773-1.8718-1.574c-3.8393-3.235-10.2266-7.537-21.3239-7.537-18.752 0-32.8898 15.882-32.8898 36.939 0 20.946 14.0207 36.74 32.6182 36.74 11.3289 0 17.9426-4.811 21.931-8.432l1.7439-1.582-6.374-6.368z"/></g></svg>