<svg fill="none" height="360" viewBox="0 0 360 360" width="360" xmlns="http://www.w3.org/2000/svg"><path d="m0 132.02c0-46.6982 0-70.0474 9.2321-87.8199 7.7798-14.9767 19.9913-27.1882 34.968-34.968 17.7725-9.2321 41.1217-9.2321 87.8199-9.2321h95.96c46.698 0 70.047 0 87.82 9.2321 14.977 7.7798 27.188 19.9913 34.968 34.968 9.232 17.7725 9.232 41.1217 9.232 87.8199v95.96c0 46.698 0 70.047-9.232 87.82-7.78 14.977-19.991 27.188-34.968 34.968-17.773 9.232-41.122 9.232-87.82 9.232h-95.96c-46.6982 0-70.0474 0-87.8199-9.232-14.9767-7.78-27.1882-19.991-34.968-34.968-9.2321-17.773-9.2321-41.122-9.2321-87.82z" fill="#049fd9"/><circle cx="180" cy="180" fill="#4681c7" fill-opacity=".06" r="155.455"/><circle cx="180" cy="180" r="155.205" stroke="#2869bf" stroke-opacity=".04" stroke-width=".5"/><path d="m335 148.647c0-3.751-3.018-6.688-6.688-6.688-3.751 0-6.769 3.018-6.769 6.688v14.11c0 3.751 3.018 6.769 6.769 6.769 3.67 0 6.688-3.018 6.688-6.769zm-37.027-18.595c0-3.67-3.018-6.688-6.769-6.688-3.752 0-6.688 3.018-6.688 6.688v32.705c0 3.751 3.018 6.769 6.688 6.769 3.833 0 6.769-3.018 6.769-6.769zm-37.109-25.364c0-3.752-3.017-6.688-6.687-6.688-3.752 0-6.688 3.018-6.688 6.688v71.526c0 3.751 3.017 6.769 6.688 6.769 3.751 0 6.687-3.018 6.687-6.769zm-37.027 25.364c0-3.67-3.017-6.688-6.688-6.688-3.67 0-6.687 3.018-6.687 6.688v32.705c0 3.751 3.017 6.769 6.687 6.769 3.752 0 6.688-3.018 6.688-6.769zm-37.109 18.595c0-3.751-3.017-6.688-6.687-6.688-3.752 0-6.77 3.018-6.77 6.688v14.11c0 3.751 3.018 6.769 6.77 6.769 3.67 0 6.687-3.018 6.687-6.769zm-37.027-18.595c0-3.67-3.017-6.688-6.769-6.688s-6.769 3.018-6.769 6.688v32.705c0 3.751 3.017 6.769 6.769 6.769s6.769-3.018 6.769-6.769zm-37.027-25.364c0-3.752-3.017-6.688-6.769-6.688s-6.7692 3.018-6.7692 6.688v71.526c0 3.751 3.0172 6.769 6.7692 6.769s6.769-3.018 6.769-6.769zm-37.1084 25.364c0-3.67-3.0176-6.688-6.7692-6.688-3.7517 0-6.7693 3.018-6.7693 6.688v32.705c0 3.751 3.0176 6.769 6.7693 6.769 3.7516 0 6.7692-3.018 6.7692-6.769zm-37.0271 18.595c0-3.751-3.0176-6.688-6.7692-6.688-3.7517 0-6.7693 3.018-6.7693 6.688v14.11c0 3.751 3.0176 6.769 6.7693 6.769 3.7516 0 6.7692-3.018 6.7692-6.769zm139.3005 58.558c-.408-.081-6.606-1.712-13.213-1.712-12.559 0-20.063 6.769-20.063 16.801 0 8.889 6.28 13.375 13.865 15.74.816.245 2.039.653 2.936.897 3.344 1.061 6.035 2.61 6.035 5.383 0 3.018-3.099 5.057-9.868 5.057-5.954 0-11.663-1.713-12.805-2.039v12.396c.653.164 7.422 1.468 14.681 1.468 10.439 0 22.265-4.567 22.265-18.105 0-6.525-3.996-12.642-12.805-15.415l-3.751-1.223c-2.202-.734-6.199-1.876-6.199-5.138 0-2.61 2.936-4.404 8.401-4.404 4.73 0 10.439 1.549 10.602 1.631v-11.337zm114.833 26.18c0 7.83-6.036 14.191-14.028 14.191-8.074 0-14.028-6.361-14.028-14.191 0-7.829 5.954-14.191 14.028-14.191 7.992.082 14.028 6.443 14.028 14.191zm-14.028-27.811c-16.556 0-28.464 12.479-28.464 27.893s11.908 27.893 28.464 27.893 28.463-12.479 28.463-27.893-11.907-27.893-28.463-27.893zm-184.6463 1.876c-1.305-.408-6.0353-1.957-12.3968-1.957-16.5562 0-28.7082 11.826-28.7082 27.892 0 17.372 13.3754 27.893 28.7082 27.893 6.0353 0 10.6841-1.468 12.3968-1.957v-14.436c-.5709.326-5.0566 2.855-11.4181 2.855-9.0529 0-14.925-6.362-14.925-14.355 0-8.237 6.1168-14.354 14.925-14.354 6.5246 0 10.8472 2.61 11.4181 2.855zm141.8283 0c-1.305-.408-6.035-1.957-12.397-1.957-16.556 0-28.708 11.826-28.708 27.892 0 17.372 13.457 27.893 28.708 27.893 6.036 0 10.684-1.468 12.397-1.957v-14.436c-.571.326-5.056 2.855-11.418 2.855-9.053 0-14.843-6.362-14.843-14.355 0-8.237 6.116-14.354 14.843-14.354 6.525 0 10.847 2.61 11.418 2.855zm-109.532 52.931h-13.62v-53.828h13.62z" fill="#fff"/></svg>