<svg fill="none" height="360" viewBox="0 0 360 360" width="360" xmlns="http://www.w3.org/2000/svg"><path d="m0 132.02c0-46.6982 0-70.0474 9.2321-87.8199 7.7798-14.9767 19.9913-27.1882 34.968-34.968 17.7725-9.2321 41.1217-9.2321 87.8199-9.2321h95.96c46.698 0 70.047 0 87.82 9.2321 14.977 7.7798 27.188 19.9913 34.968 34.968 9.232 17.7725 9.232 41.1217 9.232 87.8199v95.96c0 46.698 0 70.047-9.232 87.82-7.78 14.977-19.991 27.188-34.968 34.968-17.773 9.232-41.122 9.232-87.82 9.232h-95.96c-46.6982 0-70.0474 0-87.8199-9.232-14.9767-7.78-27.1882-19.991-34.968-34.968-9.2321-17.773-9.2321-41.122-9.2321-87.82z" fill="#005baa"/><g clip-rule="evenodd" fill="#fff" fill-rule="evenodd"><path d="m72.6296 185.951-34.861 55.135h110.6314 33.08l54.426-86.794 19.922 31.659h-17.078l-17.428 27.389h51.936l17.428 27.746h33.083l-87.863-139.086-70.433 111.34h-77.1915l17.7855-27.389h48.024l17.431-27.747h-107.0722l-17.4305 27.747z"/><path d="m195.354 130.453 17.43-27.389h-113.4729l-17.4332 27.744z"/></g></svg>