<svg fill="none" height="360" viewBox="0 0 360 360" width="360" xmlns="http://www.w3.org/2000/svg"><path d="m0 132.02c0-46.6982 0-70.0474 9.2321-87.8199 7.7798-14.9767 19.9913-27.1882 34.968-34.968 17.7725-9.2321 41.1217-9.2321 87.8199-9.2321h95.96c46.698 0 70.047 0 87.82 9.2321 14.977 7.7798 27.188 19.9913 34.968 34.968 9.232 17.7725 9.232 41.1217 9.232 87.8199v95.96c0 46.698 0 70.047-9.232 87.82-7.78 14.977-19.991 27.188-34.968 34.968-17.773 9.232-41.122 9.232-87.82 9.232h-95.96c-46.6982 0-70.0474 0-87.8199-9.232-14.9767-7.78-27.1882-19.991-34.968-34.968-9.2321-17.773-9.2321-41.122-9.2321-87.82z" fill="#3c5a99"/><path d="m244.505 360v-142.774h47.923l7.176-55.642h-55.099v-35.524c0-16.11 4.474-27.0877 27.574-27.0877l29.464-.0128v-49.7665c-5.095-.678-22.585-2.193-42.934-2.193-42.48 0-71.564 25.9304-71.564 73.55v41.034h-48.045v55.642h48.045v142.774z" fill="#fff"/></svg>