<svg fill="none" height="360" viewBox="0 0 360 360" width="360" xmlns="http://www.w3.org/2000/svg"><path d="m0 132.02c0-46.6982 0-70.0474 9.2321-87.8199 7.7798-14.9767 19.9913-27.1882 34.968-34.968 17.7725-9.2321 41.1217-9.2321 87.8199-9.2321h95.96c46.698 0 70.047 0 87.82 9.2321 14.977 7.7798 27.188 19.9913 34.968 34.968 9.232 17.7725 9.232 41.1217 9.232 87.8199v95.96c0 46.698 0 70.047-9.232 87.82-7.78 14.977-19.991 27.188-34.968 34.968-17.773 9.232-41.122 9.232-87.82 9.232h-95.96c-46.6982 0-70.0474 0-87.8199-9.232-14.9767-7.78-27.1882-19.991-34.968-34.968-9.2321-17.773-9.2321-41.122-9.2321-87.82z" fill="#68727b"/><g fill="#be301a"><path d="m52.0294 144h-23.0294v72.733h23.0294z"/><path d="m119.442 198.057h-35.9752v-12.518h-22.3047v31.202h61.9039c22.301 0 35.546-10.039 35.546-28.016v-3.186h-22.311c-.27 9.9-7.485 12.518-16.859 12.518z"/><path d="m83.4668 162.083h35.9752c9.341 0 16.547 2.612 16.859 12.431h22.311v-2.482c0-17.991-13.245-28.032-35.546-28.032h-61.9039v30.514h22.3066v-12.431z"/><path d="m300.781 185.538h-39.64l-21.859 23.828-21.859-23.828h-39.553l-28.626 31.201h29.323l19.059-22.492 19.116 22.492h45.097l19.068-22.492 19.084 22.504h30.009z"/><path d="m239.282 151.385 21.227 23.129h40.823l27.978-30.514h-29.319l-19.072 22.497-19.076-22.482-45.091-.015-19.126 22.497-19.059-22.482h-29.323l27.982 30.499h40.856z"/></g></svg>