<svg fill="none" height="360" viewBox="0 0 360 360" width="360" xmlns="http://www.w3.org/2000/svg"><path d="m0 132.02c0-46.6982 0-70.0474 9.2321-87.8199 7.7798-14.9767 19.9913-27.1882 34.968-34.968 17.7725-9.2321 41.1217-9.2321 87.8199-9.2321h95.96c46.698 0 70.047 0 87.82 9.2321 14.977 7.7798 27.188 19.9913 34.968 34.968 9.232 17.7725 9.232 41.1217 9.232 87.8199v95.96c0 46.698 0 70.047-9.232 87.82-7.78 14.977-19.991 27.188-34.968 34.968-17.773 9.232-41.122 9.232-87.82 9.232h-95.96c-46.6982 0-70.0474 0-87.8199-9.232-14.9767-7.78-27.1882-19.991-34.968-34.968-9.2321-17.773-9.2321-41.122-9.2321-87.82z" fill="#f00"/><g fill="#fff"><path d="m168.231 100.363c-38.011 1.09-75.5236 8.079-106.0434 19.719-4.5478 1.754-13.433 5.501-16.9555 7.202-.368.16-.8675.718-1.1041 1.223-.8937 1.78-.6571 2.976 2.5236 13.102 1.9716 6.271 2.9442 9.726 2.8391 10.205-.184 1.036-1.2618 2.444-2.2344 2.87-.4732.212-2.3396.85-4.206 1.461-3.6277 1.17-13.3804 4.917-15.1417 5.847-1.5772.797-2.2081 1.913-2.0241 3.588.1314 1.382 16.1931 55.941 16.9029 57.483.2366.478.7886 1.169 1.2618 1.541l.8412.638h134.7766c99.13 0 134.933-.08 135.354-.293 1.183-.611 2.024-1.7 2.55-3.268 1.919-5.9 16.351-55.304 16.482-56.367.132-1.196.053-1.435-.578-2.206-.394-.478-1.078-1.063-1.498-1.276-1.446-.744-11.488-4.597-14.853-5.713-1.866-.585-3.812-1.276-4.39-1.515-1.209-.505-2.234-1.94-2.313-3.242-.053-.877 4.942-18.497 5.625-19.852.473-.957.105-2.95-.736-3.827-.394-.425-.867-.771-1.051-.771s-1.788-.664-3.575-1.488c-29.285-13.421-66.692-22.005-106.938-24.556-5.573-.345-20.636-.797-25.236-.744-1.945.027-6.572.133-10.279.239zm43.743 28.197c.315.399.421.797.315 1.249-1.367 5.767-1.787 6.963-2.97 8.292-1.236 1.408-2.944 2.391-6.966 4.092-1.236.505-2.918 1.116-3.733 1.329-1.315.319-1.604.345-2.235 0-1.551-.797-1.656-2.711-.394-6.777 1.157-3.667 1.604-4.438 3.26-5.554 2.392-1.595 5.205-2.604 9.148-3.189 1.998-.319 2.997-.16 3.575.558zm-95.24 1.408c.421.24.841.691.92 1.01.105.372-1.524 6.75-4.179 16.451-2.393 8.716-4.364 15.971-4.364 16.131 0 .213 1.919.292 6.677.292h6.677l.105-.611c.079-.319 1.577-5.9 3.339-12.411 2.549-9.487 3.417-12.304 4.363-14.271 1.341-2.737 3.234-5.023 5.1-6.139l1.209-.717 6.809-.08c3.733-.053 6.966-.027 7.203.08.315.106.184.398-.658 1.275-2.76 2.87-5.441 8.744-8.359 18.284-1.945 6.325-10.489 39.97-10.594 41.697-.131 2.259.21 3.322 1.656 5.023l1.209 1.435-.604.611c-1.683 1.675-6.125 3.588-10.068 4.332-2.524.479-7.729.824-8.412.558-.947-.372-1.499-1.674-1.472-3.587 0-1.914.21-2.764 4.39-18.524 1.656-6.245 2.996-11.454 2.996-11.613 0-.213-2.103-.292-6.65-.292h-6.651l-1.893 6.564c-2.55 8.796-3.812 11.427-7.2026 15.095-3.3123 3.614-14.0902 9.726-21.2404 12.065-4.6266 1.515-5.8884 1.727-10.1207 1.754-4.39 0-5.3363-.213-8.6749-1.967-5.6518-2.95-10.8041-12.304-11.3299-20.569-.2366-3.827.1315-5.581 1.3933-6.724 1.3932-1.249 6.2038-3.614 9.7789-4.81 3.9169-1.302 3.7066-1.594 3.5225 5.076-.1051 4.013-.0525 5.634.2892 7.733.8675 5.262 3.0231 10.418 5.3364 12.677 2.1293 2.099 6.0987 3.242 9.3583 2.764 3.7854-.585 8.2543-6.245 11.6454-14.696.4732-1.249 2.4973-8.026 4.4689-15.069 1.9453-7.016 4.7318-16.981 6.1776-22.137 1.419-5.129 2.681-10.046 2.76-10.896.316-3.03-.578-3.561-6.2037-3.747-4.5477-.133-6.0724.106-8.9378 1.568-3.2333 1.647-5.31 4.225-6.493 8.079-.368 1.275-.4732 2.445-.4469 5.713 0 4.757.1578 5.342 2.7602 10.896.8412 1.808 1.4458 3.402 1.3407 3.482-.2366.266-5.5467.983-8.6486 1.196-1.6561.133-2.6551.079-3.1808-.133-1.2092-.505-2.3922-3.136-3.5751-7.867-2.1819-8.743.368-16.317 6.9925-20.755 5.3363-3.588 11.5139-4.518 30.7825-4.598 8.412-.026 10.042.027 10.699.372zm135.67 19.533c2.839.559 4.443 2.392 4.443 5.103 0 1.541-.5 3.534-4.995 19.613-4.837 17.38-5.126 18.842-3.785 20.463.394.452 1.156 1.063 1.708 1.355.579.293 1.026.611 1.026.744 0 1.542-13.118 6.671-17.087 6.671-1.578 0-2.918-.718-3.47-1.861-.868-1.727-.552-4.039 1.367-9.965.552-1.754 2.024-6.937 3.286-11.534 1.235-4.598 2.786-10.099 3.417-12.251.631-2.153 1.236-4.625 1.314-5.475.158-1.355.106-1.674-.394-2.312-.447-.558-.789-.718-1.603-.718-2.761 0-7.387 3.216-9.254 6.458-.972 1.648-1.419 3.003-4.022 11.747-3.548 12.012-3.548 12.012-3.706 16.211-.079 2.445-.263 3.906-.473 4.278-.894 1.409-9.622 5.076-12.776 5.342-1.919.186-2.708-.266-3.444-1.993-.867-1.94-.578-4.837.92-9.488.657-2.046 2.839-9.115 4.837-15.679 3.47-11.507 3.602-12.039 3.628-14.351 0-2.206-.053-2.471-.762-3.534-.579-.851-.71-1.276-.526-1.568.131-.24 1.419-1.037 2.865-1.834 4.206-2.286 13.091-4.996 14.879-4.545 1.288.346 1.603 2.18.867 5.183-.631 2.498-.631 2.498 3.076-.053 3.707-2.525 8.675-4.731 12.592-5.555 3.627-.77 4.127-.824 6.072-.452zm-74.21 1.701c2.209 1.143 3.47 2.817 4.022 5.448 1.078 5.076-3.995 11.454-12.486 15.653-2.892 1.435-7.624 3.216-10.778 4.04-1.262.345-2.471.77-2.655.956s-.605 1.329-.946 2.552c-.474 1.754-.605 2.87-.605 5.527-.026 3.774.21 4.545 1.84 6.379 1.551 1.727 2.681 2.179 5.862 2.338 3.286.16 4.758-.159 8.307-1.674 1.446-.638 2.734-1.063 2.865-.93.526.531-.289 1.807-2.944 4.491-4.994 5.076-8.648 6.91-15.562 7.76-3.102.372-5.52.16-8.097-.717-3.785-1.276-5.783-3.003-7.281-6.299-1.131-2.471-1.499-4.438-1.472-7.654.052-8.796 4.101-19.293 10.199-26.416 6.073-7.095 13.722-10.896 24.527-12.198 1.787-.212 3.943.08 5.204.744zm26.603-.372c.29.293.579.824.684 1.196.289 1.223-.92 6.033-5.1 20.198-4.994 16.981-5.31 18.151-5.31 20.091 0 1.355.105 1.674.789 2.471.447.479 1.288 1.09 1.866 1.329 1.025.425 1.052.478.657.93-.578.664-5.047 2.95-7.991 4.119-3.128 1.249-7.124 2.286-8.754 2.286-1.709 0-3.47-.877-3.996-1.993-1.13-2.419-.841-4.412 1.946-12.836 5.31-16.025 7.912-25.008 7.965-27.453.026-1.515-.079-1.887-.736-2.843-.395-.612-.684-1.276-.605-1.489.552-1.461 8.517-4.863 14.248-6.086 2.629-.584 3.707-.558 4.337.08zm93.137-.239c.763.425.947.718.763 1.355-.079.293-5.784 8.372-12.724 17.965-9.989 13.82-12.565 17.567-12.513 18.098l.079.691 12.329.08c7.992.027 12.671-.026 13.328-.213 1.236-.345 2.55-1.621 3.943-3.8.946-1.488 1.025-1.727 1.025-3.561 0-2.232-.315-3.083-1.682-4.279-1.025-.903-2.34-1.222-4.495-1.063l-1.315.08.079-.93c.105-1.568 1.367-3.747 2.629-4.651 1.052-.717 1.341-.797 3.286-.797 3.47.027 6.046 1.488 7.203 4.039.552 1.196.631 1.701.499 2.791-.526 3.986-4.81 11.853-11.093 20.436-1.367 1.861-2.892 3.748-3.418 4.199l-.92.824h-19.847c-16.719 0-19.978-.053-20.741-.372-.499-.212-.92-.505-.92-.638 0-.292 2.314-3.667 4.022-5.899 2.55-3.296 6.388-7.893 12.802-15.281 10.253-11.826 11.83-13.899 11.83-15.441v-.903h-8.307-8.307l-1.393 1.461c-1.262 1.329-1.893 1.701-2.287 1.329-.316-.319 2.392-8.079 3.733-10.763.657-1.276 2.05-2.87 3.496-3.986 1.209-.93 2.734-1.037 15.641-1.037 9.095-.026 12.881.053 13.275.266z"/><path d="m164.866 156.81c-1.945 1.435-3.996 5.076-6.335 11.162-1.683 4.411-1.683 4.491-.027 4.305.71-.08 2.314-.478 3.549-.851 2.603-.797 2.392-.558 4.443-5.58 2.287-5.688 2.891-8.823 1.787-9.435-.92-.478-2.497-.319-3.417.399z"/></g></svg>