<svg width="360" height="360" viewBox="0 0 360 360" fill="none" xmlns="http://www.w3.org/2000/svg">
<path d="M0 132.02C0 85.3218 0 61.9726 9.2321 44.2001C17.0119 29.2234 29.2234 17.0119 44.2001 9.2321C61.9726 0 85.3218 0 132.02 0H227.98C274.678 0 298.027 0 315.8 9.2321C330.777 17.0119 342.988 29.2234 350.768 44.2001C360 61.9726 360 85.3218 360 132.02V227.98C360 274.678 360 298.027 350.768 315.8C342.988 330.777 330.777 342.988 315.8 350.768C298.027 360 274.678 360 227.98 360H132.02C85.3218 360 61.9726 360 44.2001 350.768C29.2234 342.988 17.0119 330.777 9.2321 315.8C0 298.027 0 274.678 0 227.98V132.02Z" fill="#2D3277"/>
<path d="M128.886 152.189C128.886 152.189 127.227 153.849 128.222 155.176C130.546 158.163 137.847 159.822 145.48 158.163C149.794 157.167 155.768 152.521 161.078 148.207C167.051 143.561 173.025 138.583 178.999 136.923C185.304 134.932 189.287 135.928 191.942 136.591C194.928 137.587 198.247 139.578 203.889 143.561C214.177 151.194 255.993 187.7 263.294 194.005C268.936 191.35 294.822 180.398 330 172.433C327.013 153.849 315.73 136.591 298.472 122.653C274.578 132.609 245.041 137.919 216.168 123.98C216.168 123.98 200.57 116.679 184.972 117.011C162.073 117.675 152.449 127.299 141.829 137.919L128.886 152.189Z" fill="white"/>
<path d="M261.637 197.983C261.305 197.651 212.52 155.172 201.569 146.875C195.263 142.229 191.612 140.902 187.962 140.238C185.971 139.906 183.316 140.238 181.324 140.902C176.346 142.229 169.377 146.875 163.403 151.521C157.098 156.499 151.456 161.146 146.146 162.141C139.177 163.801 130.88 161.809 127.229 159.154C125.57 158.159 124.574 156.831 123.911 155.504C122.583 152.185 125.238 149.53 125.57 149.198L138.845 134.596L143.491 129.95C139.177 130.614 135.194 131.609 131.212 132.605C126.234 133.932 121.588 135.26 116.941 135.26C114.95 135.26 104.33 133.6 102.339 132.937C90.0599 129.618 79.44 126.299 63.5102 118.998C44.5936 133.269 31.6506 150.858 28 170.438C30.655 171.102 35.3012 172.429 36.9605 172.761C80.1038 182.385 93.3786 192.342 96.0336 194.333C98.6885 191.346 102.339 189.687 106.653 189.687C111.3 189.687 115.614 192.01 118.269 195.66C120.592 193.669 124.243 192.01 128.557 192.01C130.548 192.01 132.539 192.342 134.862 193.005C139.841 194.665 142.164 197.983 143.491 200.97C145.15 200.306 147.142 199.643 149.465 199.643C151.788 199.643 154.111 200.306 156.766 201.302C164.731 204.621 166.058 212.586 165.395 218.559H167.054C176.678 218.559 184.311 226.192 184.311 235.817C184.311 238.803 183.648 241.458 182.32 243.782C184.975 245.109 191.281 248.428 197.254 247.764C201.9 247.1 203.56 245.773 204.224 244.777C204.555 244.113 205.219 243.45 204.555 242.786L192.276 229.179C192.276 229.179 190.285 227.188 190.949 226.524C191.612 225.861 192.94 226.856 193.936 227.52C200.241 232.83 207.542 240.463 207.542 240.463C207.542 240.463 208.206 241.458 210.861 242.122C213.184 242.454 217.498 242.122 220.485 239.799C221.149 239.135 222.145 238.472 222.476 237.808C225.463 233.825 222.145 229.843 222.145 229.843L207.874 213.913C207.874 213.913 205.883 211.922 206.547 211.258C207.21 210.594 208.538 211.59 209.533 212.254C214.18 215.904 220.485 222.542 226.459 228.515C227.786 229.511 233.096 232.83 240.066 228.184C244.38 225.197 245.376 221.878 245.044 219.223C244.712 215.904 242.057 213.249 242.057 213.249L222.808 193.669C222.808 193.669 220.817 192.01 221.481 191.014C222.145 190.35 223.472 191.346 224.468 192.01C230.773 197.32 247.367 212.586 247.367 212.586C247.699 212.586 253.34 216.9 260.642 212.254C263.297 210.594 264.956 208.271 264.956 205.285C265.288 200.97 261.637 197.983 261.637 197.983Z" fill="white"/>
<path d="M167.708 222.877C164.721 222.877 161.402 224.536 161.07 224.536C160.739 224.536 161.07 223.209 161.402 222.545C161.734 221.881 165.717 209.934 156.092 205.62C148.791 202.301 144.145 205.951 142.818 207.611C142.486 207.943 142.154 207.943 142.154 207.611C142.154 205.62 141.158 199.646 134.521 197.655C125.228 194.668 119.587 201.305 117.927 203.628C117.264 198.318 112.949 194.336 107.307 194.336C101.334 194.336 96.6875 198.982 96.6875 204.956C96.6875 210.929 101.334 215.576 107.307 215.576C110.294 215.576 112.617 214.58 114.609 212.589V212.921C114.277 215.576 113.281 225.2 123.237 228.851C127.22 230.51 130.538 229.182 133.525 227.191C134.521 226.527 134.521 226.859 134.521 227.523C134.189 229.846 134.521 235.156 142.154 238.143C147.796 240.466 151.114 238.143 153.106 236.152C154.101 235.156 154.433 235.488 154.433 236.815C154.765 243.785 160.739 249.427 167.708 249.427C175.009 249.427 180.983 243.453 180.983 236.152C180.983 228.851 175.009 222.877 167.708 222.877Z" fill="white"/>
</svg>
