<svg width="360" height="360" viewBox="0 0 360 360" fill="none" xmlns="http://www.w3.org/2000/svg">
<path d="M0 132.02C0 85.3218 0 61.9726 9.2321 44.2001C17.0119 29.2234 29.2234 17.0119 44.2001 9.2321C61.9726 0 85.3218 0 132.02 0H227.98C274.678 0 298.027 0 315.8 9.2321C330.777 17.0119 342.988 29.2234 350.768 44.2001C360 61.9726 360 85.3218 360 132.02V227.98C360 274.678 360 298.027 350.768 315.8C342.988 330.777 330.777 342.988 315.8 350.768C298.027 360 274.678 360 227.98 360H132.02C85.3218 360 61.9726 360 44.2001 350.768C29.2234 342.988 17.0119 330.777 9.2321 315.8C0 298.027 0 274.678 0 227.98V132.02Z" fill="black"/>
<path d="M155.925 155.325L178.5 178.425C179.025 178.95 179.55 179.25 180 179.25C180.45 179.25 180.975 178.95 181.5 178.425L204.075 155.325C204.6 154.8 204.9 154.275 204.9 153.825C204.9 153.075 204.525 152.775 203.7 152.775H156.375C155.55 152.775 155.175 153.15 155.175 153.825C155.1 154.275 155.4 154.8 155.925 155.325ZM288 73.2C288 72.375 287.625 72 286.875 72C286.425 72 285.975 72.225 285.525 72.675L267 91.425V268.425L285.525 287.325C285.975 287.775 286.425 288 286.875 288C287.625 288 288 287.625 288 286.8V73.2ZM72 286.8C72 287.625 72.375 288 73.125 288C73.575 288 74.025 287.775 74.475 287.325L93 268.425V91.425L74.475 72.675C74.025 72.225 73.5 72 73.125 72C72.375 72 72 72.375 72 73.2V286.8ZM120.15 119.1H239.925L256.725 102C257.175 101.55 257.4 101.1 257.4 100.65C257.4 99.9 257.025 99.525 256.2 99.525H103.8C102.975 99.525 102.6 99.9 102.6 100.65C102.6 101.1 102.825 101.55 103.275 102L120.15 119.1ZM103.275 258C102.825 258.45 102.6 258.9 102.6 259.35C102.6 260.1 102.975 260.4 103.8 260.4H256.125C256.95 260.4 257.325 260.025 257.325 259.35C257.325 258.9 257.1 258.45 256.65 258L239.85 240.9H120.15L103.275 258ZM230.85 231.75C231.3 232.2 231.75 232.425 232.2 232.425C232.95 232.425 233.25 232.05 233.25 231.225V128.775C233.25 127.95 232.875 127.575 232.2 127.575C231.75 127.575 231.3 127.8 230.85 128.25L213.3 146.1V213.975L230.85 231.75ZM146.7 213.9V146.1L129.15 128.25C128.7 127.8 128.25 127.575 127.8 127.575C127.05 127.575 126.75 128.025 126.75 128.775V231.225C126.75 232.05 127.125 232.425 127.8 232.425C128.25 232.425 128.7 232.2 129.15 231.75L146.7 213.9Z" fill="white"/>
</svg>
