<svg width="360" height="360" viewBox="0 0 360 360" fill="none" xmlns="http://www.w3.org/2000/svg">
<path d="M0 132.02C0 85.3218 0 61.9726 9.2321 44.2001C17.0119 29.2234 29.2234 17.0119 44.2001 9.2321C61.9726 0 85.3218 0 132.02 0H227.98C274.678 0 298.027 0 315.8 9.2321C330.777 17.0119 342.988 29.2234 350.768 44.2001C360 61.9726 360 85.3218 360 132.02V227.98C360 274.678 360 298.027 350.768 315.8C342.988 330.777 330.777 342.988 315.8 350.768C298.027 360 274.678 360 227.98 360H132.02C85.3218 360 61.9726 360 44.2001 350.768C29.2234 342.988 17.0119 330.777 9.2321 315.8C0 298.027 0 274.678 0 227.98V132.02Z" fill="url(#paint0_radial)"/>
<path d="M209.327 127.003L203.366 127.002L181.379 162.389L159.391 127.002H153.41L153.411 233.464H159.39L181.379 198.077L203.366 233.464L209.389 233.463L209.327 233.375L209.327 127.003L209.327 127.003Z" fill="black"/>
<path d="M153.412 127.002H120.805L153.371 180.232L120.805 233.464H153.414L153.413 127.002H153.412Z" fill="#5DAF14"/>
<path d="M241.964 127.002H209.337L209.336 233.374L209.398 233.462L241.959 233.456L209.397 180.23L241.963 127L241.964 127.002Z" fill="#5DAF14"/>
<path d="M288.453 127.002H241.967L209.4 180.232L241.965 233.458H241.979L241.965 209.943H296.988C320.086 209.943 327.001 191.748 327.001 175.903V163.393C327 142.557 319.495 127.005 288.453 127.005V127.002ZM296.587 169.956C296.587 176.267 293.646 183.529 285.994 183.529H242.007V153.413H283.197C293.054 153.413 296.587 157.521 296.587 164.712V169.956L296.587 169.956Z" fill="#027400"/>
<path d="M153.372 180.234L120.805 127.004L120.792 127.003L120.788 191.337L65.6095 127.003H33V233.466L65.637 233.458L65.6253 169.13L120.805 233.466L153.372 180.234V180.234Z" fill="#027400"/>
<defs>
<radialGradient id="paint0_radial" cx="0" cy="0" r="1" gradientUnits="userSpaceOnUse" gradientTransform="translate(180 180) rotate(90) scale(180)">
<stop stop-color="#CFE5F7"/>
<stop offset="1" stop-color="#FCB316"/>
</radialGradient>
</defs>
</svg>
