<svg fill="none" height="360" viewBox="0 0 360 360" width="360" xmlns="http://www.w3.org/2000/svg"><path d="m0 132.02c0-46.6982 0-70.0474 9.2321-87.8199 7.7798-14.9767 19.9913-27.1882 34.968-34.968 17.7725-9.2321 41.1217-9.2321 87.8199-9.2321h95.96c46.698 0 70.047 0 87.82 9.2321 14.977 7.7798 27.188 19.9913 34.968 34.968 9.232 17.7725 9.232 41.1217 9.232 87.8199v95.96c0 46.698 0 70.047-9.232 87.82-7.78 14.977-19.991 27.188-34.968 34.968-17.773 9.232-41.122 9.232-87.82 9.232h-95.96c-46.6982 0-70.0474 0-87.8199-9.232-14.9767-7.78-27.1882-19.991-34.968-34.968-9.2321-17.773-9.2321-41.122-9.2321-87.82z" fill="#000"/><g fill="#fff"><path d="m63.7552 180.374v-24.862h11.1954c6.5801 0 11.9174 5.569 11.9174 12.428 0 6.871-5.3373 12.434-11.9174 12.434zm-30.7552-48.761v96.526h30.7603v-23.382l19.797-.016c19.3537 0 35.0457-16.372 35.0457-36.564 0-20.197-15.692-36.564-35.0457-36.564z"/><path d="m270.68 131.616-30.539 57.762c-3.197 6.247-9.509 10.497-16.765 10.497-10.484 0-18.987-8.872-18.987-19.815 0-10.938 8.503-19.81 18.987-19.81 8.127 0 15.063 5.332 17.771 12.821l16.29-30.888c-8.901-8.716-20.885-14.064-34.061-14.064-15.95 0-30.146 7.828-39.259 19.998-1.634 2.19-3.109 4.514-4.398 6.957l-13.181 24.986-4.915 9.318c-3.197 6.247-9.504 10.497-16.759 10.497-10.489 0-18.993-8.872-18.993-19.815 0-10.938 8.504-19.81 18.993-19.81 8.127 0 15.058 5.332 17.765 12.821l16.296-30.883c-8.906-8.721-20.886-14.069-34.061-14.069-27.496 0-49.7839 23.253-49.7839 51.941 0 28.687 22.2879 51.94 49.7839 51.94 15.945 0 30.141-7.823 39.253-19.998 9.113 12.175 23.309 19.998 39.259 19.998 19.024 0 35.551-11.132 43.931-27.493h28.409v23.635h30.286v-96.526zm25.335 48.761h-16.234l16.234-30.705z"/></g></svg>