<svg fill="none" height="360" viewBox="0 0 360 360" width="360" xmlns="http://www.w3.org/2000/svg"><path d="m0 132.02c0-46.6982 0-70.0474 9.2321-87.8199 7.7798-14.9767 19.9913-27.1882 34.968-34.968 17.7725-9.2321 41.1217-9.2321 87.8199-9.2321h95.96c46.698 0 70.047 0 87.82 9.2321 14.977 7.7798 27.188 19.9913 34.968 34.968 9.232 17.7725 9.232 41.1217 9.232 87.8199v95.96c0 46.698 0 70.047-9.232 87.82-7.78 14.977-19.991 27.188-34.968 34.968-17.773 9.232-41.122 9.232-87.82 9.232h-95.96c-46.6982 0-70.0474 0-87.8199-9.232-14.9767-7.78-27.1882-19.991-34.968-34.968-9.2321-17.773-9.2321-41.122-9.2321-87.82z" fill="#999b9e"/><path d="m275.002 178.222h-47.053v48.016h47.053z" fill="#fff"/><path d="m131.053 178.222h-47.053v48.016h47.053z" fill="#fff"/><path d="m197.005 82.3779h5.582c36.056 0 52.862 19.2881 59.884 70.7271l11.165-.493-1.49-81.612h-183.4726l-1.8082 81.612 10.7441.493c1.8608-19.288 4.0927-29.676 8.9357-40.064 8.562-19.2909 26.431-30.6631 48.392-30.6631h7.817v177.5601c0 18.795-1.116 24.731-5.579 29.183-3.725 3.461-11.171 4.945-19.736 4.945h-8.562v11.869h102.005v-11.869h-8.615c-8.509 0-16.008-1.486-19.677-4.945-4.466-4.452-5.582-10.391-5.582-29.183v-177.5601" fill="#ed008c"/></svg>