<svg fill="none" height="360" viewBox="0 0 360 360" width="360" xmlns="http://www.w3.org/2000/svg" xmlns:xlink="http://www.w3.org/1999/xlink"><mask id="a" fill="#000" height="99" maskUnits="userSpaceOnUse" width="249" x="56" y="36.7852"><path d="m56 36.7852h249v99h-249z" fill="#fff"/><path d="m175.498 42.0773c16.161-.5563 32.427 1.8745 47.67 7.2833 22.931 8.0497 43.425 22.8016 58.421 41.9102 6.596 8.3833 12.122 17.5982 16.452 27.3472.767 1.622 1.359 3.446.948 5.253-.504 3.035-3.163 5.544-6.223 5.847-3.177.464-6.461-1.518-7.594-4.512-8.611-20.263-23.306-37.8644-41.638-50.0482-11.333-7.5729-24.043-13.0875-37.321-16.1749-17.123-4.0052-35.151-4.0052-52.278-.0122-24.453 5.6312-46.844 19.6577-62.6354 39.1478-6.6958 8.2115-12.2243 17.3665-16.3922 27.1055-.902 2.263-2.9744 4.037-5.3925 4.434-2.3319.45-4.8702-.355-6.4961-2.092-1.917-1.92-2.5438-4.99-1.5555-7.511 11.4706-27.1193 32.71-49.9015 58.8227-63.4622 17.009-8.902 36.035-13.8675 55.212-14.5155z" fill="#000"/></mask><path d="m0 132.02c0-46.6982 0-70.0474 9.2321-87.8199 7.7798-14.9767 19.9913-27.1882 34.968-34.968 17.7725-9.2321 41.1217-9.2321 87.8199-9.2321h95.96c46.698 0 70.047 0 87.82 9.2321 14.977 7.7798 27.188 19.9913 34.968 34.968 9.232 17.7725 9.232 41.1217 9.232 87.8199v95.96c0 46.698 0 70.047-9.232 87.82-7.78 14.977-19.991 27.188-34.968 34.968-17.773 9.232-41.122 9.232-87.82 9.232h-95.96c-46.6982 0-70.0474 0-87.8199-9.232-14.9767-7.78-27.1882-19.991-34.968-34.968-9.2321-17.773-9.2321-41.122-9.2321-87.82z" fill="#3069b5"/><path d="m175.498 42.0773c16.161-.5563 32.427 1.8745 47.67 7.2833 22.931 8.0497 43.425 22.8016 58.421 41.9102 6.596 8.3833 12.122 17.5982 16.452 27.3472.767 1.622 1.359 3.446.948 5.253-.504 3.035-3.163 5.544-6.223 5.847-3.177.464-6.461-1.518-7.594-4.512-8.611-20.263-23.306-37.8644-41.638-50.0482-11.333-7.5729-24.043-13.0875-37.321-16.1749-17.123-4.0052-35.151-4.0052-52.278-.0122-24.453 5.6312-46.844 19.6577-62.6354 39.1478-6.6958 8.2115-12.2243 17.3665-16.3922 27.1055-.902 2.263-2.9744 4.037-5.3925 4.434-2.3319.45-4.8702-.355-6.4961-2.092-1.917-1.92-2.5438-4.99-1.5555-7.511 11.4706-27.1193 32.71-49.9015 58.8227-63.4622 17.009-8.902 36.035-13.8675 55.212-14.5155z" fill="#f49813"/><path d="m223.168 49.3606-1.656 4.7177-.008-.0028-.008-.0028zm58.421 41.9102-3.93 3.0919-.004-.005zm16.452 27.3472-4.52 2.139-.025-.054-.025-.055zm.948 5.253-4.933-.818.024-.146.033-.145zm-6.223 5.847-.723-4.948.115-.016.115-.012zm-7.594-4.512 4.602-1.956.039.093.036.093zm-41.638-50.0482-2.768 4.1642-.01-.0069zm-37.321-16.1749-1.132 4.8701-.007-.0015zm-52.278-.0122 1.136 4.8694-.014.0031zm-62.6354 39.1478 3.8849 3.1475-.0049.006-.0048.006zm-16.3922 27.1055-4.6447-1.852.0233-.058.0247-.058zm-5.3925 4.434-.9477-4.909.0684-.013.0688-.012zm-6.4961-2.092 3.5388-3.532.0565.057.0546.058zm-1.5555-7.511-4.655-1.825.0242-.062.0258-.061zm58.8227-63.4622 2.319 4.4299-.007.0038-.007.0037zm55.04-19.5125c16.771-.5773 33.664 1.9438 49.514 7.5682l-3.344 9.4242c-14.635-5.1933-30.275-7.5337-45.826-6.9984zm49.498 7.5625c23.838 8.3681 45.119 23.6897 60.698 43.5412l-7.867 6.1737c-14.412-18.3658-34.119-32.548-56.143-40.2794zm60.694 43.5362c6.858 8.7151 12.597 18.288 17.092 28.41l-9.139 4.059c-4.165-9.377-9.476-18.234-15.812-26.2853zm17.042 28.3c.882 1.865 2.103 4.99 1.304 8.502l-9.751-2.219c.006-.025.035-.171-.042-.524-.081-.372-.252-.853-.55-1.481zm1.361 8.211c-.87 5.246-5.335 9.475-10.662 10.003l-.986-9.951c.792-.078 1.647-.866 1.783-1.689zm-10.432 9.975c-5.553.812-11.049-2.551-12.993-7.689l9.353-3.54c.321.849 1.392 1.451 2.194 1.334zm-12.918-7.504c-8.225-19.354-22.279-36.1911-39.805-47.839l5.535-8.3283c19.138 12.7195 34.476 31.0853 43.473 52.2563zm-39.815-47.8459c-10.834-7.2393-22.986-12.5116-35.675-15.4621l2.264-9.7402c13.868 3.2244 27.135 8.9811 38.967 16.8878zm-35.682-15.4636c-16.374-3.83-33.624-3.8303-50.003-.0114l-2.271-9.7388c17.873-4.1671 36.68-4.1674 54.552.013zm-50.017-.0083c-23.36 5.3794-44.78 18.7958-59.8725 37.4228l-7.7697-6.2952c16.4912-20.3529 39.8522-34.9897 65.3982-40.8726zm-59.8822 37.4348c-6.3989 7.848-11.6853 16.6-15.6707 25.913l-9.1934-3.935c4.3503-10.165 10.1211-19.721 17.1138-28.2972zm-15.6227 25.797c-1.5034 3.772-4.9548 6.815-9.2268 7.517l-1.6209-9.868c.5643-.092 1.2577-.597 1.5583-1.352zm-9.0896 7.492c-3.9927.771-8.2753-.573-11.0937-3.584l7.2999-6.834c.4335.463 1.2276.729 1.8985.6zm-10.9826-3.469c-3.3312-3.337-4.3789-8.513-2.6716-12.868l9.31 3.65c-.2692.687-.0634 1.65.4393 2.154zm-2.6216-12.991c11.9304-28.2062 33.9915-51.8616 61.1237-65.9515l4.609 8.8747c-25.0942 13.0314-45.5119 34.9403-56.5226 60.9728zm61.1097-65.9441c17.681-9.2543 37.443-14.4097 57.361-15.0828l.338 9.9943c-18.437.623-36.727 5.3986-53.062 13.9483z" fill="#f49813" mask="url(#a)"/><path d="m63.8472 157.415.0192.402c.0212.444.0348.903.0487 1.372.0467 1.582.097 3.282.4558 4.93l.0057.027.0071.026c7.1658 26.096 14.3151 52.201 21.4647 78.307 5.5657 20.323 11.1316 40.647 16.7056 60.967.666 3.406 3.482 6.33 7.256 6.33 5.27.217 10.601.182 15.905.146 3.785-.025 7.557-.05 11.284.017 2.357.178 5.179-.003 7.584-.968 2.44-.98 4.517-2.805 5.107-5.878 3.314-12.331 6.632-24.663 9.951-36.995 5.57-20.699 11.14-41.398 16.689-62.091 1.931-7.124 2.907-14.46 3.872-21.711.063-.469.125-.938.188-1.407 1.081 8.951 2.398 17.937 4.853 26.682 3.006 11.145 6.001 22.295 8.997 33.446 5.622 20.927 11.244 41.858 16.941 62.762.755 4.326 5.048 6.346 8.822 6.125 3.32-.017 6.653-.001 9.993.016 6.423.032 12.872.065 19.294-.145 4.301-.073 7.927-3.336 8.702-7.495 6.607-24.368 13.2-48.747 19.793-73.125 6.011-22.227 12.023-44.454 18.043-66.671.752-1.952.498-4.11-.473-5.801-.984-1.716-2.745-3.007-5.002-3.076-4.906-.249-9.832-.196-14.72-.143-1.403.015-2.803.03-4.199.038-2.025-.058-4.194.457-5.969 1.549-1.786 1.099-3.212 2.812-3.607 5.128-2.69 11.86-5.327 23.732-7.963 35.6-1.766 7.95-3.531 15.898-5.312 23.839l-.002.008c-1.191 5.512-2.442 11.025-3.694 16.545-3.884 17.124-7.784 34.319-9.989 51.8-.305-1.959-.583-3.925-.862-5.898-.031-.215-.061-.431-.092-.647v-.001l-.99.141c-1.615-11.44-4.733-22.541-7.85-33.637-1.293-4.606-2.587-9.211-3.773-13.84zm0 0 .2643-.303c1.3712-1.573 3.3472-3.78 6.2778-3.595z" fill="#fff" stroke="#fff" stroke-width="2"/></svg>