<svg fill="none" height="360" viewBox="0 0 360 360" width="360" xmlns="http://www.w3.org/2000/svg" xmlns:xlink="http://www.w3.org/1999/xlink"><clipPath id="a"><path d="m32 109h296v134.349h-296z"/></clipPath><path d="m0 132.02c0-46.6982 0-70.0474 9.2321-87.8199 7.7798-14.9767 19.9913-27.1882 34.968-34.968 17.7725-9.2321 41.1217-9.2321 87.8199-9.2321h95.96c46.698 0 70.047 0 87.82 9.2321 14.977 7.7798 27.188 19.9913 34.968 34.968 9.232 17.7725 9.232 41.1217 9.232 87.8199v95.96c0 46.698 0 70.047-9.232 87.82-7.78 14.977-19.991 27.188-34.968 34.968-17.773 9.232-41.122 9.232-87.82 9.232h-95.96c-46.6982 0-70.0474 0-87.8199-9.232-14.9767-7.78-27.1882-19.991-34.968-34.968-9.2321-17.773-9.2321-41.122-9.2321-87.82z" fill="#ee2722"/><g clip-path="url(#a)" fill="#fff"><path d="m275.203 137.797h-16.797v16.779h16.797c3.987 0 7.194 3.247 7.194 7.21 0 3.991-3.207 7.198-7.194 7.198h-16.797v16.794h16.797c13.255 0 23.992-10.748 23.992-23.992 0-13.247-10.737-23.989-23.992-23.989zm-95.725 88.788c20.107 0 37.436-11.776 45.531-28.817h21.411v28.817h11.986v-28.817h16.797c19.888 0 36-16.112 36-35.982 0-19.875-16.112-35.992-36-35.992h-28.783v43.19h-17.083c-3.483-24.409-24.479-43.19-49.859-43.19h-59.069l-58.7578 100.791h14.0168l16.7937-28.817h60.3823v28.817zm148.522-64.799c0 29.149-23.641 52.775-52.797 52.775v28.788h-45.574v-22.457c-12.329 13.783-30.212 22.457-50.151 22.457h-43.431v-28.788h-33.944l-16.7936 28.788h-53.3094l78.36-134.349h69.118c19.939 0 37.822 8.698 50.151 22.483v-22.483h45.574c29.156 0 52.797 23.646 52.797 52.786zm-191.953-23.989v31.187h-26.792l-9.7853 16.794h53.3743v-47.981zm81.829 38.378c0 21.203-17.198 38.386-38.398 38.386h-14.64v-16.793h14.64c11.936 0 21.608-9.654 21.608-21.593 0-11.914-9.672-21.599-21.608-21.599h-14.64v-16.779h14.64c21.2 0 38.398 17.183 38.398 38.378z"/><path d="m275.203 137.797h-16.797v16.779h16.797c3.987 0 7.194 3.247 7.194 7.21 0 3.991-3.207 7.198-7.194 7.198h-16.797v16.794h16.797c13.255 0 23.992-10.748 23.992-23.992 0-13.247-10.737-23.989-23.992-23.989zm-95.725 88.788c20.107 0 37.436-11.776 45.531-28.817h21.411v28.817h11.986v-28.817h16.797c19.888 0 36-16.112 36-35.982 0-19.875-16.112-35.992-36-35.992h-28.783v43.19h-17.083c-3.483-24.409-24.479-43.19-49.859-43.19h-59.069l-58.7578 100.791h14.0168l16.7937-28.817h60.3823v28.817zm148.522-64.799c0 29.149-23.641 52.775-52.797 52.775v28.788h-45.574v-22.457c-12.329 13.783-30.212 22.457-50.151 22.457h-43.431v-28.788h-33.944l-16.7936 28.788h-53.3094l78.36-134.349h69.118c19.939 0 37.822 8.698 50.151 22.483v-22.483h45.574c29.156 0 52.797 23.646 52.797 52.786zm-191.953-23.989v31.187h-26.792l-9.7853 16.794h53.3743v-47.981zm81.829 38.378c0 21.203-17.198 38.386-38.398 38.386h-14.64v-16.793h14.64c11.936 0 21.608-9.654 21.608-21.593 0-11.914-9.672-21.599-21.608-21.599h-14.64v-16.779h14.64c21.2 0 38.398 17.183 38.398 38.378z"/><path d="m275.203 137.797h-16.797v16.779h16.797c3.987 0 7.194 3.247 7.194 7.21 0 3.991-3.207 7.198-7.194 7.198h-16.797v16.794h16.797c13.255 0 23.992-10.748 23.992-23.992 0-13.247-10.737-23.989-23.992-23.989zm-95.725 88.788c20.107 0 37.436-11.776 45.531-28.817h21.411v28.817h11.986v-28.817h16.797c19.888 0 36-16.112 36-35.982 0-19.875-16.112-35.992-36-35.992h-28.783v43.19h-17.083c-3.483-24.409-24.479-43.19-49.859-43.19h-59.069l-58.7578 100.791h14.0168l16.7937-28.817h60.3823v28.817zm148.522-64.799c0 29.149-23.641 52.775-52.797 52.775v28.788h-45.574v-22.457c-12.329 13.783-30.212 22.457-50.151 22.457h-43.431v-28.788h-33.944l-16.7936 28.788h-53.3094l78.36-134.349h69.118c19.939 0 37.822 8.698 50.151 22.483v-22.483h45.574c29.156 0 52.797 23.646 52.797 52.786zm-191.953-23.989v31.187h-26.792l-9.7853 16.794h53.3743v-47.981zm81.829 38.378c0 21.203-17.198 38.386-38.398 38.386h-14.64v-16.793h14.64c11.936 0 21.608-9.654 21.608-21.593 0-11.914-9.672-21.599-21.608-21.599h-14.64v-16.779h14.64c21.2 0 38.398 17.183 38.398 38.378z"/></g></svg>