<svg fill="none" height="360" viewBox="0 0 360 360" width="360" xmlns="http://www.w3.org/2000/svg" xmlns:xlink="http://www.w3.org/1999/xlink"><radialGradient id="a" cx="0" cy="0" gradientTransform="matrix(0 180 -180 0 180 180)" gradientUnits="userSpaceOnUse" r="1"><stop offset=".165129" stop-color="#36f4d7" stop-opacity=".15"/><stop offset=".301127" stop-color="#94f239" stop-opacity=".15"/><stop offset=".515271" stop-color="#3cbafa" stop-opacity=".15"/><stop offset=".796431" stop-color="#3f6ce9" stop-opacity=".15"/><stop offset="1" stop-color="#3ce8cc" stop-opacity=".15"/></radialGradient><linearGradient id="b" gradientUnits="userSpaceOnUse" x1="71.9196" x2="212.441" y1="256.885" y2="228.887"><stop offset="0" stop-color="#2b7a77"/><stop offset=".510487" stop-color="#4ebaa9"/><stop offset="1" stop-color="#5cc2b1"/></linearGradient><linearGradient id="c" gradientUnits="userSpaceOnUse" x1="144.293" x2="74.561" y1="63.5372" y2="227.302"><stop offset="0" stop-color="#236736"/><stop offset=".4928" stop-color="#6ba443"/><stop offset="1" stop-color="#86c146"/></linearGradient><linearGradient id="d" gradientUnits="userSpaceOnUse" x1="171.234" x2="273.719" y1="45.048" y2="289.111"><stop offset="0" stop-color="#29a5e3"/><stop offset=".515493" stop-color="#356eb9"/><stop offset="1" stop-color="#394da5"/></linearGradient><path d="m0 132.02c0-46.6982 0-70.0474 9.2321-87.8199 7.7798-14.9767 19.9913-27.1882 34.968-34.968 17.7725-9.2321 41.1217-9.2321 87.8199-9.2321h95.96c46.698 0 70.047 0 87.82 9.2321 14.977 7.7798 27.188 19.9913 34.968 34.968 9.232 17.7725 9.232 41.1217 9.232 87.8199v95.96c0 46.698 0 70.047-9.232 87.82-7.78 14.977-19.991 27.188-34.968 34.968-17.773 9.232-41.122 9.232-87.82 9.232h-95.96c-46.6982 0-70.0474 0-87.8199-9.232-14.9767-7.78-27.1882-19.991-34.968-34.968-9.2321-17.773-9.2321-41.122-9.2321-87.82z" fill="url(#a)"/><path d="m99.198 289.955c-6.991 0-10.6239-2.637-14.1114-8.763l-31.8563-59.053c-2.1953-4.232-2.2303-5.641-2.2303-8.691l50.066 2.208 11.459 11.459h100.427l-83.385 51.655c-4.064 2.404-19.523 11.185-30.369 11.185z" fill="url(#b)"/><path d="m112.571 227.115h-43.3064c-13.0802 0-18.2646-6.841-18.2646-13.666 0-4.318 1.3896-6.673 3.3109-11.473l63.1121-150.663.678-1.3221.873-1.3565 1.817-1.7704 2.667-1.4254 3.862-.8507 6.645.1724 43.856 16.301-14.829 46.7647z" fill="url(#c)"/><path clip-rule="evenodd" d="m239.731 289.947-99.618-235.8287c-1.715-4.0156-4.466-9.1966-11.587-9.1966-6.363 0-9.393 3.0807-11.105 6.3917.885-2.3878 3.563-7.0263 11.325-7.0263h68.754c6.336 0 9.376 3.7307 10.761 7.1465l100.739 238.5134z" fill="url(#d)" fill-rule="evenodd"/></svg>