<svg fill="none" height="360" viewBox="0 0 360 360" width="360" xmlns="http://www.w3.org/2000/svg"><path d="m0 132.02c0-46.6982 0-70.0474 9.2321-87.8199 7.7798-14.9767 19.9913-27.1882 34.968-34.968 17.7725-9.2321 41.1217-9.2321 87.8199-9.2321h95.96c46.698 0 70.047 0 87.82 9.2321 14.977 7.7798 27.188 19.9913 34.968 34.968 9.232 17.7725 9.232 41.1217 9.232 87.8199v95.96c0 46.698 0 70.047-9.232 87.82-7.78 14.977-19.991 27.188-34.968 34.968-17.773 9.232-41.122 9.232-87.82 9.232h-95.96c-46.6982 0-70.0474 0-87.8199-9.232-14.9767-7.78-27.1882-19.991-34.968-34.968-9.2321-17.773-9.2321-41.122-9.2321-87.82z" fill="#d4004b"/><path d="m305.657 94.8818c-.687-1.6136-2.747-2.1972-4.12-1.4419l-.344.0686c-6.523 3.09-65.918 30.2815-121.193 30.2815-55.619 0-114.6703-27.2259-121.1935-30.2815-.3433-.0686-.3433-.0343-.3433-.103l-.3433-.1373c-.3433-.1717-1.03.1717-1.3733.309-1.03.2403-1.7166.4463-2.4033 1.2017v.3776.0343.7897c0 .1716-.3433.2746-.3433.412 0 1.0299.6866 1.9912 1.3733 2.6092.6866.3777 58.0217 39.4133 86.8607 89.8823 28.496 49.267 34.333 117.417 34.676 120.266 0 1.683 1.373 2.85 3.09 2.85s3.09-1.305 3.09-2.987c.687-7.244 6.866-72.338 34.332-120.129 28.84-49.954 86.518-89.5046 86.861-89.848 1.03-.5493 1.374-1.5106 1.374-2.4719.343-.0687.343-.1373.343-.2746 0-.4464 0-.927-.343-1.4077z" fill="#fff"/></svg>