<svg fill="none" height="360" viewBox="0 0 360 360" width="360" xmlns="http://www.w3.org/2000/svg"><path d="m0 132.02c0-46.6982 0-70.0474 9.2321-87.8199 7.7798-14.9767 19.9913-27.1882 34.968-34.968 17.7725-9.2321 41.1217-9.2321 87.8199-9.2321h95.96c46.698 0 70.047 0 87.82 9.2321 14.977 7.7798 27.188 19.9913 34.968 34.968 9.232 17.7725 9.232 41.1217 9.232 87.8199v95.96c0 46.698 0 70.047-9.232 87.82-7.78 14.977-19.991 27.188-34.968 34.968-17.773 9.232-41.122 9.232-87.82 9.232h-95.96c-46.6982 0-70.0474 0-87.8199-9.232-14.9767-7.78-27.1882-19.991-34.968-34.968-9.2321-17.773-9.2321-41.122-9.2321-87.82z" fill="#0566b0"/><path clip-rule="evenodd" d="m111.405 223.821s.616 2.711 2.136 1.689c1.519-1.02 2.135-2.55 3.655-2.55 1.519 0 7.853-1.191 9.373 0 1.519 1.19 1.672.169 2.431.169.76 0 2.992.396 2.992.396 1.943-.202 1.547-3.291.143-4.194-2.027-1.587-4.755-2.607-6.782-4.196-.203-1.531-.405-3.062-.608-4.593.558-.792 1.115-1.587 1.672-2.381 0-2.551 0-5.102 0-7.654-.304-.68-.608-1.36-.912-2.041-.101-1.927-.202-3.855-.304-5.783-.253-.34-.506-.68-.76-1.02 0-.737 0-1.474 0-2.212.507-.736 1.533-1.473 2.04-2.211.152-1.417-.527-2.418-.375-3.835-.355-1.814-.398-4.045-.753-5.86 0-2.211 0-4.422 0-6.633 1.47-.438 1.826-1.09 1.931-1.749.135-.848-.28-1.847-.715-3.864-.203-10.603-.301-21.622-.504-32.225.809-1.267 1.778-1.922 1.798-2.861.016-.731-.769-1.34-1.75-2.164 0-.737 0-1.474 0-2.212 0 0 1.672-3.401 3.039-3.401 1.368 0 2.28-1.021 2.28-2.041 1.248-2.48-1.368-2.722-1.368-2.722-2.894-.06-6.173.088-8.997.029-2.49-.053-4.535-.316-6.959-.369-1.063.057-2.127.113-3.191.17-2.614.794-2.065 2.214-1.064 3.007 1.216.765 2.253 1.641 3.647 1.671 1.702.035 3.056.593 3.647 2.296.153 6.803.304 13.607.456 20.411.051 5.018.206 10.036.256 15.053.051 5.017-.002 10.035.048 15.053.101 5.897.203 11.793.304 17.689 0 0-.304 2.212-.76 2.722-.455.51-.304 4.932-.304 4.932 1.683 1.466 1.326 1.261.153 3.232-.102 4.366-.204 8.731-.305 13.097-.405.794-.81 1.588-1.215 2.381 0 0-4.375 2.563-4.375 4.774zm-73.5927 21.144c-2.2534-.463-2.6759-1.554-1.8755-2.197.4803-.385 1.7643-.371 2.3415-.641.8447-.398 1.7075-.919 2.2161-1.548.8691-1.077.3419-3.567 1.3791-5.597.9967-8.561 1.2953-19.904.2991-23.719-.598-5.881.0159-25.414.0159-27.889.6618-1.19.9102-1.287.9153-3.371.0018-.815.5498-2.082-.034-3.09-.8468-.966-.5908-4.746-.6571-6.877-.0979-3.171.1348-3.145 1.0173-6.019.3323-1.081.4448-2.367 0-3.403-.719-1.675-1.7587.26-1.6895-3.104.1696-8.164.474-16.378.2593-24.538.0465-.727 1.2576-.86 1.4947-1.548.3014-.874.4013-1.954 0-2.784-.2273-.471-1.4991.141-1.8722-.216-2.2802-2.178-5.1454-3.547-6.4667-6.454-.5121-1.127.3139-3.622 1.3996-4.161 1.7986-.894 5.1443.03 7.1123-.31 1.0583-.182 1.7281-.812 2.8002-.859 8.3619-.368 16.9666-1.204 25.2986-.379 1.3337.133 1.7734 2.485 2.9891 3.07 1.6664.8 4.1032.629 5.3805 1.995 2.0474 2.19 3.5164 3.994 3.7762 7.029.3189 3.725.959 7.944.9277 10.806-.0264 2.396-.7466 4.558-1.8148 6.619-1.4631 2.825-3.2048 5.461-5.0909 8.251-1.0872 1.608-3.0223 3.101-3.4777 4.934-.4705 1.896 4.427.504 5.429 2.164.963 1.596-.8216 3.465-.2833 5.263.4808 1.604 3.2575 1.76 3.5871 3.404.8505 4.243-1.0261 8.73-.2988 12.997.2326 1.366 2.4003 1.415 2.611 2.785.2558 2.961.1644 6.095.1874 9.24.0242 3.349.154 6.712.1112 9.895-.0823 1.199-1.653 1.901-1.7933 3.094-.3741 3.176.7172 6.762.0159 9.877-.739 3.28-3.376 5.596-4.4048 8.792-.891 2.767-.6382 6.808-2.0762 8.543-2.3781.747-5.3382 2.421-7.2115 3.816-2.7373 2.036-4.4872 4.37-5.3287 4.444-1.0693.951-3.3313.316-4.657.811-1.2226.454-1.3378 1.479-2.6269 1.312-1.018-.13-.7007-.976-1.4947-1.647-.4622-.393-1.3511-.418-1.7934 0-2.6832 2.16-.6819 1.594-3.7287 1.312-3.0951-.285-9.1194.67-12.8872-.102zm17.339-12.421c.6976-1.34 1.3951-2.681 2.0929-4.023-.1998-4.434-.3988-8.87-.5982-13.305.5982-.826 1.1959-1.651 1.7936-2.477 0-4.467 0-8.935 0-13.402 0-2.032-.2831-4.062-.2831-6.093-2.0984-1.735-1.095-1.71.5977-3.713 0-1.959.4726-3.54.4726-5.501-.1997-1.65-.3988-3.3-.5982-4.951.2993-.824.5982-1.65.897-2.475 0-2.482.2831-4.49.2831-6.973 0-2.33.0675-3.111.4936-2.965s1.2114 1.22 2.6451 2.598c1.0894 1.048 2.1794 2.096 3.2691 3.143 2.013 1.935 3.9731 2.111 3.1573 5.28-.7624 2.965 1.4288 3.788.7478 6.731-.5202 2.247-1.2041 3.621-1.0526 5.015.0904.836.4822 1.678 1.3887 2.721.838.963 1.1172.903.6164 2.089-.7767 1.837-1.4387 2.908-1.5164 4.011-.1001 1.417.672 2.069 1.3492 4.572.5541 2.048.5022 3.406-.0106 5.46-.6072 2.436-1.2144 4.872-1.8218 7.309-.0684 1.842-.2362 3.686-.3671 5.531-.198 2.81-.5725 2.882-2.5263 4.89-1.7749 1.825-4.0593 3.386-5.7717 5.017-1.893.722-3.3657.789-5.2588 1.511zm4.5733-78.186c1.5166.044 2.1948.194 2.6649.001.4704-.195.733-.733 1.419-2.063.8859-1.721 2.198-3.87 3.2863-4.032 1.8335-.272 2.79-.545 2.79-.545s.9595-.182.6313-2.546c-.3285-2.365-1.0051-4.639-.4088-5.275.5958-.637.7217-2.456.0874-3.183-.6337-.727-1.2365-1.455-.2123-2.456 1.024-1 1.73-2.675-.717-2.402-2.4468.273-2.4165-.786-2.6992-1.514-.2831-.727-2.952-.561-4.3475-.641-1.3941.273-2.5665.182-2.5263 1.637.0407 1.454-.1938 8.468-.1737 9.196.0201.727.2059 13.822.2059 13.822zm77.3994 63.84c-.109.618-1.528.622-1.419 1.242.152.865.209 2.216 1.08 2.329 2.528.327 5.993-.678 8.5-.215.99.183 1.044 1.871 1.951 2.306.746-.013 1.894.014 2.839 0 .728-.379.532-1.714 1.242-2.128.874-.511 2.066-.705 3.016-.356.511.188-.186 1.533.355 1.598 4.422-.168 8.372.317 12.556 0 .835-.138-.016-1.334.668-1.831.778-.565 2.708.421 2.839-.532.679-4.927-.381-10.428.082-15.379.148-1.585 1.668-2.525 2.009-4.08.113-.518.734-.528.783-1.038.172-1.777.141-3.932-.309-5.681-.596-.611-2.418-.834-3.016-.555-.673.496-.061 2.256-.513 2.959-.224.348-1.02-.349-1.242 0-.218.343.064.906.164 1.352.06.266.054.491-.164.6-1.163.582-2.876-.799-3.903 0-1.007.783.124 2.3-.729 3.25-1.381 1.539-4.342 2.441-5.718 3.986-1.636 1.836-1.49 3.711-3.37 5.296-1.472 1.24-3.973 1.37-5.757 2.094-2.067.841-3.055 2.389-5.202 2.993-.649.184-1.441-.951-1.242-1.596 1.609-5.216 3.7-10.46 5.437-15.635 1.114-3.32 1.637-5.414 2.841-8.704 1.246-3.403 2.874-7.611 4.908-10.611.4-.591 1.737-.205 1.951-.887.532-1.693-.463-3.61 0-5.323.343-1.267 1.677-2.483 2.782-3.193.745-.48 1.936.189 2.265-.635.769-1.922.051-3.958.535-5.971.327-1.356 1.258-2.187 1.851-3.45.786-1.677.729-3.132 1.596-4.768.707-1.331 2.193-3.194 2.621-4.639.588-1.985.106-2.959.298-5.021.051-.555.864-.862.887-1.419.275-6.676.628-13.376.237-20.047-.032-.544-1.253-.521-1.242-1.065.042-2.039.289-3.84.177-5.677-.021-.359.103-.653-.256-.668-5.556-.233-11.039-.107-16.598-.042-4.554.053-9.119-.312-13.661 0-.688.047-1.304.166-1.774.668-.452.482-.676 1.511-.65 2.171.12 2.965-.06 6.192 0 9.758.011.66 1.312.265 1.537.887.625 1.732.673 3.664.532 5.499-.045.59-.762 1.384-.748 1.975.285 2.052.551 3.503.925 5.477.216.763.873 1.36 1.065 2.129.229.919-.609 2.777.336 2.838.314.02 1.409.204 1.97 0 .722-.261-.265-1.585 0-2.306.188-.511 1.156-.527 1.242-1.064.469-2.922-.346-6.345.118-9.268.141-.89.651-1.831 1.419-2.306.653-.404 1.834.607 2.306 0 .654-.841.011-1.811.415-2.797.579-1.411 1.521-2.712 2.661-3.726 1.048-.931 2.095-2.045 3.489-2.19 3.115-.323 6.841-.033 11.059-.215.396-.017.502.591.533.986.149 1.946.503 4.589 0 5.855-.731 1.837-2.384 3.887-4.062 5.795-1.147 1.304-2.308 2.459-3.193 3.766-1.062 1.568.524 3.706-.019 5.519-.557 1.855-2.076 3.827-3.254 5.364-.966 1.261-2.386 1.907-3.291 3.212-1.131 1.63-1.79 3.235-2.504 5.085-.593 1.538-.976 3.162-1.241 4.79-.21 1.286.404 2.739-.178 3.903-.426.853-1.388.696-2.009 1.419-.86 1.005-1.364 2.292-1.774 3.549-.485 1.489-.525 2.371-1.283 3.74-.85 1.537-2.556 3.022-3.33 4.598-.843 1.72-.94 3.809-1.362 5.678-.407 1.806-.748 3.508-1.122 5.322-.457 2.22-.933 4.476-.887 6.742.014.689.744 1.164 1.065 1.774.271.515.893 1.044.71 1.597-.252.754-1.662.809-1.775 1.596-.116.813.091 1.564.688 2.13.519.49 1.579.276 1.952.886.401.657.329 1.612 0 2.306-.274.579-1.234.438-1.359 1.066-.511 2.552.116 4.37-.336 6.933zm153.824 25.143c-.333-1.057.498-1.263 1.051-1.815.809-.806 1.591-1.594 1.912-3.183.121-.602.738-1.576.88-2.542.21-1.409-.111-2.878-.495-3.789-.503-1.192-1.33-1.814-1.03-2.952.106-.728 1.751-.817 3.047-1.393.68-.302 1.263-.892 1.48-1.447.284-.731-.66-.606-1.141-1.534-.513-.988-.589-2.468-.983-3.204-.689-1.283-1.949-3.004-1.994-4.461-.124-3.886 1.002-7.809 1.146-11.548.122-3.135.864-3.882.624-7.095-.118-1.599-.978-2.763-1.866-4.396-.734-1.354-1.699-2.694-2.069-3.97-.657-2.272.003-4.965-.395-7.297-.077-.456-1.223-1.015-1.265-1.477-.296-3.201.065-6.478-.141-9.644-.105-.595-.588-.709-.644-1.311-.168-1.774-.002-3.502-.007-5.036-.006-1.354-.192-2.51-.192-4.083 0-.587-.487-.988-.506-1.575-.118-3.461.026-7.283-.019-10.749-.05-3.691-.275-7.027.019-10.702.051-.62 1.303-.605 1.279-1.225-.116-2.816-.36-3.936-.294-6.769.007-.327.676-1.086.703-1.412.195-2.356.487-4.715-.113-6.732-.434-1.46-1.529-1.915-2.787-2.858-1.11-.832-2.348-2.185-3.375-2.943-1.314-.972-2.19-1.753-3.185-3.207-.599-.875.389-.952 1.492-.984 1.416-.041 2.963.082 4.311.293.456.072 1.314.858 1.745 1.025 1.04.403 1.72-.12 2.784.212.812.254 4.203 2.021 5.115 2.547 1.247.719 1.651 1.763 2.952 2.373.235.109 4.256 1.261 4.723 1.377 1.089.272 1.765-.524 2.854-.252 1.265.315 3.514.952 4.934 1.378.8.239 1.305 1.184 2.125 1.347 3.972.793 3.262-.531 6.408 2.614.927.927 2.457 1.672 3.148 2.786.976 1.571 1.078 3.498 1.698 5.211.483 1.332 1.561 2.426 1.816 3.841.689 3.809-.03 7.77.437 11.612.143 1.173 1.35 2.411 1.476 3.587.481 4.501.562 8.945.014 13.438-.185 1.514-1.46 2.13-1.687 3.639-.379 2.531.377 5.122.197 7.675-.084 1.223-.764 2.499-1.406 3.543-.468.759-1.539 1.033-1.883 1.856-.903 2.16-.676 5.112-1.095 7.453-.131 4.466-.039 7.931.153 12.395.136 3.146.458 5.97.056 9.093-.141 1.082-1.046 1.676-1.208 2.756-.448 2.984-.064 6.049-.352 9.052-.05.511-.807 1.103-.915 1.605-.201 2.744-.393 6.75-1.589 9.84-.787 2.038-2.702 4.092-4.541 5.272-1.781 1.144-3.696 1.39-5.748 1.914-1.296.329-2.748.17-3.935.785-.712.37-.235.375-.885.84-.375.266-1.023.289-1.377 0-.5-.41-.345-.577-.928-.854-.89-.421-2.049-.388-2.953 0-.652.28-.414.789-1.111.925-1.408.275-3.057.63-4.579.59-.91-.023-1.629.388-1.886-.435zm13.21-101.065c1.976-.104 2.364-.212 4.123.734 1.82.975 2.201 1.619 3.312 3.382.574.553 1.147 1.107 1.719 1.66 2.338 2.256 3.441 5.44 4.396 8.424.156 3.24.852 8.915-.765 11.855-.807 1.467-1.126 2.599-1.263 3.845-.382 3.483-1.37 2.939-2.376 5.577-.273.716-.213 1.606-.238 3.305-.088 6.064-.178 12.13-.266 18.194-.057 3.875-.786 5.724-2.352 9.302-.919 1.71-1.402 2.813-1.402 4.754 0 2.301-.47 3.361-1.385 5.457-.556 1.276-1.115 2.553-1.671 3.83-.661 1.513-1.267 2.056-1.706 1.853-.438-.201-.709-1.15-.702-2.619.038-7.404.077-14.806.116-22.21.084-7.871.169-15.743.254-23.614-.099-1.69-.036-2.065-1.145-3.318-.104-2.549-.596-3.701-1.403-6.127-1.018-1.913-.902-3.309-.926-5.495-.064-5.471-.129-10.942-.192-16.413-.039-3.357.72-2.209 3.872-2.376zm-129.01 94.119c-.609-2.977-.183-5.343-.024-7.582.076-.533 1.153-.035 1.446-.486.436-.675.831-1.599.542-2.35-.173-.449-.479.171-.738-.236-.357-.56-.231-1.466.181-1.987.601-.763 1.804-.565 2.215-1.446.561-1.202-.401-2.713 0-3.976.128-.402 1.166.41 1.265 0 .468-1.932-.114-3.997.181-5.963.077-.513.529-.75.589-1.265.25-2.154.381-4.37 0-6.505-.237-1.326-1.308-2.28-1.493-3.615-.67-4.838-.873-10.106-.251-14.951.484-3.762 2.882-9.579 4.29-13.1.881-2.203 1.313-1.516 2.105-3.753.242-.684.41-1.48.181-2.169-.285-.857-1.297-1.512-1.154-2.404.174-1.093 1.518-1.065 1.877-2.113.487-1.425-.494-3.095 0-4.518.58-1.673 2.581-2.635 3.072-4.337.468-1.624-.034-4.219.425-5.846.907-3.215 1.996-5.292 3.551-8.249.917-1.746 2.512-3.221 3.229-5.06.691-1.771.62-4.116.927-5.602-1.13-1.411-3.721.559-5.421-.055-.863-.311-.86-1.722-1.714-2.058-1.829-.124-3.577-.166-4.879.81-1.746 1.31-1.76 2.845-2.443 4.917-1.02 3.097-.242 6.577-1.516 9.578-.503 1.187-2.557 1.52-3.544 2.349-.522.438-.764.895-1.445.895-.682 0-1.276-.235-1.446-.895-.346-1.341.067-2.772 0-4.156-.053-1.089-.636-2.197-.361-3.253.143-.55 1.401-.337 1.445-.903.541-6.209-.202-12.378-.107-18.311.033-2.083.586-1.774 2.636-1.795 3.454-.035 8.929-.009 12.899-.029 6.965-.035 13.948-.295 20.894-.104 1.034.074 2.38.458 2.452 1.492.146 2.09-1.254 4.106-2.223 5.963-.513.982-1.658 1.624-2.035 2.664-.641 1.763.055 3.852-.622 5.602-.414 1.074-2.519 1.272-2.922 2.349-.573 1.524.416 3.365-.182 4.879-.296.752-1.899.323-2.168 1.084-.909 2.579-.375 5.492-1.083 8.132-.393 1.458-1.498 2.48-1.697 3.976-.542 4.06.352 8.207 0 12.288-.077.886-1.013 1.497-1.266 2.349-.596 2.004-.971 4.169-1.658 6.144-.296.853-1.395 1.295-1.626 2.169-.339 1.281.511 2.753 0 3.975-.643 1.537-2.907 2.165-3.253 3.795-.975 4.599.569 9.449-.149 14.095-.321 2.079-2.154 3.713-2.53 5.783-.484 2.666.351 5.819-.314 8.446-.641 2.536-2.48 4.735-3.402 7.182-.216 2.401-3.093 4.604-1.524 6.419 1.892.25 5.032.636 7.228-.363 1.011-.458-.16-2.579.723-3.252 2.698-2.061 5.795-2.804 8.823-4.337 1.731-.877 3.909-1.714 5.454-2.891.784-.599.873-2.02 1.805-2.35.562-.199.678 1.165 1.265 1.265 2.019.344 3.77-.519 5.752 0 .792.208.768 1.274.974 2.067.185.709.505 1.474.111 2.089-.238.37-1.1-.043-1.267.363-.343.835-.21 1.832 0 2.709.166.683.791 1.108.849 1.807.31 3.663.412 7.372 0 11.024-.086.766-.521 1.57-1.288 1.649-5.212-.24-10.03.143-15.249.158-.538-.047-.229-.998-.724-1.21-1.346-.577-3.773-.657-5.202-.329-1.661.38-1.8 1.747-3.471 2.08-3.013.603-6.494.013-9.531.472-1.074.162-1.894 1.073-2.947 1.336-1.461.364-3.765.754-4.517-.55zm-80.4935 8.487c-2.2534.791-4.8823.002-7.2707.053-.7361.016-1.9343.594-2.6414.386-.7719-.226-1.9883-1.756-1.5058-2.401 1.885-2.514 5.6012-2.827 7.3223-5.454 1.0122-1.545.0641-3.625.499-5.42.1335-.552 1.0996-.501 1.3853-.99.2322-.398.3004-1.034 0-1.385-.6863-.801-1.1209.879-1.3916-1.52-.2424-2.146-.2933-4.325-.0943-6.469.1251-1.365 1.1176-1.076 1.3052-1.796.3493-1.341-.3775-2.334-.0177-3.673.1614-.601 1.2749-.449 1.5833-.99.294-.515.3289-1.286 0-1.781-.6741-1.011-2.5065-.995-2.7107-2.193-.3755-2.204-.1743-4.57-.1356-6.756.0414-2.329-.1185-4.664.0758-7.037.0357-.44 1.0322-.421 1.1872-.835.3007-.802.1105-1.722 0-2.573-.0884-.682.1213-2.077.0689-2.763-.0801-1.054-.533-1.446-.0431-2.382.3415-.653 1.455-.26 1.5575-.99.5414-3.854-.6142-7.805-.198-11.675.0707-.656 1.103-.552 1.2765-1.188.2793-1.026.3657-2.205-.089-3.166-.2144-.454-1.2259-.456-1.265-.956-.4444-5.656.3289-11.002-.1203-16.657-.0421-.53-1.3428.213-1.367-2.086-.0267-2.408-.2487-4.654-.2161-6.424.0252-1.359 2.9563-1.395 2.9253-2.754-.0473-2.07.279-4.406-.198-6.53-.1533-.683-1.0443-.57-1.342-1.205-.2803-.596-.0158-1.19.2406-1.798.308-.731 1.1447-1.193 1.3425-1.962.3622-1.405.3259-2.939 0-4.354-.1067-.462-.9054-.915-1.1274-1.334-.4111-.778-.2253-1.464-.7744-2.151-.3794-.474-1.4998-.182-1.9615-.577-1.1881-1.014-1.8732-2.142-2.8697-3.066-.9368-.868-2.1995-1.522-2.9212-2.8-.4638-.821.0764-2.241.826-2.814.5757-.44 1.4774-.341 2.1168 0 .5199.277.5097 1.381 1.0927 1.462 2.5508.355 5.0825-.767 7.5977-.215 1.0964.242 1.1548 1.626 2.1769 2.09.6836.311 1.9165-.29 2.5385.131.913.617 1.688 1.93 2.408 2.663.925.943 1.723 1.362 2.195 2.697.597 1.685.335 3.414.309 5.167-.023 1.547.229 3.113.087 4.684-.048.529-1.063.28-1.205.792-.249.898-.071 1.904.396 2.71.34.587 1.259.288 1.48.929.516 1.498.582 3.334.198 4.871-.143.572-1.247.203-1.282.791-.444 7.441-.555 14.947.198 22.363.128 1.26 2.12 1.709 2.254 2.968.747 7.019.067 14.124-.223 21.176-.041 1.003-.538 2.263-.947 3.012-.457.836-.173 1.672-.156 2.595.022 1.187-.12 2.482.061 3.694.103.692 1.511 1.351 1.463 2.049-.133 1.924.14 2.833.258 4.73.057.913-1.606 1.484-2.134 2.231-.379.537-.61 1.578-.301 2.159.292.548.816.27.981.869.235.847.254 1.562-.172 2.332-.275.495-1.289.43-1.385.988-.27 1.566.619 3.178.396 4.751-.067.471-1.118.321-1.188.791-.352 2.348.398 4.783 0 7.124-.15.884-1.52 1.282-1.583 2.177-.036.501 1.149.152 1.385.594.374.701-.564 2.153.198 2.375 2.532.741 5.666.549 8.217-.12 1.445-.381 2.057-2.407 3.545-2.547 1.793-.17 3.116 1.014 4.888 1.331 2.336.421 4.892.497 7.184-.12 1.353-.364 2.139-1.8 3.528-1.985 6.014-.808 11.595-.312 17.664-.343 5.738-.032 13.078-.321 17.338.144 2.43.081-.205 8.676.671 13.215.191.989 1.035 1.542 1.543 2.456.809 1.459 1.123 2.2-.979 2.191-3.952-.019-7.951.286-12.24.104-.842-.035-.802-1.659-1.583-1.98-.856-.35-1.871.416-2.771.199-1.347-.326-2.866-1.617-4.241-1.781-3.668-.44-7.364.48-11.022-.026-.831-.114-.945-1.721-1.781-1.783-8.553-.625-16.747.273-25.308-.193-1.834-.101-2.001-.74-3.165-1.079-1.647-.475-4.592-.665-6.143.062-2.8911 1.353-2.8819 3.913-5.8939 4.971zm102.9495-33.438c-1.786-.053-1.905-2.922-1.763-4.682.145-1.8 2.496-1.706 3.335-3.305.611-1.164-.305-3.211.392-4.326.751-1.201 2.785-1.157 3.536-2.357.43-.687-.212-2.003-.192-2.812.047-1.916.477-3.328.389-5.242-.046-.996-.46-2.795-.271-3.773.259-1.338 1.055-1.013 1.45-2.317.491-1.63-.326-3.486.195-5.107.208-.641 1.889-.319 1.769-.982-.146-.807-1.617-.373-1.764-1.179-.445-2.455-.47-5.344.192-7.749.414-1.504 2.121-2.655 2.555-4.156.452-1.571-.506-3.354 0-4.911.341-1.056 2.087-1.279 2.357-2.357.634-2.541.068-5.658.729-8.193.347-1.33 1.041-2.837 1.892-3.671.511-.5.971-.864 1.21-1.652.328-1.081-.477-1.989-.292-3.103.163-.985.916-1.618 1.393-2.494.604-1.107.856-2.509 1.436-3.627.845-1.635 1.983-3.003 2.589-4.742.453-1.297-.519-3.412.06-4.659.821-1.764 2.942-1.721 3.751-3.492.653-1.43-.49-3.299.197-4.714.498-1.031 1.624-1.486 2.767-1.531.839-.033 1.857.547 2.142 1.334.562 1.543.055 3.397.691 4.911 1.115 2.663 3.049 4.232 4.122 6.913.558 1.398-.046 3.407.296 4.874.465 1.993.791 4.003 1.45 5.944.817 2.417 1.988 4.762 2.675 7.217.608 2.174.754 4.533 1.223 6.746.343 1.614.971 3.097 1.527 4.647.238.666 1.043.497 1.235 1.179.336 1.204-.675 2.514-.393 3.732.335 1.456 1.903 2.931 2.16 4.403.419 2.386-.018 4.668.04 7.09.053 2.214.288 4.269.578 6.391.18 1.306.902 3.168.936 4.117.121 3.535.278 7.016.317 10.556.06 5.172.06 10.702-.199 15.866-.03.602-.749.91-.96 1.476-.802 2.14-1.473 3.324-1.987 5.552-.272 1.175-.281 2.44-.786 3.536-.31.673-1.693 1.224-1.927 1.927-.52 1.564.118 3.137.003 5.089-.097 1.68-.792 2.646-1.492 4.208-.479 1.068-1.258 2.733-1.553 3.846-.323 1.208.257 2.533-.097 3.733-.187.627-1.043.93-1.179 1.571-.34 1.601.294 3.349-.197 4.909-.277.885-.469.756-1.313 1.137-.598.267-2.17.572-2.26-.08-.38-2.734.39-4.633-.044-7.361-.507-3.192-1.842-5.133-2.647-8.266-.391-1.52.308-4.268-.414-5.661-1.3-2.51-5.463-3.525-5.281-6.345.174-2.729 1.805-4.505 3.466-6.724 1.135-1.52 1.873-4.002 2.579-5.734.52-1.277.823-2.773.846-4.032.035-1.88-.474-2.699-1.897-3.868-2.974-2.443-7.779-4.677-11.48-6.477-.543-.264-1.179.772-1.179 1.375 0 .604.706 1.073.777 1.672.206 1.76-.86 3.586-.097 5.185.805 1.689 3.981 2.181 3.511 3.991-.317 1.212-.615 1.64-1.644 2.231-.623.36-1.316.335-2.045.369-2.188.1-4.437-.675-6.551-.228-2.295.487-4.349 1.547-6.47 2.604-1.404.701-2.84 1.626-4.394 1.578zm19.349-27.463c-.019-1.733-.061-3.438-.058-5.142.004-1.505.041-3.01.159-4.533.077-.989.983-1.744 1.099-2.729.195-1.629-.805-3.584-.349-5.15.183-.636 1.795.001 2.16-.533.12-.175.364-1.195.771-2.064.245-.522.754-.99.754-1.19 0-.291-.019-2.359.199-4.151.127-1.04.287-1.918.446-1.925.157-.007.315.855.867 1.573.634.825.849 1.644 1.404 2.516.327.516.68 1.122 1.22 1.332.689.268 1.514-.109 2.199.168.512.206.638 1.011 1.099 1.331.312.217 1.027-.196 1.099.2.326 1.783.044 4.17.328 5.962.069.43 1.018.23 1.039.666.145 3.12.217 6.245.206 9.371-.008 2.757-.081 5.516-.223 8.272-.039.785-2.114.84-2.694.399-1.12-.854-1.83-1.844-3.296-2.197-.611-.147-.581-1.115-1.161-1.308-1.285-.428-2.908-.535-4.252-.535-.877 0-2.144.31-3.016.2-.16-.02.002-.357 0-.533zm41.718-53.781c.003 1.795.195 3.74.2 5.62.009 2.419-.167 4.587-.158 7.025.009 2.597.202 5.465.202 8.005 0 2.064-.377 6.032-.216 7.746.204 2.205.326 2.586 3.34 2.586 1.458 0 3.435-1.496 4.892-3.008.997-1.034.847-2.821 1.229-3.594.564-1.136 1.527-2.175 1.728-3.493.257-1.697-.363-3.097.768-4.182.446-.429.867-5.299.867-6.371 0-1.528-1.605-3.793-3.449-5.82-1.262-1.387-2.775-2.631-3.419-3.581-1.182-1.74-2.067-2.503-3.467-2.816-2.558-.571-2.519-.336-2.517 1.883zm-13.505 95.594c-.477 1.885.975 2.655 2.692 3.764 1.714 1.11 3.698 2.562 5.565 4.093 3.16 2.589 5.311 7.315 7.367 11.969 1.058-1.125.312-6.371.905-9.514.127-.673.853-1.159.921-1.841.244-2.443.303-4.929 0-7.365-.114-.909-.993-1.573-1.227-2.455-.185-.693-.141-1.448 0-2.15.171-.856.842-1.585.919-2.455.233-2.547.384-5.144 0-7.672-.144-.954-1.606-1.494-1.534-2.455.062-.797 1.783-.738 1.842-1.535.168-2.281-.623-4.483-.905-6.752-.638-5.101-1.009-10.232-1.536-15.346-.189-1.842-.925-3.698-.613-5.524.96-2.491 1.837-5.049 2.762-7.059.451-.592 1.046.565 1.504 1.151 1.496 1.91 3.483 4.274 3.913 6.661.527 2.926-1.059 5.515-.721 8.47.099.862 1.427.707 1.734 1.519 1.465 3.878 2.656 7.887 3.377 11.969.821 4.652 1.085 9.396 1.227 14.119.062 2.054-.026 4.168-.614 6.137-.839 2.814-2.586 5.056-3.453 7.774-.907 2.843-1.2 3.692 1.809 3.691 1.191-.002 2.581.045 3.5.505 2.463 1.231 3.479 4.071 5.817 5.524.506.314 1.166.749 1.862 1.138 3.315 1.857 3.68.575 4.37-2.328.911-3.839 1.142-7.3 1.732-11.086.301-1.92.238-3.889.322-5.831.12-2.767.328-5.52.185-8.288-.065-1.291-.058-2.704-.905-3.682-.636-.734-2.512.016-2.762-.921-.344-1.284 1.509-2.353 1.534-3.683-.507-3.588-.972-6.799-1.032-10.336-.069-4.169-.962-2.071-2.345-3.705-.835-.987-1.095-1.858-1.226-3.145-.386-3.768.16-7.936-.416-11.678-.257-1.674-1.039-3.324-2.147-4.604-.401-.464-1.138.226-1.413-.323-.459-.919.953-1.548.414-2.424-1.252-2.034-3.873-3.586-5.86-4.91-.596-.397-1.644.506-2.15 0-.505-.507-.493-2.061 0-2.579 3.539-.512 5.361-2.178 7.089-4.173 2.345-2.705 3.491-5.72 4.666-9.1.543-1.558-.151-3.379.03-5.018.337-3.033 1.927-5.788 1.397-8.793-.77-4.371-2.924-8.288-5.401-11.97-1.375-2.044-3.512-3.856-5.739-4.91-1.858-.88-3.414-.144-5.387-.721-2.284-.669-4.115-1.947-6.445-2.424-1.815-.372-3.719.385-5.525-.032-1.127-.26-1.31-1.527-2.455-1.703-.789-.121-1.596 1.022-2.392 1.09-5.505.466-10.024-.6-15.502.122-.817.108-.585 1.02.093 1.489 1.013.701 2.553.355 3.684.844 2.029.879 3.59 2.062 5.094 3.683 1.246 1.341 1.753 2.832 2.884 4.91.465.852 1.802-.783 2.764-.92 1.213-.174 2.057-.206 2.823.752.689.859-.736 2.005-1.548 2.746-1.643 1.498-2.762 2.292-4.215 3.286-.994.681-2.754 1.292-3.492 2.622-1.638 2.951.305 6.306.936 9.622.23 1.209.495 2.392.769 3.591.892 3.9.592 7.146 1.135 11.109.176 1.282 1.085 2.398 1.228 3.683.169 1.528-.106 2.654.123 4.174.095.647.625 1.334.798 1.965.765 2.806 1.437 6.331 1.534 9.238.314 9.509-.25 18.825.229 28.329.044.865 1.343 1.206 1.521 2.055.276 1.316-.601 2.828-1.043 4.098-1.816 5.2-3.946 9.091-5.067 13.518z" fill="#fff" fill-rule="evenodd"/></svg>