<svg fill="none" height="360" viewBox="0 0 360 360" width="360" xmlns="http://www.w3.org/2000/svg"><path d="m0 132.02c0-46.6982 0-70.0474 9.2321-87.8199 7.7798-14.9767 19.9913-27.1882 34.968-34.968 17.7725-9.2321 41.1217-9.2321 87.8199-9.2321h95.96c46.698 0 70.047 0 87.82 9.2321 14.977 7.7798 27.188 19.9913 34.968 34.968 9.232 17.7725 9.232 41.1217 9.232 87.8199v95.96c0 46.698 0 70.047-9.232 87.82-7.78 14.977-19.991 27.188-34.968 34.968-17.773 9.232-41.122 9.232-87.82 9.232h-95.96c-46.6982 0-70.0474 0-87.8199-9.232-14.9767-7.78-27.1882-19.991-34.968-34.968-9.2321-17.773-9.2321-41.122-9.2321-87.82z" fill="#fd1c48" fill-opacity=".15"/><path d="m180 334.981c85.604 0 155-69.391 155-154.99 0-85.5993-69.396-154.991-155-154.991-85.6041 0-155 69.3917-155 154.991 0 85.599 69.3959 154.99 155 154.99z" fill="#cc092f"/><path d="m316.571 221.864c-17.728-7.065-33.957-4.697-50.224 5.164 0 0-5.929 3.618-7.704 4.735-7.58 4.755-14.73 9.26-21.604 9.26-6.558 0-13.012-1.756-15.742-14.443-4.258-19.79-14.644-68.42-19.179-92.506-2.663-14.157-4.124-21.785-5.642-26.969-2.673-9.1071-7.561-14.0618-14.501-14.8541 0 0-1.088-.1528-1.976-.1528-.879 0-2.081.1719-2.081.1719-6.874.821-11.733 5.7756-14.387 14.835-1.518 5.184-2.978 12.812-5.642 26.969-4.534 24.086-14.921 72.716-19.179 92.506-2.73 12.687-9.184 14.443-15.742 14.443-6.873 0-14.024-4.505-21.604-9.26-1.7753-1.117-7.7133-4.735-7.7133-4.735-16.2576-9.861-32.4962-12.229-50.2145-5.164-3.8282 1.527-7.5987 3.238-11.1882 4.966 2.4535 7.694 5.5077 15.267 9.0686 22.379 3.9236-1.928 8.0384-3.842 12.2389-5.083 6.0524-1.785 12.2577-1.881 18.272.134 5.8424 1.957 11.0452 5.422 16.229 8.677 9.7661 6.139 20.8305 13.098 34.9115 13.098 20.869 0 35.513-12.458 40.191-34.186 3.627-16.84 11.666-54.434 16.83-80.362 0 0 13.232 63.522 16.85 80.362 4.678 21.728 19.331 34.186 40.2 34.186 14.081 0 25.146-6.959 34.912-13.098 5.183-3.255 10.386-6.72 16.229-8.677 6.004-2.015 12.219-1.919 18.272-.134 4.2 1.241 8.309 3.157 12.232 5.085 3.571-7.112 6.617-14.688 9.07-22.383-3.589-1.728-7.355-3.437-11.183-4.964z" fill="#fff"/></svg>