<svg fill="none" height="360" viewBox="0 0 360 360" width="360" xmlns="http://www.w3.org/2000/svg" xmlns:xlink="http://www.w3.org/1999/xlink"><radialGradient id="a" cx="0" cy="0" gradientTransform="matrix(0 180 -180 0 180 180)" gradientUnits="userSpaceOnUse" r="1"><stop offset=".293564" stop-color="#7ab7f3" stop-opacity=".15"/><stop offset=".587768" stop-color="#89eb62" stop-opacity=".15"/><stop offset=".766769" stop-color="#c7fb6c" stop-opacity=".15"/><stop offset=".965944" stop-color="#edf478" stop-opacity=".15"/></radialGradient><linearGradient id="b" gradientUnits="userSpaceOnUse" x1="159.809" x2="264.583" y1="318.164" y2="213.39"><stop offset="0" stop-color="#c4ca80"/><stop offset=".5048" stop-color="#dbe08c"/></linearGradient><linearGradient id="c" gradientUnits="userSpaceOnUse" x1="327.048" x2="256.484" y1="124.78" y2="247.001"><stop offset="0" stop-color="#9fbc6e"/><stop offset=".4025" stop-color="#afce79"/></linearGradient><linearGradient id="d" gradientUnits="userSpaceOnUse" x1="291.236" x2="174.282" y1="151.592" y2="53.4558"><stop offset="0" stop-color="#9ec382"/><stop offset=".1641" stop-color="#83b06b"/><stop offset=".3227" stop-color="#70a35a"/><stop offset=".4324" stop-color="#699e54"/></linearGradient><radialGradient id="e" cx="158.738" cy="165.92" gradientUnits="userSpaceOnUse" r="95.4406"><stop offset="0" stop-color="#496f93"/><stop offset=".8595" stop-color="#6799cb"/></radialGradient><radialGradient id="f" cx="95.7598" cy="149.214" gradientUnits="userSpaceOnUse" r="85.5236"><stop offset="0" stop-color="#e6f2f8"/><stop offset=".0897934" stop-color="#d1e3f1"/><stop offset=".279" stop-color="#abc9e3"/><stop offset=".4672" stop-color="#8db4d9"/><stop offset=".652" stop-color="#78a5d1"/><stop offset=".8316" stop-color="#6b9ccd"/><stop offset="1" stop-color="#6799cb"/></radialGradient><path d="m0 132.02c0-46.6982 0-70.0474 9.2321-87.8199 7.7798-14.9767 19.9913-27.1882 34.968-34.968 17.7725-9.2321 41.1217-9.2321 87.8199-9.2321h95.96c46.698 0 70.047 0 87.82 9.2321 14.977 7.7798 27.188 19.9913 34.968 34.968 9.232 17.7725 9.232 41.1217 9.232 87.8199v95.96c0 46.698 0 70.047-9.232 87.82-7.78 14.977-19.991 27.188-34.968 34.968-17.773 9.232-41.122 9.232-87.82 9.232h-95.96c-46.6982 0-70.0474 0-87.8199-9.232-14.9767-7.78-27.1882-19.991-34.968-34.968-9.2321-17.773-9.2321-41.122-9.2321-87.82z" fill="url(#a)"/><circle cx="180" cy="180" fill="#4681c7" fill-opacity=".06" r="155.455"/><circle cx="180" cy="180" r="155.205" stroke="#2869bf" stroke-opacity=".04" stroke-width=".5"/><path d="m221.545 221.947c-3.627 2.66-6.287 4.353-6.287 4.353-40.629 30.23-92.866 44.256-92.866 44.256s-3.628.968-7.981 2.66c22.975 22.975 54.897 37.243 90.206 37.243 42.563 0 80.532-20.314 103.506-53.204-22.974 8.948-54.655-7.739-86.578-35.308z" fill="url(#b)"/><path d="m333.033 174.063c0-.968 0-1.693 0-2.66 0-1.693 0-3.628-.967-5.321 0-.967 0-1.693 0-2.66 0-1.693-.968-4.353-.968-6.288v-.967c-.967-2.66-.967-5.321-1.693-7.013 0-.968 0-.968-.967-1.693-.967-1.693-.967-3.628-1.693-5.321 0-.967-.967-1.693-.967-1.693-.968-1.693-.968-3.627-1.693-5.32 0-.967-.967-.967-.967-1.693-.968-1.693-1.693-4.353-2.661-6.288 0-.967-.967-1.693-.967-1.693-.967-1.693-1.693-2.66-1.693-4.353l-.967-.967c-10.641 21.282-40.629 40.629-77.872 53.93 1.693 7.013 2.66 15.961 0 23.942-2.66 9.673-11.608 18.621-17.654 23.942 30.955 27.569 63.845 44.256 86.82 36.275 4.353-6.287 8.948-12.333 11.608-19.588 0-.968.967-.968.967-1.693.967-.968.967-2.661 1.693-3.628.967-.967.967-1.693 1.693-3.627 0-.968.967-1.693.967-1.693.968-1.693.968-2.661 1.693-3.628 0-.967 0-.967.967-1.693.968-1.693.968-2.66 1.693-4.353v-.725c1.693-5.321 2.661-10.641 3.628-15.962v-.967c0-2.66.967-4.353.967-7.013 0-.968 0-.968 0-1.693 0-2.66 0-5.321 0-7.981-.967-4.595-.967-7.255-.967-9.915z" fill="url(#c)"/><path d="m312.717 112.152c-.967-.967-1.693-2.66-2.66-3.627-1.693-1.693-2.661-4.353-4.353-6.288-.968-.967-.968-1.693-1.693-2.6602-.968-1.6929-2.66-2.6602-3.628-4.3531-23.942-25.6348-57.557-41.5961-95.526-41.5961-12.334 0-23.942 1.6928-35.308 5.3204 7.013 7.9806 12.334 13.3011 12.334 13.3011s35.308 40.6289 53.204 87.7869c0 0 2.66 5.321 3.627 12.334 36.276-14.268 67.231-32.648 77.872-53.93-1.209-1.935-2.176-4.595-3.869-6.288z" fill="url(#d)"/><path d="m239.199 173.337c-1.693-7.013-3.627-12.334-3.627-12.334-17.655-46.916-53.205-87.7868-53.205-87.7868s-5.32-6.2877-12.334-13.301c-1.692.9673-2.66.9673-4.353 1.6928 0 0 0 0-.967 0-1.693.9674-2.66.9674-4.353 1.6929 0 0 0 0-.967 0-4.354 1.6928-8.948 3.6276-13.302 6.2878-.967.9673-1.692.9673-3.627 1.6928-.967 0-.967.9674-1.693.9674-.967.9673-1.693.9674-2.66 1.6929-.968 0-1.693.9673-1.693.9673-.967.9674-1.693.9674-2.66 1.6929-.968.9673-1.693.9673-2.661 1.6928-.967.9674-1.692.9674-1.692 1.6929-.968.9674-1.693 1.6929-2.661 2.6602l-.967.9674c-1.693.9673-2.66 2.6602-4.353 3.6276l-.967.9673c-.968.9673-2.661 1.6929-3.628 2.6602-25.6348 22.2496-39.9032 54.8976-39.9032 91.1726 0 12.334 1.6928 23.942 5.3204 35.309 2.6602 7.98 5.3205 15.961 9.6735 22.974v.968c0 1.692.9674 2.66 1.6929 3.627 0 0 0 .968.9674.968.9673.967 1.6928 2.66 2.6602 3.627 2.6602 3.628 5.3208 7.981 7.9808 11.608 0 .968.967.968.967 1.693l2.66 2.66 1.693 1.693c.968.968 1.693 1.693 1.693 2.661.967.967.967.967 1.693 1.692.967.968.967.968 1.693 1.693 4.353-.967 7.981-2.66 7.981-2.66s52.237-14.994 92.865-44.256c0 0 2.661-1.693 6.288-4.353 6.288-5.321 14.269-14.269 17.654-23.942 1.451-8.707.484-17.655-1.209-24.668z" fill="url(#e)"/><path d="m160.359 137.787c-7.981-22.249-20.314-43.2888-30.955-58.5246-11.608-17.6542-21.282-29.2624-21.282-29.2624s-58.5247 26.6022-76.1788 85.127c-17.6542 58.525 17.6541 112.455 17.6541 112.455s17.6542-5.321 39.9033-14.994c16.9284-7.014 35.3084-16.929 52.2374-29.263 0 0 18.621-12.333 22.974-28.295 3.628-15.961-4.353-37.243-4.353-37.243z" fill="url(#f)"/></svg>