<svg fill="none" height="360" viewBox="0 0 360 360" width="360" xmlns="http://www.w3.org/2000/svg" xmlns:xlink="http://www.w3.org/1999/xlink"><radialGradient id="a" cx="0" cy="0" gradientTransform="matrix(0 106 -106 0 180 254)" gradientUnits="userSpaceOnUse" r="1"><stop offset=".244264" stop-color="#fdb913"/><stop offset=".381404" stop-color="#f36f21"/><stop offset=".460285" stop-color="#c9234a"/><stop offset=".539203" stop-color="#645faa"/><stop offset=".619467" stop-color="#0089cf"/><stop offset=".756328" stop-color="#0db14b"/></radialGradient><path d="m0 132.02c0-46.6982 0-70.0474 9.2321-87.8199 7.7798-14.9767 19.9913-27.1882 34.968-34.968 17.7725-9.2321 41.1217-9.2321 87.8199-9.2321h95.96c46.698 0 70.047 0 87.82 9.2321 14.977 7.7798 27.188 19.9913 34.968 34.968 9.232 17.7725 9.232 41.1217 9.232 87.8199v95.96c0 46.698 0 70.047-9.232 87.82-7.78 14.977-19.991 27.188-34.968 34.968-17.773 9.232-41.122 9.232-87.82 9.232h-95.96c-46.6982 0-70.0474 0-87.8199-9.232-14.9767-7.78-27.1882-19.991-34.968-34.968-9.2321-17.773-9.2321-41.122-9.2321-87.82z" fill="url(#a)" fill-opacity=".15"/><path d="m179.617 96.5684c4.271-6.9747 11.358-14.2726 18.99-17.3592 13.135-5.9764 30.741-3.4063 41.458 6.0505 10.37 9.3953 15.631 22.2723 13.149 36.6683 2.543-.469 5.111-2.097 7.804-3.024 16.098-4.543 33.123.384 43.445 14.186 7.753 9.853 9.779 25.161 5.125 37.064-2.309 5.987-6.248 11.37-11.37 15.964l.517.518c14.976.728 29.695 12.358 34.237 26.618 4.926 14.384.593 29.755-9.925 40.275-8.594 8.494-19.645 11.433-31.929 11.186h-223.0125c-18.3112.395-32.4599-7.718-40.0774-24.001-5.9764-13.977-3.0253-31.854 8.1352-42.508 7.0373-7.36 15.8536-10.373 25.3601-11.89-10.7655-9.989-15.952-23.656-12.9267-38.312 2.1612-11.876 12.2851-23.902 23.9146-28.05 10.2467-4.075 24.1255-3.359 33.5097 2.171l.333-.407c-2.827-16.162 4.334-30.7426 17.74-39.6816 11.953-8.0855 31.065-7.877 42.768.7181 5.261 3.2209 9.594 8.7525 12.755 13.8139z" fill="#fff"/><path d="m242.754 102.606c4.792 9.668 1.977 22.335-3.024 31.015l-38.693 87.054-.335.408-13.986-88.314c-1.123-8.48 7.938-12.098 13.272-16.173-.271-1.246-1.643-1.185-2.506-1.765l-13.073-.137-.398-.395c.074-10.963 5.977-21.0871 15.977-26.4079 10.447-6.0366 25.162-4.3954 34.223 3.346 3.68 3.2824 6.779 7.0964 8.543 11.3689z" fill="#645faa"/><path d="m171.468 99.5809c3.162 5.8521 4.989 12.4961 3.877 19.8531l-15.778 101.117c.086.123-.061.259-.186.32l-4.086-8.136-39.546-88.313c-3.68-11.371-.271-23.26 8.012-31.4105 8.346-8.4688 22.076-10.7655 32.991-6.1721 5.778 2.4948 11.297 7.0882 14.716 12.7415z" fill="#c9234a"/><path d="m299.993 142.151c5.321 9.073 4.125 22.804-1.791 31.224-3.665 5.914-9.717 8.865-14.841 12.741l-81.94 56.249h-.188l.915-2.691 43.435-98.041c6.507-11.557 18.927-17.409 32.064-15.644 9 1.644 18.001 7.495 22.346 16.162z" fill="#0089cf"/><path d="m113.848 141.633 45.2 100.721h-.727l-91.128-62.806c-9.2737-7.814-13.0749-19.519-9.9269-31.347 2.3581-8.865 9.7161-17.148 18.4699-20.434 14.3328-5.247 30.481.334 38.112 13.866z" fill="#f36f21"/><path d="m323.773 213.253c4.542 9.594 2.753 22.73-3.741 30.89-6.443 7.816-15.063 12.088-25.175 11.816l-97.166.062 81.398-56.632c7.953-5.123 20.04-6.051 28.72-1.902 6.703 2.63 13.013 9.198 15.964 15.766z" fill="#0db14b"/><path d="m36.0401 213.253c-4.5297 9.594-2.753 22.73 3.7538 30.89 6.4442 7.816 15.037 12.088 25.162 11.816l97.1651.062-81.3984-56.632c-7.9511-5.123-20.037-6.051-28.705-1.902-6.706 2.63-13.0136 9.198-15.9775 15.766z" fill="#fdb913"/></svg>