<svg fill="none" height="360" viewBox="0 0 360 360" width="360" xmlns="http://www.w3.org/2000/svg"><path d="m0 132.02c0-46.6982 0-70.0474 9.2321-87.8199 7.7798-14.9767 19.9913-27.1882 34.968-34.968 17.7725-9.2321 41.1217-9.2321 87.8199-9.2321h95.96c46.698 0 70.047 0 87.82 9.2321 14.977 7.7798 27.188 19.9913 34.968 34.968 9.232 17.7725 9.232 41.1217 9.232 87.8199v95.96c0 46.698 0 70.047-9.232 87.82-7.78 14.977-19.991 27.188-34.968 34.968-17.773 9.232-41.122 9.232-87.82 9.232h-95.96c-46.6982 0-70.0474 0-87.8199-9.232-14.9767-7.78-27.1882-19.991-34.968-34.968-9.2321-17.773-9.2321-41.122-9.2321-87.82z" fill="#005daa"/><path d="m329.308 154.577c-5.26-6.378-14.542-10.036-25.46-10.036-11.552 0-21.951 3.928-29.153 10.303l1.174-7.36-3.123-.929c-4.42-1.318-9.328-2.014-14.195-2.014-8.363 0-16.361 2.585-22.822 6.846l1.859-6.127h-50.009l-.593 1.957c-4.443-1.787-9.331-2.676-14.839-2.676-10.295 0-21.438 3.995-27.224 11.688-.379-.563-.776-1.118-1.217-1.652-5.262-6.378-14.543-10.036-25.463-10.036-11.209 0-21.3461 3.695-28.517 9.743l2.7916-16.972-3.1721-.917c-5.4169-1.567-11.4366-2.395-17.4101-2.395-21.9147 0-41.8612 13.93-45.4088 31.711-1.5103 7.564.2536 14.892 4.9623 20.635 4.0137 4.893 9.9412 8.381 16.9836 10.163h-21.712v27.772h110.5965l.171-.34.021.34h13.313l1.805-2.944-.559 2.944h30.099l.441-2.321c2.645 1.713 6.079 2.643 10.034 2.643 3.534 0 6.813-.732 9.639-2.035l-.324 1.713h42.2l.073-.378c1.957.442 4.012.702 5.975.702 1.193 0 2.421-.107 3.643-.323h16.09l1.194-2.534h1.072l.328 2.534h49.623l2.467-12.994h-.906l.34-1.786h.649l2.47-12.993h-1.374c1.12-1.013 1.936-2.314 2.217-3.794.333-1.759-.123-3.55-1.251-4.91-.294-.352-.63-.662-.992-.94 3.936-4.044 6.665-8.937 7.726-14.438 1.296-6.747-.165-12.92-4.233-17.85zm-28.71 55.739h-1.523l2.299-12.082c.524-.068 1.046-.144 1.563-.226zm-35.515-39.304c-.158.807-.267 1.605-.348 2.39-3.348 2.24-6.485 3.299-9.842 3.299-2.271 0-4.238-.741-5.26-1.983-.583-.705-.779-1.494-.598-2.411.598-3.095 4.796-5.809 8.981-5.809 2.618 0 5.079.926 7.492 2.82-.15.561-.317 1.12-.425 1.694zm3.389 25.496-1.634 2.693-1.358-.761c-.895-.503-1.855-.89-2.845-1.226.725-.173 1.402-.367 1.992-.581l1.905-.692 1.873-8.21c.253.352.494.713.774 1.052 2.826 3.424 6.897 6.043 11.814 7.723zm16.574 1.136-.651 3.418-.904-3.797c.512.134 1.026.264 1.555.379zm15.923-30.787c2.039 0 3.608.542 4.422 1.525.746.906.72 2.061.56 2.873-.649 3.348-4.086 5.687-8.37 5.687-2.083 0-3.73-.55-4.521-1.509-.547-.664-.71-1.594-.483-2.769.555-2.885 3.617-5.807 8.392-5.807zm-94.179 32.146c-.587-.397-1.224-.748-1.889-1.064h2.093zm-11.514 11.31c-.27.24-.71.401-1.219.431.26-.224.669-.408 1.219-.431zm-3.273-43.143-2.483 8.176c-.16-2.184-.84-4.169-2.033-5.934-.492-.723-1.079-1.382-1.724-2.008zm-71.658 4.083c-.647 3.35-4.09 5.689-8.37 5.689-2.082 0-3.73-.55-4.521-1.509-.548-.664-.71-1.594-.483-2.769.559-2.887 3.621-5.807 8.393-5.807 2.039 0 3.611.542 4.423 1.525.744.906.714 2.062.558 2.871zm28.702 26.584-.081.171-.016-.186c.033.003.064.01.097.015zm36.953-10.885-2.9 9.556h-11.139c5.694-1.88 10.799-5.03 14.039-9.556zm1.209 10.987h.621c-.231.097-.455.196-.677.3zm-119.8341-25.065c-3.1787 0-5.9324-1.045-7.3669-2.792-.8301-1.011-1.1085-2.131-.8515-3.422.83-4.159 6.3754-7.672 12.1085-7.672 3.8704 0 7.4559 1.453 10.9574 4.419-.9256 1.729-1.6618 3.541-2.1971 5.43-4.2772 2.737-8.3172 4.037-12.6504 4.037zm65.5171 19.689 3.618 1.629c1.999.899 4.221 1.668 6.547 2.317h-6.731l-.722 1.445-.092-1.445h-11.638c3.255-.999 6.277-2.329 9.018-3.946zm88.189 17.753 2.625-13.808h-12.741l8.928-29.424 2.723.104c-.503 1.344-.926 2.713-1.201 4.124-1.27 6.567.273 12.904 4.351 17.844 2.686 3.256 6.376 5.729 10.692 7.35h-11.227l-2.627 13.808zm-141.9154-14.841 1.9187-.675 1.6766-7.125c.2685.374.5188.753.8153 1.11 2.8245 3.424 6.8959 6.043 11.8105 7.723h-20.3204c1.5366-.289 2.9497-.629 4.0993-1.033zm230.3144 1.033c1.651-.509 3.24-1.099 4.767-1.769.224.537.495 1.056.873 1.512.08.095.186.168.27.257z" fill="#fff"/><g fill="#005daa"><path d="m131.709 200.657.773 12.215h.195c.4-1.248.844-2.551 1.467-3.773l4.211-8.442h6.841l1.034 12.215h.196c.356-1.195.758-2.445 1.305-3.61l4.111-8.605h9.284l-12.555 20.467h-7.786l-.686-11.13h-.294c-.298 1.061-.56 2.091-1.044 3.095l-4.003 8.035h-7.592l-4.71-20.467z"/><path d="m160.476 200.657h8.6l-1.31 6.894h5.472l1.311-6.894h8.6l-3.888 20.467h-8.6l1.351-7.112h-5.474l-1.351 7.112h-8.6z"/><path d="m208.337 210.944c-1.248 6.569-8.089 10.505-15.579 10.505-7.494 0-12.84-3.937-11.59-10.505 1.222-6.433 8.142-10.614 15.602-10.614 7.459 0 12.787 4.181 11.567 10.614zm-18.198.108c-.446 2.334 1.141 3.937 3.844 3.937 2.706 0 4.899-1.603 5.345-3.937.411-2.173-1.002-3.99-3.836-3.99-2.838.001-4.942 1.818-5.353 3.99zm20.154-10.395h8.927l-2.643 13.897h7.495l-1.25 6.568h-16.419zm34.896 13.137.398.3c1.399 1.031 3.161 1.873 5.215 1.873.88 0 2.337-.3 2.513-1.222.175-.922-.982-1.003-1.767-1.14l-1.743-.271c-3.389-.517-5.992-2.228-5.387-5.429.927-4.858 6.75-7.573 12.093-7.573 2.801 0 5.269.572 7.446 1.792l-3.407 5.239c-1.365-.868-2.963-1.548-4.886-1.548-.781 0-1.97.242-2.125 1.084-.146.759.939.869 1.599 1.005l1.95.379c3.642.708 6.06 2.389 5.402 5.864-.932 4.886-6.734 7.302-12.043 7.302-3.093 0-6.545-.707-9.091-1.874z"/><path d="m275.856 213.712-.356-3.61c-.097-.869-.09-1.764-.085-2.634h-.327l-2.813 6.244zm-7.771 7.412h-9.447l12.426-20.467h9.869l4.874 20.467h-9.447l-.328-2.551h-6.742z"/><path d="m288.952 200.657h8.927l-2.642 13.898h7.494l-1.25 6.567h-16.418zm18.077 0h16.519l-1.064 5.593h-7.528l-.371 1.954h6.873l-1.01 5.321h-6.874l-.38 2.008h7.788l-1.066 5.591h-16.777z"/></g><path d="m185.918 163.873 11.27-.423-9.457 31.163h20.222l9.454-31.163 11.017.423 4.489-14.796h-42.51zm-41.872 8.091c-2.828 14.612-18.32 23.372-35.295 23.372-16.9725 0-29.0785-8.758-26.2505-23.372 2.7683-14.314 18.4415-23.612 35.3415-23.612 16.898 0 28.973 9.3 26.204 23.612zm-41.226.242c-1.003 5.194 2.589 8.758 8.711 8.758 6.125 0 11.095-3.563 12.1-8.758.935-4.83-2.268-8.875-8.688-8.875-6.42-.003-11.188 4.045-12.123 8.875z" fill="#e31837"/><path d="m137.763 191.168c5.771 2.594 13.585 4.168 20.595 4.168 12.03 0 25.172-5.375 27.274-16.246 1.495-7.729-3.977-11.474-12.236-13.044l-4.412-.845c-1.492-.304-3.954-.544-3.627-2.236.361-1.872 3.05-2.417 4.822-2.417 4.351 0 7.973 1.51 11.067 3.443l7.714-11.655c-4.936-2.717-10.519-3.984-16.866-3.984-12.103 0-25.301 6.039-27.392 16.849-1.379 7.126 4.527 10.93 12.201 12.079l3.942.602c1.787.305 4.409.484 4.011 2.536s-3.698 2.717-5.692 2.717c-4.65 0-8.642-1.871-11.813-4.166l-.903-.664zm134.512-40.944c-4.045-1.209-8.642-1.872-13.218-1.872-16.309 0-31.131 10.629-33.702 23.915-2.514 12.985 7.935 23.07 23.802 23.07 3.614 0 11.246-.543 14.742-1.812l3.885-17.029c-3.753 2.596-7.754 4.227-12.404 4.227-6.049 0-10.543-3.865-9.571-8.875.958-4.953 6.663-8.877 12.714-8.877 4.575 0 8.224 2.114 10.995 4.592zm32.378-1.872c-16.899 0-32.572 9.298-35.342 23.612-2.826 14.612 9.28 23.372 26.254 23.372 16.971 0 32.467-8.758 35.294-23.372 2.765-14.312-9.31-23.612-26.206-23.612zm-2.898 14.976c6.42 0 9.624 4.044 8.686 8.875-1.003 5.193-5.974 8.757-12.099 8.757s-9.716-3.562-8.711-8.757c.935-4.827 5.704-8.875 12.124-8.875zm-214.0402-23.324c-5.0476-1.46-10.7765-2.263-16.4838-2.263-20.3413 0-38.8293 12.847-42.0336 28.907-3.1314 15.695 9.8979 27.884 29.6856 27.884 4.5105 0 14.0305-.657 18.3852-2.189l4.8454-20.586c-4.6763 3.14-9.6709 5.11-15.4711 5.11-7.5474 0-13.1486-4.672-11.9402-10.733 1.1952-5.984 8.3099-10.732 15.8556-10.732 5.7057 0 10.2577 2.556 13.7106 5.549z" fill="#e31837"/><path d="m318.414 192.398c.303-1.59 2.075-2.871 4.005-2.871 1.915 0 3.212 1.281 2.911 2.871-.307 1.6-2.087 2.881-4.005 2.881-1.928 0-3.213-1.283-2.911-2.881zm6.014 0c.242-1.28-.676-2.12-2.155-2.12-1.502 0-2.715.84-2.956 2.12-.243 1.282.649 2.13 2.152 2.13 1.477 0 2.715-.847 2.959-2.13zm-1.232 1.504h-.893l-.562-1.275h-.585l-.242 1.275h-.759l.571-3.011h1.753c.772 0 1.19.214 1.057.922-.101.516-.504.781-.97.817zm-1.107-1.85c.38 0 .706 0 .769-.322.05-.265-.278-.265-.658-.265h-.822l-.108.587z" fill="#e31837"/><path d="m30.6104 221.157h94.6416l-.007-.033h-.078l-1.197-5.205h-93.3596zm0-7.44h92.8526l-1.207-5.236h-91.6456zm0-7.471h91.1026l-.41-1.908-.837-3.642h-89.8556zm197.7616-5.589h16.517l-1.062 5.593h-7.526l-.373 1.954h6.872l-1.009 5.321h-6.873l-.381 2.008h7.786l-1.063 5.591h-16.78z" fill="#005daa"/></svg>