<svg fill="none" height="360" viewBox="0 0 360 360" width="360" xmlns="http://www.w3.org/2000/svg"><path d="m0 132.02c0-46.6982 0-70.0474 9.2321-87.8199 7.7798-14.9767 19.9913-27.1882 34.968-34.968 17.7725-9.2321 41.1217-9.2321 87.8199-9.2321h95.96c46.698 0 70.047 0 87.82 9.2321 14.977 7.7798 27.188 19.9913 34.968 34.968 9.232 17.7725 9.232 41.1217 9.232 87.8199v95.96c0 46.698 0 70.047-9.232 87.82-7.78 14.977-19.991 27.188-34.968 34.968-17.773 9.232-41.122 9.232-87.82 9.232h-95.96c-46.6982 0-70.0474 0-87.8199-9.232-14.9767-7.78-27.1882-19.991-34.968-34.968-9.2321-17.773-9.2321-41.122-9.2321-87.82z" fill="#000"/><g fill="#50b2ce"><path d="m192.084 268.773c0 7.363-3.15 15.756-12.066 15.756-8.924 0-11.569-8.393-11.569-15.756v-22.29c-24.09-11.061-46.537-25.397-66.704-42.601v62.27c0 45.177 35.723 67.761 78.273 67.761 41.234 0 77.417-21.739 78.737-65.249-20.998-.45-43.736-4.707-66.671-12.661z"/><path d="m234.09 214.238h-42.006v.03c10.007 5.318 19.687 8.251 28.562 8.242 9.775 0 13.505-3.286 13.444-8.274"/><path d="m138.477 132.137c-27.366.03-7.63 26.75 10.956 47.206 5.944 6.565 12.295 12.749 19.016 18.516v-56.257c-1.559-.932-3.132-1.791-4.732-2.598-8.762-4.599-17.176-6.888-25.241-6.866"/><path d="m168.449 91.2026c0-7.3391 2.642-15.7644 11.569-15.7644 8.916 0 12.066 8.4251 12.066 15.7644v16.9284c13.864 6.495 27.097 14.258 39.53 23.191h27.203v-37.4832c0-45.168-36.76-67.749-78.798-67.749-40.009 0-73.985 19.9712-77.887 59.9103 22.614.8042 44.975 5.0379 66.317 12.5564z"/></g><path d="m299.339 196.621-73.66.111c4.938 6.57 8.349 12.797 8.41 17.506h24.73v51.915c0 .862-.038 1.678-.064 2.511 1.304.035 2.587.04 3.89.04 25.615-.04 44.971-5.023 53.027-16.276 8.082-11.566 4.221-29.734-16.333-55.808" fill="#6ab345"/><path d="m102.132 86c-1.911-.0552-3.7861-.0784-5.6646-.0784-60.877.1104-73.7788 34.3654-20.2846 93.1954 7.9847 8.791 16.5228 17.062 25.5622 24.764v-110.0425c0-2.7029.139-5.2896.386-7.8385" fill="#6ab345"/><path d="m192.083 108.13c-7.704-3.606-15.593-6.803-23.635-9.5748v43.0458c7.067 4.159 13.525 9.273 19.193 15.198l74.02-.107c-9.345-9.222-19.391-17.704-30.048-25.372h-39.53z" fill="#6ab345"/><path d="m192.083 256.001v-41.733c-8.443-4.608-16.366-10.109-23.635-16.409v48.623c7.874 3.6 15.752 6.773 23.635 9.519" fill="#6ab345"/><path d="m168.451 197.858c-6.723-5.765-13.076-11.95-19.019-18.516-18.583-20.453-38.322-47.174-10.954-47.206 8.065-.017 16.478 2.273 25.238 6.869 1.602.807 3.173 1.666 4.735 2.595v-43.0455c-21.343-7.5162-43.704-11.749-66.318-12.5535-.247 2.549-.389 5.1358-.389 7.8386v110.0424c20.167 17.205 42.615 31.541 66.707 42.601z" fill="#74cbf1"/><path d="m192.083 131.322h39.53c-12.433-8.933-25.666-16.697-39.53-23.191z" fill="#74cbf1"/><path d="m258.819 214.239h-24.727c.058 4.987-3.67 8.274-13.445 8.274-8.875.009-18.557-2.924-28.564-8.243v41.731c22.935 7.958 45.673 12.211 66.672 12.664.026-.834.064-1.649.064-2.512z" fill="#74cbf1"/></svg>