<svg fill="none" height="360" viewBox="0 0 360 360" width="360" xmlns="http://www.w3.org/2000/svg"><path d="m0 132.02c0-46.6982 0-70.0474 9.2321-87.8199 7.7798-14.9767 19.9913-27.1882 34.968-34.968 17.7725-9.2321 41.1217-9.2321 87.8199-9.2321h95.96c46.698 0 70.047 0 87.82 9.2321 14.977 7.7798 27.188 19.9913 34.968 34.968 9.232 17.7725 9.232 41.1217 9.232 87.8199v95.96c0 46.698 0 70.047-9.232 87.82-7.78 14.977-19.991 27.188-34.968 34.968-17.773 9.232-41.122 9.232-87.82 9.232h-95.96c-46.6982 0-70.0474 0-87.8199-9.232-14.9767-7.78-27.1882-19.991-34.968-34.968-9.2321-17.773-9.2321-41.122-9.2321-87.82z" fill="#000"/><path d="m163.985 222.033v82.846c-.554 20.514-.989 20.962-1.318 21.621-.777.765-1.106 1.662-2.213 2.767-.883.766-2.214 2.413-3.637 2.753-1.107.75-2.095 1.542-2.767 1.542 0 .336-.434.336-1.093.336 0 0-.448.336-.777.336-.329.433-.329.434 0 .766h62.991v-.766c-.435-.336-.435-.336-1.107-.336-.764-.336-1.093-.777-2.424-1.438-1.107-.777-2.543-2.423-3.531-3.189-1.436-1.449-1.765-2.768-2.2-3.425-.344-.777-.659-1.105-.659-32.886v-159.394l-54.717 54.282c3.518-1.553 8.604-.672 11.028 2.304 2.424 2.663 2.424 8.498 2.424 31.884" fill="#fff"/><g clip-rule="evenodd" fill-rule="evenodd"><path d="m23 181.785c0-5.455.2764-10.844.8303-16.153l139.8027-139.8028c5.323-.5416 10.711-.8292 16.179-.8292 7.563 0 14.994.5414 22.266 1.5797l-177.4969 177.5103c-1.0409-7.286-1.5808-14.729-1.5808-22.305" fill="#6fbe4a"/><path d="m77.2857 300.429c-7.0092-6.061-13.4652-12.741-19.315-19.921l85.5863-85.587c3.518-1.516 9.974-.709 12.385 2.267 1.739 2.387 1.726 4.375 1.963 22.622z" fill="#6fbe4a"/><path d="m278.514 59.9602c7.194 5.8366 13.874 12.2923 19.934 19.3016l-86.35 86.3772v-39.249z" fill="#6fbe4a"/><path d="m248.152 40.6515c8.63 4.1896 16.825 9.1303 24.48 14.7694l-219.2102 219.1971c-5.6259-7.655-10.5797-15.849-14.7695-24.466z" fill="#6fbe4a"/><path d="m210.963 28.1091c10.409 2.0951 20.462 5.2302 30.014 9.2883l-205.5874 205.5866c-4.0579-9.552-7.1936-19.591-9.3017-29.999z" fill="#6fbe4a"/><path d="m25.5469 153.496c11.6337-63.9128 62.029-114.2951 125.9421-125.9418z" fill="#6fbe4a"/><path d="m302.302 278.081c-5.797 7.259-12.226 14.005-19.196 20.145l-71.239-71.239v-39.342z" fill="#00954c"/><path d="m321.942 248.767c-4.097 8.577-8.063 16.008-13.583 23.65l-96.298-96.299 18.59-18.603z" fill="#00954c"/><path d="m334.255 211.469c-2.029 10.435-5.099 20.513-9.078 30.092l-89.302-89.249 19.618-19.631z" fill="#00954c"/><path d="m285.533 102.643 17.695-17.6818c15.098 19.2098 26.245 41.5678 31.067 66.4958z" fill="#00954c"/><path d="m280.313 107.856 55.837 55.889c.646 5.784.975 11.661.975 17.629 0 7.168-.487 14.23-1.423 21.147l-75.007-75.047z" fill="#00954c"/></g></svg>