<svg fill="none" height="360" viewBox="0 0 360 360" width="360" xmlns="http://www.w3.org/2000/svg"><path d="m0 132.02c0-46.6982 0-70.0474 9.2321-87.8199 7.7798-14.9767 19.9913-27.1882 34.968-34.968 17.7725-9.2321 41.1217-9.2321 87.8199-9.2321h95.96c46.698 0 70.047 0 87.82 9.2321 14.977 7.7798 27.188 19.9913 34.968 34.968 9.232 17.7725 9.232 41.1217 9.232 87.8199v95.96c0 46.698 0 70.047-9.232 87.82-7.78 14.977-19.991 27.188-34.968 34.968-17.773 9.232-41.122 9.232-87.82 9.232h-95.96c-46.6982 0-70.0474 0-87.8199-9.232-14.9767-7.78-27.1882-19.991-34.968-34.968-9.2321-17.773-9.2321-41.122-9.2321-87.82z" fill="#1a64b7"/><path d="m153.302 191.376h-15.687l18.863-38.417h.304zm176.698-53.913h-70.137l-2.187 7.628c-3.951-5.969-12.475-9.586-25.643-9.586-21.011 0-36.448 8.19-41.044 24.223-2.149 7.509-.727 12.726 2.961 17.047 3.832 4.322 9.969 7.617 17.299 11.139 6.22 3.187 13.526 5.909 11.46 13.072-1.228 4.31-5.24 8.524-11.604 8.524-8.559 0-9.478-4.333-8.07-9.228l1.73-6.041-25.083.034-1.743 6.065-.406-62.879h-32.603l-18.695 32.114 5.038-17.573h-44.9122l5.7902-20.152h48.803l6.555-22.85h-84.8337l-32.6753 113.891h36.0181l13.7884-48.039h43.3485l-27.9719 48.051h27.2189l7.963-16.487h21.227l-.884 16.487h27.375l-.034-8.285c3.391 6.017 12.177 10.243 28.115 10.243 22.479 0 37.402-9.097 42.094-25.476 2.971-10.339.907-16.021-4.154-20.331-5.074-4.322-13.001-7.282-21.8-12.046-4.727-2.734-7.545-5.348-5.312-10.458 1.709-3.748 5.611-6.029 11.102-5.682 8.882.453 6.614 7.27 5.492 12.272h24.927c1.11-3.069 1.682-5.957 1.743-8.643h15.961l-19.638 68.406h27.076l19.626-68.406h18.397z" fill="#fff"/></svg>