<svg fill="none" height="360" viewBox="0 0 360 360" width="360" xmlns="http://www.w3.org/2000/svg"><path d="m0 132.02c0-46.6982 0-70.0474 9.2321-87.8199 7.7798-14.9767 19.9913-27.1882 34.968-34.968 17.7725-9.2321 41.1217-9.2321 87.8199-9.2321h95.96c46.698 0 70.047 0 87.82 9.2321 14.977 7.7798 27.188 19.9913 34.968 34.968 9.232 17.7725 9.232 41.1217 9.232 87.8199v95.96c0 46.698 0 70.047-9.232 87.82-7.78 14.977-19.991 27.188-34.968 34.968-17.773 9.232-41.122 9.232-87.82 9.232h-95.96c-46.6982 0-70.0474 0-87.8199-9.232-14.9767-7.78-27.1882-19.991-34.968-34.968-9.2321-17.773-9.2321-41.122-9.2321-87.82z" fill="#e8ec18"/><path d="m283.948 46c-174.274 16.5855-196.3209 136.793-139.349 175.225-9.821 43.393-.802 42.391-.802 42.391 1.754-12.978 4.31-25.805 7.617-38.482 22.247-84.581 77.265-158.1891 132.784-177.4805v-.2004c.351-.0501.802-.2004.802-.6013 0-.4509-.351-.8017-.802-.8017 0 0 0 0-.05 0zm-9.02 27.6092c-.3 0-.651.3006-.801.6012-14.431 28.2606-18.49 68.6476-29.463 99.6636-12.577 35.376-34.925 59.327-69.399 57.022v86.085s-92.0474-41.79-92.0474-108.683v-125.419l75.1614-7.015h.2c.401 0 .601-.2004.601-.6013 0-.5011-.2-.8017-.601-.8017h-83.579v133.837c0 75.211 100.265 117.101 100.265 117.101s100.465-42.542 100.465-117.151v-133.8371c0-.3508-.401-.8017-.802-.8017z" fill="#c6093b"/></svg>