<svg fill="none" height="360" viewBox="0 0 360 360" width="360" xmlns="http://www.w3.org/2000/svg"><path d="m0 132.02c0-46.6982 0-70.0474 9.2321-87.8199 7.7798-14.9767 19.9913-27.1882 34.968-34.968 17.7725-9.2321 41.1217-9.2321 87.8199-9.2321h95.96c46.698 0 70.047 0 87.82 9.2321 14.977 7.7798 27.188 19.9913 34.968 34.968 9.232 17.7725 9.232 41.1217 9.232 87.8199v95.96c0 46.698 0 70.047-9.232 87.82-7.78 14.977-19.991 27.188-34.968 34.968-17.773 9.232-41.122 9.232-87.82 9.232h-95.96c-46.6982 0-70.0474 0-87.8199-9.232-14.9767-7.78-27.1882-19.991-34.968-34.968-9.2321-17.773-9.2321-41.122-9.2321-87.82z" fill="#0077c5"/><path d="m95 167.007h59.129v164.085h52.742v-164.085h59.129v-46.881h-170.7071v46.881zm85.5-74.2482c6.305 0 12.469-1.8697 17.711-5.3726 5.243-3.503 9.329-8.4819 11.742-14.3071s3.044-12.2351 1.814-18.4191-4.267-11.8644-8.725-16.3228-10.139-7.4946-16.323-8.7246c-6.184-1.2301-12.594-.5988-18.419 1.8141s-10.804 6.4989-14.307 11.7415c-3.503 5.2425-5.372 11.4061-5.372 17.7112.062 8.4448 3.472 16.5199 9.482 22.4528 6.009 5.933 14.128 9.239 22.573 9.1922z" fill="#fff"/></svg>