<svg fill="none" height="360" viewBox="0 0 360 360" width="360" xmlns="http://www.w3.org/2000/svg"><path d="m0 132.02c0-46.6982 0-70.0474 9.2321-87.8199 7.7798-14.9767 19.9913-27.1882 34.968-34.968 17.7725-9.2321 41.1217-9.2321 87.8199-9.2321h95.96c46.698 0 70.047 0 87.82 9.2321 14.977 7.7798 27.188 19.9913 34.968 34.968 9.232 17.7725 9.232 41.1217 9.232 87.8199v95.96c0 46.698 0 70.047-9.232 87.82-7.78 14.977-19.991 27.188-34.968 34.968-17.773 9.232-41.122 9.232-87.82 9.232h-95.96c-46.6982 0-70.0474 0-87.8199-9.232-14.9767-7.78-27.1882-19.991-34.968-34.968-9.2321-17.773-9.2321-41.122-9.2321-87.82z" fill="#472380"/><path d="m121.497 224.155c-3.931 3.567-9.607 4.755-13.162 5.209-7.242.905-14.732-1.499-19.5112-7.259-3.9248-4.706-5.9384-10.8-9.7702-15.672-6.0528-7.712-15.7285-12.763-25.6955-10.978-19.7023 3.574-28.6412 26.546-17.5026 42.482 15.9207 22.775 51.7236 18.831 70.0985 3.054 5.722-4.906 11.064-10.365 15.543-16.836z" fill="#e51636"/><path d="m246.508 197.017c3.938 3.574 9.596 4.763 13.164 5.211 7.238.911 14.733-1.49 19.509-7.255 3.923-4.712 5.947-10.8 9.771-15.672 6.062-7.715 15.737-12.766 25.701-10.978 19.693 3.569 28.633 26.545 17.487 42.483-15.915 22.769-51.713 18.831-70.079 3.055-5.725-4.907-11.079-10.37-15.553-16.844z" fill="#e51636"/><path d="m250.358 214.589c-14.81-16.24-19.443-43.246-20.355-61.195-.786-15.508.053-42.364 12.273-50.18-4.091-5.1425-12.16-7.214-18.292-7.214-13.778 0-20.419 9.177-25.131 15.776-1.556 2.18-24.724 34.14-24.724 34.14s-19.488-30.147-21.882-33.768c-3.311-4.997-9.508-14.1802-20.401-15.7697-4.691-.6849-16.859-1.3073-23.482 7.7827 11.416 9.134 11.13 32.395 8.652 48.276-7.437 47.669-27.7201 52.059-27.7201 52.059 10.3896 28.06 37.1471 16.974 44.7081-5.398 4.897-14.542 8.059-32.949 8.788-48.214l29.364 45.044s33.25-44.903 33.25-44.864c-5.477 79.413 21.796 101.925 45.646 101.925 23.87 0 31.993-21.828 31.993-21.828-12.907-.78-24.203-7.271-32.687-16.572z" fill="#fff"/></svg>