<svg width="361" height="360" viewBox="0 0 361 360" fill="none" xmlns="http://www.w3.org/2000/svg">
<path d="M0.143555 132.02C0.143555 85.3218 0.143555 61.9726 9.37565 44.2001C17.1554 29.2234 29.3669 17.0119 44.3437 9.2321C62.1162 0 85.4653 0 132.164 0H228.124C274.822 0 298.171 0 315.943 9.2321C330.92 17.0119 343.132 29.2234 350.911 44.2001C360.144 61.9726 360.144 85.3218 360.144 132.02V227.98C360.144 274.678 360.144 298.027 350.911 315.8C343.132 330.777 330.92 342.988 315.943 350.768C298.171 360 274.822 360 228.124 360H132.164C85.4653 360 62.1162 360 44.3437 350.768C29.3669 342.988 17.1554 330.777 9.37565 315.8C0.143555 298.027 0.143555 274.678 0.143555 227.98V132.02Z" fill="url(#paint0_linear)"/>
<path fill-rule="evenodd" clip-rule="evenodd" d="M138.809 147.524C190.336 129.763 199.106 83.4989 192.528 40.9619C192.528 39.4271 193.844 38.3308 195.159 38.7693C244.493 62.8882 299.967 115.511 299.967 194.446C299.967 254.962 253.045 308.462 184.854 308.462C160.522 309.569 136.514 302.541 116.619 288.487C96.725 274.433 82.0775 254.154 74.9885 230.851C67.8995 207.548 68.7728 182.548 77.4707 159.796C86.1685 137.044 102.195 117.837 123.022 105.206C124.338 104.329 126.092 105.206 126.092 106.741C126.749 114.853 128.942 135.245 137.932 147.524H138.809V147.524Z" fill="white"/>
<defs>
<linearGradient id="paint0_linear" x1="334.429" y1="25.7143" x2="25.8579" y2="334.286" gradientUnits="userSpaceOnUse">
<stop stop-color="#FF7854"/>
<stop offset="1" stop-color="#FD267D"/>
</linearGradient>
</defs>
</svg>
