<svg fill="none" height="360" viewBox="0 0 360 360" width="360" xmlns="http://www.w3.org/2000/svg"><path d="m0 132.02c0-46.6982 0-70.0474 9.2321-87.8199 7.7798-14.9767 19.9913-27.1882 34.968-34.968 17.7725-9.2321 41.1217-9.2321 87.8199-9.2321h95.96c46.698 0 70.047 0 87.82 9.2321 14.977 7.7798 27.188 19.9913 34.968 34.968 9.232 17.7725 9.232 41.1217 9.232 87.8199v95.96c0 46.698 0 70.047-9.232 87.82-7.78 14.977-19.991 27.188-34.968 34.968-17.773 9.232-41.122 9.232-87.82 9.232h-95.96c-46.6982 0-70.0474 0-87.8199-9.232-14.9767-7.78-27.1882-19.991-34.968-34.968-9.2321-17.773-9.2321-41.122-9.2321-87.82z" fill="#000"/><path d="m179.996 335.023c-85.6059 0-154.996-69.405-154.996-155.027 0-85.6059 69.3901-154.996 154.996-154.996 85.606 0 155.004 69.3901 155.004 154.996.008 85.622-69.398 155.027-155.004 155.027z" fill="#00b2a9"/><path d="m155.089 172.342 17.099-30.962-15.535-27.576c-2.604-4.684-7.975-7.678-13.519-7.678h-43.4556c-8.7959 0-15.903 7.13-15.903 15.903v133.839h32.6976v-120.094h18.233zm105.254-66.224h-43.464c-5.535 0-10.914 3.002-13.502 7.678l-78.867 142.064h34.473l21.024-38.045 21.032 38.045h34.472l-38.374-69.336 28.179-50.758h18.24v120.094h32.69v-133.839c-.008-8.773-7.107-15.903-15.903-15.903z" fill="#fff"/></svg>