<svg fill="none" height="360" viewBox="0 0 360 360" width="360" xmlns="http://www.w3.org/2000/svg" xmlns:xlink="http://www.w3.org/1999/xlink"><radialGradient id="a" cx="0" cy="0" gradientTransform="matrix(8.71623804 -3.01838729 110.5672295 319.28649217 177.636 178.588)" gradientUnits="userSpaceOnUse" r="1"><stop offset="0"/><stop offset="1" stop-opacity="0"/></radialGradient><path d="m0 132.02c0-46.6982 0-70.0474 9.2321-87.8199 7.7798-14.9767 19.9913-27.1882 34.968-34.968 17.7725-9.2321 41.1217-9.2321 87.8199-9.2321h95.96c46.698 0 70.047 0 87.82 9.2321 14.977 7.7798 27.188 19.9913 34.968 34.968 9.232 17.7725 9.232 41.1217 9.232 87.8199v95.96c0 46.698 0 70.047-9.232 87.82-7.78 14.977-19.991 27.188-34.968 34.968-17.773 9.232-41.122 9.232-87.82 9.232h-95.96c-46.6982 0-70.0474 0-87.8199-9.232-14.9767-7.78-27.1882-19.991-34.968-34.968-9.2321-17.773-9.2321-41.122-9.2321-87.82z" fill="#000"/><g fill="#b1060f" stroke="#000" stroke-width="11.2613"><path d="m200.082 53.2006-.1 56.1564-.101 56.157-4.612-13.036v-.034l-5.984 125.016c5.883 16.58 9.025 25.438 9.059 25.471.033.034 3.376.234 7.421.435 12.234.602 27.409 1.905 38.942 3.343 2.674.334 4.947.501 5.114.367.167-.133.2-57.293.167-127.055l-.1-126.8204z"/><path d="m110 53.0334v126.9546c0 69.828.067 127.021.167 127.122.1.1 4.412-.335 9.627-.903s12.401-1.303 15.978-1.604c5.482-.468 21.928-1.504 23.8-1.538.568 0 .601-2.841.668-53.783l.101-53.784 3.977 11.231c.602 1.739.803 2.273 1.404 3.978l5.984-124.9823c-1.271-3.5766-.602-1.7047-2.039-5.7828-4.881-13.8052-9.026-25.4711-9.193-26.006l-.334-.9359h-50.14z"/><path d="m200.082 53.2006-.1 56.1564-.101 56.157-4.612-13.036v-.034l-5.984 125.016c5.883 16.58 9.025 25.438 9.059 25.471.033.034 3.376.234 7.421.435 12.234.602 27.409 1.905 38.942 3.343 2.674.334 4.947.501 5.114.367.167-.133.2-57.293.167-127.055l-.1-126.8204z"/><path d="m110 53.0334v126.9546c0 69.828.067 127.021.167 127.122.1.1 4.412-.335 9.627-.903s12.401-1.303 15.978-1.604c5.482-.468 21.928-1.504 23.8-1.538.568 0 .601-2.841.668-53.783l.101-53.784 3.977 11.231c.602 1.739.803 2.273 1.404 3.978l5.984-124.9823c-1.271-3.5766-.602-1.7047-2.039-5.7828-4.881-13.8052-9.026-25.4711-9.193-26.006l-.334-.9359h-50.14z"/></g><path d="m110 53.0334v71.2656l50.207 133.172c0-3.042 0-4.713.033-8.189l.101-53.784 3.977 11.231c22.062 62.575 33.928 96.135 33.995 96.202.034.034 3.376.234 7.421.435 12.234.602 27.41 1.905 38.942 3.343 2.674.334 4.947.501 5.114.367.101-.1.168-28.112.168-67.655l-49.94-143.6683-.033 13.6043-.101 56.157-4.613-13.036c-4.512-12.736-7.521-21.26-25.671-72.5361-4.881-13.8052-9.025-25.4711-9.193-26.006l-.334-.9359h-50.073z" fill="url(#a)"/><path d="m110 53.0334 50.307 142.5646v-.067l3.978 11.232c22.095 62.541 33.961 96.102 34.028 96.168.034.034 3.376.234 7.421.435 12.234.602 27.41 1.905 38.942 3.343 2.641.334 4.947.501 5.081.367l-49.873-141.595v.033l-4.612-13.036c-4.513-12.736-7.521-21.26-25.672-72.5361-4.88-13.8052-9.025-25.4711-9.193-26.006l-.334-.9359h-25.036z" fill="#d8000b"/></svg>