<svg width="360" height="360" viewBox="0 0 360 360" fill="none" xmlns="http://www.w3.org/2000/svg">
<path d="M0 132.02C0 85.3218 0 61.9726 9.2321 44.2001C17.0119 29.2234 29.2234 17.0119 44.2001 9.2321C61.9726 0 85.3218 0 132.02 0H227.98C274.678 0 298.027 0 315.8 9.2321C330.777 17.0119 342.988 29.2234 350.768 44.2001C360 61.9726 360 85.3218 360 132.02V227.98C360 274.678 360 298.027 350.768 315.8C342.988 330.777 330.777 342.988 315.8 350.768C298.027 360 274.678 360 227.98 360H132.02C85.3218 360 61.9726 360 44.2001 350.768C29.2234 342.988 17.0119 330.777 9.2321 315.8C0 298.027 0 274.678 0 227.98V132.02Z" fill="black"/>
<path d="M158.838 167.067C159.393 166.511 159.949 165.956 160.319 165.4C160.319 164.66 160.319 163.919 160.319 163.364C160.319 161.142 160.319 159.29 160.689 157.809C161.06 156.142 161.06 153.735 161.06 150.402C160.689 147.625 159.578 145.033 157.357 142.626C151.987 137.997 147.543 136.33 144.025 137.441C141.988 137.997 139.581 137.997 136.248 137.256C132.175 136.33 128.101 136.7 124.213 138.552C122.361 139.293 121.065 139.663 120.139 139.663C119.214 139.478 118.473 139.478 117.732 139.663C117.362 139.848 117.177 139.848 116.992 140.033C113.659 141.329 111.437 142.626 110.141 143.551C109.956 143.737 109.956 144.107 109.77 144.477C108.104 147.81 107.363 150.032 107.549 151.328C107.919 154.476 108.289 156.698 108.474 157.809C108.289 160.771 108.845 163.178 109.956 165.03C109.956 165.215 109.956 165.215 109.956 165.4L110.326 165.585C111.992 167.067 113.659 168.178 114.77 169.104C114.955 169.289 115.14 169.474 115.14 169.474C116.436 169.104 117.547 168.918 118.473 169.104C119.769 169.474 121.25 169.474 122.917 169.104C124.213 168.733 125.509 168.733 126.62 168.918C128.101 169.104 129.397 168.918 130.323 168.178C131.434 167.807 133.101 167.622 135.508 167.807H135.693C136.619 167.252 137.359 166.696 137.73 166.326C138.1 165.956 138.285 165.585 138.841 165.215C138.841 164.475 139.211 163.919 139.581 163.549C139.952 162.808 140.322 161.882 140.692 160.586C140.692 159.66 140.507 158.549 140.322 156.883C140.137 155.772 140.137 154.846 140.322 154.106C141.062 152.439 141.433 150.958 141.618 149.662C141.618 147.44 142.544 145.588 144.21 144.477C146.062 142.996 147.728 142.255 148.839 142.626C149.95 142.811 150.691 143.737 151.431 144.848C152.172 146.514 152.542 148.366 152.542 150.402C152.357 151.884 151.987 153.365 151.431 154.661C150.876 155.957 150.135 157.253 149.024 158.364C147.913 159.66 147.358 161.512 147.358 163.919C147.173 164.474 147.173 165.03 146.988 165.585C147.358 165.956 147.543 166.141 147.913 166.696C148.099 166.696 148.099 166.882 148.284 167.067C149.58 166.882 151.061 167.067 152.913 167.437C154.764 167.622 156.246 167.622 157.727 167.622C157.912 167.622 158.097 167.622 158.097 167.807C158.282 167.437 158.468 167.437 158.468 167.437C158.468 167.437 158.468 167.252 158.838 167.067ZM128.472 187.62C128.472 187.249 128.472 187.064 128.657 186.694C128.842 185.583 128.657 184.657 128.286 183.731C128.286 183.176 128.286 182.435 128.286 181.88C128.286 181.324 128.286 180.769 128.286 180.213C127.916 179.843 127.731 179.658 127.175 179.472C126.064 178.732 124.768 178.362 123.472 177.991H123.287C121.621 178.917 120.325 179.287 119.399 179.472C118.288 179.658 117.177 179.843 116.251 179.843C115.696 180.028 115.51 180.213 115.325 180.213C114.214 180.954 113.474 181.509 113.103 182.25C112.548 182.805 112.177 183.361 111.992 183.916C111.807 185.953 111.622 187.434 111.252 188.545C110.696 189.841 110.511 191.138 110.511 192.804C111.622 191.508 113.103 190.767 114.955 190.212C116.436 189.656 117.732 189.471 118.658 189.471C119.769 189.841 120.88 189.841 121.991 189.471C123.102 189.101 124.028 189.101 124.954 189.471C125.139 189.471 125.139 189.471 125.324 189.471C126.805 188.916 127.731 188.36 128.472 187.62ZM173.836 229.466C174.391 231.873 174.391 233.91 174.021 235.391C173.465 236.502 173.28 237.242 173.095 237.983C172.725 239.094 172.355 239.835 171.984 240.205C170.503 241.501 168.836 242.057 166.985 242.057C165.318 242.057 163.837 241.131 162.726 239.649C161.43 237.613 160.875 235.946 161.06 234.65C161.245 233.539 161.06 232.428 160.689 231.688C160.319 230.947 160.319 230.021 160.689 229.281C161.06 228.17 161.06 227.059 160.689 225.948C159.949 222.985 159.578 220.763 159.949 219.467C160.504 215.023 160.319 210.765 159.578 206.691C159.393 205.58 159.393 204.469 159.578 203.543C159.764 202.432 159.764 200.951 159.578 198.729C159.393 196.137 159.393 194.285 159.949 192.804C160.504 190.952 160.504 188.916 160.319 186.694C159.949 185.583 159.764 184.101 159.764 182.25C158.838 181.324 158.097 180.583 157.357 180.213C156.246 179.102 155.32 178.176 154.764 177.806C154.579 177.621 154.394 177.621 154.024 177.621C151.061 176.695 147.913 176.51 144.951 177.251C143.655 177.621 142.544 177.621 141.618 177.621C140.507 177.806 139.766 177.991 139.396 178.362C138.841 178.547 138.285 178.917 137.915 179.287C138.1 179.472 138.1 179.658 138.1 179.658C138.1 180.769 138.1 181.88 138.285 183.176C138.285 183.916 138.285 184.657 137.915 185.398C137.73 185.583 137.73 185.768 137.73 185.953C138.47 186.879 139.396 187.805 140.322 188.36C140.322 188.545 140.507 188.545 140.692 188.73C141.988 188.545 143.47 188.73 145.136 189.101C146.988 189.286 148.654 189.286 150.135 189.101C151.617 189.286 153.283 189.656 154.579 190.767C156.246 191.878 156.986 193.359 156.986 195.396C157.171 197.063 156.06 198.544 154.024 199.47C151.617 200.396 149.024 200.21 146.062 199.285C144.025 198.729 141.618 198.544 139.396 198.914C137.73 199.47 136.063 199.47 134.397 199.099H134.212C130.323 200.396 127.546 201.692 126.065 202.617L126.25 202.803C126.62 204.284 126.25 206.136 125.324 208.728C125.139 209.839 125.139 210.765 125.139 211.32C125.139 211.875 125.139 212.986 125.139 214.283C125.139 215.394 125.324 216.504 125.694 217.245C125.879 217.801 126.064 218.356 126.435 218.726C127.731 219.467 127.916 220.578 127.361 222.059C126.805 223.541 125.879 224.466 124.583 225.022C123.843 225.207 123.102 225.207 122.546 225.022C121.991 224.837 121.25 224.652 120.325 224.281C118.288 223.726 116.807 221.874 115.881 218.912C115.14 214.838 114.77 211.69 115.14 209.283C115.325 208.172 115.51 207.061 115.51 206.136C115.51 205.765 115.51 205.395 115.51 205.025C115.325 204.284 115.14 203.728 114.77 203.358C114.399 202.803 114.214 202.432 113.844 202.062C112.918 202.062 112.177 202.062 111.437 201.877C110.511 201.321 109.77 200.951 109.215 200.581C109.215 200.766 109.215 200.951 109.4 201.321C109.4 202.617 109.215 204.099 108.845 205.95C108.104 207.432 107.919 208.913 107.919 210.024C107.919 210.95 107.734 211.69 107.549 212.616C107.178 213.357 107.178 214.097 107.178 215.023C107.178 215.949 106.993 216.875 106.623 217.801C106.067 218.912 105.882 220.023 105.882 221.133C105.882 221.874 105.697 222.8 105.327 224.096C103.845 227.614 102.919 230.577 102.549 232.613C102.179 234.095 101.253 235.391 100.142 236.687C98.4757 238.168 96.8092 239.094 95.3279 239.279C94.0318 239.279 92.7357 239.094 91.2544 238.353C89.9583 237.428 89.2176 236.317 88.8473 235.02C88.477 233.724 88.477 232.428 88.477 231.317C88.8473 230.021 89.2177 228.91 89.588 227.984C90.3286 227.244 91.0693 226.133 91.9951 224.466C93.6615 222.615 94.4021 220.948 94.4021 219.652C94.5873 218.541 94.9576 217.801 95.3279 217.43C96.2537 215.208 96.8092 213.172 97.1795 211.505C97.735 210.209 98.1053 209.098 98.1053 208.172C98.1053 204.284 98.846 200.581 100.327 196.878C101.253 194.656 101.253 192.434 100.698 190.397C100.883 188.73 101.068 187.62 101.068 186.879C101.623 185.398 101.809 183.916 101.623 182.435C101.253 180.028 101.253 177.806 101.438 175.769C101.623 173.918 101.438 170.4 101.068 165.03C100.883 161.882 99.9569 159.475 98.846 157.809C97.1795 155.217 96.0686 152.069 96.0686 148.18C95.6983 144.292 96.2537 140.589 97.9202 137.256C99.5866 133.368 101.068 131.146 102.549 130.405C104.771 129.294 106.808 129.294 108.474 130.59C108.289 130.405 108.289 130.405 108.474 130.405C108.845 130.22 109.585 130.22 110.511 130.405C111.067 130.405 111.992 130.405 113.103 130.22C115.325 129.479 117.547 129.294 119.584 129.664C121.065 130.035 122.361 130.035 123.287 129.85C125.324 128.924 126.805 128.553 127.731 128.739C128.286 128.924 129.027 128.739 129.953 128.368C132.36 127.442 134.397 127.257 136.063 127.813C137.915 128.368 139.766 128.368 141.618 127.998C144.581 127.442 147.173 127.442 149.395 127.813C150.691 127.998 151.802 127.998 152.728 127.998C153.839 127.998 154.579 128.368 155.32 128.924C156.431 129.664 157.542 129.85 158.653 129.85C160.134 129.85 161.43 129.85 162.541 130.22C163.837 130.961 164.578 131.516 164.948 132.257C165.504 133.368 166.429 134.293 167.911 134.849C170.318 136.145 171.984 138.367 172.91 141.329C173.28 142.996 173.28 144.662 172.91 146.514C172.725 147.81 172.169 148.736 171.429 149.291C170.688 150.032 170.318 150.958 170.318 151.884C170.318 152.995 169.947 153.735 169.762 154.106C169.207 155.217 169.207 156.327 169.392 157.068C169.762 157.994 169.762 158.92 169.392 160.216C168.836 163.549 168.651 166.882 169.022 170.585C169.022 172.992 168.651 175.029 167.911 176.51C167.54 177.436 167.726 178.547 168.096 180.213C168.466 181.509 168.281 182.991 167.911 184.842C167.54 186.323 167.54 187.805 167.911 189.286C168.651 192.989 168.651 196.137 168.281 198.729C167.726 203.173 167.911 206.506 168.836 208.728C170.688 214.283 171.614 218.912 171.799 222.43C172.91 225.022 173.28 227.429 173.836 229.466ZM139.026 215.579C139.766 215.394 141.062 215.208 142.729 215.208C144.395 215.023 145.506 214.838 146.247 214.468C148.284 213.727 150.135 214.097 152.172 215.208C153.839 216.134 154.764 217.615 155.135 219.652C155.32 221.874 154.579 223.355 153.098 224.281C151.246 225.392 148.654 225.762 145.321 225.392C144.395 225.207 143.84 225.207 143.655 225.207C143.099 225.392 142.359 225.392 141.803 225.392C141.062 225.392 140.322 225.577 139.766 225.762C138.1 226.318 135.878 226.318 133.286 225.577C131.99 224.652 131.249 223.541 131.064 221.874C131.064 220.763 131.619 219.652 132.175 218.356C133.286 217.06 134.582 216.319 136.063 216.134C137.359 216.134 138.285 215.764 139.026 215.579ZM119.399 148.736C119.954 148.366 120.325 147.995 120.51 147.44C120.695 146.699 121.621 146.329 123.657 146.329C125.139 146.329 126.435 146.884 127.361 147.995C128.286 149.477 129.027 150.958 129.212 152.439C129.397 153.18 129.583 153.735 129.953 154.291C130.138 154.846 130.138 155.402 129.953 155.957C130.323 157.253 130.323 158.364 130.508 158.92C130.694 159.66 130.508 160.771 130.138 162.067C129.397 163.734 128.657 164.66 127.731 165.03C126.805 165.4 125.694 164.845 124.213 163.364C122.176 162.067 121.065 160.586 120.695 159.105C119.769 156.883 119.214 155.402 119.028 154.476C119.028 153.92 118.843 152.809 118.658 151.328C118.658 149.662 118.843 148.736 119.399 148.736ZM72.1829 169.844C71.9978 169.844 71.9978 170.029 72.1829 169.844C71.2571 170.585 70.1462 170.955 68.4797 171.14C67.1836 171.325 66.2578 172.066 65.8875 173.362C65.1468 175.214 63.8507 176.695 61.9991 177.806C60.703 178.547 60.1475 179.472 59.9624 180.769C59.7772 182.435 59.2217 183.731 58.2959 184.657C56.9998 185.768 56.4443 186.879 56.4443 187.805C56.8146 189.471 57.7404 191.138 59.2217 192.804C60.3327 193.359 61.4436 193.73 62.5546 193.73C64.0359 193.915 64.9617 194.1 65.7023 194.47C66.6281 195.026 67.5539 195.211 68.1094 194.841C69.4055 194.285 70.5165 194.285 71.072 194.47C72.1829 194.656 73.6642 194.47 75.3306 193.73C76.9971 192.989 78.4784 191.693 79.7745 190.212C79.7745 190.027 79.7745 190.027 79.7745 189.841C79.7745 188.175 79.9596 186.694 80.33 185.768C80.8854 184.472 81.0706 182.991 80.8854 181.139C80.7003 179.472 80.33 178.176 79.5893 177.436C79.4042 177.065 79.219 176.51 78.8487 175.769C78.4784 174.658 77.9229 173.733 77.1822 173.177C76.8119 172.807 76.6268 172.436 76.4416 172.066C76.2564 171.696 76.0713 171.511 75.8861 171.14C74.7752 170.77 73.479 170.4 72.1829 169.844ZM46.6308 192.989C46.816 191.878 46.6308 190.582 46.2605 189.286C45.8902 187.805 46.2605 186.138 47.3715 184.287C48.8528 180.954 50.334 178.917 51.8153 178.362C52.7411 177.806 53.2966 176.88 53.4818 175.399C53.4818 174.103 54.2224 172.436 55.5185 170.585C56.2592 168.918 56.2592 167.252 55.7037 165.771C55.5185 165.03 55.3334 164.289 54.5927 163.549C54.0372 162.623 53.2966 162.253 52.7411 162.067C51.0747 161.512 50.1489 160.771 49.5934 159.66C49.2231 159.105 48.6676 158.735 48.1121 158.549C47.3715 158.179 47.0012 157.624 47.1863 156.698C47.3715 156.142 47.0012 155.402 46.2605 154.846C45.5199 154.106 45.1496 153.365 45.1496 152.439C44.9644 149.662 45.3347 147.995 45.8902 147.625C46.6308 147.069 46.816 146.329 46.816 145.773C46.816 144.848 47.5566 142.811 49.0379 139.848C50.8895 136.33 52.1856 134.293 52.7411 133.738C53.1114 133.553 53.4818 132.812 53.8521 131.886C54.2224 131.146 54.7779 130.405 55.5185 129.85C56.074 129.479 56.4443 128.924 56.6295 128.183C56.8146 127.257 57.3701 126.702 58.1108 126.332C58.6662 126.146 59.2217 125.406 59.9624 124.295C61.4436 121.517 62.7398 120.036 63.6656 120.221C64.5914 120.221 65.332 120.036 65.8875 119.666C66.8133 119.11 68.1094 118.925 69.5907 119.295C70.7016 119.666 71.6274 119.851 72.1829 119.666C73.6642 119.295 75.5158 119.666 77.5526 120.777C79.9596 122.443 81.0706 124.11 81.2558 125.961C81.4409 127.813 81.0706 128.739 80.33 129.109C78.6635 130.405 77.5526 130.961 76.4416 130.775C75.3306 130.59 74.59 130.775 74.2197 131.146C73.479 131.701 72.5532 131.886 71.6274 131.886C70.7016 131.701 69.961 131.886 69.2204 132.442C68.6649 132.997 68.1094 133.182 67.7391 133.182C67.1836 132.997 66.6281 133.368 66.0726 134.108C65.332 135.034 64.7765 135.775 64.7765 136.515C64.5914 137.626 64.221 138.182 63.6656 138.552C62.9249 139.108 62.3694 140.033 61.9991 141.144C61.4436 142.44 61.0733 143.181 60.703 143.181C59.9624 143.737 59.4069 145.033 59.0366 147.44C57.7404 150.032 57.3701 152.069 57.9256 153.18C59.0366 154.846 59.9624 155.957 60.5178 156.327C61.2585 156.513 61.6288 156.883 61.6288 157.253C61.814 157.994 62.7398 158.549 63.8507 158.549C64.9617 158.735 65.5172 158.92 65.8875 159.105C67.1836 159.846 68.2946 159.66 69.2204 158.735C69.961 157.994 70.7016 157.438 71.4423 157.438C72.5532 157.253 73.2939 156.698 73.6642 155.402C74.0345 154.661 74.2197 154.291 74.59 153.92C75.5158 153.365 76.2564 152.254 76.6268 150.773C76.9971 149.662 77.3674 148.921 77.7377 148.551C78.4784 147.81 78.6635 147.069 78.2932 146.329C78.2932 145.588 77.1822 144.662 75.3306 143.737C74.59 143.181 74.59 142.255 75.1455 140.589C75.701 139.663 76.4416 139.108 77.7377 139.108C78.4784 138.922 79.0338 138.737 79.5893 138.367C80.33 137.811 81.0706 137.811 81.9964 138.182C82.5519 138.552 83.2925 138.552 84.4035 138.552C87.1809 138.737 89.4028 140.033 91.0693 142.255C92.1802 143.737 92.5505 144.662 91.9951 145.403C91.4396 146.144 91.6247 147.255 92.1802 148.551C92.5505 149.662 92.5505 150.958 92.1802 152.069C91.4396 153.735 90.5138 154.846 89.588 154.846C87.1809 155.587 85.3293 156.698 84.0332 157.994C83.1074 158.735 82.737 159.66 82.5519 160.401C82.3667 160.956 81.9964 161.512 81.9964 162.067C81.9964 162.438 81.9964 162.623 82.1816 162.623C82.3667 163.549 82.5519 164.845 82.5519 166.326C82.737 166.511 82.737 166.511 82.9222 166.696C83.1074 167.252 83.4777 167.622 83.848 167.807C84.7738 168.178 85.5145 168.918 85.8848 170.214C86.2551 171.14 86.8106 172.066 87.5512 172.622C88.2918 172.992 88.8473 173.918 89.2177 175.029C89.9583 177.065 90.5138 178.917 90.5138 180.398C90.6989 182.435 91.0693 183.916 91.4396 184.842C91.9951 186.138 92.1802 187.434 91.9951 188.36C91.8099 190.397 91.2544 192.249 90.1435 193.73C89.4028 194.47 88.477 195.026 87.7364 195.396C87.1809 195.952 86.4403 196.507 85.5145 197.248C83.6628 198.359 82.1816 199.84 80.8854 201.321C79.0338 203.543 76.4416 204.839 72.9236 205.025C71.6274 205.025 70.3313 205.21 69.0352 205.58C67.3688 205.95 65.8875 205.765 64.4062 204.839C62.3694 203.728 60.703 203.358 58.8514 203.358C56.074 203.543 53.2966 202.617 50.7044 200.396C47.5566 197.248 46.4457 194.47 46.6308 192.989ZM80.7003 209.468C81.2558 209.098 81.6261 208.543 81.8112 207.987C81.9964 207.246 83.1074 206.876 85.3293 206.876C86.8106 206.876 88.1067 207.432 89.2177 208.728C90.3286 210.209 90.8841 211.69 91.2544 213.172C91.4396 213.912 91.6247 214.653 91.8099 215.208C91.9951 215.764 91.9951 216.504 91.8099 217.06C92.1802 218.356 92.3654 219.467 92.3654 220.208C92.5505 221.133 92.3654 222.059 91.9951 223.355C91.0693 225.022 90.1435 226.133 89.2177 226.318C88.2919 226.688 86.9957 226.133 85.3293 224.652C83.2925 223.17 82.1816 221.504 81.8112 220.023C80.7003 217.615 80.1448 216.134 80.1448 215.208C80.1448 214.468 79.9596 213.357 79.5893 211.875C79.9596 210.394 80.33 209.468 80.7003 209.468ZM65.1468 213.727C65.7023 213.542 66.2578 213.172 66.6281 212.801C66.9984 212.061 68.1094 212.061 70.1462 212.801C71.4423 213.357 72.5532 214.097 73.1087 215.394C73.6642 217.06 73.8494 218.726 73.6642 220.208C73.479 222.8 73.8494 225.022 74.4048 227.244C74.59 229.281 74.2197 231.317 73.2939 233.354C73.1087 234.65 73.1087 235.761 72.9236 236.502C72.7384 237.428 72.3681 238.353 71.6274 239.279C70.3313 240.575 69.2204 241.316 68.2946 241.316C67.3688 241.501 66.443 240.575 65.332 238.724C64.0359 236.687 63.2952 235.02 63.4804 233.539C62.7398 228.355 62.3694 224.837 62.7398 222.985C63.1101 221.689 63.2952 219.282 63.6656 215.949C64.221 214.468 64.7765 213.727 65.1468 213.727ZM47.5566 214.838C48.2973 212.061 49.4082 210.394 51.0747 209.839C52.7411 209.283 54.2224 209.839 55.3334 211.505C56.2592 212.986 56.2592 214.838 55.3334 217.245C55.1482 218.912 55.1482 220.763 55.1482 222.615C55.7037 224.466 55.5185 226.133 54.7779 227.614C54.0372 229.281 53.1114 230.762 52.0005 232.058C51.2598 233.539 50.7044 235.206 50.1489 237.057C49.5934 238.909 48.8528 240.205 47.7418 240.76C46.6308 241.501 45.1496 241.686 43.298 241.316C41.6315 240.76 40.7057 239.649 40.3354 237.983C39.7799 236.131 39.9651 234.095 40.5206 232.058C41.2612 230.577 41.8167 228.725 42.187 226.503C42.187 223.355 43.298 220.578 45.3347 218.171C46.2605 217.06 47.1863 215.949 47.5566 214.838ZM244.197 223.17C245.122 222.059 246.419 221.133 248.085 220.393C249.566 219.652 250.862 218.726 251.973 217.615C254.01 216.134 255.677 215.023 256.973 214.468C259.195 213.172 261.972 211.32 265.305 209.283C267.897 207.432 269.749 205.95 271.045 205.395C271.785 204.284 272.711 203.358 273.822 202.617C276.6 200.951 279.192 199.099 281.599 196.878C283.636 195.581 285.302 195.026 286.783 195.396C289.005 195.952 290.116 197.248 289.931 199.285C289.561 201.136 288.265 202.803 286.228 204.099C285.117 204.839 284.191 205.765 283.265 207.061C281.043 208.913 279.007 210.579 277.155 212.061C275.674 212.801 274.378 213.912 273.267 215.579C271.045 217.801 269.008 219.282 267.156 220.023C266.601 220.948 266.416 222.059 266.231 223.17C265.86 224.837 265.675 225.762 265.49 225.762C264.749 225.577 263.824 225.577 263.083 225.762C262.342 225.948 261.417 225.948 260.12 226.133C259.75 226.133 259.565 226.133 259.38 226.318C259.195 226.318 259.195 226.318 259.009 226.503C257.713 227.429 256.417 228.355 255.491 229.651C254.566 230.577 252.899 231.688 250.307 232.613C249.011 233.169 247.529 234.28 245.863 235.761C244.567 236.687 242.53 237.798 239.382 239.094C235.494 241.131 232.532 242.057 231.05 242.057C230.124 242.057 228.643 242.612 226.606 244.093C224.384 245.575 221.977 246.5 219.941 246.5C217.163 246.871 215.126 246.5 213.645 245.575C211.794 244.464 210.497 242.612 209.942 240.39C209.572 238.724 210.497 237.057 212.349 235.02C214.016 233.354 216.237 232.428 218.83 232.243C223.274 231.688 226.421 230.762 228.088 229.651C229.199 228.91 231.05 228.355 233.272 227.984C239.197 226.133 242.715 224.466 244.197 223.17ZM283.451 245.575C281.043 246.5 279.192 246.871 277.896 246.5C276.229 245.945 274.933 245.575 274.007 245.575C271.971 245.204 270.674 244.649 270.119 243.723C269.749 242.612 269.008 241.686 268.267 240.76C267.342 240.02 266.971 239.094 266.786 238.168C266.601 237.428 266.231 236.687 265.675 235.946C264.564 234.465 264.009 232.984 264.009 231.502C263.824 229.836 264.379 228.725 265.12 228.17C266.416 227.244 268.267 227.244 270.304 228.54C271.23 229.095 272.341 229.836 273.637 230.947C274.378 231.317 274.933 231.502 275.674 231.502C277.525 232.058 280.303 231.873 283.821 230.947C288.45 230.021 291.412 228.91 292.709 227.799C293.079 227.059 293.82 226.503 294.745 226.503C296.782 225.577 299.004 223.726 301.411 220.578C302.337 219.282 303.078 218.356 303.818 217.615C305.485 215.949 306.966 212.986 308.262 209.098C309.003 205.025 309.003 202.062 308.077 200.396C306.966 197.248 305.114 194.47 302.337 192.063C301.781 191.693 301.411 191.508 301.041 191.508C299.745 191.508 298.634 191.693 298.078 191.693C296.597 192.063 295.486 192.249 294.56 192.249C293.634 192.434 292.894 192.619 292.153 192.619C291.598 192.619 291.042 191.508 290.672 189.656C290.116 187.62 289.376 185.953 288.82 184.657C288.45 184.101 288.265 183.546 288.08 183.361C287.524 183.176 286.969 182.991 286.413 182.991C283.821 182.435 282.154 182.435 281.229 182.805C279.377 183.361 277.896 183.361 276.97 183.176C276.785 183.176 276.785 183.176 276.6 183.176C276.044 184.657 274.933 185.953 273.082 187.064C271.971 187.805 271.23 188.545 270.489 189.471C268.453 191.138 266.601 192.619 264.749 193.915C263.453 194.656 262.157 195.767 261.231 197.063C259.009 198.914 257.158 200.21 255.677 201.136C254.751 201.692 253.64 202.432 252.714 203.358C251.233 204.839 249.751 205.95 248.27 206.876C246.974 207.432 245.863 208.357 244.937 209.468C244.011 210.579 242.345 211.505 240.308 212.061C239.197 212.616 237.901 213.542 236.42 215.023C235.124 215.764 233.087 216.69 230.495 217.986C226.977 219.652 224.384 220.393 222.903 220.393C222.163 220.208 220.866 220.948 219.015 222.059C216.978 223.355 214.941 224.096 212.905 224.281C210.312 224.466 208.461 224.096 207.165 223.17C205.498 222.059 204.387 220.578 204.017 218.356C203.647 217.06 204.387 215.394 206.239 213.727C207.905 212.246 209.942 211.32 212.164 211.32C216.423 210.95 219.2 210.209 220.681 209.283C221.607 208.728 223.274 208.172 225.31 207.802C230.31 206.136 233.457 204.654 234.939 203.358C235.864 202.432 236.975 201.692 238.642 200.951C239.938 200.21 241.234 199.47 242.16 198.544C244.011 197.248 245.493 196.322 246.789 195.767C249.011 194.47 251.603 192.989 254.566 191.138C256.973 189.471 258.639 188.36 259.565 187.62C260.306 186.694 261.231 185.953 262.157 185.212C264.379 184.101 266.231 182.805 268.082 181.324L267.897 181.139C266.601 180.398 265.86 178.917 265.86 176.695C266.045 174.658 267.156 173.177 269.193 172.251C271.23 171.511 273.267 171.325 275.118 171.325C276.97 171.511 279.007 171.696 281.043 172.066C283.265 172.807 284.932 172.992 286.228 172.622C286.969 172.251 288.08 172.251 289.191 172.251C290.301 172.807 291.783 172.992 293.264 172.992C294.19 172.807 295.301 173.177 296.597 173.918C298.819 175.584 301.041 176.695 303.263 177.621C305.299 178.547 306.781 179.658 307.336 180.769C308.632 182.25 310.669 184.101 313.076 185.768C314.187 186.509 314.743 187.62 314.743 189.101C315.298 190.212 316.039 191.693 316.965 193.545C317.89 194.656 318.446 196.137 318.261 197.618C318.446 198.729 319.001 199.84 319.557 200.766C320.112 201.507 320.112 202.432 319.742 203.173C319.186 204.284 319.001 205.58 319.372 207.061C320.112 208.172 319.742 210.394 318.446 213.542C318.261 214.283 318.076 215.394 318.076 216.504C318.076 218.171 317.15 220.393 315.298 223.355C312.891 226.318 311.225 227.799 310.299 227.799C309.558 228.355 309.003 229.095 308.447 230.391C306.966 232.243 304.744 234.28 301.781 236.131C295.856 240.205 291.598 242.427 289.561 242.797C288.08 243.908 286.043 244.649 283.451 245.575ZM236.05 127.072C233.272 126.332 231.791 124.85 231.791 122.628C231.791 120.406 232.346 118.925 234.013 117.629C235.864 116.148 238.086 115.222 240.864 115.222C242.53 115.037 244.197 114.852 246.048 114.481C248.64 113.555 251.418 113 254.751 113C258.824 113 261.972 113 264.194 113.37C267.156 114.111 270.304 114.296 273.637 113.926C278.636 113.185 283.08 113.741 286.969 115.592C287.894 116.333 289.376 116.518 291.227 116.518C293.264 116.703 295.301 117.629 297.523 119.295C299.93 120.777 301.226 122.073 301.226 123.184C301.411 124.295 301.781 125.406 302.892 126.332C304.188 127.628 304.744 130.22 304.559 133.738C304.929 135.404 305.299 137.071 305.855 138.182C306.596 139.478 306.966 141.515 306.966 144.107C306.966 147.255 306.966 150.217 306.966 152.809C306.781 156.883 305.855 159.846 304.003 161.697C302.522 163.919 300.115 165.771 296.967 166.882C294.56 168.178 291.598 168.733 287.709 168.363C285.117 168.178 282.895 168.178 281.043 168.733C279.007 169.474 276.97 169.659 275.118 169.104C273.452 168.363 271.6 168.178 269.749 168.733C267.527 169.844 265.675 169.844 263.824 169.104C262.527 168.548 261.046 168.363 259.38 168.733C258.824 170.4 258.269 172.066 257.343 173.733C256.417 175.029 255.121 176.325 253.455 177.621C252.529 178.362 251.788 179.102 251.048 180.028C250.307 181.509 249.381 182.435 248.27 182.805C246.974 183.361 245.678 184.101 244.752 185.027C243.086 186.694 241.234 187.99 239.012 188.73C237.346 189.471 235.679 190.397 234.198 191.323C232.902 192.434 230.865 192.989 228.088 192.989C225.681 193.174 223.644 193.73 221.977 194.841C220.126 195.767 218.645 196.137 217.719 195.952C216.608 195.767 215.682 195.952 214.941 196.137C212.719 197.063 210.312 197.063 207.72 196.507C205.868 195.952 204.758 195.211 204.758 194.656C204.572 193.915 204.387 193.359 204.017 193.359C203.647 192.989 203.461 192.434 203.276 191.508C203.091 190.027 203.461 188.545 204.387 187.434C205.313 186.509 206.609 185.768 208.276 185.212C210.127 184.657 211.979 184.657 213.83 185.027C215.126 185.398 216.608 185.398 218.459 185.398C220.311 185.212 221.977 184.657 223.459 183.731C224.94 182.62 226.606 181.88 228.458 181.88C230.31 181.509 231.976 180.769 233.457 179.472C234.753 178.362 236.235 177.806 237.901 177.436C240.123 176.325 241.975 175.029 243.456 173.177C244.011 172.066 244.567 171.14 245.308 170.4C242.9 169.659 240.493 169.844 238.457 170.77C236.975 171.325 234.753 171.14 231.421 170.214C228.088 169.289 226.051 168.178 225.31 166.511C224.94 165.03 224.014 163.549 222.163 162.253C220.681 161.327 220.126 159.475 220.496 156.327C220.311 151.698 220.126 147.995 219.755 145.033C219.2 143.366 219.2 141.515 219.57 139.848C219.755 138.737 219.755 137.441 219.755 136.145C219.57 133.553 220.126 131.146 221.052 129.109C221.792 127.628 222.533 126.517 223.459 125.961C224.384 125.221 225.31 124.85 226.236 124.85C227.347 125.035 228.458 125.406 229.199 125.776C230.124 126.517 230.68 127.628 231.05 129.109C231.791 130.775 231.791 133.738 231.421 137.626C230.68 142.255 230.68 145.773 231.05 148.18C231.606 151.328 232.346 153.365 233.457 154.661C234.568 156.698 236.42 157.994 238.827 158.735C242.345 159.846 246.419 159.66 250.677 158.364C256.232 156.698 261.787 156.513 267.156 157.809C270.489 158.549 273.637 158.549 276.229 157.438C278.822 156.698 281.784 156.327 285.117 156.513C287.894 156.883 290.116 156.142 291.598 154.291C292.894 153.365 294.005 151.513 294.745 148.921C295.116 145.958 294.93 143.551 294.005 141.329C293.264 139.293 292.894 137.626 292.894 136.145C292.709 135.034 292.523 133.923 292.153 132.812C291.042 131.331 290.301 130.405 290.301 129.85C289.931 128.739 289.376 127.813 288.635 127.442C287.524 127.072 286.783 126.517 286.043 125.961C285.117 124.665 280.673 123.924 272.711 123.554C267.342 123.739 262.713 123.554 259.195 123.184C254.38 122.258 249.751 122.813 245.678 124.85C242.715 127.072 239.382 127.628 236.05 127.072ZM255.306 136.515C259.009 135.775 262.527 135.59 266.231 136.33C269.008 137.071 271.6 137.256 273.637 136.7C276.229 135.96 278.451 136.145 280.118 137.071C281.784 138.367 282.71 140.033 282.895 142.255C282.525 144.292 281.599 145.588 280.488 146.329C278.822 147.069 277.155 147.069 275.489 146.514C272.526 145.773 269.749 145.588 267.527 146.329C264.749 147.44 262.157 147.44 259.565 146.514C257.158 145.958 253.825 146.144 249.751 147.069C246.789 147.995 244.197 147.995 241.975 147.069C240.493 145.773 239.753 144.292 239.753 142.44C239.938 140.589 240.679 139.108 241.975 137.997C243.271 136.7 244.937 136.515 247.159 137.071C249.196 137.626 251.973 137.441 255.306 136.515Z" fill="#DC030F"/>
</svg>
