<svg fill="none" height="360" viewBox="0 0 360 360" width="360" xmlns="http://www.w3.org/2000/svg"><path d="m0 132.02c0-46.6982 0-70.0474 9.2321-87.8199 7.7798-14.9767 19.9913-27.1882 34.968-34.968 17.7725-9.2321 41.1217-9.2321 87.8199-9.2321h95.96c46.698 0 70.047 0 87.82 9.2321 14.977 7.7798 27.188 19.9913 34.968 34.968 9.232 17.7725 9.232 41.1217 9.232 87.8199v95.96c0 46.698 0 70.047-9.232 87.82-7.78 14.977-19.991 27.188-34.968 34.968-17.773 9.232-41.122 9.232-87.82 9.232h-95.96c-46.6982 0-70.0474 0-87.8199-9.232-14.9767-7.78-27.1882-19.991-34.968-34.968-9.2321-17.773-9.2321-41.122-9.2321-87.82z" fill="#77b900"/><path d="m65.7685 167.634s23.6885-34.951 70.9865-38.566v-12.681c-52.3885 4.208-97.755 48.579-97.755 48.579s25.6948 74.279 97.755 81.08v-13.478c-52.8811-6.653-70.9865-64.934-70.9865-64.934zm70.9865 38.13v12.343c-39.9663-7.125-51.0601-48.671-51.0601-48.671s19.1891-21.258 51.0601-24.705v13.544c-.024 0-.041-.007-.061-.007-16.727-2.008-29.795 13.619-29.795 13.619s7.324 26.306 29.856 33.877zm0-112.764v23.387c1.538-.117 3.076-.217 4.622-.27 59.561-2.007 98.368 48.849 98.368 48.849s-44.572 54.198-91.008 54.198c-4.256 0-8.24-.395-11.982-1.058v14.462c3.2.406 6.518.645 9.98.645 43.212 0 74.462-22.068 104.721-48.187 5.016 4.018 25.556 13.792 29.778 18.071-28.771 24.088-95.823 43.505-133.837 43.505-3.664 0-7.183-.222-10.642-.556v20.322h164.245v-173.368zm0 51.731v-15.662c1.522-.107 3.056-.189 4.622-.238 42.83-1.346 70.929 36.805 70.929 36.805s-30.35 42.151-62.891 42.151c-4.683 0-8.882-.753-12.661-2.023v-47.489c16.674 2.015 20.03 9.38 30.054 26.091l22.295-18.799s-16.275-21.345-43.71-21.345c-2.982-.001-5.836.209-8.638.509z" fill="#fff"/></svg>