<svg fill="none" height="360" viewBox="0 0 360 360" width="360" xmlns="http://www.w3.org/2000/svg" xmlns:xlink="http://www.w3.org/1999/xlink"><radialGradient id="a" cx="0" cy="0" gradientTransform="matrix(0 180 -180 0 180 180)" gradientUnits="userSpaceOnUse" r="1"><stop offset=".0296337" stop-color="#df002c" stop-opacity=".15"/><stop offset=".428727" stop-color="#0096d6" stop-opacity=".15"/><stop offset=".587985" stop-color="#eb7b30" stop-opacity=".15"/><stop offset=".715351" stop-color="#00984a" stop-opacity=".15"/></radialGradient><path d="m0 132.02c0-46.6982 0-70.0474 9.2321-87.8199 7.7798-14.9767 19.9913-27.1882 34.968-34.968 17.7725-9.2321 41.1217-9.2321 87.8199-9.2321h95.96c46.698 0 70.047 0 87.82 9.2321 14.977 7.7798 27.188 19.9913 34.968 34.968 9.232 17.7725 9.232 41.1217 9.232 87.8199v95.96c0 46.698 0 70.047-9.232 87.82-7.78 14.977-19.991 27.188-34.968 34.968-17.773 9.232-41.122 9.232-87.82 9.232h-95.96c-46.6982 0-70.0474 0-87.8199-9.232-14.9767-7.78-27.1882-19.991-34.968-34.968-9.2321-17.773-9.2321-41.122-9.2321-87.82z" fill="url(#a)"/><circle cx="180" cy="180" fill="#4681c7" fill-opacity=".06" r="155.455"/><circle cx="180" cy="180" r="155.205" stroke="#2869bf" stroke-opacity=".04" stroke-width=".5"/><g clip-rule="evenodd" fill-rule="evenodd"><path d="m179.639 25c-48.78 0-105.9779 39.7268-105.9779 76.041 0 14.047 11.3873 25.913 34.9549 25.913 54.712 0 105.542-42.4157 105.542-75.3981 0-17.3557-14.771-26.5559-34.519-26.5559zm19.475 25.5308c0 27.8016-47.312 61.7862-86.861 61.7862-17.4733 0-26.9142-7.76-26.9142-20.5639 0-28.2007 47.8492-61.608 84.9462-61.608 24.186 0 28.829 13.8878 28.829 20.3857z" fill="#0096d6"/><path d="m54.2304 117.855c-1.3713 2.676-6.8622 14.809-6.8622 27.24 0 23.056 20.6442 44.46 58.6148 44.46 73.047 0 157.441-60.674 157.441-116.9938 0-25.281-21.207-39.026-35.932-41.8678l-.276.9862c4.579 1.635 21.357 10.4361 21.357 32.9564 0 44.875-74.513 106.019-148.736 106.019-28.415 0-46.3167-15.828-46.3167-38.883 0-7.293 1.3455-12.097 1.7019-13.489z" fill="#eb7b30"/><path d="m293.541 76.772c2.004 1.7161 14.035 13.0314 14.035 34.429 0 72.959-101.304 144.702-190.864 144.702-53.4087 0-77.7558-29.758-76.6778-56.181h.9574c2.0929 13.722 19.4339 38.277 66.1794 38.277 89.672 0 189.794-74.234 189.794-139.2745 0-11.1563-2.685-18.1083-4.203-21.1999z" fill="#00984a"/><path d="m327.397 144.884c.42 1.554 2.602 8.539 2.602 19.478 0 81.16-102.52 150.641-191.683 150.641-45.8912 0-69.8559-25.155-74.9156-35.37l.8164-.681c12.6982 12.531 37.7092 22.053 66.8982 22.053 78.747 0 196.251-67.607 195.202-155.826z" fill="#df002c"/></g></svg>