<svg fill="none" height="360" viewBox="0 0 360 360" width="360" xmlns="http://www.w3.org/2000/svg"><path d="m0 132.02c0-46.6982 0-70.0474 9.2321-87.8199 7.7798-14.9767 19.9913-27.1882 34.968-34.968 17.7725-9.2321 41.1217-9.2321 87.8199-9.2321h95.96c46.698 0 70.047 0 87.82 9.2321 14.977 7.7798 27.188 19.9913 34.968 34.968 9.232 17.7725 9.232 41.1217 9.232 87.8199v95.96c0 46.698 0 70.047-9.232 87.82-7.78 14.977-19.991 27.188-34.968 34.968-17.773 9.232-41.122 9.232-87.82 9.232h-95.96c-46.6982 0-70.0474 0-87.8199-9.232-14.9767-7.78-27.1882-19.991-34.968-34.968-9.2321-17.773-9.2321-41.122-9.2321-87.82z" fill="#335da3"/><path d="m179.612 50c-67.324 0-121.612 52.342-121.612 122.196 0 70.049 54.288 122.196 121.612 122.196 11.48 0 22.571-1.557 33.079-4.475l13.231 34.051c1.362 3.697 4.086 6.032 8.951 6.032h21.014c5.059 0 8.757-3.308 6.422-9.729l-17.123-44.559c33.662-21.209 56.038-58.763 56.038-103.711 0-69.659-54.287-122.001-121.612-122.001zm52.926 193.218-15.372-39.889c-1.362-3.308-4.086-6.421-9.923-6.421h-20.042c-5.059 0-8.951 3.307-6.616 9.729l20.236 52.341c-6.615 1.752-13.815 2.53-21.209 2.53-49.228 0-84.2527-38.721-84.2527-89.312s35.0247-89.3121 84.2527-89.3121c49.229 0 84.253 38.7211 84.253 89.3121 0 29.576-11.869 54.871-31.327 71.022z" fill="#fff"/></svg>