<svg width="360" height="360" viewBox="0 0 360 360" fill="none" xmlns="http://www.w3.org/2000/svg">
<path d="M0 132.02C0 85.3218 0 61.9726 9.2321 44.2001C17.0119 29.2234 29.2234 17.0119 44.2001 9.2321C61.9726 0 85.3218 0 132.02 0H227.98C274.678 0 298.027 0 315.8 9.2321C330.777 17.0119 342.988 29.2234 350.768 44.2001C360 61.9726 360 85.3218 360 132.02V227.98C360 274.678 360 298.027 350.768 315.8C342.988 330.777 330.777 342.988 315.8 350.768C298.027 360 274.678 360 227.98 360H132.02C85.3218 360 61.9726 360 44.2001 350.768C29.2234 342.988 17.0119 330.777 9.2321 315.8C0 298.027 0 274.678 0 227.98V132.02Z" fill="#042D42"/>
<path d="M106.252 219.446C107.596 221.118 109.55 222.188 111.683 222.421C113.816 222.655 115.954 222.032 117.629 220.691C118.457 220.023 119.146 219.199 119.656 218.266C120.165 217.332 120.486 216.307 120.599 215.25C120.713 214.192 120.617 213.122 120.317 212.102C120.017 211.081 119.519 210.13 118.852 209.302C112.093 200.943 108.426 190.508 108.469 179.759C108.469 169.109 111.92 159.06 118.478 150.696C119.793 149.004 120.385 146.859 120.124 144.732C119.864 142.604 118.771 140.666 117.086 139.342C116.25 138.684 115.292 138.199 114.267 137.913C113.243 137.627 112.172 137.546 111.117 137.675C110.061 137.804 109.041 138.141 108.116 138.665C107.191 139.189 106.378 139.891 105.725 140.731C96.9245 151.959 92.2882 165.456 92.2882 179.759C92.2882 194.159 97.2494 208.255 106.254 219.448L106.252 219.446ZM89.1562 119.626C87.4447 118.334 85.2906 117.773 83.1663 118.067C81.042 118.361 79.121 119.485 77.8246 121.194C64.8363 138.283 57.9625 158.698 57.9625 180.233C57.9625 201.58 64.7212 221.856 77.5082 238.871C78.7981 240.583 80.7143 241.714 82.8368 242.016C84.9594 242.318 87.115 241.766 88.8312 240.481C90.5443 239.191 91.6753 237.274 91.9756 235.151C92.276 233.028 91.7212 230.872 90.4332 229.158C79.7803 214.968 74.1403 198.051 74.1403 180.236C74.1403 162.267 79.8637 145.235 90.692 130.969C91.9892 129.26 92.5553 127.106 92.2663 124.979C91.9773 122.853 90.8568 120.928 89.1505 119.626H89.1562ZM41.2008 179.957C41.2008 154.355 48.8051 129.701 63.2142 108.666C64.427 106.895 64.8867 104.715 64.4922 102.605C64.0976 100.495 62.8811 98.6287 61.1103 97.4159C59.3396 96.2031 57.1595 95.7434 55.0498 96.1379C52.94 96.5325 51.0735 97.749 49.8606 99.5197C33.5994 123.264 25 151.073 25 179.963C25 208.919 33.6368 236.788 49.9872 260.567C50.5883 261.443 51.3564 262.192 52.2473 262.77C53.1382 263.349 54.1345 263.746 55.1791 263.939C56.2237 264.132 57.2961 264.117 58.3348 263.895C59.3736 263.672 60.3583 263.247 61.2326 262.644C62.1089 262.043 62.8582 261.276 63.4377 260.386C64.0172 259.495 64.4154 258.499 64.6096 257.455C64.8038 256.41 64.7901 255.338 64.5695 254.299C64.3488 253.259 63.9254 252.274 63.3235 251.399C48.8368 230.337 41.2066 205.629 41.2066 179.957H41.2008ZM242.402 220.691C244.078 222.033 246.217 222.656 248.352 222.423C250.486 222.189 252.44 221.119 253.786 219.446C262.809 208.184 267.731 194.187 267.743 179.756C267.743 165.453 263.101 151.956 254.318 140.728C253.664 139.889 252.851 139.188 251.925 138.664C250.999 138.14 249.979 137.803 248.924 137.674C247.868 137.545 246.797 137.625 245.772 137.91C244.747 138.195 243.789 138.68 242.952 139.336C242.114 139.99 241.414 140.804 240.891 141.729C240.368 142.655 240.033 143.674 239.904 144.73C239.776 145.785 239.857 146.855 240.143 147.879C240.429 148.903 240.915 149.86 241.571 150.696C248.09 158.976 251.618 169.218 251.58 179.756C251.58 190.628 247.976 200.858 241.183 209.305C240.515 210.133 240.017 211.084 239.717 212.105C239.416 213.125 239.32 214.195 239.434 215.253C239.547 216.31 239.868 217.335 240.378 218.269C240.888 219.203 241.577 220.027 242.405 220.694L242.402 220.691ZM271.195 240.481C272.912 241.766 275.069 242.317 277.193 242.016C279.317 241.714 281.234 240.583 282.526 238.871C295.313 221.859 302.066 201.568 302.066 180.228C302.066 158.695 295.207 138.275 282.221 121.191C280.925 119.483 279.004 118.358 276.88 118.064C274.755 117.77 272.601 118.331 270.89 119.623C270.043 120.266 269.33 121.069 268.793 121.987C268.257 122.904 267.906 123.919 267.761 124.972C267.616 126.025 267.68 127.097 267.95 128.125C268.219 129.154 268.688 130.119 269.331 130.967C280.168 145.232 285.891 162.264 285.891 180.233C285.891 198.036 280.271 214.962 269.598 229.155C268.959 230.004 268.493 230.97 268.227 231.998C267.961 233.027 267.901 234.098 268.05 235.15C268.198 236.202 268.553 237.214 269.093 238.129C269.633 239.044 270.348 239.843 271.197 240.481H271.195ZM296.823 108.671C311.224 129.704 318.834 154.36 318.834 179.954C318.834 205.626 311.178 230.343 296.717 251.396C296.115 252.271 295.691 253.256 295.47 254.295C295.249 255.334 295.234 256.406 295.428 257.451C295.622 258.495 296.019 259.491 296.598 260.382C297.177 261.272 297.926 262.04 298.802 262.641C299.676 263.245 300.66 263.671 301.699 263.894C302.737 264.116 303.81 264.132 304.854 263.94C305.899 263.747 306.895 263.351 307.787 262.773C308.678 262.194 309.446 261.446 310.047 260.57C326.363 236.785 335 208.916 335 179.954C335 151.079 326.409 123.259 310.157 99.5169C308.934 97.7693 307.072 96.5751 304.973 96.1943C302.875 95.8135 300.711 96.2768 298.953 97.4834C297.195 98.69 295.984 100.542 295.585 102.637C295.185 104.732 295.629 106.9 296.82 108.668" fill="#00B9FF"/>
<rect x="140.23" y="140.292" width="79.2215" height="79.2215" rx="39.6108" fill="#00B9FF"/>
</svg>
