<svg fill="none" height="360" viewBox="0 0 360 360" width="360" xmlns="http://www.w3.org/2000/svg"><path d="m0 132.02c0-46.6982 0-70.0474 9.2321-87.8199 7.7798-14.9767 19.9913-27.1882 34.968-34.968 17.7725-9.2321 41.1217-9.2321 87.8199-9.2321h95.96c46.698 0 70.047 0 87.82 9.2321 14.977 7.7798 27.188 19.9913 34.968 34.968 9.232 17.7725 9.232 41.1217 9.232 87.8199v95.96c0 46.698 0 70.047-9.232 87.82-7.78 14.977-19.991 27.188-34.968 34.968-17.773 9.232-41.122 9.232-87.82 9.232h-95.96c-46.6982 0-70.0474 0-87.8199-9.232-14.9767-7.78-27.1882-19.991-34.968-34.968-9.2321-17.773-9.2321-41.122-9.2321-87.82z" fill="#002856"/><path d="m318.804 95.8808s-63.898 31.7432-118.081 59.9402h-27.554c-9.494-6.913-19.434-14.074-28.474-20.417-30.186-21.22-72.291-48.8079-72.291-48.8079-1.6077-1.0253-1.8655-.6457-.3519.5124 0 0 40.2209 30.2475 70.4319 51.4625 8.797 6.194 18.624 12.937 28.119 19.373l-4.28 16.064c-6.328 3.391-12.682 6.834-19.319 10.45h-14.63c-25.391-17.305-50.6033-33.833-50.6033-33.833-1.8321-1.229-2.1779-.832-.3701.518 0 0 22.3464 16.789 46.1784 34.088l-3.115 11.575c-45.2382 24.918-88.0071 49.193-88.0071 49.193-2.0808 1.18-1.8776 1.568.2578.479 0 0 45.7931-22.752 92.7323-46.846h18.182c1.422 1.004 2.821 2.003 4.201 2.967 6.77 4.762 14.186 9.84 21.545 14.854l-1.847 6.931c-6.437 3.531-12.928 7.161-18.867 10.544h-11.445l-2.038 7.728c-6.931 3.983-11.414 6.622-11.414 6.622-2.615 1.441-2.299 2.005.388.731 0 0 5.521-2.627 13.683-6.628h10.677l1.641-6.076c6.385-3.175 13.316-6.676 20.144-10.182h13.313c19.865 13.373 36.517 24.293 36.517 24.293 2.087 1.383 2.381.95.349-.516 0 0-15.4-11.587-34.303-25.446l2.099-7.88c22.665-12.342 47.122-26.708 47.122-26.708 2.69-1.58 2.414-2.062-.386-.734 0 0-27.129 12.952-50.512 25.167h-12.246c-7.507-5.46-15.123-10.908-22.188-15.87-1.659-1.153-3.336-2.339-5.035-3.528l1.975-7.407c7.013-3.628 13.886-7.219 20.453-10.689h28.81c8.754 5.811 14.511 9.576 14.511 9.576 1.519.986 1.832.579.346-.51 0 0-5.566-4.189-14.087-10.526l4.502-16.819c53.148-28.892 113.51-63.1675 113.51-63.1675 2.73-1.5651 2.551-1.8898-.243-.479" fill="#fff"/></svg>