<svg fill="none" height="360" viewBox="0 0 360 360" width="360" xmlns="http://www.w3.org/2000/svg" xmlns:xlink="http://www.w3.org/1999/xlink"><linearGradient id="a" gradientUnits="userSpaceOnUse" x1="163.502" x2="101.37" y1="173.007" y2="280.624"><stop offset="0" stop-color="#80b7ff"/><stop offset=".923" stop-color="#fff"/></linearGradient><path d="m0 132.02c0-46.6982 0-70.0474 9.2321-87.8199 7.7798-14.9767 19.9913-27.1882 34.968-34.968 17.7725-9.2321 41.1217-9.2321 87.8199-9.2321h95.96c46.698 0 70.047 0 87.82 9.2321 14.977 7.7798 27.188 19.9913 34.968 34.968 9.232 17.7725 9.232 41.1217 9.232 87.8199v95.96c0 46.698 0 70.047-9.232 87.82-7.78 14.977-19.991 27.188-34.968 34.968-17.773 9.232-41.122 9.232-87.82 9.232h-95.96c-46.6982 0-70.0474 0-87.8199-9.232-14.9767-7.78-27.1882-19.991-34.968-34.968-9.2321-17.773-9.2321-41.122-9.2321-87.82z" fill="#2684ff"/><path d="m131.236 154.84c-.713-.933-1.656-1.667-2.736-2.13s-2.261-.64-3.429-.513-2.284.553-3.239 1.237c-.956.685-1.718 1.604-2.215 2.669l-58.8742 117.712c-.5364 1.073-.7896 2.265-.7357 3.463s.4132 2.363 1.0437 3.383c.6306 1.02 1.5114 1.862 2.559 2.446 1.0475.585 2.227.891 3.4264.891h81.9798c1.313.031 2.606-.32 3.724-1.011 1.117-.691 2.009-1.691 2.569-2.879 17.684-36.542 6.967-92.104-24.073-125.268z" fill="url(#a)"/><path d="m174.417 47.7762c-14.67 22.5722-23.219 48.5707-24.808 75.4438-1.589 26.874 3.836 53.699 15.743 77.843l39.523 79.046c.585 1.169 1.483 2.152 2.594 2.839 1.112.687 2.393 1.051 3.7 1.051h81.965c1.199 0 2.378-.307 3.426-.891 1.047-.584 1.928-1.426 2.559-2.446.63-1.021.99-2.185 1.044-3.383.054-1.199-.2-2.391-.736-3.463 0 0-110.271-220.5671-113.042-226.0839-.548-1.123-1.401-2.0688-2.462-2.7289s-2.286-1.0078-3.536-1.0032c-1.249.0047-2.472.3614-3.528 1.0293s-1.903 1.6199-2.442 2.7469z" fill="#fff"/></svg>