<svg fill="none" height="360" viewBox="0 0 360 360" width="360" xmlns="http://www.w3.org/2000/svg"><path d="m0 132.02c0-46.6982 0-70.0474 9.2321-87.8199 7.7798-14.9767 19.9913-27.1882 34.968-34.968 17.7725-9.2321 41.1217-9.2321 87.8199-9.2321h95.96c46.698 0 70.047 0 87.82 9.2321 14.977 7.7798 27.188 19.9913 34.968 34.968 9.232 17.7725 9.232 41.1217 9.232 87.8199v95.96c0 46.698 0 70.047-9.232 87.82-7.78 14.977-19.991 27.188-34.968 34.968-17.773 9.232-41.122 9.232-87.82 9.232h-95.96c-46.6982 0-70.0474 0-87.8199-9.232-14.9767-7.78-27.1882-19.991-34.968-34.968-9.2321-17.773-9.2321-41.122-9.2321-87.82z" fill="#000"/><path clip-rule="evenodd" d="m252.429 94.433c21.814 0 47.796 2.206 55.639 6.128v27.697c0 27.942 15.932 31.864 15.932 31.864v25.736c0 17.892-3.922 29.903-3.922 29.903-8.088 1.96-27.942 7.843-49.757 23.775-15.932 12.01-29.902 29.903-29.902 47.796 0 11.765 1.96 19.853 6.127 27.697 0 0-8.088 3.921-22.059 3.921-17.648-1.961-37.501-15.932-49.512-37.746-15.932-27.697-23.775-61.522-41.668-61.522-17.892 0-17.892 17.893-31.864 17.893-15.9315 0-25.7361-25.736-29.6577-37.746-10.0491-17.893-33.8242-23.776-35.7853-51.718h75.492c0-41.668 0-65.443 0-107.111h71.327v45.5897c2.205 1.9608 8.088 3.9217 15.932 5.8825l-7.844 35.7858h-21.814l-8.089 31.864h21.815l-7.844 39.707c0 5.882-1.961 19.853 0 25.736 3.922 15.932 13.971 21.814 27.697 21.814 19.854 0 37.747-9.804 37.747-9.804l8.088-25.736c-3.921 0-10.049 0-13.971 0s-7.843 0-5.883-10.049l9.805-41.668h21.814l8.089-31.864h-21.815z" fill="#be372f" fill-rule="evenodd"/></svg>