<svg fill="none" height="360" viewBox="0 0 360 360" width="360" xmlns="http://www.w3.org/2000/svg"><path d="m0 132.02c0-46.6982 0-70.0474 9.2321-87.8199 7.7798-14.9767 19.9913-27.1882 34.968-34.968 17.7725-9.2321 41.1217-9.2321 87.8199-9.2321h95.96c46.698 0 70.047 0 87.82 9.2321 14.977 7.7798 27.188 19.9913 34.968 34.968 9.232 17.7725 9.232 41.1217 9.232 87.8199v95.96c0 46.698 0 70.047-9.232 87.82-7.78 14.977-19.991 27.188-34.968 34.968-17.773 9.232-41.122 9.232-87.82 9.232h-95.96c-46.6982 0-70.0474 0-87.8199-9.232-14.9767-7.78-27.1882-19.991-34.968-34.968-9.2321-17.773-9.2321-41.122-9.2321-87.82z" fill="#000"/><g fill="#0090e4"><path d="m311.209 98.3615c-7.673-11.5099-16.114-22.2525-26.089-31.4604-68.292-18.4159-141.956-18.4159-210.2477.7673-9.9752 9.2079-18.4158 19.1832-26.0891 30.6931 83.6388-20.7178 178.7868-20.7178 262.4258 0z"/><path d="m199.182 120.614c9.975-13.812 16.114-23.7873 19.95-28.3913-59.851-4.604-120.47.7673-175.7176 16.1143-3.8366 7.673-7.6732 16.113-10.7425 23.787 52.1782-8.441 109.7281-13.045 166.5101-11.51z"/><path d="m175.398 240.317c-6.139 9.208-13.812 19.183-20.718 29.158 55.247 2.302 111.262-3.069 162.673-16.881 3.837-7.673 7.673-15.347 10.743-23.787-46.04 8.44-96.684 12.277-147.327 12.277-2.302 0-3.837-.767-5.371-.767z"/><path d="m193.812 128.287c-56.014-.767-112.0293 3.069-163.4402 13.045-1.5347 6.906-3.0693 13.812-3.8366 21.485 46.0396-3.069 96.6828-4.604 148.0938-4.604 6.906-11.51 13.045-21.485 19.183-29.926z"/><path d="m148.542 277.149c-8.441 11.509-16.114 22.252-20.718 26.856 52.178 6.906 105.891 3.069 156.535-10.743 9.975-9.208 19.183-19.95 26.089-31.46-41.436 10.743-85.941 16.114-130.446 16.114-10.742 0-20.717 0-31.46-.767z"/><path d="m269.777 55.3911c-25.322-17.6485-56.015-28.3911-89.777-28.3911s-64.456 10.7426-89.7773 28.3911c59.0843-13.8119 120.4703-13.8119 179.5543 0z"/><path d="m205.32 195.045c44.505-.768 88.243-1.535 128.911-4.604v-9.976-9.975c-35.297-2.302-72.129-3.836-110.495-3.836-6.138 9.207-11.51 17.648-18.416 28.391z"/><path d="m229.105 158.213c36.065.767 71.362 2.302 105.124 3.837-.767-6.906-2.302-14.58-3.836-21.486-26.857-4.604-54.481-8.44-82.872-9.975-7.673 10.743-13.812 19.951-18.416 27.624z"/><path d="m168.491 165.886c-29.926 0-59.085.767-88.243 1.535 3.0694 6.138 8.4406 16.881 13.8119 26.089 18.4161.767 36.8321.767 55.2471 1.535 6.139-8.441 12.278-18.416 19.184-29.159z"/><path d="m99.4316 201.95c0 .768.7674 1.535.7674 1.535 4.604 7.673 9.975 15.347 13.812 21.485 1.535 1.535 2.302 3.837 3.069 5.371 2.302 3.837 4.604 6.139 4.604 6.139s1.535-2.302 3.837-6.139c.767-1.534 2.302-3.069 3.836-5.371 3.837-5.371 8.441-13.044 14.58-22.252-14.58 0-29.926 0-44.5054-.768z"/><path d="m180.766 232.643c51.411 0 102.054-4.603 148.861-13.044 1.535-6.906 3.069-13.812 3.837-21.485-42.203 2.302-87.476 3.836-133.515 4.604-4.604 8.44-11.51 18.416-19.183 29.925z"/><path d="m54.1548 200.416c-9.208-.768-19.1832-.768-28.3911-1.535.7673 6.906 2.302 14.579 3.8366 21.485 12.2772 2.302 24.5545 3.837 37.599 6.139-5.3713-9.975-9.2079-19.183-13.0445-26.089z"/><path d="m92.5217 262.569c-7.6733-9.975-12.2773-16.114-19.1832-27.624-13.8119-1.534-26.8564-3.836-39.901-6.138 3.0693 8.44 6.1386 16.114 10.7426 23.787 16.1138 4.604 32.995 7.673 49.8762 10.743-.7673-.768-1.5346-.768-1.5346-.768z"/><path d="m100.194 272.545c-17.6484-2.302-34.5296-6.139-51.4108-9.976 7.6733 11.51 16.1139 22.253 26.0891 31.461 16.1139 4.604 32.9947 8.44 49.8767 10.742-9.976-13.044-17.649-23.019-24.555-32.227z"/><path d="m90.2227 305.539c25.3213 17.649 56.0153 28.392 89.7773 28.392s64.455-10.743 89.777-28.392c-29.158 6.906-59.851 9.976-89.777 9.976s-60.619-3.07-89.7773-9.976z"/></g></svg>