<svg fill="none" height="360" viewBox="0 0 360 360" width="360" xmlns="http://www.w3.org/2000/svg" xmlns:xlink="http://www.w3.org/1999/xlink"><radialGradient id="a" cx="0" cy="0" gradientTransform="matrix(161.00029257 158.50036901 -158.50036901 161.00029257 180 180)" gradientUnits="userSpaceOnUse" r="1"><stop offset="0" stop-color="#82cd27" stop-opacity=".15"/><stop offset=".318816" stop-color="#54c4a6" stop-opacity=".15"/><stop offset=".702672" stop-color="#a5aadc" stop-opacity=".15"/><stop offset=".906302" stop-color="#77b5e6" stop-opacity=".15"/></radialGradient><path d="m0 132.02c0-46.6982 0-70.0474 9.2321-87.8199 7.7798-14.9767 19.9913-27.1882 34.968-34.968 17.7725-9.2321 41.1217-9.2321 87.8199-9.2321h95.96c46.698 0 70.047 0 87.82 9.2321 14.977 7.7798 27.188 19.9913 34.968 34.968 9.232 17.7725 9.232 41.1217 9.232 87.8199v95.96c0 46.698 0 70.047-9.232 87.82-7.78 14.977-19.991 27.188-34.968 34.968-17.773 9.232-41.122 9.232-87.82 9.232h-95.96c-46.6982 0-70.0474 0-87.8199-9.232-14.9767-7.78-27.1882-19.991-34.968-34.968-9.2321-17.773-9.2321-41.122-9.2321-87.82z" fill="url(#a)"/><g clip-rule="evenodd" fill-rule="evenodd"><path d="m279.321 201.812c.393-7.291.593-14.648.593-21.873 0-7.236-.2-14.592-.593-21.883 7.471.376 14.83.789 21.932 1.255.448 6.881.668 13.813.668 20.628 0 6.801-.22 13.744-.668 20.618-7.102.462-14.458.889-21.932 1.255zm-19.742 89.652c2.306-6.785 4.406-13.91 6.267-21.218-10.848 2.554-22.179 4.643-33.748 6.195-.748 7.318-1.6 14.54-2.52 21.503 10.262-1.651 20.335-3.83 29.998-6.477zm-38.602 39.456c1.751-9.149 3.354-18.901 4.761-29.073-7.226 1.047-14.62 1.861-22.025 2.406-.717 10.755-1.537 21.045-2.437 30.659 6.636-.91 13.251-2.251 19.698-3.992zm-140.8808-150.978c0-7.235.2034-14.592.5963-21.882-7.4632.375-14.8299.789-21.9312 1.254-.4481 6.881-.6687 13.813-.6687 20.628 0 6.802.2206 13.745.6687 20.618 7.1013.462 14.4646.89 21.9312 1.255-.3929-7.291-.5963-14.647-.5963-21.873zm123.4868 53.267c.213-8.477.382-17.167.489-25.892-8.049.089-16.136.138-24.068.138-7.933 0-16.02-.049-24.069-.138.107 8.728.269 17.419.483 25.892 7.825.176 15.757.269 23.586.269 7.828 0 15.76-.093 23.579-.269zm25.512-146.8551c-7.77-.9859-15.743-1.7374-23.758-2.2442.603 12.6824 1.093 25.9093 1.448 39.3673 8.508.214 16.981.545 25.247.972-.72-12.961-1.709-25.7678-2.937-38.0951zm-101.182-2.9129c.755-7.3323 1.603-14.5507 2.519-21.5037-10.258 1.6477-20.345 3.8263-29.997 6.4738-2.2961 6.7841-4.4023 13.8992-6.2673 21.2176 10.8483-2.5681 22.1793-4.6503 33.7483-6.1877zm75.676 43.235c-7.839-.183-15.771-.276-23.579-.276-7.814 0-15.74.09-23.585.276-.214 8.463-.376 17.153-.483 25.882 7.97-.086 16.057-.135 24.068-.135 8.008 0 16.099.049 24.069.135-.107-8.722-.276-17.419-.49-25.882zm-137.7953 135.379c-8.7215-3.03-16.9948-6.408-24.6511-10.079 4.0298 7.749 8.7318 15.195 14.0336 22.196 5.4191 2.765 11.1483 5.371 17.0844 7.777-2.3889-6.439-4.5572-13.113-6.4669-19.894zm239.0473-176.3526c-5.419-2.7578-11.148-5.3604-17.077-7.77 2.382 6.4359 4.553 13.1063 6.463 19.8939 8.722 3.0227 16.995 6.4087 24.655 10.0827-4.037-7.756-8.739-15.2019-14.041-22.2066z" fill="#54c4a6"/><path d="m301.935 225.694c1.055-7.243 1.865-14.637 2.41-22.018 10.731-.72 21.025-1.544 30.656-2.437-.903 6.636-2.244 13.241-3.985 19.694-9.132 1.744-18.904 3.347-29.081 4.761zm-10.379 33.841c2.658-9.662 4.826-19.742 6.484-30.005-6.97.921-14.189 1.759-21.507 2.52-1.545 11.573-3.634 22.9-6.195 33.749 7.319-1.862 14.441-3.961 21.218-6.264zm-62.429 14.01c1.227-12.317 2.216-25.12 2.937-38.092-8.288.424-16.761.758-25.251.972-.352 13.451-.841 26.685-1.448 39.367 8.018-.507 15.992-1.265 23.762-2.247zm-105.565-66.801c-13.506-.355-26.7294-.841-39.3566-1.447.5068 8.011 1.2583 15.991 2.2373 23.754 12.3341 1.228 25.1333 2.224 38.0953 2.934-.431-8.277-.752-16.75-.979-25.241zm32.763 97.533c-7.405-.555-14.799-1.355-22.025-2.41 1.417 10.169 3.01 19.932 4.761 29.081 6.446 1.744 13.055 3.075 19.691 3.981-.9-9.604-1.707-19.894-2.427-30.649zm135.227-203.879c-6.791-2.3066-13.909-4.4197-21.217-6.2674 2.561 10.8484 4.646 22.1794 6.194 33.7444 7.319.752 14.541 1.6 21.504 2.524-1.651-10.263-3.826-20.342-6.481-29.998zm-70.547-71.4061c-6.446-1.7512-13.065-3.0887-19.701-3.9919.9 9.6074 1.717 19.9111 2.437 30.6596 7.395.5446 14.785 1.3513 22.025 2.3993-1.417-10.1659-3.013-19.9319-4.761-29.067zm-165.2874 127.2681c.5447-7.394 1.3616-14.785 2.4096-22.028-10.159 1.42-19.9249 3.02-29.0773 4.761-1.7443 6.449-3.0784 13.065-3.9815 19.701 9.6212-.9 19.9214-1.71 30.6492-2.434zm67.8414-3.079c.227-8.483.548-16.967.979-25.237-12.958.717-25.7577 1.703-38.0953 2.927-.979 7.777-1.734 15.757-2.2373 23.762 12.6823-.604 25.9056-1.093 39.3566-1.455zm77.097-94.4603c-6.877-.4516-13.81-.6722-20.618-.6722-6.812 0-13.744.2206-20.631.6722-.452 7.1013-.876 14.4646-1.248 21.9347 7.28-.393 14.637-.5964 21.879-.5964 7.243 0 14.589.2034 21.88.5964-.373-7.4701-.797-14.83-1.259-21.9347zm-102.7237 235.4593c-6.7842-1.91-13.458-4.075-19.9043-6.464 2.4062 5.929 5.0157 11.659 7.7804 17.078 7.0013 5.301 14.4506 10.007 22.1966 14.04-3.675-7.656-7.06-15.929-10.0727-24.654zm176.3387-239.0513c-7.004-5.3018-14.447-10.0038-22.196-14.0336 3.671 7.6632 7.053 15.933 10.072 24.6545 6.774 1.9029 13.458 4.0677 19.905 6.4635-2.41-5.9292-5.016-11.655-7.781-17.0844z" fill="#77b5e6"/><path d="m89.5146 265.836c-7.3116-1.872-14.4335-3.971-21.2108-6.267-2.6509-9.659-4.8261-19.742-6.4738-29.997 6.9633.917 14.1853 1.758 21.5037 2.519 1.5375 11.569 3.623 22.897 6.1843 33.749zm62.7984-85.832c0-7.973.041-16.061.134-24.075-8.663.106-17.353.275-25.882.489-.182 7.836-.275 15.757-.275 23.586 0 7.818.093 15.743.275 23.586 8.508.214 17.198.376 25.882.479-.093-8.011-.134-16.095-.134-24.065zm48.143 121.242c.459-7.101.883-14.468 1.252-21.938-7.301.4-14.654.596-21.88.596-7.232 0-14.578-.2-21.886-.596.383 7.47.793 14.833 1.255 21.938 6.887.452 13.82.669 20.631.669 6.809 0 13.744-.214 20.625-.669zm72.957-170.337c-12.337-1.221-25.144-2.217-38.095-2.927.431 8.273.752 16.75.972 25.24 13.458.356 26.678.845 39.361 1.441-.507-8.007-1.259-15.988-2.238-23.754zm-117.291-75.2187c.72-10.7519 1.534-21.0522 2.43-30.6561-6.636.9066-13.248 2.2441-19.701 3.9849-1.744 9.1421-3.351 18.9046-4.76 29.0808 7.242-1.0548 14.636-1.8684 22.027-2.4096zm148.537 218.5507c5.302-7.002 9.997-14.458 14.034-22.197-7.657 3.664-15.933 7.05-24.651 10.073-1.907 6.784-4.078 13.458-6.467 19.89 5.936-2.409 11.658-5.009 17.084-7.77zm-239.0475-176.3533c1.9063-6.7841 4.0781-13.4579 6.4636-19.8973-5.9361 2.4096-11.662 5.0088-17.0844 7.7734-5.2915 7.0048-10.0039 14.4472-14.0337 22.1972 7.6632-3.672 15.9331-7.05 24.6545-10.0733z" fill="#a5aadc"/><path d="m235.463 231.981c.424-8.277.748-16.75.969-25.247 13.513-.348 26.74-.838 39.364-1.448-.507 8.011-1.262 15.992-2.241 23.762-12.331 1.227-25.127 2.216-38.092 2.933zm-2.227-28.439c.179-7.839.269-15.761.269-23.583 0-7.832-.09-15.75-.269-23.586-8.528-.213-17.222-.382-25.881-.489.079 8.011.127 16.095.127 24.075 0 7.97-.048 16.05-.127 24.069 8.669-.107 17.363-.269 25.881-.483zm-177.5799.127c-10.7277-.72-21.0211-1.534-30.6561-2.43.9032 6.636 2.2442 13.241 3.9885 19.694 9.1316 1.748 18.8976 3.34 29.0807 4.76-1.0549-7.242-1.8684-14.636-2.4131-22.024zm72.2229 72.798c-11.569-1.547-22.903-3.636-33.7484-6.198 1.8615 7.315 3.9643 14.434 6.2674 21.218 9.662 2.648 19.735 4.833 29.997 6.474-.92-6.953-1.772-14.179-2.52-21.494zm25.309-40.042c-8.49-.214-16.967-.545-25.251-.973.721 12.969 1.71 25.768 2.937 38.096 7.771.979 15.744 1.737 23.759 2.244-.604-12.689-1.093-25.909-1.441-39.367zm177.756-97.44c-9.149-1.747-18.915-3.347-29.074-4.76 1.048 7.249 1.869 14.63 2.41 22.024 10.731.721 21.028 1.538 30.649 2.437-.903-6.636-2.24-13.247-3.988-19.701zm-71.409-70.5469c-9.656-2.6509-19.739-4.8261-29.998-6.4807.914 6.9565 1.765 14.1749 2.524 21.5037 11.565 1.5443 22.903 3.6265 33.745 6.1877-1.869-7.3115-3.972-14.4266-6.267-21.2107zm-176.0667 59.4369c1.5444-11.576 3.6196-22.907 6.1809-33.7482-7.2978 1.8546-14.4163 3.9643-21.2073 6.2632-2.6509 9.663-4.8261 19.736-6.4774 30.005 6.9634-.927 14.1854-1.772 21.5038-2.52zm69.7197-4.374c.352-13.458.841-26.6922 1.441-39.3677-8.011.5068-15.988 1.2583-23.758 2.2442-1.227 12.3238-2.217 25.1235-2.937 38.0955 8.263-.431 16.74-.759 25.251-.972zm121.005 181.299c2.764-5.429 5.37-11.155 7.78-17.091-6.446 2.396-13.117 4.564-19.894 6.463-3.023 8.729-6.408 16.999-10.083 24.662 7.742-4.03 15.195-8.735 22.197-14.034zm-176.3394-239.0576c3.0194-8.7215 6.3984-16.9914 10.0724-24.6511-7.742 4.0298-15.1881 8.7387-22.1963 14.0336-2.7647 5.426-5.3708 11.1552-7.7804 17.081 6.4463-2.3889 13.1236-4.5538 19.9043-6.4635z" fill="#82cd27"/></g></svg>