<svg fill="none" height="360" viewBox="0 0 360 360" width="360" xmlns="http://www.w3.org/2000/svg"><path d="m0 132.02c0-46.6982 0-70.0474 9.2321-87.8199 7.7798-14.9767 19.9913-27.1882 34.968-34.968 17.7725-9.2321 41.1217-9.2321 87.8199-9.2321h95.96c46.698 0 70.047 0 87.82 9.2321 14.977 7.7798 27.188 19.9913 34.968 34.968 9.232 17.7725 9.232 41.1217 9.232 87.8199v95.96c0 46.698 0 70.047-9.232 87.82-7.78 14.977-19.991 27.188-34.968 34.968-17.773 9.232-41.122 9.232-87.82 9.232h-95.96c-46.6982 0-70.0474 0-87.8199-9.232-14.9767-7.78-27.1882-19.991-34.968-34.968-9.2321-17.773-9.2321-41.122-9.2321-87.82z" fill="#2c4592"/><g fill="#fff"><path d="m38.2249 236.948c-1.7916-.239-3.2249-.956-3.2249-1.553s2.1499-19.707 4.6582-42.521c2.6277-22.813 4.6582-42.162 4.6582-43.118 0-1.314 2.8666-1.552 15.5273-1.194 8.4803.239 16.005.955 16.6022 1.433.5972.597.2389 8.122-1.0749 18.633-1.1944 9.675-1.7916 17.916-1.4333 18.274.3583.359 3.7026-5.016 7.4053-12.063 3.7027-6.928 8.2414-15.408 10.1525-18.752l3.4638-6.092h8.3607c9.078 0 39.416 2.031 40.013 2.508.239.239 1.194 7.764 2.269 16.722 2.15 18.991 2.628 21.619 3.942 21.619.477 0 1.552-2.27 2.388-5.017.837-2.747 3.345-11.108 5.614-18.752l4.181-13.736h33.443l-1.672 5.614c-.956 3.106-7.047 21.619-13.736 41.207-10.869 32.249-12.302 35.594-14.93 36.31-1.553.478-11.227.836-21.38.956-13.974.119-18.394-.239-18.394-1.314 0-.836-1.552-16.244-3.463-34.16-1.912-17.916-3.464-33.444-3.464-34.16 0-4.539-3.583 1.911-19.3497 34.16l-17.4383 35.713-19.9466-.12c-10.9885-.119-21.3799-.358-23.1715-.597z" opacity=".98"/><path d="m45.5059 138.888c0-.955.5972-6.808 1.3138-12.899l1.3139-10.989h17.3188c15.7662 0 17.3189.239 17.3189 2.03 0 1.434-2.6276 19.708-3.4637 23.411 0 .119-7.6442.239-16.9606.239-14.4523 0-16.8411-.239-16.8411-1.792z" opacity=".98"/><path d="m104.983 130.409c2.986-5.614 5.972-11.108 6.689-12.183.955-1.553 3.702-2.03 13.974-2.389 12.78-.477 12.9-.358 14.214 2.509.716 1.552 1.672 7.285 1.911 12.541l.597 9.675h-42.9989z" opacity=".98"/><path d="m166.977 140.083c-.359-.358.955-5.853 2.986-12.302l3.583-11.706h17.319c9.555 0 17.319.359 17.319.837 0 .477-1.672 5.972-3.703 12.302l-3.702 11.466h-16.483c-9.317 0-17.08-.239-17.319-.597z" opacity=".98"/><path d="m181.557 236.95c-1.433-.239-2.627-.836-2.627-1.314 0-.477 6.091-19.11 13.616-41.565l13.616-40.729 16.005.716c22.455.956 28.547 1.673 27.949 3.345-1.194 3.225-12.421 40.251-13.019 43.357l-.716 3.344 9.674-.597c16.483-1.075 24.008-4.181 34.041-14.453 7.047-7.166 11.347-16.005 12.183-24.963.597-6.091.239-7.644-2.389-12.063-1.791-3.106-4.897-6.211-8.002-7.883-5.017-2.867-5.734-2.867-35.474-3.225-16.722-.239-31.533-.597-32.966-.956-2.508-.597-2.508-.597 1.433-12.541l4.061-11.944 41.088.358 41.088.359 6.927 3.463c14.214 7.167 21.977 18.514 22.813 33.802.717 11.825-1.194 20.305-7.644 33.085-4.419 8.958-7.286 12.661-16.602 21.977-18.991 18.991-34.041 26.158-59.482 27.949-14.93 1.195-60.556 1.434-65.573.478z" opacity=".98"/></g></svg>