<svg width="360" height="360" viewBox="0 0 360 360" fill="none" xmlns="http://www.w3.org/2000/svg">
<rect width="360" height="360" rx="82" fill="url(#paint0_radial)" fill-opacity="0.15"/>
<path fill-rule="evenodd" clip-rule="evenodd" d="M312.853 126.14C319.874 133.16 325.444 141.494 329.244 150.667C333.044 159.84 335 169.672 335 179.6C335 189.529 333.044 199.361 329.244 208.534C325.444 217.706 319.874 226.041 312.853 233.061C298.667 247.235 279.434 255.197 259.38 255.197C239.327 255.197 220.094 247.235 205.908 233.061C176.385 203.538 176.385 155.662 205.908 126.14C212.923 119.122 221.252 113.555 230.418 109.756C239.585 105.958 249.41 104.002 259.333 104C269.271 103.993 279.114 105.946 288.297 109.746C297.481 113.546 305.825 119.12 312.853 126.148V126.14ZM291.459 147.549C299.962 156.06 304.739 167.598 304.739 179.628C304.739 191.659 299.962 203.197 291.459 211.707C282.949 220.21 271.411 224.987 259.38 224.987C247.35 224.987 235.812 220.21 227.302 211.707C218.798 203.197 214.021 191.659 214.021 179.628C214.021 167.598 218.798 156.06 227.302 147.549C235.812 139.046 247.35 134.269 259.38 134.269C271.411 134.269 282.949 139.046 291.459 147.549ZM100.662 104C110.585 104.003 120.411 105.96 129.577 109.76C138.744 113.56 147.072 119.129 154.087 126.148C183.617 155.662 183.617 203.546 154.087 233.061C139.901 247.235 120.668 255.197 100.614 255.197C80.5607 255.197 61.3276 247.235 47.1419 233.061C17.6194 203.538 17.6194 155.662 47.1419 126.14C54.1569 119.122 62.4856 113.555 71.6522 109.756C80.8189 105.958 90.644 104.002 100.567 104H100.662ZM132.693 147.534C141.199 156.044 145.977 167.584 145.977 179.616C145.977 191.649 141.199 203.189 132.693 211.699C124.183 220.202 112.645 224.979 100.614 224.979C88.5838 224.979 77.0456 220.202 68.5356 211.699C60.032 203.189 55.2553 191.651 55.2553 179.62C55.2553 167.59 60.032 156.052 68.5356 147.542C77.0456 139.038 88.5838 134.261 100.614 134.261C112.645 134.261 124.183 139.038 132.693 147.542V147.534Z" fill="#2D8CFF"/>
<defs>
<radialGradient id="paint0_radial" cx="0" cy="0" r="1" gradientUnits="userSpaceOnUse" gradientTransform="translate(180 180) rotate(90) scale(180)">
<stop stop-color="#A8C1DF"/>
<stop offset="1" stop-color="#2D8CFF"/>
</radialGradient>
</defs>
</svg>
