<svg width="12" height="13" viewBox="0 0 12 13" fill="none" xmlns="http://www.w3.org/2000/svg">
<path fill-rule="evenodd" clip-rule="evenodd" d="M5.9962 0.990216C5.81064 0.989439 5.62482 1.06471 5.49132 1.21599L0.831305 6.49704C0.589046 6.77158 0.617422 7.18861 0.894684 7.42849C1.17195 7.66838 1.5931 7.64028 1.83536 7.36574L5.33334 3.40159L5.33334 12.2124C5.33334 12.577 5.63181 12.8726 6 12.8726C6.36819 12.8726 6.66667 12.577 6.66667 12.2124L6.66667 3.41288L10.1653 7.36644C10.4079 7.64064 10.8291 7.66815 11.106 7.42788C11.3829 7.18761 11.4107 6.77054 11.1681 6.49634L6.55174 1.27968C6.4318 1.10497 6.22944 0.990206 6 0.990206C5.99874 0.990206 5.99747 0.99021 5.9962 0.990216Z" fill="#FE7C6F"/>
</svg>
