<svg width="91" height="34" viewBox="0 0 91 34" fill="none" xmlns="http://www.w3.org/2000/svg">
<path fill-rule="evenodd" clip-rule="evenodd" d="M0.783508 11.8544C0.783508 11.8544 6.48143 16.168 10.4573 15.3313C14.4331 14.4947 17.3671 9.42224 21.2534 9.42224C25.1398 9.42224 28.5795 10.6698 33.4262 7.89961C38.2729 5.12937 39.0736 1.32166 44.9075 1.32166C50.7415 1.32166 58.2416 9.49777 66.0689 3.2466C73.8961 -3.00457 90.3284 8.39446 90.3284 8.39446V33.1716H0.783508V11.8544Z" fill="url(#paint0_linear)"/>
<path d="M0.783508 11.812C0.783508 11.812 6.48143 16.1256 10.4573 15.289C14.4331 14.4523 17.3671 9.37985 21.2534 9.37985C25.1398 9.37985 28.5795 10.6275 33.4262 7.85722C38.2729 5.08698 39.0736 1.27927 44.9075 1.27927C50.7415 1.27927 58.2416 9.45539 66.0689 3.20421C73.8961 -3.04696 90.3284 8.35207 90.3284 8.35207" stroke="#FE7C6F" stroke-width="1.3"/>
<rect x="89.5449" y="7.66412" width="1.4551" height="1.28725" rx="0.643627" fill="#FE7C6F"/>
<rect y="11.1199" width="1.4551" height="1.28725" rx="0.643627" fill="#FE7C6F"/>
<defs>
<linearGradient id="paint0_linear" x1="231.726" y1="17.8067" x2="231.726" y2="-51.9426" gradientUnits="userSpaceOnUse">
<stop stop-color="white"/>
<stop offset="1" stop-color="#FE7C6F"/>
</linearGradient>
</defs>
</svg>
